<mxGraphModel dx="1994" dy="914" grid="1" gridSize="10" guides="1" tooltips="1" connect="1" arrows="1" fold="1" page="0" pageScale="1" pageWidth="827" pageHeight="1169" math="0" shadow="0"><root><mxCell id="0"/><mxCell id="1" parent="0"/><mxCell id="156" value="" style="whiteSpace=wrap;html=1;strokeColor=none;" parent="1" vertex="1"><mxGeometry x="-620" y="220" width="960" height="690" as="geometry"/></mxCell><mxCell id="157" value="" style="shape=image;verticalLabelPosition=bottom;labelBackgroundColor=#ffffff;verticalAlign=top;aspect=fixed;imageAspect=0;image=data:image/png,iVBORw0KGgoAAAANSUhEUgAAAggAAADYCAYAAACOXRtlAAAAAXNSR0IArs4c6QAAIABJREFUeF7sfQecVNX1//e9qVtYOkjvvShNQOkgSu9FAbFFbDGJvaWb8kvURGOJ+UVpglKVJiCwNOnSQeltKbsL7NK2TXnv/znn3jvzZubN7iyCvyT/vESF3Zn33r333HO+53vK1fxmwDQB0D/WSwOgR/3s/5u/Rk/GzRg4TfC/+WWaZozc3Mgh0RT9B0wTT8nNFqmbff8bua7/1/f6T5Cp/6534lL0g6x3KReE30kr5ZuV8uOJz1D8T2oKIER/5HqUs1bKSboRA7jh97jJRk+9r1Za4bjhA/3+NzR/AIH9AR7x/SeiuDuYAuTc7K3B9/+3n6ybuxQKqf0nTNN/1ztBWZEb719uzdktT/yiT99sm2EnUyGAYEZpFzGhpZtWrZSDTnx6fthPkmd8My+N5rV0U1vq17nJt2eD94MAhJu7FKWe1+v5Aq23fhMXRE3Rf8BUXc/0/vc7/52B/9MZUFv7Jm5xoW9vsl0ypYdvHYcWMILm5fwC5Fy9Bnq+LrWMkaCHyy/N34mGGP+na/Y9Hm7yPPy7Xz/EEEhEbuamUB7fv/1aaDefQfiPYO/+3Rf6v+//LzkDP4QjU9qBc/i+lC8mnIyboXFFkoEGE2XLpKJsWir/mZ/mMwxzy4Ej+OeCpQgU+RggKErUSOBdTCNsivimN9My/QCKVhilmzmIH4BvjpK9mzEaWmsSWGZDbuJ1M979Jr6u7a1JD9xs9P9fgJD4qt5ciU38Pb7PJ/8T9sX3Gf+/2ndLZevZxpZOComd1xN02ks9N9LgJ6MIA3p2Qb+ePaHBCAOEFXsO4uUPp6BG5VvgdToli6AwhGAHENJAykpbBij/GP7JzRFfgXNu9nWTQQ5jQHvxiEj5s4AhmnoNDonqomaAjY9co9DUiJVQlFFC8co4ExtfjM1ik1jtv0cvq2iH4ojx7ylJpdl7xQnUDbK6Yv5L81LxZDz+y9LdbZ9Qyg0TKStRgcZS3ktomNgvxb2N+kXcqbL7plVPhefNbj5KvH0x0277SnE8uuJSd+MNrTRTK/R56eUp3nsVfye735bmbdWklv59r0fTx3vKzXz69cyGUNkJvJXFtuoRdsP61OKlKkb/055kr0XoJYoW5OXn4eLx/XhoaH88MGIUdM0CENJ3f4vXP/4EY4aMRLPa9eAyDMDUYYSEMAhoQbleOv9OqCPNkjhhwFDmm59tZRauZ6lvzHcSWIKIB4k8ChulFudGGplJXujEnxTPYBuaCVMTs0jsDb+JBjiCOryGS9oYigMZ/Gf6x6QFNgwwk6MplCnfpVRMSByVQ8jVRh2pWaLnR1/i3aJ/rgGGEzocMElSSJ5orFEGRDM16KYFQoXATyLza8JQopmo+PCz7C6aT7FJYq44G5vWz/5mGmhc3/8yoel23kdx7wohG7GrFNq/ETkxUqZCat3y3rQupblYB8QBCEI/CTAeejvTFHIT8xg1PjuwocHUwqpTibzOcht5ideXGydEopY0IhMOQ9CvkRc9l+4VW+tFMh3UY2WH5k+FcONIXLxlEj+XnqeYUiG3cUUu6k5Kt8QVdVsJ0UEzG32RjrJ31ULEtI20xdGR18FCko6Ofitmu0sd8iytsjBs5VmsS3GX+q3FJtrYDKXvrXdS+4H0B0fz1b5RwIHTAsRf1N2FeLAVYf2q7In6jIPsBDT4/QYcbjeCDg3rt27GghnTcO/A/niQAQLZewNakRE0V+/Yh999PAMTR41Fs1r14PIHpfA5xLtqfmghZanDNOTP6TFy05HSDyuDm1P+Vjr1JF+9tPCOJzYWnRWfQVq6glAl3tHjMXUCCDyTLAgBeVvd0OEwaa6J+DEYPGjycwEziEAgKChsaZRDeSGlGHukiIVFlH7uiAM0AqziYx8iRCJ2tRwkN6ZTAgMSXgJDElYKtANSSREAQW2EBBZfbYz4diz2JhxSi2s/GWLHKkjbeTVh2AAetVd1G0NSvGmyM4YCENpf9sqL59JGgQnwbwX44bsqZUvrEXqaNE7FGTgbqyCJysjfCOAAEaLiwCq9R0mzQXJiB9zDppuBsgQc9J4OBREs9+a9p0kAmkDIku7uNE04bLJMaQ7tYHVcOaDS8Thx2/jrqubIAhDUVJFxKH7aQr/lXWYRdPHeYj7jJZfT/MXCZ+HEMBiORQ5xi+NJd1nfNTwN8TSP/cDYWYmjjywuasmzwq9PrKwNwIvLUxvQYz4u9lekxox8fITtsGwoOxzM68FfF86ex+Vi2dN1J/1EUP8s5EHpQdL62W0eeqlgyMmk9RJzbsJBhp+RhgMB3QHN68aazV/js6lTMWbAADw4ckQYIPiMAAOE3380A/ePuhfNa9eD0x+EMyheJ2gacNJuY0RML+ewAIRIT9Ge7BPe8I24WJWUwuiJZ5bu4Up5qfe9GaUlvOlI+UZpRYHyTehOB4KaCV8wyAZBczphOnQQGLh87SrOZWXj/IXzyL2Si2sF+Sjy+eEP+GEYQqjovmY8kB9nIezQq1Ae4cTViK8W47pwf4SodaJVUMZKoWBGt4xwpZGg7UpAiDctSZP4PYGhxK/ShohMkLcZe5EqUkA4RhPafF4ABFsBZQ808ioZQsd6oCQL9E72s0HPthlFPAAkVFDsF4joiVZ3EmCoVUo00KfWNeYhtKYkDwQSdAF8hdGWuRpR66FUXdw8DhqGCQRNE4YUfJIhNR2CIQn/jfdeomUlpgkn7ckYZKRYrshJF+6FkNvoS+mvWFkoJmRAm0UyQFZ9wfeXHnMiu0OsnbgEiAr9jX9gpyXtQqFCT5jQ7LaGqcMMxjFWIQZavkNINYu1SWQMQh8JRvP7X6SD4zEI0U6ifFocTyL8Njb7Key3yWWUoAzCQ4+8NDgs+tap60hJ9qB8WhoqV62G6jVqo0LZNJRLSYFbJ0fdgBEgJpaqpGjuxf2EqNKaCoCgAL9gpUmDBEMAIagpgLABM6ZPwyhiEEYODwMEfzBgriGA8PEM3D9yLJrXrs8AQShNMjg6NN2AYfh4UwUCBlwOLwLBAHutDoZUQlJtxawUKDehRY8nG3LD33CDriiwuDiDlyChV1cf4nli1Bc5GIoFOVwuwR7ARKERwJWiAmRfysGJsxk4fuokMrMy4fMVAIYPuhNwJ3uQkpIEF4EIEzAMJTBqB4sXj1AQtuZN6KHo6RU+kp23QPg7tMvj3DFK/KXg8n94CiLNJKFa8T9HmLqV8x4PwFifwGM04mR4xAkXaCb5gXbr54BpuuOsa8AGCNBd7ChnMlqllxF7mSJvhWbdzsTYI0KejbiUilUqwoo7BOgj6F9pkFhJxsqu3UQJltPOUEqvy+LJK/Bhu735RrQjYi9OaSFlKcEBsQjiipYDMWdC9uIBv9j7czIuKVSbZ4u1iL6XNC7Fhqds1s8KQCzzznR6aODh71kdmTjmLOKNIwGCZSZD7FJsKW44fBo5eJIPuyo3xiy2C0jgVYWow3ImJlVol0SjV8LJsFkNNvbOOPs1nrcUx5jEsMjFqXfp4PAr2axEKOcqHFJTo7Ybh1V/GUED1/LykVdQJACu7kBSUgrq1qqNRvXqoW6NaqhepQpcxE4GyJF38Pw7SfYN0kbkYEpNwmsWHyCs3rwBMz6ZhpHRACEQCJhrdioGYSxa1CKAEBAGJQSIgvD5C3DgwHcoLPSjbZv2jPx5oIrW5r/FYrvQvBU3xwn+LladWb4oY5exACHW5CX4uKgNFi/AVUz8t5gHKSpUhAPEOxq6Aw6PBwVBP7Iu5+B0dib2HfoOR08dRUArQlKyG5UrVUCN6lVRuVI5pCR74fZ64Xa74XSSkhQeGM+T5hC195JREMwC5UvYhwVIBRq2u1QImp2C1O0QhfSg7A2GGKdQCJGrGZYT8Z6snETAvRQehvCJ7WhR282r1FMwUnmJd6T1pryPWGVuDyhoA5J3L/eFjRktiUa3zlk8HCwMro2BiRMXVqArZj34NjY7ypL7In5r9YpkKCDBgQiDESs5bHTZ05eX8iDJmZDrHfm+dCNao8hZEcae1omMtABiIYDAykuhy6hx0l5QKLVEZSAAckyESBpWEcYgxkyAXbmTbUG1+J3dThLKVskayb/Qr/Se4TEryMM7mEOKYVkomZESa8F3s849Mzkypyk65BTHcgtzawuZWF5ifxNrOMNiQbkccaU9ZnWEPMuLHRopRwQQyBu2Xc84DlwUaAl9NR6zYMm9E58VayBGF5+qs9ch9nktTNKrIQHMDl++moerV/Jw7lw2MrPPI+v8ReTn5cPjcaNRvfpo27IlalevifJlysBpanDTPAQNaIZfAAQJEhRzG80g6F43igcIO/bhDx/NxP2jxqIFhRh85IWa0B1EVYvNee3aZfzt3XeQm3MZv/jFb5CakiIUt0XYhGccuUJMd8dJaQlNsmXjCN/EepPwkjPdHW9DK4CgeLfQ5yIJ05J1W6JRPYuUxvMWSlA+YqwSeGgaigwDF65ewYFTx7F1306cvpCJJI8HtepWRZ2GlVGzWmVUrJAKl5PiUiacDheMgI4iX4DpJlIqzPgUo4fsX4lMns4GLvrSEICmFckVFOELnWJi0BivCx0VXi+1WWIUllo7UlIhqlyXVJfJckayxHqPaHS2FLQWeilyQGk2/Rx7i73E/ZQ0KdXq0nW4VCWIRbuYCMLQJTBSw5N5ElxRIi0Ge66GNE4Wo2MFKYoXSbS0KQygokdBsypCCQT4uOwphFsFpRg2uipmHevVCbmjeaX1FGtOzyR6nuafqHrxEzJQEvCwYg6HfxIJ3cULMegIQOd1Es9xOKRxZHBrn48gEuOsgq14LQc03cHvHgwazGyyV8pgTXiUVvujpCCOmbbdHiKfLPIb9FenFoRLF4mVnEtjCa3FI82ViFjNPlHdukZslc4gh34XCBoI8p4OP9dqelX2Az078bEI/RwyqlLX6noATh3MBkcMM16ckvOhiGGT6yH3j2EIvkWAJYsOj0vlx8dLcdW8kNSQLFB8nhgkwlM85yr7nhY9hEKs1VPyqzQ2i0yFElhJPxlOGEGxFmFrJEISZgzglSPlRSiGSWZbqeaEZonkX36e9QrgdDrgcTmlDAtHh/Y47VPdcCHo1+ALBpCVk4tDx09i/+FjOH70OIfAGtVrgHa3tkHzeg1RLqWMSKw1BNMpGB+1owU4FzJDoWwHNI8ACDOnT5UhhogchKC5attu/HHyZ3hgxFi0rFOfAYKqcxdLHURe3hW8885fcOFCDl7/7R+QlJzMUMfpciIYDCBI1DaRPPx38X1yB3TNyRMuJkegLKfLgYCfJkgwEGQYSOHSZ2hD0P10irkzbeISRlQKY4mbIeYD4UWzCz9E/0wpxBJse+SvEwEIFg9D+DPi3waNU9fgc2jYf+QANm7ZiJPnjsFbxoU27ZqjUeP6KFcuBS7WH6SsXYDhhq/AQM7FSzh2+jROnDiBwqKikHLlUINUpvZ8gd3o4s0sbSSxVvT0ypUqoWa16qhXuxaqVEqTxpieRsIofQuLboieX666oDQZpu8J6WrIuZiDk8dO4ty5TFy8mAsKpRGFyd44K/oEL0vmboxppbgpoesgMSWAzzBQpnwK7rz9VjRvUEvIbARAoIoIP28mNpFU1aNReo8TMDyci+M3DORevoKjx44j4/RZ5F6+zPcRatPqtYrky0SMqjDW9jFsZR/LlSuDmtWro07tmqhUsQKSvC44TJ9QOhoZSEWp6pwUR2/CSkIqBqdGpLmOIMWoQGPRkZubg2OnT+HI8ZO4cPFKqPJBMRC0BzlbOqLqo/jdGJ3Pw+/PMVmZOKkZ8Hg03NHpNjSsXxMeJyk1ARDCKQM0b0KZy8wFIYkmeYtOaFoKMrNzcfzUKWScOYOz57PgZ10kPqMu65uGjGqigsU5E5GORmpqCmpVr4Y6NW5BjWqVkZbqga4HYXDymJSZKCEUbIqADiKMQ/Lk4sRd+t+V/HwcOXkCh44fx5ms82wMrHUEEWNQ6jTBraHAmCbzYQT1TMbDhNvjwW3N66Nrh9bwOiRgpDUIGZLYhwRNDX7TKd/fhatXr+HwsWM4npGB7PPnEQiQHMqLDCuiw3VqAAKuJnpRbZ2DjTvYUapRvQbq16uHhg3qw0MsKq7B5SLpDhAlGw4BSY+AnCi2RYbJ8X5ibgzNCZ/uQtB0wl8YxOljJ3D82DGcPHMWBX4/growshRSEmEly9AkYA/xR8VsCcUyiUwigw07/TlAOkV3oGmj+uje+TaU9brUxIktL4G8ScDMQfpQQ8AwUFDox9mzmdi1ay927NoPX5GJNre2RffOd6B+zRpwEeA3wk4OSx87YGK++T4EQJMIIHyNT6dPwagBgyKTFAsNw1y5bRf+NHkWHhgxBq3qNITDR4JpoUC0IPLyr+Ld995GdtZ5/PrXryMlJYUN+alTJ7F162YcPnIEHq8bvXv3RrNmTZGckoRNmzbhm2070b/fUNSrV4+TzWjjFxTmYfr0abil6i24p989KCz04fDhQ9i8eTNyc3NRu3ZN9LmrN2pUrwlddyHgF56F8AwSFaWQdIaVhMUCqNvEgIa4ZW/FPTcRAScvMwxq1XP9GpBbmIfN+3dj/Za1CJgFaNmqIW7vdCsqVS4Dk5S+EYRTd6IoSGg5BTnnC7Bzyx7s2bMfPtOENzkJuqLXQpRXmAlJlMKzn9pIzzTo96OgsBCpyV507dYBzZs1QnKKm1puScMU5Nxg5dcoT5vNnoxdmiYBRg/8BSYOf3cYG1avw5WcSyiTkgoHZeuaGoKMnC0FlgmWbMYbK21gyqtxGjp8mhO5viLkFOahZ5dbMXZwDwQorGYFCIy8A9CCAbj4Fw4E4IKheeAvcuHatQLs2r0H27fv5Bihx5MEh9PJFSVqU0cCAhniSUh8iwlbkULz+1FYlA+nU0PH29vj9o7tUT7FAZeD1oBAgqLjHRIgmAholHBMipMoSB2Gw4VC0wlfkQOnj5/G+vSVyMjMhNPtRZIzSQIaCXRCzIiYIDVNJUk9f86ybmw8DY3DYgX+AIrMIC5dvYA2bZtg+KA+KOMlRkkpRPkkcRNRFsuOAlXCkAJ1Ij/Pj337T2Jl+kbkXr4Eb0oydLfI4bELNIUNVmmUiMqajxwthTKKCvKhmQG0b9sKXe5shyqVyzJIIKm14yFV5jiBHc580ZzQHCkI+DVknj6H9PTV2Lt/H4/D6SLAITiD0F4SUyEvUV6d+EgMGKafjSLtSUo+J91juJw4n3sVVcq58NzTD6JiaqrlIXFWWCOWSUcR3Cgs0rB//2FsXL8Bp89mwun1wOVyslcfnu8wmxMp/irRsiRJCn9LzS3DChMoKiqE3+9H08aN0atbF9SpVwHJSQbMYAEnTOpwysRVIRPkgAqAALhMchYcgCsZ+ZoTWdmXsGb5WuzZthWpXie8yanwmUFO9aPcS910cBJ1JEAIhxaU2Y34QCifxLpSIuHfYQa5QixP8yA3Lx/lyyfj0Qkj0LBWlRgtIbag3H+sF2XCmOaAP6Dh0NHT+HrjduzbdxAVy5TB4HvuQbtWLeF2kkNDuk8kL6pUF+U0+Gk4SS6s3vI1Pp02BaMGDowsc7QFCJSkGHoBkWCSn3+FQwwEEH7zm98yQNi9exfWf70eZdPSOIExM/Mcdu7ciREjhmPw4EH47sB3+N3rf8DwYWMwfPhwjpMTM7tp0wa89dabeOihh9GtWw8sW7YMmefOIa1sGgoLi3DgwH5GoM899yJq16ojaJ0QNZ2Qho35kNAZ4UUSf1QTHv54KcJhpXsRoqJFZaqg2HXh0Z3NycLqTeuw99B+1KpfBW07tEDturfA63VCdxDtHuSKFkKupubF6dMXsOqrDcjJzEXb1m3QomUr1KxRQ2xKRsQW41yKN4wHvDgGyp6EqCq4kn8VhzJOYdM3m5GdmYHWrZqi850dkJZGIEF4r/YAgZaQZoDWkhgQDTu37sGWNRtQNa08+tzRBQ1r10FqUjJT2YJBEN60TP9LbDTxdA3T51Teo+Oqy4N1B49gyqJF6HJ7Y9w35A6Wt4gscebNDOgGAQThiRBACMCN3MsBrFqxGge/PYgmDRqh8+2dccsttyAlmZSruixmtJT12YI+jo25K6/48tWrOJedhe27dmDfgf2oW782+t91J6pVTYNGbE8CAKHI1OF3erF32wFs/Go1ymkOdOx0O1o0bopKXmq1GgkG2DbJIfG6JGCZqPDJrndCwGEiTw/i8PlcfLJgPm6pWQGjBvVBmlfQuuwxEXVsmUohO2QUKQXLi4L8ANas/hrrN+1AjVr10KF9B9SqWQsVypcXYZe4yad0V7s4ub14seqRzq76BP3V7ytCVvY57N2/B7v37kHlSmno178X6tW+BRoDsVhBtAMIQcODEyfPYunC5cjLyUWXtm3RoVVrVEhNhpNLA2UoKQIciBwehb0SWQuheQLCSGgOBDQdBQ4d565cxdTZ81FQeAE/+9lDKFcmNaT744JtAhiaE3lFJrZs24v0VWuRlpSC29t1QKNGTVC+XPlQjlrkrFqFRs6PrGhJbHMr7CIWxef342reNezctQvffLMdSUke3H1PF7RuXR9uJ2X4m3AQ68d7n+SKQhECIJhB4jQoVEhA2YUTWRew7MuvkHHwONo1a4YuHduiSoUKorxVvirJcqh0Nox+Snz1UJ4e30c5SqIaw2FqOFMUxPxVK5CRnYGHxg1Hw9q3FAsQ+C7yXiTsxObA4cHVaz7s3L4X2zZvQ8GVPHRs2xbdu3ZD+XLlQLQsS74sSGReTgOuDyAwg8AEuKCNCSAUXMV7776Dc5nZ+O1vfocyZVJw5uwZBIN+ZgJcbheyzmfjz3/+M7/Iy6+8jNSUVPz617+F32fimWeeQdWqleELFOJv77yNo8eO4tVXfo4KFSrh7NmzqFSpEtLSynAMfe261Xj3vXfxwMSH0L/fQEETsfedeDmMnWDaVziEFSGjdQlN4+k//rWkfUqUDMsHAjIEQ2rO7yRqx8SJsyfw9ZZ1OJpxBI2aNkDnLu1QoVKKpCqlR0vK3qDeAF7k5ZlYtmwtDn97DHf36IU+3XsiLbkMnA5SmuIKvXcxoNy+XMx+xMpI072ZuCYGKFiEM+ezsGjZYhw6/C06dmrLbILDRZUtAd5EYQYhfF9RuEG/8eLsiWwsmLUAaboHE0eMQrOateAxDbhZKYq8A+uzozNTSjP36k6kKAi+XPZ4kb7/AN79dA463d4YY4beaQMQAL9B5J8RARCKAg6sXb8Lm7/ejNtatsage/qjWqXKINpeVAzYvVmUhSnx5QnIhNPAROkesZDErpD3B/hg4vylXCxevgwbt2xAly63oXevTkjykAwnwCC4kpBx4TIWfbYEOH8F4+6+B7c2a44klxNuqk6KEgcBCko5Di5ZjfVySSkVuV3YdS4L73/6CSrVrIjRg3ojzUPAUCY+WysoWBbIAybJ8MAIuvDNtr1YtnQVatWti0GDBqNW9Zpw6Q65DkIRxxrpMORMAN/wnAselUJd4hsqCZJ0id/w4VpRPjZu24Zly79Eo8Z1MLhfL1QomwKYFopd7U0WaqrQCTMI+QUmFs5filP7j2BA957o1bEDynvccBFAJOdA6rxQboayq9E4tESZEjFpFiXyOnUHClwunL5yDW/+YzLyfBfws2ceQbk0ARBoqW17HVBQUXMyk7b/0AnMmf05UpJSMWLwUDRr0AjJDhccDgeHnMP6tgS5SXQxeEGovE/1piMWBrhakIct27ZjVfoqpKY6MHbsIFSrWlE6FtY8uTCDQPdwkjw5k3Gt0MQXS5djx8Yt6N32dgzu1R3lkj0U/BGdEmRCaiwwFosRtkrFMyFWvUv5MZxfAA2n/EFMXrQQR86eSBggCJAgAsgivEF5IZST5kRGxlmsXLEaR48cR7s2bdGnVy9UrVgFwYAfLs0BF5t1ETa5PoDgJ6Qp8wiY8wsgL/8y3n/vPZw+cxavv/57pKWl4tq1qzhz5gxOnTyJzOws5OcXYN26dShbNg2vvvYae1UrvlqJKZOn46mnnkTXbl1w8OB3ePGl55lhuO/e++F2eZGTm4PTp8/g8KFDKCgowJmzGVizZjVGjhyLCRMmwuV0s1d5fQAhTAlFswjWPcW/Y/pNCHNEYlPJmY0lbk+O91EiHhlYlwPHszKwbPWXOHP+JDp0ao1OHdsgJcUFw/TJWL7gGwicadRF0UzBwYOnsWThSjSu1xTjRgzHLYTUOWZro815PBbjHEHR2wmygj6RQ2EqVCZKCZpLKMmABnyXcRzTZkwBdB/G3DsYFSomcy6CtdFRZO02bVYBdr7ZuAvpS1ZieO97MLzPXfD4fHD5i0AZJ4oGS9RTVW+sPm8/OmrMRMpNxyW3Fyv3fou/z/kcHW5vglHDu8gQQySYoTifUBJ0Ue6vG2eycjFz+iKkJqVh4rjxqFejJtyU0Ev5M3GTscJlVsWrkPBIrPInWBRBQ1ClCbEr5AFSQOFMViamfDIdVwvOY+yYgahbqyJgqgTA+CEGv8OLLXsOYvnspejfrhPu7dYTZT0e6AZ5v9QYLVakRVOrxEYgvm1XkgkOdxS63Nh3MRfvz5qBtFvKCYDgpdwIykOSyXKWlxBeIFXmJOFSThHmzV2M3Jw83HffGDRpVB9OTYADYi0Y6MdNjRbJsNarpBEZlooIkUQrgrkGggg6dOQWBTBr7izs3bsDo4bejXa3NpPJspFzGM0gUDDuXOZlTP/oEzSrVBMPjxyNKkleuAM+WaIWFMllMiFWyIQ0StG0RkkaiMslCThSUqcTfocL15xuHL90BX+aPAVFgRw897NHEmIQApobeUUaPl+4DDu278J9o+9Fp7btkOp0wk1sJ3npnNxu3Znq3cOuDIccLXqppHWgO5BuYdBG3Sp5P9M/JvIKfEhfvRorV36JgQP64M7O7eDmUL6sMJF5biEGwQAclB9Hzkr2ZUyZPhPeoIGf3jcOdcqnIYkcY64EEF43AXYYwayUAAAgAElEQVRDN+CPSURUIEGNL3YUdnlulD9DmQh+XcPJoIaPFy/G0TPH8dC4YWhYu2rMagrdG7spBc8pHXrSP5TbpXlxNvMivlqxGocPH0GDevUxpP9AVKpYER7dCVfAhBYQDfeuAyA0gIMAAj2YQAKxFw4TV6/l4u133kLOxVy8/vofuN5+8ZJFSF+VDq/Xg6KiItzesTO2btnKGfW//NUvUb1GDQ5J/OpXv0GTJo0x6bFHsWjB51j85SK89vNX0aB+Mxw/dgofffQRLly4ALfbxaCiatVK+PLLL9Gv30A8/PCjIlHxuhkE+6oE24RFXhaZe6GQejENVRIFvgo/+wMBGLqOjCu5WLL2KxzO+BZtO7ZEt+7t4XUZcHAVInke9A3V3pqgvAcIpmDL5v1Y/uVqTHpgEjrf1gpu04CDabPIngdhFWmn5QVQib5U6+OYnwsiLObzfk3DpYAfc7+YhY2b12DchGFo0LAax8DZUKr5swg15xUQRWx4kL5sHY7vP4oHho1Cu8ZN4C4sgMfwwclhgJK0nf3vS8DvzFCTsr/i8mLFvu/w/tz5aN+xMUYNs2MQKBFI5MGHAYIT3313EvM+/Qq9uvXCoAH92OOmxCkGCNE9GEL5IGFqh96x5K4Z8StpiCbmwlOiTjUdRUEDS79agZXrl2HQ4J5o17IedA710JPiA4RCuLF8/TasW7AKz9w7EX2bt4CXY5UGTN2uzwPJZukAQjipMHK9/LqOQrcH+7LO44PPPkX56uUxckhvpHpVorIob1WgiL5NlRXUwVXXknHk0BnMnb0E9es2wWMPjYfXQbqc9oKVwbFPCmWvSyYVhwrUislvCVUZxUT76dsBzgHyuZOxecd2TJv+Efp0bY9+d3WFyxG7ygIg0NgIXGgImDoOHDqFeTPnYdDtd2BIt54c6nEFKUxkcLtmW5lmhWKzh4vL09HIjNBTHdCcHgQcbuS5PDh2NQ+//+gf8Pty8NJPHkaFVHGSH93djq+lnwc0LzIvFmDGjNnMbj7ywEOoVbkit+hn7zRqe4ZMqMzWV7lk0hULZbslEiphx9UMsHGjBDu/BApUQXH48HHMnDEF9evWwIgRA5GSRDJAXWaF7EaEGCRAgJaMQ8cz8eHf/4FWderimfvGoiwlbkoGSDiOYkQMShhkRcNLAUnFP3YAIVpf0eeIhdHhczhwIqhj8qIlOHb6BB4ZNxgNa1dOHCBoxDL54KC+B5y65IahJyGoeXHhUh4WL/4SO7ZtR7c77sCAfgNQLiUVriLKfxDDsgKEmdOmYHRsDoJprty2G3/+mKoYRqNlnXpwBgRVTP8QGqQ8h9xLF/Hb3/4KlSpWwQsvvoS9e/fgD7//AwYMGIiRo0bC5XYj4PPjf/7nT5xP8Mprr6F69RowgiYnJH7zzTY8/vgkzJ07F/Xq18G4++5jSuSzT2fhqxUr8Itf/AK1a9eCx+PBkaMH8ctf/hxd7uyBR3/0OH+O4mZCsEpnPezrdeX828WG5SazAoi4zZdUiVG8XRxSRKKMkAT6su8qvly7Clt2b0KLNvXQvWdnpJV1c+cqUnCib76qc5bCaHgRDCRhw7odSF+xDs/++Fm0atIQHqaCre1QLR4wzVWcqSqdF2iPXMnYXzODmL1gAZavWoJxEwehRdNanD3MIQLZrU1kjItEHtGSyIVgMAnpS9bi7LfH8OiQIWjTsAFcAT+cFLsNeXfCSCaiNEK7iZ0WRWlbBy9yH2RFO654krDyu4N4e/ZctO/UGKOHdYHfL6pAwhedcRE+h4KSZX2mG7t2HcbSL1Zh+MAh6NW1K+dm07oxwLeZ71AMO5Q5nAj4UTFyqZjkV6w98ClUQiyCHxo2fvMNZi/4FD27t0fXji3g5PJM2cJNvpPI5BBenQs6CpCMpau3Y9PiFXhx/P3o1aQRhxa4YE+VioVeVVQSiFuVDG/CI1RARyZUCTcIQV1HkcuFnWez8f6cmahQqxKGDxFJikTNc2Kr7AsgDLrsQ0/sk+7Brj0ZmD17Mdq2uhVPP3I/zCIqw1VdPy0eqlxPqwyJ0FW0bBS3JqGCQguzJQ2BJgxVEeVyHDmIv77/V9zRrgVGDukLj07mWHYU5bi/qEfgsliWa1HBsO/b4/hi9hcY2r4ThnbrhjQKsSnq2HKeg+CQwu+dqHOiRsbAlFxhilgywHSiwJuE41ev4fXJk+EvuogXCSCUKaN6mEYItOpnwYZZc+N05mV88sl8VChbEQ9NuB8VU7xwUNWZTX6H6voYfhernhJATjlRJWXAilbDAoXQu/iovJUr4Bw4d/48Jk//CGXLeDFhzDCkpVCVi2joR0wFr4GslhPlpFSrmoQjJ7LxwTsfoWOjRvjp6BFIo27wAVllZxGN4vRmSQ36eOXkM0ld0Jk09A5+h84A4WMCCGcy8MiEIWhQu6LsZxMGJkp/xUqqSAPgxoY8iQ7oTjf8QR2m7kXG2Sws/vIrHDp4GH169UHvbt1QQfPCySrRgJ/AdZIT6Zs3Yvb06RjdP6rVcqFhmiu37sGfuYphFFrVqQMHAQT4uWMfIS+P14Ov16/DRx9/hLFjx6LfPf2xYeMGvPXmmxg9agyGjxjOA9q7dx/efPNNpJUpi5//4hcMEEis9+3fi7/+9S3UrFkL2dlZnI/QqFEjDif885//xIYNG/HGG39G1apVce3aNcz/fDamTv0Y9469H088/mMEAw7uRS2u0iio79/mOYYeioqNSp1ro2FU5rWIhhoON674C7Dt4DdY/NVC1GtUHb36dkSFCqmi0IVKdKgESWbJhspCuT7di2AwBV+v3oI1KwkgPINWzZpyj3hi0exymVVJTSLmSHwmXhleGGKJklTBdBG1l28a+GzBIixNX4ZxE/uhRZMacFJTJd6E1lo10bVe8CJu+IxkrFm8Hll7D+PJwQPQrlFD6Fy/bkXnlthvgtpQNeaJjD0Lj1HMq0D5uZ4krPjuIP46Zw7ad2qC0cPu5KQzoX+lsWdvVKotUvAMELzYsfMQli5ahhEDhuKuLt3gpvMjaLzFvGOpj3rmPA0hC4JOFXLPLW5Z0Yj3JE+8SNOxccd2zP58Jnp0a4dunVrDpcs2rirBjo0nvaMIcVFctUgriy/Td2DLwmV4ccJ9DBBcEgRwHkDighP3k+GmNuKsEPEOEiy7XNh2LhPvzf0MFWpVwLChfVHGQ3NO7AW9ACl3yjKXAIFL1qjFrxPb92VhzqxFaNeyJX7yyESg0CdyW6L6pEiozYNRtLR4WeXtFT9ILqVnYy6SpCnjXDAKylMktsXkErk9Jw7iz+/+BZ3atsC9w/rBo/mY+laNregsFYo5c048LQKXb3ux+7tjWDDrcwxv2wnDunZBqgIFTMIpUCAM6PVmYIVEhno2BClUI3pDFnqScCwvD69PngofAYSfPoyyZcrIpGS5b0LhFSERJBsELjLO5eKTTxahUrlKeHjCeFRMSga4LDO2jwXPWrwpj6oKCIMI4WREX8JBlHX8lCxJJdHklmg6zp7Pxv9+8k+klfFg4uihKE8AgXgTjdhwec4L6ybZ84PPj/Pi6Mls/P3tqejUsDF+NnooUjlNJDaH5Hq2BIfGGdRIgMB9ZCjMSowYsUQ6TgZ0fLRoCY5kZuCR+4ehfq1KfOaO2j/izBqawMR79HCiN1woDDpw6txFzJozH1cuX8H9Y+5F+wbN4QyQBAThY4DgwsrNmzB3+icY0z+q1bI9QPBz7/HMrDOYPXs2LuVewoWL59GwUUOMGzceVatURUZGBqZNm4bDhw5zWCA5JRmVK1fGvr37uBb85ZdfRfXqNXlOqazxf//3Qyxfvhx3970bj06axE0hXC4XtmzZgqlTp/Hwa9eujaRkLxwODRs3bkSPHr3w8EOTBCr6PwIIVqEIs+UWIyJ3X6xClV4zbygNPt2Bo5mnMHvxDAS0a+g/qDfq1K3G+R0UwmEKzNKYxmpUDNODQDAF61dvwbqV6/DcUxIgyFYw8QBCadzv6M6GJW0GioPnI4hZCxZjafpSjHtAAgRiAWTvAiHU9I/waG0BwqABaNdYAATVO1wpcU4OS7RnvjLt1tBnqB+ABQCZOi55vQwQ/jJ7Ljp0aowxJQAEUigOBghJ2LHzYOkBgvIkS5pU+XueNRafeABBmIqAFSDMn4ke3SMBgiKK2SRGAYRCCICwddEPAxC43z/3kggDhG/OZeLd6wUIsxdxB7mfPCwAglCmkXyhsi+RPw0zDIksRxggiEPLwgCBvh2MAQgd2zTHfcP7Jw4QDkiA0KYjhnW7E6mKhqI4viXp2PrnRN47xrDyFhAAgcIctCMLFED4eCp8vot44ScPoWwaAQRaKxV8F2GRECQio6oTQLgUByBQ/ki0ZY/YlKFXE2DXvu21cClKAgiUDEnml9g0DWeys/DPGR/ZAgQCZWQ0maXl8kZx4JTh8OLoqfMhgPDMmGFIoXm6YQBBar6EAMIpPHL/8BsCEIRZcgIOL/KKgO079mHBgsWoV7suJgwfjVvSykI3/HwgYCDJhRVbNmEeAYR+CQIEOr3xytVLWLtmLR8M1Lx5czSnOKXHC4/HyzG/S7m52LdvP7dgrl6jOm7vcDuOHz+G3NxL6NKlK1JTyogV1g0cPHgQO3fsQJs2bdGwUQPZwlWUNJ04eQJrVq+G0+lGixbNUbduHWzcuAHVq9dC+/YdmeoVLV9DRFTCe+RGHRQV/UArsxAP15HHQDEyaoJ0xe/DV1+vxLptK9Grdwd06nwbHLR+HDkhryI+QAjCA38wGetWb8bXK77GS08+g5bNm3AcibLNbauhuatb4n5gaQECJSkWwrAHCJwTIRoSCbUtggs/CECQgI3XK6L9sDr/QsNlbzK+IgZh9my079gEYynEUAyD8EMDBGHQae7CfSBUeEEoVdFdjZSiYhBmSQahu4VBYMZA1spbAQKp+yKUxVIFEMbfh15NG3HFBvtnkqlguVJaWoqSndKOtxmtDMLNBAgmAQSeM2HGrFIfG2JMjD1QYyotQLj9tma4b/gAePUEGQQCCJ99jhFtO2KoAgj8isJAKq2XsMKL80FeNzJ8ARF8ZoBPAOEaMQjT4Cu6gBd++hDSKMTAukgxCNJzlQsfpEZ2mhNnMksBELjEUNyAujVGMgPh9sisUykKYgRF2KBUAAE4nZWJj2ZOtgcIxG0QC8RenugDwQBB9+B4xgW8//YUdGrQGM+MHoZkLQidzzL4fheDOl5HIYXC6ZOdH+nvNM4IBuFGAwTSE5T47gJVy3w2+3N89+1hDB0wEF3bt0MygXUdCHpdWL5VAISxiQIEYbQU5SvQF9N0lInP8QsxfVTSwosvZ1NRoDwlIQNFCXclT3Ykna+Uk5X6/tcBCGo0Yi8LE21NqqJMf2I9imCgyGXi4JkMzFkyB44kP0aN6ItKFZNFrTcnson+AfEYBAIIvmAy1qzejI0rv8Zrjz+DFs2bhhqy2Ma//gUAQkg5s8DINr5aVIihJAaB6eaSZcf+E+HqAfF7oRwucYjhEP46exY6dGqKsUP/FQGCMmTSk1JdKm0AwgYZYujerR0UQOCDwUVjDFa6lDiqQgzRAOGl8fehZ9OGnFfNEXpVyRPaw2IBVOlpoqvxQwCEpx+ZCAYIFidVgSj797y5AKHDrc0wbkR/eHV/YiEGC0AY1vVO9l6FMpE6JRTmSHTWi/kcAwTJIGgaCtwUYsjHbwkgFJ5ngFAmTSQpMgXOZzR8f4BAVPrF7GxMmzYVhQUFFl5EgroQNSuSUzt37oxuvXpJ7ylyPJEhhjCDQE2fMjLPYfKnUxIGCNwj2OHBsYwL+MAKEEANjOzatZduDWQkMAyyZbiMGFZur3DTAYKAmKIxXRIOHjmDGZ/NR4UK5TB+xDDUKV9BhIyuCyBwFYPoax4+FlN07wrHaS28rsR73B+eLzLsyre2a/pS3GQTTWXnl//rAQQxUtUeNmzJ6CQuzXTB5zJxWSvC8o3rsHbbGvToezvu7NAKDq1INO3guLuIGRcHEIqCyVi1eiO2rtqIXz76DJq3aCo6U0qAEjObNwggxKB4Cf/JkyjkEMOS2BCDZBCiAQIfpqN5InMQSgIIpduTMjyv5CRMMocBgoNDDCu/O4y/zpmNDh3/PQACMwhcThlmEHwcutKxYXs4B6F759Z8RgAzNhaAIAC+qH0mfodyEJau2oFtC5fipQnjGCBwa1b5GZE5I41DFEKTrxCxMsKDj8zhFgyE6ArJbdQpxMAdBKlJkxPbM7O+d4jhxwogWN4m5mRm65vK3gx2YhVDjIdYE5HfkEiIoX3rJhg/cuB1A4RUXabCyUZRiq2/EUwo6QudmmgYgn1iBiEEEIhBeDAEEOg0QBq0OBY7XJV0XQyCYeD0yZPod/c9aNWqJRo0bCg9ainLcuJ9RUXYtHkzBg0ahGdffgmaS7UcDq9WXIAAAghnMfmzqXFCDMLRFI2nJIPAAMGN46cu4IN3pqJzgyacg5CEgGjnfAMuwWkxvJb/lzkInJB+MxkElXulQQ9SiXYyCgNezF+8Ahu2rMfEUSPRq217+AN+BAggbNuE+cQg3GMTYlixZQ/eoCTFkSpJ0c+GyzQoo5gO5VD+saprFqcC0sYXCFMoAPbRVM0852WIxaBwRWnRfJiGEmEIcWgJq69SLdv3J4pKfpw4KTHWzTWDDhQ6DWRczcbMhXNxLZCLe8cPQZUKSXBofnm4i9iIPHehUxOpo5xIJuLEJs2DwqAbq9I3YWv6Zvx80nOcpEgNceL5Q/GoYP65XYkUN9qIaiNaTNkUhxg0A7MVQJh4D5o3qQkX5SAQQJBNQMTeEAwCAwR4UGQkY/WidcjedwRPDe6Pdo0bcdawOmxIkpElT7zNJ8JerpIT60wIZXfZm4RVB4hBmI32zCB0LVWI4cuFKzBy4FD0oSRFBodiDwiK277GvjTUvBoWG3UOJ9BPhMFXDibJNSUp+jQdzCDMnwnBILSCixPdogGCkE9KnKPubT6tLJal78C2RV/ixfHj0LNJI+4Pz+vEnQhV6CpOAC2qaZnw2qNHqfYENf2x5CBQ6E13YntWNt6bN+v6khRlDgIBBKNIMAjheZMujE3oO5ysGik8AvRE5amrJkUyAdIOIAQpE1x3Yu/Jw5ykeP0A4XYQgxBOUlQMrAj7cM6vpWFP/KTieNuG+kuY0AMi0Zg0R75XAQRKUryA538SZhAIIAgGQRhWlS7JHqfuxBnKQZixGJXKVsTDEyagQpKXjxhWDqJ1JqkpT1ZGBvr364/f/e53GDFiGOcOkEonHBKkjodODTk5uXjiiSfQrFlzPP/aq9Bcscc3q9JUlizNgWCQdApViOk4de5MCCDcP4qSFMlTD3BiqAA5ZI+I8ZY5CBIgHDt1AX9/ewo6N2yKnxJAMKmiqnR2JiFlJRkEPlyK1aIlSXHxlzgqkxQb1Kwk3lmVV3I/HMHi2zYosX24aKDEIJ1uBQ8CZgp27D+OGXNn4tYmjfHosDF85hElKX61dSPmTp+OeznEYDmsiZIUv9q8C29OmY0HRo6WVQwEEISyoAn1U18EmljdwbqesjCpDwIlI9LBS6r7oIq5qPdlmp1LlsI4ShhC8W8qTVFRtnC+rojJq4NlROY8IVnRPEX0CZDd1hJYFftjUxL4Yik/EpGTwOcIAMGgBr9bwzdH9mPOl7PRvHU93N33Dng8FKZRterhB1HlCIEpMrDBAJXZaXDQSXUOFwoCDqSv2oJNq7fi1cefx21NGkuFbv+ixZ1JYBvcswAEu6z7aNVPVQxWgHDfxLvRoklNOI0gh51USWEMQCCwE0jB6oWrcf7bYwwQ2jchgBCbpFiarF22T+EEf9X30WZyZCfFgxIgdGyGMcNKAxAOY8mClRg5cBj6dOnCjZ1EhrasQ7bJ+yhtaa6wtZIetFQxMORWRoLzWxzMIFAVA+UgdO/alkMMbl3ktPD2koiJS+xkfgH92Q8JEBYuwUvjJ6BH04Z0hqY8KEpkXTPgUaeDJrAfYsFnGCAIhkEmKTLz4cSOGwgQQuAgKtSggEPksdNhMK+Wi+eGFZiUdGGBxG0JqHOPCFHCo5gxCg0S4CKA8O2pY/jTu29+D4DQAUOtAEENSBoVVagbZkcUu5PAwohBiBMPKehMRpkZBC8zCFzF4M/hsxhUiIEtN7NWEiDIaQlSzFpz4QxVMcxYjMrlKuEhqmLwJonun9JRsjajIuCQefIU+va5C4OHDEbbtm2l7aCTC2ULdGqeVViEmTNnomfvXnjh1VdDDdqsI+QlCjXL1sEpFXzonRMnzp4OAYTxI4egQqoTDgkQhJNLhlmcHMqlj5qJgO7CiYyLMkmxCQMEr+HjfX0jL1HFI20+VzGIhnPUF+ekQWWOX+Jo1mmuYmhQs6LoWcGnY4bPIdE0eTppgo37QnLKfSCIU0xCVk4hps6dhWsXc/HCg49z8yTD7cLKrV9jzvSpuHfAwMQAAk07gQDaE06nOI2RTlcUBt/kcsQvPv8cjZs0Qps2beRpeOESF0KedF41J6sZQT7g58zpM6hRswZSkpPhcDjh8/n5e9QkqUKFiuI8AfIjCb2aBlc50LP5IB1dw6VLuZg/fx4nQBJVRYd00Pd9Ph//mT6rBJQ+TwmVAiDEevc3cvFjAItULnSgSb7TwKpt67Fiw5foN7A72rRuCIfDmt9hdbx80HSRuxALEHSkr9oqAcILuLWJSCqLd91IgKBKbK3PIoBQpIcZBCtA0EXmZViRyr74KsQgAMIanP/2qAQIjQVAkKg9RI3bp1/GH3OIzguzMlLDy//QwiiAcBB/oTLH6wQIIwYIgEBdFEUVHNUiq0Q5YWi41FTmooi/h19dJS+F9ZBSfTKqZwUIbOdFPkWIQaAmJwwQHKEyRwIIVOZIAIGQPJ9rJFGT8Fkkg0AAQUvDslU7sJVCDOPHo0fTBlw2yy2NQ+WUqqtE4vuHFaEcJidI8mNF0hudJ8JVDDcQIFAOgkFljgyqDE5o5mOLyRzIpDdV4RAqY1V235rSSAlrNGfq5WUHQ5GOobOtZAbBUq93IwHCyLYdMKQLVTHQO4i8mxArK8sLrQftJFqqGZY40t1gupkZhBBAEEmK/kAOnpUAgdEhJendQIBw/vRp9OzREw0bNuQTGGmu2dFUG4CY0kAAe/bswfCRI4sFCDQm0f0lDBBMhxPH4wCEAOcTCK5VAATJ0BJA0Nw4cdoKEIbAa/j/JQGCKFCWR7wnABJUFRmDX2okxhUNJj5fsRo7t+7EQ0PH4LaWrWA4HViRGECgEENd6Ez3CtRJxl0hLnVUJr3bxZyL+NP//A//t1atWjDouFy5MemFqlSpigcfeABeop6oLe93B/Dpp59h/PhxaNqkKQOMnJwcFpJ58+aiUaPG6HNXH37qzp27kJWZjT59+oCOVRX9zzVkZWfiz3/6H4wZOxadO3diULB7124s+XIJo0+3i07uElq4y51d0Kt371Ah4I0GBNH3iw4x8JkLuo5L/kJ8kb4EB0/txKjR/VC7egVmSKznvLMiYPsgGAQ+357OIzcotOLgsiKqZ00MINCTiZo2kJWVxRuR+ksQE8EbhKNDylKJmm4yYpwBoTKHLZaM9aMq77IMmgCCL2GAIA0WKzrFIEQCBPhI5mJRe0kNSCLXQRGbosQ0supFBmNMnc9iWHnwEN7mPgjNMLqUDMLiBSu5DwIDBHkKdyRAMBm40hoXFhYiMzMTVaveguTkFH5d+rnT4RCttyUo8vl9fJKlohCpgapSaoJipjUiIyV+Sj8jcEAMwqYdO5hB6EEAoXNruOksBhuAwK1tuS+mAgjbsZX6IHCIoQEnZik6O4xmFN+XwA6yOt8CzsieBtT9jt5bMEtknPyOG8MgPP3wRJhFCiCINs0096SPPG43tWAUpkGGCeit6BRa0lsebxJSUlMEfasL2lngAcVaSi+djvmVJ+IJgKAuyra/MQzCqLbtMaRLFyTL0JCYSvFvZldliEE9OXHIptCaBiflNQRpv4t21/leL1cx/H7qNPgCucwgpKbJ0xzVYVc3kEHo368ffv2rX2HQ4MGhGVS5FTSey1eu4CdPP80H0L3w2iuc4R99KQ0hfkOGnpgfHSZ1JLSEGKwMQgggyJ4lVoDgJ4DADMIUdGpIDIIACNGHUycg/fYfCaNlkYPApJxgEMgRLg2DoHq6skzECWtbXyJcZi4AgtPpQsDQkf7NPiz6/Ev0aNcJIwcNIQYgcYDQsnYd6Ez3kmEQrZYpTkFAwTCoZp/+HOBSRmqKRMajQYMGQh3QIR6cHGegQvkKnGzidLkY0e/bvx8zZszAAxMnolXrVti0aTO3Ux4/fjwOHTqEhV8swM+efYZ7IcybOw+nTmXgJz/9KXdWvHjhIrLPZyMn5wKmTp2Mvn3vQqvWrbkfw5o1azBn7hzceccdSElJ5UN3tm7dinbt2uJHP5oETfeUqsHE9QpCDEDgDms6sguuYfrnM+HXL2Do0F64pWKabPupOh1aMrtsAQLRsi4UGA6sLoFB4IJCNkwEMAKYNnU6LuXmYNKkx5CUnMRMTVZWNh/aodSP2+3hslJvahnZsS7SSIc6jkVNTLEAgUqZYhgEChuR8vXKEIMFIDRuDNNHpWrfl9aToCAUkFYgQahZlXB7iXMQDuJv8+aiXcdmGD28WylyEA5j8RcEEIagd5eu4hwGC4MgukiKUzhdLg++++5bTJsyFQ899CB7T9Qc7OjRowxuFVAjpqx69eooX16cgkdAgMqw1KHBwmiLkxAUH0afCRCDoOnYtGunaJTEAKGVTFIUIElUE8X2QfAhDcvTCSBQDsJ49GjSkDtZMvXKAVLLWkQ1IIq7R6KWT/SxEF0YFYOgAELA6bohIQbqg2AUFgnJYSArS8uIuRGNhZlSp/I25YFfvXoJ06dPR0pqKsaMHcM6ir9PwEDGpwkqOSmkSutBJ6ny4T5iPkPD5Da35Ah83xDDfAiAcG/VcF4AACAASURBVKcACDLAS/8VhlACBEsEREl0afQVnT0gyCU6LI5CDB4BEKZN/0EAwj19+2LSY5PQo0dPwU6HIJAYRV5eHt544w2079ABL7z2KgxmIiMvi2sjdBgnvlIjOmdEDoIdQCBGKxRiEFwZAlzmmIO/vz0ZnRVACNy4EIMIiwucLKscGSCQXNJZL9cLEEIgQfzBVgysAIHAiMvphN/UsP1ABj6bOQ+Na9bFoxMegMvjSQwgPDhiFJrXri0BgqBIifY/fOQgFi9eyAaalA4hcELp+/fvReXKVVG9ejVB3pBhosSLIKEVB9q2bYfmzZth6dKlOHzkCE6eOIk6deugbZs23FVx1crVeOKJp5CamsodFcuVK4f77rsXCxctRFbWOTz55FN8HzoOmmJTV65cRta5MyhbvgIqVa7Ex0VfvnwJu3btxGuvvga3x8PvNWXyFDbCjzzyKDTd+4MABLVgcj9zp8ECl47svKt4b8rfUbm6iSFDeiAtxQ1QT3muB+bgkKWlKQEykW8RYhCIDtMtACF9G1558jlOMqGuhSEaUglhkM500EGd26ZMmYKzZ8/ghRdegMfrxuxZc7n7pWJ6aB2rVK6C13//OzRt1Zpjfup+gjmIzEoXG1JsURqfXzcxe6GoYogIMVwHQDB8PtsjcsOSz0RZafShPOzK8hVhBbjMcdXBQ3h33jwGCKNuMECQKp1DbNRd9N13/oaXXnwR9RvU48NTHn3kUVy7ehUOF7Wdpi6aLjz33LPo17+f8BcddLS0YIJ4zksCCLt3Yvb8GejetR26WwBCRBVDVJmjH2Xw1SrqpPglXpwwHj0bN4SDetyHWi2LJLkQ4x7FDtgtBJvnCFwhWiaH8jO4u5s8bMrpxM6sC3hv/vdLUmSAUFAkQBmXjonEafqvGQhiTfpqrFu9FgV5+aLTomkiaPjx7bffMlhr16EdHE7p2OiA1+tF5y5deC2IVeBwH9WS32SAMKJtewztcidSFEBQSd8KIIjIbuiylnUmuinokCZHQOxrYhAKOAfhGn4/9RP4gjeXQTh34iR69eyJMqllULZcWQmiI1POCTQQq3zfuHGcpMg9/m8oQBBZCIIpDQOEYxk5+DACIBTBaXMaZ3HzbFc5w2yBBJQCc1PeA+1vJwMEOl/k+wAEq82xTZK3pLCL0B+V4rhw6MxlzJwxF1XSyuGhMeORkpZWHEAwzK+2UJLiHDw4bLQACHRYiFRNHreO1avT8fHkf6JBwwbwuF1MVZ07dw7fbN+O9u3bo3yF8jLpUJy5TV7piRPHOa/g/vsncFvm/fv2Y/+3+3Fr69a49dbbUL58RaxckY7Hn/gx6tapi4yM08jPz0OdurUxb95snD+fzZ4v0bJXLl/G5SsEBHbgrbfexPMvPI/27drCm0S9AdZg+44deO7ZF/kIar/fh48//id7q4/+6DHoOoU4Em9ReT0+bIiE5dih8GJIERa6dZy+kot3PnoXtRt4MXRID6R6HaDqBg4xsLsTfiLFNNnPla2KKcTAdJguWmauTd+OjelbuVHSrU2aiMY2TAWGb1OYX4CN69fjyMHDfP4FGaIePXvwOh04eBCzZs3Gb17/DSpWqISd23fgzT/9Ce99+D5atW3PSsOafRw+08mS1GUBCD4dmLOQOikuw30T+4okRe6kKLxgmUMr6G7ZB4EYhCLOQUjH+W+P46nBA9C+UUOYfp9IAhOTEtqL4eNqSgsOov0TcUvasJc8yUg/dARvz5uDdp2aY8ywbvBRJrxFA6gQm4L9mu6Cn1ot76AkxVUhBoH4KdHLQjAJpIDI6B85eACbN2/GyRMnsGnjJnTv1g0tWrRA/Qb18eMfP41JkyahW/fuyM7Kwl/++jaGDR+KgYMGMyCm0/v8otlIaC5EslL4pEvR8paqGDRs2iVCDKoPApU5iioGOWZLaTJ3+eUjtdIYIFAOwgvjx6F74/oScHJgUbo8ITWgcG+itkh+TgIErvAIK0tSkn5iELIv4v15s1C+tmi1nOoVrZZFnFVmm/OxtOGGTZrDhe37sjF7tmi1TCEGI78wBKQ4tk1K2DDhLyrCW39+E7t37kSNatU4rk5rRGfGHDhwAD5/Edq0a8tsji7nPedSLurWr49XXnsVbrcbupMaUFMOljgjwZpbo+Y44HBg76mj+LMlSTFJp/ADVYLJJrl8EiUllIu2vyRP1Gp5j2y1PKJNO5GDICvCBECnmRBrEd2DgjVaHGUVL/zgJAaBw1oyxCCTFH83dQb8Ri6effoBpJZJEVIXSlKUeShSmFSS4ulzlzBjxiJUKl8ZD40fjwreJA4gKW9W9dDhdTcMnD1xEgPuuQfPv/AC7urbN5QvYu0EdeXqFT6Th3LaXnjtNVBJpSKyeEwqAVLmJnGFjzzUOZpBmDByCMqlOOCgdZA6UtJEIYBAcu7XXDh+OgcfvjMNnRs0FiGGQBEnWzOLHtUV0r75XPjMFusGCbFZIU9L1hVIgCBYQB2nTAc+XrwEx7JO4+H7h6FezYrMbjDe5psoXSCaR0UwrSQjKtwQYhKEYIh/h/cOgwSHCyey8zD9k7lIdaXgR2PHoWyFclixbUO8JMWg+dWW3Xhjyhw8zAChDqXfc8yTSh09ThOr01di7bq16HP3PbiSewkuw8SBgwewZPESzhuoVLkK3B43NIfGoYX27TvgxMkMnMo4if79+7EntW//PkybNgUPPvgwGjdqgu3bd+CLLxZg0qNPoGaNujwYXTORX3gVc+fMxuUrV/HYpCfh9SSzwvIHCvDBB3/DgoVfcKnMHZ07c3LiosWLsXvXPjz/7CtISU2GP1CIyVM+RCAAPPLw43A63KUCCNJCl0oRimxvIcDKa+MyNJeGU1dy8PbkD1CrngdDB/dCapI7lIynwEE4J4CMK91HlrfJbnrkwRQaDqxL34lN6VvxwpM/w61Nm0jKM5zZTrJckHcNn8+by0pxy+bNHKJp2/Y2dOvWDTm5uZi7cAE++Mc/ULViJWxZvwEvP/8C3vnwA7Rs0xa+GI2jDJRF5UilRHUuZJzmLVmKZQQQJvRCi6Y1ZRxb9qsPZZTL7Hgu2aOSzSSsWbAaFwkgDByIto3qQw8Usq7gHBI+mEugnkhllxh8Y6zM3xX/qG9x2a2h4ZI3BSsOHcZfPp+L9h2b4t6h3eAr9Mu6f3Xan2DQFPjjo1kNarV8CMuXrMWIfoPR+44ucDPQEwNVDbNo/+zdvRPz58zCkYMHcfjoUXS4vSNuve02bgJDbMHLL7+Mu/reg8ysTLz62i9w9z13o//ggSG6m6hTBWkUWI8VSg2FmokNe7Zj1vxPGSB0JQaByxzD41YxeBU/J0Uuqhh2cqtlapR0Z/0afIiTSGYUTWKsJcIcjU9s+qNgliLJiQhW7JOGIqcLO8/ncplj+doVMWRoXz59j9q/inmUyWREw/I6SNDi8GD7vvOYNXsJ2rVqiacfuh9GvjreOvxoZgp8RVi6ZDHMYAA7t3+DE8ePcQguP68ApzJOcRJ0vXr1ZBWKjmq1aqNbjx7ILyzAoKFDmJEUlQ3qsDh1Vgq3Egp1ByW6fueJg3jj76LM8f4Rg0AAIaA6pHKIRkgiHYTFtlcXx/Lu+fYYFn72OUa17YDBnTsjjSaZ4uoC4kmISKxL7LkyMUBA7jfKU7G7yH44GCAIVyTPk4xjeYX4w4zP4DNy8czT9yM1NZnXmYAE/UGVyqm230Gdjln2ICOTAMICVCpXBQ+MG48KSQIghG2UCCtxUi31QThxEgP79cOLL76Ie/r3QyAoq+CcIpOW1jw3NxevvvYq2rVrh+df+7kAyTwdwvEk1pW7iLJ002FHwgjyEeEuMvQZmDp7OsqkejB+xGCkpVAVmOjlIwAVfdrBYS8xMjrh0okTp3PxAQGEho3xzMjB8AZ8AiAIVBKaSuH42UyuZIFJ5mLWRMYWwjqIHu/gXCLqek2JxqegY+qypTiadQYPjB+MurUqyVGFXM9QLwpl+kO/4YPAeHda2tKLGQrpL65gkHk4DheOXriK6dPnIdWRhsfG3ItyFcth+Y4NmDNtmqxiGM6HB7IGKDQiAUKLWnW5gQMJMomR12li7dp0Pmu7W89eyLtylQHCsWPHsGjRIkaDTZs0gcvr4XBEUnIKLl7M4dMde/XuBafDyQcR7d69C1OmTMbgwUNQrVoNnDhxEitWrMBjk55AvXqNOSxBpX++QD4mT/mYT4Gc9OhT8HqTGG0eP3EIv/7NL5Fx6iQGDhyILl3uRNNmzbB69Wps37YLzz7zCsqkpUiA8HcGCD8igOCkSvXEGYRQ0kwCWaJKckSXOtVDSmwp8noCTo2Pdn57ynuoVTcJgwf3QplkD0C5HSrSKE9uU0aAvR9KmKISF+l1BYlBCDiwPn0PNqVvxvNP/RS3Nm3KWdXSjooRkrfl9/O571mZ5/DYpEmci/GzZ36GtLQynCQ6Z+EX+Nv77+OWylWwdd3XePn5F/G3f3yAFm3bwUe0bIxmsa8CoaOQixwa5i8mgLAc903oyQCBjmO1nswiALjwfgXiDwOEnG+P4UkFEPyFLOii7l8alVCiYWJ4TW3O8BjCJk550wQQcr0p+EoBhE5Nce8QARCEURJsR8QGY1PgQKBYgCCRPHcWN2AECmEE/PjHBx/waaVvvPEmGjZujGPHj+OxxybhlZdfwV13343MrCwGCH373Y3+gwggUD9DEqbI+GvIk7JoIJqeQt3E+r3fYM68z9CNAEKnlnCyhRCUu3LBxB7gH3CjJCtAeFkBBCrno/+pY6otmfTsHCa2DFGfUgBByAFxS5SkWEgAITsH78+fjfK1KwmA4CUvnXqvRAMEmcNAt9I9+GbfBQYIbVu1xE9CACHysWQCqJa9qLAAO7Zvw8LP5yPj5AlOji4q9CElJQW1atfiRN6CgkK4vV7Uqd8Q4++/Hy1atwRV4hRRsjYbJVe4z4kslxM8jPDsCCDsOikBwq1NMGH4ICRbAYJi+JhBEB1F6YRaARCOM0AY3aYDBt0hAAKtq4J44V5XshNmFGyMXpLiQg8CIIjnk9m85knC8TyfBAiX8LOnJ6BMarJoCmUBCFwTIs8FCQOEy/hkxhdhgOBN4rWl8CYLCrcqlpU9DBBOoG+fPpyMfku1ajKQIs584D43XOZYiH379mHUmDF44ec/h5+T0wU1H+pSK5ttidwDcZAWn9TocuLk2TOYMns60hRASKX7EnikmL/aC4LVEj0vCCC4QgCBWi0/O2oQPH4fNw2zp+3tNoHYb7b7Q2y5kD6hT1HCOJ1aSzreRwDB1DB1+TIczT6DB8ZJgMCnUMp22wwyRN2G0G1Kr8n8In6yBSAw+yjzccSjw7lIDjcDhGmfzEMZvSweH3MvylYsKwHCdNw7gE5zLAVASHKaWLnqK6xduxaPPP4EKleoCLcmQgx/e/ddHD92DMnJ5OULDUINMAL+IEaOHIVRo0ayl0/JJxs2rMfkyR+jbLnyaNe2PRo3boJVq1bg0UcfQ726jZiK8weKUFSUhzf/8gaqV6uJByY+ApfLjcLCAsyZOxN79+5GQUE+WrZsyRmv3bt1R3Z2Nnbs2IMXnnsNySlJzDRMniIAwqQfPcmn8NmeVRBH2Vk7liWaQR8CCKpNLTc30hFkgHARf538PmrVTcaQIb2QmuwOnZYm8KhYTHWFn0lxVOGJU5JiYcCJr9N3Y2P6Zjz31NNo3aRpyKMjoCBK7IAACbdDx7KlS/DqSy+hSbNm6Nu3D3r37o2vN2zArM8/x/v/+BC3VKocAgjv/u+HaNyyJYI2SUHxGrLcDIBAR1eLzHeF3AVmL82l6t0FgxD+rpph+n2uRzAIb31Bxz1bAEKoX0ckQBA8RJhB+GrJWgzvNxh9IhgEC0CgDWr4cfZ0Bl56/nlOShw6bDizbWlpZfHEk08wQOjTt28YIDCDMAAOJxmOMECw60lhnQ8CCF/v+QZz5n+G7l3bCwbBId9fAgQyCKzkmZky4CSK38IgMECoVwMe0WeOAQLrFStAsDzUmr9Y0tooSjZUnkWePZ2A6HBj5/mLEQAh2UtVGqJqKpJBuA6AQGGtgA8Bnw+fzZyBLZs2oF2b2/hguVq1anOVFSVck9ealZmFExkZOHbyFAYOHoxb27ThSgbNITkPU5yZymqWDWUYbNH4gw49PkAgI8dHDQuWsSSAUEYCBGUYVaAusnqipFmP/3vuEFhagCBBESeYEoMADzKyLADhvnHMINDMOIhRo7GycZcAISgAwvDBg3H/AxPRpWs3BAzRXVcQcIJBuHrlCt5//33c3rEjfvbiSzLEEOmyCGAgDvwS9Ls45UV3UpLi2RIBgtAvIqEjFiA0wjMjB8Eb8McFCPYzW4yOKgEgFEFHBjEIEiBMHDcY9YhBsAMIsspMHHnNg5fN2eitIgGC4g9ZlcYAhCuY9sn87wcQWMHqQbidBr5avhQbN23Eo48/iaqVq7CXSgk+FMfLyspEUWERLly8yCWJaWnlULlyFbRq1RpJSV4cOkRx789w6tQpTjKcNOlxdOvWHXv37MWsOZ/hySeeQJnU8pxh37BhfeTkZjP9evfd/TB69L3MJOzduwczP5uOrl3uxPqv12PYsGFcOVFUWIh169cj4+QZ/PjHL8DrdYUYBOpD9OijT8luhKLuVSDV4tmE6JamiYCEhAHC4J5ITSEGQR1/rFpQR24C8UwJEOTZ7YVBJzak7xEA4cmn0appk1BNPDmMqj6eBCfzzGm8/Zc32TuqWLEiGjVqiOrVquFiTg4WLl+K9z78kEMMikF475//QKMWLWA6KN4aLew3i0FIR863xwWD0LAe9ABtFavXHOYDBMVIc2Z/8luMFxXKZAj3U7cChEt0WNOhI3iLQgydmnEnRWYQSgIIZhK27zgEBgj9B6N35y7wqBADt8YVUJS8g8L8K/hk2lRs3LCB8xu6dO3KDaRuv/12Bgcvv/IyevbshazzF/DzX/wcve7qg0FDhohYON9HJGiVBBAKdINDDAwQurVHF+qkWBJAYAahHJatFiEGAghd6tWAWzEIMcBKEZtipkU8PDE+wRqzVf34uMkWMwgX8ffPwwzCjQYIp0+ewJxZnyE76xzMgJ+NEa+PRvS0GAElNRNjR4BXHIALVKpcGeMnTsAtNWvARYDtugFCQCRL8qFqxQOEUbd1wMA7OnEfBGqQI7xFMqDiPe2iBuG29nJdJK62flY4r8KYUOjOQd1xKfZtxyD8eAJSyyRz/oaTS/JERYXoIyEqk6isM6C7wTkIn9Jxz1XwgAUgqPJtGjcxpWYgAJemI//KVcyfM4dDbI2aNuH8joKiwhCDwK9pmNi8eROSU1LQtPWt0CgHhOdNhPFEYreA/QTYVWifQgzUlvnE6Yy4AEHR/wLcCQaBYvshBuFv09CpfiM8M0IABDd3BBT72ZqGYAeO1b2Kg23ie8JsixADJfuDGYRIgDAEdWtVZICgwikMmIlBkMmVHJJRuVrWjqehk28tIQYpDKFqJmYQbghAoAkyuOnKF5/Pxb5v96N3337swXfu2BG7d+3iEMNTTz7Jmb9vvfUXDB40CC1btsLevfuRnJSMps2acpXBpUs5yMg4hcVLluChBx9Co0ZNsHv3bsydNwv9+w3AN9t2oGbNmhgxcjj27N2FKZMny5abrZiBoFDE+fPnOKzw3nvvY9ToUSxo+fn5+PDvf2e67rFHfwKPFSAEgR/96Ens33cAKckpXD1By01KurjLrud5SSAhHkAIOICMq5SDIBmE7wEQCgJObFi9G5vSt+DZJ36MVk2JQRCtUGkzK4BQVFCAGdOm4tDBA6hcuRIbmMcfn8Rr9PY772DDtq34348/Qvm0chEAoVrduigKGkgrmyZifaHrZgAEL9YsSBc5CANEDoLGAEHUaEfMN4c9JN1Xok0SPfPVSXii/XHYG2a1a9Bxz0lYcegI/rJwHtpJgFBEOQgJAIRvdh7CCskgROYgCEXGsxUMYvfObXjvb++gZ/fu2L59O1fkUIOYo8eOcg7Nq6+8glvbtEVW9nn84pe/Qm9iee6+i4E3Vem4HB7JTNqZhvDqRACErgQQWsJFAiFDDNxngRkESa2aBsc/A9RqefUuW4BAISoVmuA7RcQ3wmDBpmlk1NYKn0ZpZRAoGdbnEgDhg/mzUaGOCDEkecCJkjeKQcg5n40NX6/HmVMncOLYEQT8funNU1dYEcJr3LgRhxuOHT+J9Zs2oe8996Beg/pcyVC5ahVpnK6TQaBaFEmTJwQQOnfiVssKIAh7T7IfNa0q3GMjGqIcNvbidXS44FIAwZQhhnwffv/Jp/AZl0I5CLRnrgsgsBGX3f+MICezB4p88FCjPb8fb73xJpo1bYohw4bi5KlTmPHpTFzIzhIH/jGAEac90vs3aN4co8aM5dw2ngfp3LFrxdS7YBBoXKUHCLJ9uQQIJ0/n4v2/TUfHeg3xLJ2j4ac+CCLhUrhq8qLnyfWUjrnMARRgI/Qzy/QrDz50C1YTosyRbsUhBuiYtnwZjmSdxsTxQ1C3ZiWY3EZfArtQWyiVURXKXhTgrZgcBBUatAMIqY6yeHw05SBcR4hBtNkMsjfyxz/+nnsh9OxzF2bPmY1uXbvA7XJj2dKlePbZZzkJ8Y9/+CMGDhjIK7Z8+Qr07Xs3enTvzmwOZWZTDsKMGf+Pua+Ajurqvt/jccMLJEFCcEjQFqfQQnF3qAvSFgr1fi1VKtCW4lSQQtHi7u4eNGhCCBIlRMb/65xz38wkQGn7fb+1/unqAgJJZt5799599tl7n9/x7HPPIza2Kg4dPITvvvsGZcqUQd268ZyZYDaZMHnKJGYdPvjgQ0SWj+Z0RBo3bTDoGJx8//336Nu3Dxo3bsw6hm+/+w5NnmiGPr0G8s1yOAvw62/TQQzWCy+8it9+nY0A/0B079GdQYsmunkYSHjYUJS/AglFAQL3xXR6eAECaRAC0cUHIBRqL2iKdfUkPohBsBJAIAZh234fgKDVmnIw0pfb8vOxYd1alCldEqcTTiH15k2MHPkmb46fjB0Lo78FH3/6GfzMZgYI7779DibPnI7rt+/g6vUU9OjRk22n3g/tMZXFoh0K/77FYEaB0w/bVmxBxmkSKXZCXEwl6EmDoDp5Hs0I7wD/dKqaABpZWt72jbaX6t0GZFFQUmIifli5jAECRS0XBQhi2dOqN9VicPvDFyC09mkxkEWUrg+nG5MF+ORx3Ei+hrKlS2PWrNl44403WRC3bNkybN68mdXaZR4ri1t3bjNAeOrppxATG4tVa1ejS+duqBwTq95HkVPA948q7nrPKWEQmjcjDUItBRCk+tPOdqqa+YpQi6EQQNiA9wb0Q/MKIlLka08iZc8D8GCAwp/13TkfeCh5AYLs/1IX0xwPEikev6MBhBJ/GyC49SRS9GoQvCJF3yeWqj5qu7n4kDp8YD++GfelaH901AM2srUx9949fPzxx8zq7N2/Hz/8NBn/+eQTVIypLOoCg15FAUtRwRU9iUdZc0RrTpIV6d4fT7rgESkO6qE0CD4AQYPcVIELpU7iaXIxXMGqBcvQkxgEAgicyKk5B+gw8YbFF7n1MuKkyAePMNY00z4HG2miKEzIRNoAtwvUmc+laY55PhqEEYMQTAxCEQ3C32YQNIDAOSAOXgd0ENIkx3tZWZg2ZQpiq8SiQ6eOnAFw8NBBZKSn3yduofcZVTkGzVq2YAuw9sGdCwUQpMUgb5TlEiYDrt14SIuBmTEVdczsgXaBhEG4lpKFKRPnMEAY1bMj/O12MDxXAMG7FCgZtfB6kHWgRNiF1oQwN74Aw/OVPDBNQp5sUCLFDRtw6fZ1DBnQBVHcYlB7F29kNKpau0zyXWTpSYvhYQBBY8lY06IWrM5gxmXFIPyXAIEEOi6kpqTgy6++RPtnnkGbJ9tg34E9OH8+AaVLl8Kunbvx5ptvICgoGJ99+imefqo90u6kMyJ/8sm2CA4K4kVFAOH06QTMnTsHQ559FrFVqmHL5i34ceKP6Nq1C3r1krCStWtWY9WqlQgODkLxYsUxcNAQDpdxOChGWc+U+ddfS5JigwYNOOp5+/YdGDFiBCpXimFBEVnMfpv1C9O6/fsPwtdfjUdMlRgMGjRYRUZrqs8HQ4S/mpr2MJBwH0BQaXGsQWAGgQBCALp0bo1A1WLw6pQZlsqL0R5ID6com7rDbWQNwr5tp7B3y368NVwYBKICtYeFGATqLbscDtitBaxDmP/770i+fh2jR49iS+q4r77E6yNH4sk2bZgl2L93L959+21MnDwJh46dQFLqTbw1ahRHVGtVozRDvFW9dg1oKNw/FykSwCCRoh+2LReAIC0GcjEIg0DpgtwxV7Sir47gYaCu8Od9AYLoEKSelg9fgPDjyuWIb1xVAQQbI3t5t5o2xFu6uXRGOAggHE3ExtXb0b19J7R+ognrccSCqP4tZYeQw8OaD5NBh4vnzmPG9BkYNnwEQkNCMXr0GFStGovRY8Ywq0MixY/+8x+0b98OQcHBmD5jBj748ENUr1VXHe5FNiQVBqS9Z02DsHTZQtViqAkzdSfUvHvpPxLFLYccJ6rRM6ULxYatJ3Bg1QaM6dMLLWLKqxaDWAQf+KFpQ7zOKfXPvMPafL+OxKa+ZxhXgWztIoGraBCoxRAR9fcBggsmHD2TgcWL1yKuVk0Me3YwUKDZstVPZz2Om3MQLCYjtm7egKlTfsKggQM5e56KDtIezJ41m/UglLi6Z/deTJxEAGEsoitUhN5Iw21cFMQocy3YRSGBU4KSlUiRDii9AaeSEzFh+o+oVycW/bs+gyAjHT7CIHhaDJwfUlikeOrsVQEIdUikWLjFwM8rt9ceAteK8N385LL9VRhFXgkq/ptnwxiI2qZUSxfPMLhnCcCVIgDB42JgECNW2cIpmBJPnJyahfkLirQYigAEo16PG9evY+aUaTh17BguJiby9Y+qUAFDhw9DesOmNQAAIABJREFUw8cbsxZBBN5F4qW5DaQSLT2aJC2bhXkVBRAerUEgIKGJFNkdRFUrX5wHAIQeHeFPLQatiaZdem/Hs1BzTePTCgNmH2RGv1X7u5bySw+SgYGNDFtLhoE1CBdZpOgLEIj9U/NQeBNTA9jYuSCiRR5AxYeAFkqmvWCKDleNQJYsqH3VYMLldGkxBBnCmEEgkeLGY3uxaPYc9P+7IkXACps9H7//Ppcp0j59+uDu3btwOm2wFeTi5s1UTizs2LETswsrV6xG3TpxiIqOhsXkB6PJjGLFi6NmzRqcmnX6TAKWLfsTL7/0CipVqozdu3bj0uXLrCegN7p+wwasX78OFMdZr349/Prrrzyp65VXXkaFChX5e1A2AiVt9ezZk0EIbbx16tZBv379uOolcEAXYt68+Thy5DDi4+phx/a9ePa559CsWTNOWaQZEEV7d76b2qPGqj4IJHiFccoGwyJFnYgUNYAQFYDOSqToFSaqjUdzI3h6SNqJJpM0SUFfYDdh3/YED0CoXbWqEgJpB58kdRNqp6qJFPSzf/sVKak30b1bF/z880zYbTZ8M/47vnb0cfz4cT6w2rZtizPnzyO+QWNOOiPKj3qzCrXwJqlN6eQjlDabfw0QFIPgAQidEKcAgte04DMd8wFlEt2Dh/XmNbW+MAiPBgj1Gseid7fmyM+3qux+oQtF96BYE7oHOgovCsCRYz4A4fGmMPFhKdWGsA7gz5Gbw6AHziacwYxp0zF48GDs27cPK5avxLhxX6F+g4Z8eBA79vHHn8BkNvJ9yb2Xi/c+/AjhJUqqMJkHHNU+lHOB3oXdJ4/AAxAa1YCZX5TMVPAFCASAOJiJD+kwbFQA4a0+vdC6ciQDB952fE51r1lSGADek7RzWPWFKVn1QaYfTrjzea0aQLDrvCJFL0Boq1oMmkJb9VwpTEZpdmgP9ACEJesQV7Mmhg4Z5JnF4Hul2KbndMFsMGD3ru147923ER4SrObA0LpyIyM9A+9/8D5q16qNfQcOYNbc3/H5l+MEIJgscDjdHGbDk20ZIFB1L5kI3mg8ou4NSEhOxPgZE1GvNgGE9gwQ7PBqELSR8IUAAvxwihiEhcvRSwGEQPoZfNG0GlF0CHzOqGqAzwr+w/3VLEsDqUL1aTsSI0GfdxpJgyCjwClRL5dcDAwQ/oDNmYU3Xx+sXAw08ZO+u1SxwmdoIVcCEK7fJICwurAGoQhAoDRXctzeTElB0qXLGP3WKDw75Fl2t4UXK8bOA3KvaSYzOtBIOEqfIMgXFBLG75uYZW3f1doK/3cAoQO3GCzanqw963ygy/Wm4sq36/MQOK3uj7cA9AIE2atpfRBASILB02J4dmBXRJYjDQLdJ7XPkcWTF54PQFC7G509cp7RpqPxVFISMUCgR5U0074MQno25vy+jAHC0N79EVY8BBuO7hWb4zN/08Wg01mRlX0H06ZNR1xcXYSEhGDDxo3Qu5wqMKTIxsUvksb8ysKm+x4bG8s2u0WLFuJC4nlUqlQRw4e/zpUUJZRRqBFVuL/8/AtrFbp268bOBEr9S029iV9/+RW1a9dGhw7PsJ//+vXr3Edv164dkpOSOHVr0KBBnMxFvS/Jv9fjyuUrWLNmNdIzMlGzRl20b9+eE7ycrJzVLuiDi6RHAQReo0V2Q566pe4Ri/we4GKIjA5A586thEHwUN8SdORZ6IqG9aqSRIhDNd/fAQjEIEjV4IbLYcNvv/yCmzdvIbZqDHbv3sUsSnz9eh6NQVZWFpYtX46zZ86gZJkyaN+xK4dhFf6gxK9/CBB8ojwK2xwJ8JphdRGDsBXppy9Li6GytBiYNBDjOb8E7Tp7Nwc5tOlgfRibw2IeBWKE4ivcGyQGIdPihy2JiSAGgQBCr65NkV8gI4OZQWBg7qUHPS4Gtz+OnrjkZRAebwqjmm3BoMUDECjy2sG91/NnTmPqlKno1KEza3aaNWvKoNpsJreCHlZbAfbs2YcNG9fDYvFD+3btUL9RQ7gNZjUDo+jdEKZJ+/hfAYQnK0fypqUBBM9h5FOlateeLIBSnSj7mcpNKLqi7gMI97UYMoRBiCyJzl3bgBzAFP4lb0/LQRC1Of+shwGEPKt3yJJ6EQQQWGyn0+HM6ZPYvGkD6sfFIcDPIiwVT4jVsVh63fp1vFdEx8Tg0y/Gca6LwWSBnYSL/P5ltsW/AQisQdCiqjnLQNo+bHN8AEDQRIreNVDYquutDzXJW+Grru0mjwYIbuRaAhkgaBqEkdxiCOT9438BEKRIl3uwYc1ajB41CgMHDECvXr2wZcsWPk88UEhNNzRQLgJZxM0mvDx8BJ544gn+N8T6MCRSjNi/AgiUAaG5GB7KIHSQFkNRdkYBBK7DGcT8jQ9NTHgfg1AEILjFxXCRcxB8GASP9kcAibS05AIIeBDEyHHiHoAg4MBDfNwHEEw+LYYwDO0zAGElSIOwF4tnz/77AAE6K1xuOzIzsriyMakb57JTBXI/ZpLtQus5Cs0rLLELV69dRW7ePVbS09AaWqC0FdFNv5B4AefOnUdc3booV768IFYCGA4Hux4sfn4IDg7mzZJEiampKQiPiJBFp9cjKDhI/V7H4RskcqFkNM4ScNLEMJOIYDhtSuKNfdHffZvaX/2lzz/2PaD+DkCQFsP/PUAgBoExuNuNzIw05NzLQVhoKKx2K4pFRDClRwcRiT9lwbllEiZNvtQbiwgU5QH81wBB9c2kwlbTDRkg+CuAQBqEDoirXAE6SlJkd5QGELTJoIVvCKWi0bNBGpgHfVC756EAgVs3BqQbTdh68SJ+WrUC8Y/HoleXZijIt3qfCxWyJKJDyW+gFoPd7Y9jfwsg8BgZXtB3szKRficNpUqUQk7OPUQUK8ZDxWRBCzVotRbI6FeXCxazH4e+2PkMKzwBku8GaR3+MUBwg3L4fRkEpy4MG7ZIi2E0MQgxwiBIX7MwS+C5zjSgi9YYVX52ByvzjRxgI/f2QQDBV0HCGR+gACG90iAUBgj+FrcABO11qPUquqGHAwRHHoHLws8JHUykngezikSrO3hvcPI8GS0sB0hJuc5FCmUjlC0XiXJRUaBIYrrfpCPia86izX8JEKhS0qh+pv8lO6EoQOhNDIISKQrtooFkAQjEZtBXistFqntmbmgImyAOz+Wne1EUINDXOEx6GGnvJQ2C261aDFZ8NW8hrE6foCTayfllyk96FIMwpF9/hPsHgCyUdMkkQp6uudiv027ewtdffoFTJ04gsnwkF45NmjdjkEkDtbKzs7Fi+XKUj4rkiY928qhbLKhQJZb3flrrPh081QT8Fy0GBRBYP8KWlge1GDrA32aDRbXZNM0V3RK+GgQOfFi0QkyCAjns5FAaFZrfcX+LQQvO0nIQ9JhFNse/AAiyEytqj/cFtVYZSmvnLa0Sb0uVrpmkinoZBIpa1jQIwcQg9CUGgQDCvn8GEHTUP1OiHk1gRBW6iemVIqeoVvl6Il15whNXylS103Agg1EGPhnISscwlzYWevCFhqNgJVbA0tQ0OuQdDv5VFrWiW3izFqERIycfKlyst8rKqJKynA76eUapSj1Jd3+NALwMgsazehdr0Q3QU+EWYRA0keJ9OQhFAILEkcoi1D74e/JBRp/5ZwwC946J4dEBKUnXeFATgSSuvFwulCxZEhHFI1jcSdkUlCRHHza7HRVjqiAoNPwBlfn/CiBI79WtN8Pq8Mc2cjGQSLFDB8TFCECgt83gUbM2KRaBBo3wXdDpcPDQIVy5chUdOzzD2pdCNCvjEC9AYDbAM0Jau8IGpBkEIExevQLxzCA0Q0GeVb6VGt8sQFUzm9Gf6ND2BQid0frxJjBpzIGn7UEHkxwqmelpuH7tGlwOmaRG74HWUGzVqmzrTUtP4+eTKHRqfxUvXhzlypZjgODQhj4Veej46f2nAIEODAIISqND8IQAwkYFELjFECMMgvQ1vRGzhQ5+ElXpgQPHj2Dfzt0Y0KsvypcqrUD9wwCCVjFrfVNfgEAahMUeBsELEOhNamN5tUPqYQBhIOy51vtaHDqaB6OG4hioZeRy8Lr4c/mfnJD4ZNs2KilRRtjLVEDZt/gwphkM6nSgdhGPIv+nLQa3XQFe1cdXAIHWgZ6SFBWDsHrhchBAYJGicjEwJOKtQMARiYIpt5+bHS43ridfw65dO9GqdSt2xxT1vTNAkKvIokfazRxGA0wK7Hg1CP89QBjcr78kKWoBPXzLJK2ACsoVf/6JcwkJsBVYGRwEhwSjRKlS7NihAi+mcgwm/fQTqteowTkVN1JT0aVXLxj9/Hm90LfjAKb/EYPwMIDQsEIljOreEYF2AQjaE80plnDjxi3Ky7jGhajGsMly1DJQ5Fc/i4WZ2JCgYC6mObZaS4lV65n1Vm6aqioixX8CEDxrUqWtehsecnCIJkrW26MAwrC+/RHKAIEYhL/RYqgeGc2om3ZzuhDaoS1THKW61w5ntnzQQBMWlwny1yxyUgkKhe4dMazYASf1mlhJ5aHYWV1tkJ477X+kPyCgr10MPuhVP/L+yvH+Q5ZulGgSNFGiHLx0wfi1ag8c5bP72PqU9hs6zpX1xCN6EP19IEEpSbUkRckR8ElSzMnAD79NBrUYPCJFDrrwCUnyESkKUtRAjPIeu42wOopoEGKrcuKlBt4k0lQAAoXD/DJjBlJvXEe9evX5vezftw+PlS2LPv364utxXyMyKhIVoqORX1DAUzVffOU1NHziCXVfvO+SSXqfFoPWhyZoY9VrSYoStVzdE7Us70JWkVpmSpxFAKHAYcG2FdsVQHhGbI6FAIIkUzI9qw5DrqIcTvy5bBnPjB81ahQiIsK9jJBKY2OVucfFcH+LgUAXAYQtFy9iig9AyCeAoJTOIgrTVMyqfmWRYoAPg0AAoSnMavOQECLZzGVTcGD3zh1YsnAhGjV6nFtcSUnXsHnzFkyaPIkFtjdv32KxLYEHGlBWuXIMi36J3qYqmx7e+49db+uF/s6qgpJIg9CcbY41YCmqQSgCEKgGderCsYk0CCuFQWgVE6nMVN7oaNnnZfA0rx23HlazDgvXrMAfv83F12M/R53Y6nA7bWoNqdhvdc/oGSH2iY97zybqEgbBYMLxNAEI4SRS7EIaBKp8pRjgCoyvqTxD3taPGUfPpGOxjwaBGIT7PiiZ1e7AtcuXcS8nCwbSPdgKMG3KVJQoWQI9evdiYbTUGuRWcMokFL2kwZaLqgj/wCCxrlKBogCCjhIufV0MjONFpPj99IksUuzbtR2CjG44FEDgPVAFgHFCbVGAsGAFetWt72EQuOJjgCAAlfZGOwEcoxl22pMNRhw6fBC//PIzhg59lSfbegoMpb0gWt/A/Wm5b8wgsEjRwZW95CCQSLEoQKDAI9lLeB0w2P1rDcKgvv0Q7gMQ+LmlZ07vRvqddMybNQsN4uph147tPI+kc9cuOHnqFKZMnYIB/fqjUaNG+Pbb71CrpiRYzp47B++P/RQ168bdB/z4meS2q9qbiwQleaOWOyEkkIpQmpqqRIp/ySDMRsPoShjZvSNC7HZOC9bmX9CvdpcTS1cuw7QZMxBRvDjnOAh+lHOF2yB6A7PeNqsVX3z5JWrXqCFjozU2wmc9y5lJNkc9knVGT4thCEctlxCbIz/8IlL0rAGFkmRZ0B6hSTi8Ik9tfgSPlVYOCDliSJxSmEHwAoQ9WDx77v0tBqvL5d64/wTGz1qEwT16o0ZkJAx2enxkNj3ZVeigzcrOQkCAv5ppL/PuCSDcSUvjzS84OIRFc1oqlrBeosInNazLZWfhRXJyMu7ezUH1ajVU5L52ECuaTDtPeIOQNoKmLdCqCk1ARwyC9PAFDJCugW4Unfd5+feQfTcTxSJKqmqEmAk38vLzebokJQs67DQa+hCr+v39LcxOXLt2Dbl5eahatTrboVhHrN2oBzUneA2pqGXOWpf3QyJFsTlK1HIkiRTJ5hjkJwEiHuZAKcCVEMnrvJWWjZDVRljtRuzfnoA9W/aJiyE29j6RIovM3G62Ok6dNAmlSpZA3z592CJKmwkptwcOHoQJ4yegV+/eqF+vHkfPfvrpp2jbsROat2kjamKfB5n+rLHHnnvLXVkd7AY9lq1Zh41b16DvoNaoFhspUbmqTSQabJZNyYFLqmS9BQUOM7au2IH001cxokN71KtcCTobPR90oIgj4HZ6Gv5cthy379zxgDmqskkJnZaRjrr142ExU+gUXSU9/CxmtG39JBrFxfE1oCAVLZiUdc5KdEX/+o7ZD1suXMK01asQ/3gV9Oz8OAoKbKq35zWZC0MkDyQxCCRS1FoMXdt14qAkHhTMU9q8i9hIa9XhxIb1a7Br+za2AtPUTHrWPvnkY0yaNAlLli5FiRIlMGTws2zR+vTTz3jDGf3OGBhM/vz9CgvR1MJQpYsM8dLBqnNj77EjWLZyAZo2jxeAQC+AI69EBc1Xw9NikMAgpz4Um7eexMEV6zC6Tx+0rBgJkxoPLdWrDhnZWfhz5UokXU+WA5uCXYx6nLl6CRdPn0Pzxk+gZEQEXE6KqXbBbDShYb16aNvySa742Oqmro8m+KR7bNcZkWcw4WR6BqYtX4Lw6BLo2uVJ+JslilmqMtXn5W1BGSQ5idCAE2cysVQBhFcHD4Qjt8AjotVYRKra7txKxW/TZuL8mTO8tklkTaFJVKXSaG0to4ALD/qZpK3Q6VG8ZCm8OuINRMdUUSp+YaKoPcJB1ZoNUZ3KToMRZ5MuYuLUH1C3bhX07dYOASZhT2WsMX2tFnRD7Qo1iwEBOHXmKlYvJIBQDx0bN0AQ6znoeaW1YkRufgG27dyOI8eOCQtABY3BwI6uhFOnULt2LRQrXsxTYdOOWyM2Fu2ffhpB/jJXQUTUMsabI36pTQcd7lkCcTXPiq//WIx8ZwbeGD4QIYG0PwmwlvkHsodr7Bq7JGBhkeIfC1YjIqwUBhFNHeDH64775OpX2p8pzC7t1i0UDw3Cd9+OZ00ZTcqkNUD345233+EilIqWunVlZswXX30J//AIvDF6NJ8rviyWbJNqZStWmNJ7dUYTrt+8gTmL5iA4yAyymoYE0Wu3qbA8EfwxwFChg9LwMoNyEKZOnIWGFSpiVLdOCOBZDDwwQwoVFvW6MG/BAmzduQMvv/oqh2nJMC31wWjChUMH9uOXmTPx/YTxqFu7prR0VJ+Nfj5zxjo+Xfn1UA7CNRgxe+N6XL6dikEDOiOqfDEV+S5oSM5Rz7v27M98PhDjrjF/SjDtYZPY6aAQlU5GluuMRlzhqOVlCNKHYmg/bRaDMAj9O3QsHLVsc7rdG/cfx3ezF2FwTxn3bLIRQDCoysGJe/fuYsWK5WzDIpeBn7+FrYd04NDGRmFH7Z5u5/GIehc39bQNzATQjIXMzNuYMWM698BfevFlXL5yCUePHlEgwlsxycHvRpkypdG6dWtmLihY6fz580yZMy3LY6Wl3UDzGho0aIjo6MpcqTicVuzasw27dm3HiGFvISQ0FMnJ13D06EEUWPOxfNlytGnbllMaSVlOIkgSjdVvEIft27fDbnOga5ee3Is0m2QaJCv/H5IMw/0g0jxoUctM4RbOQYiMDkSnzq0QHEhAhO6Uxp4wxFQ0Ld17VTkpclHugxE2uwH7dyiAMMwLEBS84nahmRazwwErBUhNnowbKddRv159Bgi7d+9E+fLlMXjwEIwdOxaPPfYYypZ9jDd+Es89P2woWtA9ZMaHNBvy4POWrZWxjPoEwRMMsBuNWLFmLTZtXY3eg1qjamx5rpzJwiPKWtpwRTXNHy5StZuR7zRh28qdSD99DSM6tEP9ipWgszr5GvKRogPOJp7Hex98iHKRkShVujQ/DwQWT58+jfTMTNStFwd/ind161CQl4d9e/bi1RdfxMDe3aV/ysYmqcBkc5fMdtrg0syUg3AZ01evRr3GVdC9SyPOQeBFqN6j1mJ4FEBgPQ4BY61fzQwCVSwu7Ni+BbN/+YWFVmT5vXLlCrZu3Ypp06eziJbGn9esWQf+QYFYs24NYqtXw8i3RsFgIYBglNei0Jmo6OlnqeAqsoHpiaIE9h09jD9XL0DTZnFo8rgABGpxiCBOjOIEdjVWjfYVsjlu23YSB5avxZg+vdGqQhRMXJDQT6KJkjqk3L6Fke+8w+l5NWrU4qrS5nIjMekqLpw5h5ZNmyEkmNo8NLJah2OHDqN+nXi8O/ItWFgj4gBcviyegD+bBhAyMjFtxRKxOXZpzQwCAQR63PgZVDoMcT/QFaWIaB1Ons7AsqXrEV+zJl4ZNBCsQVAOIGonCudD7VAd8rPugoIl83JzMX7C9/CzmDBo0EDORCEhKT+WrP9wc7yyyWKB0S8AQeER3AcXgCxsqAAEyUFg4kFl5TuMJpy/lohJDBBi0Kt7O/gbXXA7CaLRSHZ6tkUCyrkezCAQtAxAwpkkrCIGIT4eHRoSQKCVRYc4XQQzsu7lYvwP3+NK0jVEVYjm10ctNwII586eRa0aNREWFqbmt7hw9WIiSkaE4aMPP0KJ8HCJs/F5rum10DqgsCpNpPjtgiXIc2RgxLD+CA2yyBwFXv96xSiqzYDdPQIQUtjFsEYAQr8BCCWAQOBFHXwCKOjaueBvNCH3bia+GTcOderUYV3BnDlz8PaYt1Gndh1kZ2fiyy++QqPGjdG9W1ccPHIEX4yfgFeHD0fTpk0LtT0LRalze49jOzhqOeV2KuYSQAg0YlDPzggmgOCiEXQ0SVNixl2yOahputQ+tSA5hQDCb2gUTQChI/yIEePJn7R/iSuErLnzFy3Ern37Mfz1Eawl0p4DqeEJhOtw/MhRfDfuS3w/4TvE1a7FQ6/0TjVfwyVJlC49lRsiyKa1cI1sjps24NKdGxjUnwBChPhUGXRQa02stVrBIwWcPOX04kTbIxDC19TtsW1z0UXAljCPEZfTczD39+UMEF5TAGHjkT1YNHsuBnT8mwCBDwqTAU6XDfkFuZj3++8oXrwEK1BtdisfOjSU6aMP/4MB/QdxbCz1WjVhFf+qNjOq3NMz72DR4nm4cP4Chg8bgQoVKmHnrh3YsX27j/9f3qjYM3TseujevQcf3lu3bsPBg/sVUyB2LTowqI916fJVHszUqmUbUbm7Hdi9eytWrPoTH7z/KU+YTM9Iw8GDe6E36HjEbu3adXljOH/+AurUqc39eKLUJk78EZlZWQgPK448pi71aN6sBbp27Y7Q0ND79RfyuCnnvBLj0Y3SPwAgdGqJ4CDKGCg6g0FV2J6CVby6Ip2gh9T0twAC9V1Z+WG3Yc+OHTz8pGLFilzJ0TyAzKxMhIeFISs7m8dA0+eoBUFjVpu3eQpRsTF8/XwR+78BCMx78IFJCFxNBaMH2qVnBsEDEM4kYUT7pxBfoRIMdmlXaQDhzIVz+Orrb/DmqFE8BZFeF7leFi1ajLNnz+LNkW+iWEQxRs85WVkc+PRkq1bo27OrmpYpP58XhRpuImLDhwEEEm1K+I2C3WpjEobqoQwCV0wPAAg6Fy6eP4vjRw7zPSCWjdiQgwcPsFDLarXy2X/ufCJKliqBkPAwFC9VkuczuKmdRip3dTAJUPMFCHoWp9E4XII1+4sCBBKCK5ujbCJkldPGJ8v3YYCwXQGE3r3QqmI0AwQGuW4DH5YUPDPm/ffwTOdO6NmrF0wueq4NWLpqJRb8Ph/jPv8C1apVRb4tjyuecV98CVJavPPmWwikIWt0N51E8WqA8e8BBK29wLuBajMxQOCerQCEP5esE4AweBCcPgBBO/AJFJp1bhiJ9cgvwKaNG3l6bI8e3bBz53bcSr3J658ta6rtmJmdBUtgIF4f9RYaN2kGWv3/GiAYnF6AQPeuCEAgkaIb/kg4m4zVjwAI30+ciMjoKPQb0J/ZA3oaDh8+jDmzZ3OhRdQ8XSpi2BbMm4vjR4/g07FjUZyAw38DELhtpwS1fP7Qcy5V942b2Y8GCKq4ZlmlzYbPPhvLDEKV2FjcTE1FhegKOHL4MM/1OXL4CJ5//nlmdnPzcrFh1y5UqhKLipUqFRFOazW7nBHcOqFD0mjAjVsPAwgqAIxZFMVQKWGfy21GUkoGpk2ahUZRFTGyiwAEanUxQCAAQvuS3oUly5ZjwqRJiK4Yze0pckRpbBcVrjQ1lPaie9lZ+OnHCahbqzBAIKaD+SQ9GCDwZfk3AMEzEpwXrAIIopVjgKB8yuJvkCKDCxgGCJSD8C8BwqAexCCUh5FbDC7YnTYcPryfK/0DB/ZzFR0fF8/WxeTr13DlymWsXr0ODRs+jqpVqsFhE4XwY4+VRXx8fR60RJVLRibRxYtw9mwCevbsgcceK4/wsGIICAwQelb14DUtAG24muNAEyISDSXtQmkn0AZJNCaxGJN+moxGjZqgdSsCCHS4OrF9xyasWr0C//nwc0bYpFaePecXnndesUJF7vtS1UAbdWBgAM8gX7d+LXbt2sGDpopFlMDSpctRvHhJdO/Wgwe80Pu5T6CpAALboRjQeTUIdgNw/V4mByUxg9CpJc9i8NLuGj8lWg1NfCnUvHSdWKhIDILDWIhBqEktBpVVwBSsGtGqczmRev06ThIlSSBKoXhifI4dO8b/U/aEn78fZ1HQR4uWLeEXEoL4J55A8RI0atS3z/3PGQQBCAQ0CCDQ+xIxpttFBx/lIBixbdUupJ9JxnAGCBVhLAIQzhJA+PYbjBo9BrUpl501JU7Mnz+fWYQxY8awK0MAQjYDhNYtmqNPz66q9aLEpYoG1LYVqqrvmP2xOfESpq9eg3qNY9C9S2NWsXsBgrr6Hr2oD0A4LjbHbu06sQaBWwxFGQSdDnk52Ti4fw8y0tLg52eR1+9w4ubNm1i9ZjWaPNEE0RUq4MyZ87hw4QJatmnF3vCYarGIrVGTgRRPutOmfaq0NgE9AhCYQXgIQOA2ljYzwQcgsNWXK6JQbFcA4a2ePdC6cgWzXaBCAAAgAElEQVQeXU3gnN1Iej2SUlMx+v330KFzJ/Tr3x+ufDv0ZhOWrFyFBXPm4puvxiE2tgpsLhtcLhu+HfcN9A4X3h01GiYDxzFJO80HINAPtxF1Ti2GIgxCgEVpRpT+gDM3FIPiAQjQ4URCOv5cqgDCIMpBsN7XYiAtjokqNRewce16/PjDj3j66XZ47bVXce7cGeTn5Xn0SBcvXsTeffu4Kq/XsCEGPPccSpYpBwfprjzaEsUg8EYrLQ+qZpl+Nhhx4dpFTJrmZRD89NKC9WQo+AIEZq8VQDiThNULV/4lg0AAoXx0JJ57/nklUnTh6JGj+Pnnn/Haq69wFU53zQMQjhzGpx9/gggSHbNrgWGT0pPxuCgGWnnK5liUQWC9hdoDdEUAgjQMiUHIxh8LH8UgSFVLLJvbmo/169ejbNmy3Eqg9ZBwKoHdCwX5+ahUuTI6d+7MAXkEQvJZJ6Nm5xRyqMhK1nJK6PdOBghGXL+ZwgxCSLAJA3vSuGc6QO0cSCQFixcgyFon0acZyQogNIysiJFdOyDAZYeeC1ATn01ugw42uLD4zz+xfPVqDBg0iDN+yL3GWzR9H26vO5Fw8gSWLlqIHyaM5yAvA7EHJBSnWA5OMBWG9N8CBPGU0Jqig1+YdmJslSVK2e01t4M6rXwBAmsQCCBIi+G1fv153DMzCHPmYAC3GHp4xz37thgIIFQrXw56m5379fn597D0z8U4feYULl26yLZEqvw7duyAhITjQvufu4BKlWJRongJpv9pKFP16jUwcuRoBAUGsd7g999nIy39Frp27YS8/DysWrkWgwY9x4pW6bEoQZhGayslCrsZ7AQG5C+o55Zz7y5b9Kjip1+pSt64YRM6d+6Oli1aK4DgwrYdG7F69Qp88N4nPEGPDv/ExLMICwvl70duinJly7KmYufOnRyDm5eXg4zMdFSuVAk1a9TB/D8WoUuXboirGy+BHlqvRzvXtQ612ijoKRANAgEFPTSA8MOvIlJkDcIDAIK0HMQvLSBBxIkaQKAWg91BLYbTokEYNgIPAgjsXXY4cOdmKoMEttilpTM4unDhHAOcatWr8fuNrVIFMVWqcMAU9TB1fn6oULUqU2f/GwbhfoDgYoBggdVp8ACEYc88jfioCjA5CjMI5xIvYOwXn6HVk20QFRXtAQi7d+/m90OZGf4Une10Ii8nl1Mj+/Tqif49uingpEECsSqqHY+5hDSLPzYlXsKM1asRzy2GBwEEAWxC6hQGCJuKAAQW6/q0GKiuyMu5i8QLZ5GRdgf37uWwa4HYsxupN3jePbUXHE4Xb+7FSpZg667Rz4zS1PqJjoZLbxb1Mx+Qyv8s5LvS1HgBArUYlqsWwxPUYpC8ZzXSlsKzSAUuDALrd/Runua4Y8cpbjGM6tEDrStVgJkYWf55BrZzXUu9gbfefRdVqlfjNoneIUr6XYcOYt/2nRgycBC3qigSiJJOFy9YyK6GD8a8CxP3rqkhIC4G75wLH4CQnonpK5ewSLGrajHwkfsQgEAg3A49TiakY+kSajHUwKuDBxcGCOzaIWTkoNGmOLJnP2ZMnY7jx45xKFj//v3gcIillfYrAmwUt0yBa81atED5qCgEhoUDRjOM/qIFkcwHrcUg9joNIBDT4tAbkJh0uRBAsOipveITslQIIBBtTFl9/txieBRA+O6H72Fz2NHyydZqvLGL2T+aUdOuXXtUqBjNdDUBhL07dsCacxcff/QflIiIgNuhHEBqngm3GJjb0QCCHd8u9G0x+ClBpljRNR2ZrB+RYAtAIA3CGkSEl/6LFoNyUZCize1gPcLVq1cRFhqGiGIRbFc+nXCaM26oaKM9ncTwRrMFBSTM5EwdT5df7bqa/kDL4CB8LgAh2QMQzBjYqxOCAwQgUKHyIIBAp6nLbUFSSjqmT54NAghvdnkGgcQeOO3KceeCUw/Y3S4s+vNPbN25E2PeeRulSpbma+4xzdNz4nLg0IEDGP/t1/j+u28QV7MW9A4nAwSp7iXl8r8FCJLLIQBB2lVKo+PRZnjNxdySKQIQaNzz3HnLEKwLwWv9BvgAhNkY0KHTXwGEnqharjz0VoqddcNg1KHAmgebvQBz58zhKY09evQQrytcSLxwARMnTsQLz7+EevH1WL05deoUZGRkYvTotxERXozHMe/dtwdVq8YgMMgfM2fMROnSZdGxQxekpWWwlkGUxGTfoU3ZDaNBhqOQat3P358HfBBT8PkXY5GWnspTI0WY6OT/7+XkY+hrIxkgMC2vGISVq5bjow8/Q1hoOFJvpuD0mZO4dvUyH4xXLl9FhYoV+fCfNetXVKteHfFxdXEn7Tbmz5+H9PRs1Khek2dHhASFefz5RRkEEb+pQ4TRoRxGlEbgMALXczLxw2+TFIPQCsFBvgyC2vw1Wlu1Vh4MEB7NIBBAuJedjbWrV3I/+G52NrMtJJQi1ofifCMjI3HgwAGsWbMGWVnZHPdLgMASHIxu/fqjdp3ayrYj6/Hftxj+HUBgCk4HXLh0ER9/OpZRN79G1SsmapKmwJWNimQlMbXq7FYbbt28iTeHDUOvDu3VLAHlYVf9VwHZss3fsQRg84VEzFizFnEPAwg8PfLfAQTaEE6fOo7FC//gLApaFwVWK4PQp556Co0aNsLlK5exft16nDiRIFkeBj0MZiMaN22C9h07w+AXqJgQeUa8/3sBgtZi2HfsMFasWoimzePQpFF1mHnSDm3mArzdTmoxiOCMAYKOKsgQbN+egIMr1mJkd2IQKsLMMiCikQ38epJTUzHmww9Y81GMmCWHG1a3C6kZ6UhLvYXYyjHwt1i4mCAr4c2UG3iyeQuMfmMk/IzkXRfBKm9iIofnDVVjEE4RQFghAKFLV9EgPBIguA04kZDGIsV61GIYMhjuIgyCVIdOpKYkYda0GfA3+WHTxk1oSdn+JhOys9KZzaHDJzsri6txChALLxYBB1VkfgHo3X8AqtWuzUyKOLTkaGQrJD9Tko9P1S65Ay4mX/lbAIGdR6ynoerUH6fPJmPNwpXoWS8eHRo8WIPw/cQfcejIYYQVi1Cvwo27OTlIvnEd5cqXQ2BgsMqccSM3PR11q1bDO8SwhUaII01khspNRvHRokEQBsGO73wBQrAfA1M5l0kPpUSKDwAIHg1C/4EiUiyiQaBAIQItZAXWOWzIzMjEV199iZYtW6LDMx1wL/cexn35FYPMPn364vChgwyU69dvAKfJBJeRdDMeGc59AEHQu0y9pVTG5NQUzFk8B6HBZgzq2QlBGkBgGXMRBkFZ8p1uxSBMno3GURXxeqf2CKb2utMOPbPMlJXgghVu/LlqBSZPn4HqtWrATLkxQsbxdeJsDRLG3kxFSnISfvp+Aid96gmwqmwXsb/L22Cj0b9oMQggkWeI2XKa/Kls/6L5oJfzfwkQypeHgUSKNPWNQznssFrzMXfuXISHR3AqIaNQl5NHPU+eMhVDXxuKqrFVeSOcMWMa0tPT8fY778Lfz1+Qk8uJrKx0/PLrTNy4kYq3x7yPtDsZmDt3PnJz85ieFIDgRGrqDf6aqKiKjPAjI6MwbNhQ3LhxA5Mm/4gXXngOMTTch3r8ThuHzFy+fA1lSkUisnwlrvR1ege279zCwkpiEOgBdDjt2LNnB65fT0LNWrVx6eJFfvhp4uHKVavwVNu2jMSuXL3CToacnHzWXBAbUqdWXZR9rDwPeLkfIGh+BFJ+3w8Q2MVADEIFajG0QHCwRVVpmuPD69UXsbBYirwMAukbTLCTSHFnUQbBmw/ADwy1a2w2nDx2FJN//AGZ6elo3KgRSpUuxfemevXqaNCwAVatXIXsu9nIy8tnxoeEmm06dsCAF15EdHSUDz8ir0c2RW/vjwAF+ajtZM9buxabt60pJFJ8eIuBFogf8hxG7Fy9B5lnkzGs3VOoGxUFk0NEgiKC0iHjbhZOJSSgfHQFhJHYilMHrTwRlCh5olYjIooxjZufl8+VSIXy5VA1mpwUKjGt8JbChyVrECwBPM1xxpo1zCB07dwYNqsSKWqHMYclPRwgdHmqA558opnYHIleVFZZ+tk0yvX2zRv4ZcY0bN+2FbVr1UJ0dDQDgbvZdzl2+fjxY0i8kMhVJrkEdu3dh3LRFfD6qJGoFR/Pk/dYdqxZSDQNArtqVFoprQEdcODYUSxfRS6GvwAItEWq3BB6Tu0Ixo4dAhDe7N4drStVhB89v4ywKUhIh7t5uSzKKlWmNCKjKzCN6jTqsXrjBixdsBjvvfMOqlapAqc9nyWE50+fRYDFD/Xj4lk8ynGxKslNzhvphVLflVoMpzK8AIFdDBbFpD2IQWA6GLC5dTiZkMEAIb6GAAR65n0rTReLl91w2PJx69p1WAwmvD5iBJo0bYaoqEjcy72rxjC7cefOHaxdsxYdO3VGydKlJQjKbEaz1q1RNjLSo0GgtUXUrrYWPAwC8SRGIy4VAQhmnZ0PBhmZ7NUgaABB0yB4AEJ8HDo2qIdgp93jhCJYVeBw4sSpU3wglYsszwp86mEfO3ESfyz4g10wNapX4+eIWqYpV68i7242GtSvD38C1rQfKrukTCYnkKMAgl9QYYAwvD/CyGXlAxCENSVRi4gZfBkEX5FiWCABBK+oltcyRycbeLqpzmrF0qVLsFW5eog9phC3Tz8Zi4iICAwfPhwJCQk4sP8AypUri1bPdICJQIfHSSG0OetjGBcoCybvT9Ry0yPlFrkY5iIsxAsQ3G7FIMisWI8GQQ2A8LYYJpMGoRJe79gewZRColoMFMxGbQabzo3Fy5fh9z8WoEXrlgilGGglVhVjhY4TFpOuXcWenTvww7ffsEaGAIJH5c3CYtnjqO1CmgSe5qgzYe6mDbicloqB/TvJuOcHihRFgsjf4W8ABN7B+Fyg66U0CAYTNAYhSBeCof+EQRjcqxczCEYbXVS5ARR7nJKShN9++5V7v1WrVmVR35Ejh7gCLSiw4sMPP0L5cuU5jGTSpJ+QnnYbb7/zHlPaRB/l5t7DvHlzMW/eHLRr3wGvjxjJnam8XPKeU1BPPkxmCVKaOnUqbqbexpdffsUtdqoeSSNAQ5wWL16Mjz/5DyLIosTKaerBEI1JvxoQGlJCDjKdDdu2bcbKlSvx8UefITyiGOx2K46fOMyTImn0M2kjCN3SdL2SJUtxBG5CwilEV6zA+okA/xCcOX0a+w/sR7nHotip4ecf4LW1qMPHY51RD21RBoEAArUYohggNPcBCFrGfNEoVem7efIHeACuuBgO7CIXw35vi4HoQ2UBE9U92evscBXkY+bUqYgIDUXnLp3Zzrlo0SKm+Pr264fx48ejQ4cO3AukFLNvvv0WnXv1RuNWLRgE+X7I61DVuFICM51JG6PBhFXr1mLL9r8LEIhiMyPXYcHu1XuRdSaJAUId1r1YZU1whgQno3BWOfXaOQQLQL7dxtHQZxISMGrYCJQuWUpldYhYlSZU6ql/yG+g6FhvaWHQ92YGIZEAgrQYunRqDLtNULfHcfEIgNCxTXu0bdoCFnIE8Iaqpe7JFEH6f8umTdiycR2GvvYaIooXY2HZN998i8mTJ2HJ4iUIDvDHgD592aI1fuJEmAOC8MZbbwFmMwujZHF7NwV5tkSYxA4RA9Hbehw8rgACuRiIQeBek5rFoDEIfC2lGqZDy44Q7Nh5SgBC1+5oVSka9HSLc0JsjnIkkjVKmAd6nVY9sGTlciye/we+/OxzVKpUCWbiy9jrTzoL6t1qY7eVx4a3EgHSdIbYDUYUmPwYIBSyOf4FQKCKnd52IYBQsxZeHjIITiu1RL1UNL9W8mLoAbNLh7TUm3jh+RfQtXs3vPLay9yWpA2WwtnOnzuHt0aP5vtSpXpNWO12rkZZva5scZIDUAQgKCaBPkvv51Jy4RYDAQShM70AQe6dVv2JBsEDEOrWRccGcQh2ULdbbJ7yI7RJktogJrL0GXH46HH8Nus3vPbKa4irVRsuq92jV3FSe0VpCDRdF60hHhDEuRYEEPTI8wvC1TybYhAyMeIhAEHaWuo5ZBbuIS4GH9eN7x5CO8qlkyfY7tu9Z08898LzvK/n5ORg7Kdjuf1GM3bMRjMuX76M6ykpqFAtFqXLluUila++Asq0F8mzqbFqMtOALKoiUvQChOBAPdykQSCGgf7jwVoa0BD2gd4LiRSnK5HicAIIOhcMDjvnTRDYpAeJWm5z5s/HwaNH8d4HH6B06TJK26HYY9IDOR3Ys2c3vh33Fb7+dCziatRQDgZlPPQBCFRIUDFbAANSDEb8vnnT3wMInqhlbS94OIMgJQ5lsjwYIATqQzCs7z9oMfgCBDp47uXmYO3a1Thx4hgLFakKohYDTVik8c3krb9z+zZefOkVtGjeEsWLRWDWrF+QnJyEMW+/wz1iqu4WLJiPo8eOIC/vHmrXqotXXxsBf3OQqoQAu7MAFouBezhffPElbt9Kw08/TeIeC1UtJCQkNmDZ8qWMimXmOKF5iVGlBd+zR39079aHsxDcyMeWLRuxZs1afPD+JyhdpgwKCvJw4sQRXEu6yswG0zs2O3Jy7go9RLSPyQi/AH+Ou3U65KEkUU2F6EoICgyBiUaPFumJFQYIIp4RpK2D1dNimIzo6ABmEIKCeNK4QoFaRoAsJ0/whodBoM9K7KvN9iiAwPCa1bf2vHuYOXUKgvz9OfefEDAdSOQC6D9gAHuOabw2WY5onsWE7yegc+/eaPrkk//fAASONlVCRwNPKtOhwG7D4qVL2dc+ZvgbKB5RTIVeCcNB1ZlBVa0k7FRXVfESKpNOD9zxIw1CImYqBkEDCHLEKIHPwwACRS2v2o5ObdqjTdMWTMtLa8wHINCW5XIzSN2wdjWGPDsEJUqWxPETxzF+/AQGCEuX/olgf3/07t4DBosZ30z4AUFh4Rj59jvc59fyKLyTPrUNkTY9eruiQXDq9Thw4ihWUA6CD0CgdSFVll5aDPcBhGDs2KkYhCIAQTCCvAbxbROFqmcRssugx4r167Bwzjx8NvYTVImJgd7lAEUvUPKq5kCSE0pZtLj4VNocplUNyLf4ISE9i1sMYVoOQhGA4GtzZEEZgQuyOSaQi0Fsji8NGQynlZIUvQBBawkQzCaRYnZ6Bp4dPIQBwgsvvciuHnJgEcV9/tx5/PTTRHzz3QRUqVqdeXh6zujA0YJyhC1ggY/KJhGBoqxiAgiGwgxCt3Yw6WS2BzvfWUEs+QnsymDr2qMBgkahUzgTf6ka5Uw98aMnTmLW7Dl4+aWXUKdqDRaHEsAmkbSTQ97kQ4v9ZSscV8N0j8SGzS2GfAIISzkHYcTwAcIgsGBa25BEE/V3AIKIar3QQDvUM2/extRxX2P9unUYNWY0ipUogcRLicjOuYtt27ezi4rs7PSUXL16hZNdy0RH49URw/iskYJZyzKhu0rPpmrP8pOlAMLNG5i7hACChW2OQQG0JwhAoPHK3K5QEypFt8npHUi6noEZU2ajUWRFEEAIJXBJrW9i3MgCS9NH4cb8xYuwZPlyjokm7Zo3B0GofZ4DdOUSEo4fw/hxXyGuevVCAMGtl/soS+OfAwRtWJPa7ZQNUt4X36MiLYb/W4BASVt593Dw4D6EBAdhx87t7KPv3qMHi0koG2H8hO+QeOESihcvhcfKPIbnhgzG5i0bkXgxEW++8QYCAoLYwrJ58ya2Q+3fv4cPvFdeGYZA/1CFjqmStsFgEhXoF59/gVu30vD9hB9h0JtYyEXvn2yKGRlp6upqB6uLWxcLFy1B82at0bVzL7EHuvKxafN6rF+/AR9+MJYDaeh7JyVfweXLFxm5keCSfqWH+Nq1JAY8LVq04B6YDHORgTSUNhgdVRlGmiHPG7cvNhYaTdu6xVGmuRl0sJooKCmDWwxR0YHo7AMQvN5qdSBpgkd5fNQiEEULDzhiBoFaDF4GQUfCPg8FTZZzUm4DTrsVv8+ehZTkZLYU0QN06tQpFmV27d4dP/7wA7ddSpUqxXMYaGT2kJdeQlyjxh6wpL1Lb4tBVTW0UP8bBgGKQVjzcAZBdAg6GDgKWvqYVP1SL3DlqtVIunIVLw9+FuGhocLXqQE41G7QuykISBN4St9RaZ5FUKR3445fADYlXsTMtWsQ3ygWXTs3EgZBWSK51fMXDAK5GIoChEIiRdooXW7s37sbixbMQ83atdgim3wjBfv378fX48Zh06bNSElKQu1q1aEzGbFt9x5EVY7Bq8NHcIXIr9W3IlMuBq4JfAACMwgnjmHFyj/+EiBwDVWIQVAAYflajOwmDIIfTwAUKyJ33QkkcNS50MtGmj7ncmHjjm1Yu2IVxowchfLlysGoI8UNDTYSoa2wWZSqqjLvldWOHUvEPOmNyFMMAmsQoikHwdti4I2Nsw/UuF/VdmMVOPTiYlAixZeeHQInaRB8AAIHq5GGigCCE8jOyMC7b7+Ltu2eQq/evXA3J5stgocOHeLiokLFChjx+psoUaoMi92ozUDiQ61f7AsQhCeRdakJWO16Ay5dv4KflIuhNwEEiBDSY0/1AASNQaAkPhIpJmPtopXoSQxC/TgEO4swCOxzN0Bn0MPuohkKDsBo4OmrCxcvQd++fVE9JhYGBRBEFklZMYpSVoFzsqvQ2tVyEIhBCMTVfBIp+gIEf3HPeHr/RQACAxW/QjkIAz1BSSLG0zTBdP/JMr543nwc2LIFqSk38Ozzz8ES4Idz58/zP6NskKTkJPTvPwAlS5ZgpxzlnsDPwgwCOd1Yt68cW6SPkcwRT5nlAQgpBBAWz0V4mB9rEAL9qB1nZXu1L0Dg+8qgg3IQzLiekoGZU+agYVQFDO/QDmGUaUAtT3IKcXYCuYVcmPPHH5g1bx7i69fn10XaBzmsVXaNHrielIRLiefx04TxqEcMgnKRSFtEhX8psEbx2VYYkKw3Yt4WXwahhNIRFM5B8ATsqRHccq21oGUtcdGrQXg0QAgFJSl6XQyPECn6MgjaIid9AFWev/76C9OkZJGz+Flw9OhhzJw5A506dkHFSlVwKfEyGjWojy1bN+L8hXN47tnncPjwEVSrVo0DeeiBnT59GpxOHYYNe50BAiE76hWSZgA6mv3gwOeff47bt9Lx4w8/MUDgHH5PqqIaVqP6sfS1qTdvYPKkKXj6qY54/PHmvKc6nQQQNmDDho346MNPWDtBKuv0jNs8BpoYCS2MiQ5q0jccO3aC2wxh4cUk14AQnsOJqlWroWJ0LOe6a9GjvhChKEDQ/kwHHAGE67lKg0BJio8ACIW+L4MEYTYoB8FqNz0AIIiVSgMJTCWpDPQ7t2/CbDTyoCY67GhUNr22UiVL4VrSNdZX+Af482FPjE9EyTIIfMAsBq3VwRvM/6DFQIidWgy7/gIg0KFEYOB2ejoys3IQHR3J48NJtHvrdhq3rCo+Vl6sdMQmqT4bW9soklZVdr66Cd4elZTijj8BhMuYQTbHx6ugW+dGsNko2lQxCI8ACORioBaDL4PAi58XLrE4LtYhZKWncbstJDQYoWFhHGt97dpVVImtyveDgq1KFSvBFP611FQ4dQaUjYri9o0ABGGFtGpc00wXBggGHDx+DCtWzX8EQKADmyoiJVIkDcLOBBxSAKFlEYDA48opTfFuNm6k3mRLZoDZH26TAddv30L2nXRUioqGvz+JtQqYvhWtMQ814JhfWvOSpKj+TkUvOwwm5JssOJmRgekrlnoAgp9iEBjzeVLgVCUMg7KJaS4GsTm+PGQIHA8ACLRyDNSco5tulwTOkLAwlC5bhiOXr129iju373AQUPnI8kwZU3IhuxJcLhj8LBxrLA4Gqb6JQaCkEQEI8p6YQdAbcDHlKn6a+j3i6sbgQQCBhZ/0lZ4WgwYQkrB20SoGCJ3qxyGINAhM/Kh0VreeBa6XLl/CYyRIDAlmgJCTn4/Um7dQ5rEy8DNbGLxxhJaoebm9Qr9qEc8ekSsnOxbRICxagjxXJkYMIwbhrwGCJAtaOAeBbI7hYaUwsE8/hAVSaJmK2take3odtwuWLV6EOtVi8dtvs9CJMzV6yr4FHfbt3Ycff/wBH7z/PuLi4vlmU1vBZTQg1+aN8BYXGZ2HBPvuBwiUxqcBhIh/CRAaRApACCdjuQIIBLYImBF3dOTkCZw4fZrbtnROMEPEgwclGpz0BZcuJWLj2nXo06MLoh8rCx2HJKn2mjbXWiXn0FuyQY8kgwm/3wcQNKui13Iu8fyyH2jiSG+q50MAArM6VGQq8YNmc5xH455D8Vqf/ggvFoYNR/Zg8ZxHAYSepEEoB6Nd9WN5z3MgJyebRYqkZO7StStsNiumTJnCStqRI0eieLFSStHpxKaNG3Do4H483a4dj4p+5ZVX8MTjj7M9cdq0aawXGDr0dVjMAXA63My8kVsCOtI9OPDZZ59xi+HHHydzu0BLSxTAIvhYq7GNJh3OnjuDKZOn4fnnX0WtGnWl4nTmY8vWTey7/eC9/zC9m5Z2B5cvJ7Jrwk5RmtTbYtuXC9eSkrF/334O6ShWXCI06fO0efj7BaBM6fLcalCdiEI6hPsAghryQZurzfzXAEFTRvODr7IfvJU7IU6hJf8KIHjirflsI7W6DiaDjpMjL1+8yPQy/ZkXHtHE9FSq4VpCoYqQqEKVqggrUdoTlKRVZFrf+EEAgTb6levWKA3Ck54kxaIiRWqCab108h3n2TUNAokU26J2VGENAmf4G3TYe/AAFi9dhifbPImmzZtxTDeJF20OSmuUfroM83JxpGmZ0GKoHVOJx8t67EeeWkON5IYbt/0DGSBwi+EfAoTjKgehKEBga56ioqkfT+/XrNfj0sXzWLx4EQeMVY6pjNu3bnMOPQmaiGWg48bmdMBo9uOApFLly6MsCQK1KsEDEFQ1KgW6aBCUxe5RAIESQ7kHqwafEWB0MEA4jUPL13gYBAvnfInzgXrUpIMgoegvs2Yhvl49dOneA0m3U1iOZsAAACAASURBVJF8O1X5u6Xj5oQNRmILHE6UDo1ArdhqcozS3/F4eDVindevHg5iEMxmnMzIwrQVS1WS4pPw9xN9xF8BBAJRJxPuYOmStYivWRsvPQAg8IAyHT0TLrisNlw6dwEZaekw0qhntwsWPxNiYmJYk3Pp8mUuBGjNm8x+sAQGIKZaVdYhcIuLqz26sw8CCMK0kM3xYsoVTJz2PeLrPBogcCqozgwX/HCGGYRV6BFHGoR4BDkoGlgAAsca63S4lZaGKZMmo0SZUujRqxcMZhPOJSbywUX/mI98fq2A0eGGv0uPOjWrIyQwWA0rEzQj2SQyaIgKmFxLEK4U2PHtoiXSYhg2EGHBCiB4sGlhBsEXICxYuBrhoSUxgKrQQIp1Jv2Nl2Ilizo9BNa8XJh0Lrz66it4plNH9O3bRw5WHZB6IxUvvfgiunfrjldeeonXNLV+nWYjAyFV7LNg/S8BAosUU5lB8AIEer+2v8EgZOLnKb+BAMKwDu0RTquL2kx6A2wuJ7MHbrMJl5OSsXDJEm7Tli1TBklXryE5KZl1CiYzDfdyshie1r3FaED1ylVQqlhxZXeVGHkNWLIegtptBBD0RszZsgmX0m5i4IBOqFCuhOeck+UoAksWmaoDwiMZ98xHUgmrPiJrjQaSYV3SBtEZzRy1TDZHBgi9+yG8eDg2HN6DxXMfABCsLola5lkMBBDKloORLEB8ItAo4ALOB5g/bx5KlC6Jtm2fxtKlS7Fz9y48/+KLaNKkGUcWEwVPnvQTx49g8ZJFnHdOvu//fPwxU0dE5RFAIOvisKEjEBgY4mmvkhuBuot0cH/99Tjczb6H77//gWl+u4M81mJ3sVrz2EdL1j2iW0h4uGfvXpw5cw7vvfcfPPZYpGIQrNhBNOjaNfjwg0/Yc0vuiFOnTvBFZrRH/li+mHq+yUeOHuUWA2V/i47BG4hSsWIMi7FMZol/LVzpy03XiGz2nKpZDL4AIYo0CB0pKIkiaFVUJpeC2sClot+XFrwABKdiEA7e12JQYSyeMBnw4UhCsSWLFmLpokVw0+hrBg8u3Ei5gfzcHJSPqcx2L/HE63iq3VvvvIfa9RrywSXqYyNv7uKmUEWs4h055preo96IlevXYPP2NegzqA1iKWrZTW4A7XimqokEhAX8jPgHBHFCYIHDgN1rdiPz9BVxMUSWh95BIkUNMlEcrwv5DjuWLluOw0eP8pCp/fsOYMfeXVzl0QZD392ko8rShds3UtGiQWN888kn8GP3jXejknsj74NA5h2/QGy8eJltjgQQqMVALgYPrFBMILFdNKuC9Cc0QMnutuD4iUvYvGobOj3VAW2aNoORKEjavGgwinI9cN49Pbc6N84knMLUKVMYKJOLZO26tfj2u28RFBzC6npipmjjIDqfHD6vvPE6Bjz/PNsJxcMsiIB/0R4+/oNoBOhwYoCwmloMdfF4o5qwGMiN4JA5Avys62CzudgFEhBo4SE6BBB27jqLg8tW4a0ePdE8OhJ+atgUP79Eq7rdsDrsWLdhI1auXoPBzz2Lk+fO8mwAF83O4H9PVYSDr2v+vVzUqBiDzz78GBEhxFzRtXGwSIqHxvAhJgAh32LBcXIxrFyKiMhi6Ny1Lfyox8G1msxxoe9Nz01ubj78zf7MItEshlOnbzBAiKtVxwMQCq1JPqgoPcSNW0kp+OrzL1CzejVEVqjA1+DPP5fwYXXr9m38MX8+h0BR/PuVK8k4dOwIPv/qK5QqW5Ytj1oDUAbnEHjR0jmlTCFXA81iSEy5jIlTx6NeXCx63ddiUM+fS4/szDwEBwXAbDJx6/DM6WtYv2g1utWpg44N63HUMmUXsKBWr4eNtDdWKxLPnMMPkyaiS4/uCAoJwey5c5GTmysedxXzTvuaLSeP2yo/fPMtqsfGcqqq2EupGDOwhZEbtAQQ/EiDYMe3iwkgZGPE8EEICzKrFgO1funemrj4y87O4XA1ix8N5DYh9WY2FixYgYjQEhjQdwBCggIlVlgJmuV+UPUsLPHdrDsY8cbr6NipE3oxg6D2QIcL7737DgL9AzFm9GiEhhLB70I+nZ4sQpeIdd7zmaYnR4VaoB6porTCyMUwd/HvCA/1x+AezyAwgNYPPaciUqTilNZaTm4eg0E/sz+cbiOSU+7g5yk/o0FkNE+XDXMLg8AAwe3keSc2vR6nzp/FtOkz8fqI11ExKgpLFy7GqpUrxfVBa46EoCSXcrlQplRJvPTcC4irSbZx2VNlKq0cFhTLTKuHZzHoDZizZTMupqdy1HJ0ORLbqwRED5smrXavhkH2ADn1FTWqLQLZ8L07IAc6yWwXEhprACHQEIqhvfshong41t8HEBSPWaABhNkLMaS7cjE4qIeng9VegPXrVuPIoYO4dfsWuvXswaFDv/8+j4f9NHj8cRgt/tA5yAdNt4CGId3DmtWruMfUrFkzNGvWHAbKRC/IZ9aBDpfhw99AYEAQB1FcvJSIxYsX4G52Jh9IFFxCXvG+ffrxREfum6qeGLEAlKOQlZYmD7FBh5JlSqFZi1aoF98QRqNFPXgu7Ny1ne1LY8a8w2N0ueZSfVH6fVb2HVy5epVGF+D8+XO4kHgBQ4cO56E6MolSfPwcV+kJ7PBFB5ryoDBAEG2B0LMPAwga4eQbuaxwiwcfMrXPV5QqCYpaNkEAwgG8NWwYalSJZfuQIGuNdlKhQE4X7NYCOPLp0BXxEmkNvp9Ame5XOdvd4u8n6V+CBBEQFAKX3sS9TnrgKGPAaqcccw+fJa+NFjZvnLQxGrBi3Rps2r4OfQc9hdgqZTktX7YguQ5GQxBOnjiPixeuoV6DRigfFQ2b3YkdKzfhTsJFDHu6DepViISeELuaOkcH06ETx3Hw2FF06tIVmTl3uU1lMpqR7ygQS6HTBQvR2A6yXLq5BZaTmYUv3n8fftzD9354AYLQfWkBwdhAsxjWrkPdx2PQpUtj2ArypT2gWkkEP+7dc2Htug08hja2WlWmVk8eT8SmVVvQvT0lKapxz2rWg4iWuMeFhJPHsWTxAmSm3WE3TGyVWAaZNCTowsWLGD5iOMLDIsSGRoFgNhteeeVVdOzdC/2eexb5nL7mBWcMEpQuQrM4ybNhwIETx7Fs1Tw0aVoHDRrVRKDZwACFtxAeOGbCteRb2HtoP2rVrYJqFcm+F4qt207h6Kq1GNOrF5qUewxmdbAS2CGf/OXrydi3fz8aP/EECqw2bk/R/IsCawGvM2LZqM9MLRV6ltdv3YzjBw/jwzHvohjZwLhtSKEz3gAwmpZop/3AbMaJrBwJSooMQ4cu7eAXQEyDVSh2txF6nQX37lmxa8duhISEcCy4nzkIJ09fxtKlq1G3Vl0GCPZ8cUPRB+tVKKlOr4NFp0PajVSM+/xLvPjCC9w7zivIxxsjR6BP7z5Iv5OGDRvXsSDa3z8Qh44cw/SZM/H2+++jRJkygJEOQzno+H81DdALN8VpQ0D5wvVE/DR9AurFx6J756dgIXWkAu781VQZWw1YOH8tatWqgjq1q7Po+cL561i9YBl61K6L9vXj2WLHdmW6BmYzLt+5xW6sp1q0YtFcYFgIwooVQ14B2cMlxZP2XirO6HA+efIUpk6egrEffYQasVUAYiS4bJW9lDVN9P31QC5Nc8y345vFS1HgzsXrrz+LwADq18skQafeDKfLCLvNjU2bdvDaaNKsHgKDQpGamolFC5chPLg4MwihQcE8A4WeWe345iun9Cs5edkYOfINtG/XDj269/AMkKJnf8fWbZg96zcMHjQYrVq14nC8RStXoEad2ixSNNF6VnhfgH9R8E+1pDAIsxbMQ3ioHwZ3fxpBQXQm0fWk54/E4QbkW13Ytm0XzOYANGrwBPxpympyCmZOmYpGUdF4vUMHhFKLkFh0BggunLxwHgvWLMfVlOtITLyEGlWro0ZsVfTr2YsnODopVIlmG3JgkdiciVELsFjgZyLRp5Z35vmNAgh6ZhCu6o2YTQxCZioG9uuCCuVKqQFfPpuY8D7qE9oVVm4h/qzS+3i+RE4Qud8CuPlsMphwlaKW5y9HoCEEQ3sSQAjD+iN7seT3Oej/TEc816s7PdUC8O4HCJGKQXDDaivA+TOn2cFAAzbqN2rAD2VaegbnydMBz0ifbXkkUnLCaCDEW8DDUQgN0ocIAh04eeIkV600npQofolhzuAYZxqTaTKbuGfeuPHj7IDQ0JFUQSIiy0zP5MWgRdAGBAUhkIJmtClr3JOmhLQb3GunICQa5iTVjqaGdePcuQTMnTcH6RkZnCbYtm1btGrVhh0M2qAflVvpe5cK/Z5peN4ENKEi/UpVhhzufwkQOMhGxJYemaOmcFW1LA/aIReD3gSbw4RDu86wSHHUa8NQjdXjVCl6AYK2l7FAixYqHXhE8VIc8d0crqRCioXjzbdGwuwng2h4gBF7cqn9IGFCPCaUgJmncvV52wogEAVOUbQr1q3Dhu0b0affU6hdozJcDpkxINUuhV4F4PiJ81i7ZjtPQGvarAmLwnas2oj00xcw9OnWqBcdKaphRYURQFi5bi3mLVyASVOnMiBYt2ED940p0YynnDqcKB4cil6duqFcVHnMmD6TRZmfvfsOAwQvGadt59pCcSPNPxgbCSCsX4dajWPRpcsTsNuEaWHVN++7Rty968DMmXNgMJrQtHkj1KpTF6dPnMXmNdvQ7ekOaPl4E44nlvWpvj9Pb3PietJlHDl4EKeOH8feXTs58a5mrZocOnTg0EG2eoVSle0EV8b5ebl495130aVfH/R7/jkUkIW1EEDQhJPC/YprQg+nzoj9x49h2cpFeKJpHBo/URsmtq27uJwxklreZcC15DTMX7QYAcF+aNMsHpViamPX7lM4upIYhG5oEVkOZqVC5z48DZ5JOIUFS5ZgyHPPomTpMszInTt/QeYXEKhxUqtHh6dbtEKzJ57Aig1rsXfbTrz/FoX0EFErLiMR1Suqmr5OZ0Ce2YhjmfcwfRW1GIqjQ5f28A80wekoUAl2tPmZcPduLpYtW4nkG6lo2bI16sXVx5VL17F0yXLOJ3l5yEA48mlqgtwH2ifEuU/TM9xIu3ETn3/yCUqVKMVxxcQ2bd6yCa+9+hqyszLx88wZaNGiFQKDgnA7LR3JKTfwIf37cuVY86BqPrnHagSw9lltnZOT5ELyRUyc8SPi46qha6d2sJBaWPvguTRuUJr3hO9/hkHnQMsWTdAwvh4uXUzChkXL0at2HbSrF8/THGk0NbUCnRRHffUivvxqHEa/Ogy14uOwbfcO7Dt0UI4LAgdSwqBZkyZo9ngTnD59Bl9+/TXGfvABalWpQoplz/7C4F/hFhoYRMOaSKRIACEPVgwb9jwCAui7yT0jxwrtY4Q1ly3diFMnE1CvQU00bd4cDrsbixYsRkRIOPr3Ie1CiEyOVNMF6a1T+iM5w4hCIrfYG2+MYLt4j27dVLIhIwjk5tzDlMlTeH2/+tpr/Gx9/u3XGPLCC8zqGqnd4wFbvvBDLjDvNDoda2NmLVyA0BALBndvj4AgOpsU68MDyIzIy3dgydIVfNA3bdwMTZo1ZSfXr5Mno3FkFN7o2AmhdF0dDt53KM3x2u2b2HJwD46dSsDhI0fQvVNnVKtcBS2aNGMGkHCXi/MWaMCTW5gUVqvoYdTRaxcxu5ZrQk+qh0FggGDAbGIQMm/6AASNAy1CWT/gNNLaMCKW9DQfHggQ3EYTrlGLYf5yaTH07PsogKDGPc9eiMHde6JaOQIIglaIqqZKnRgAerjI7kEPLsW2MpXEFKieVdck3yH/LW2wMkZV+uFa9U26BbrxBBYI5RNAkClqKrGOWRB5czKRUZLOaOHLQJX/R91bgFd1pl3D67jEISEEkmARNAQnuHtC0bZoKcU7dZlOZaYy02mp0A4Ulxat4JBAEixIkeJuEZIQ4n5y/HzXfT97nyQQaPvP+37X95+5Olhyss/ej6xn3eteS6hFxcwQdBnX3yRTD96r2Y9EBbuNxC2SEppjZ6U1XIoipT+R3WpZRSmzE9QP7eHhCY2aXAX5CiQ29yHq5jFQwd3j7d5SRc3HqlUg253FQCUGyWqZ7U5FeUFG9yK2Wj5pyWQ3fSgBEGx2YhCuSwBhHlqGhTM7IEClxCBIgUbnz5/jVDHYbKCWeAJTFWXl+PXYcTQMbow2Ue1EpoXkFE/frVRq0bVLd3TrEcNtRrzhyQx3NWB3MwgEEGxqFXYk7EPCwQPo0SsaoY0bCFaD2UEBGmmqZGYX4MzZqxxDHRjoj549u6Mg9R7Kb93F3MF90TG0MdRE5Tgp4pbGkxbb9u7Cug3rsXzFSuQWFWDxd0vYW97oQyItJcpLy5B+/Tbeee11tImKwooVK5CTmSUAAi1KtTgEuQYn7lOR0Rv7bqfiu/2JCGwRiE4dwxn4ClMWKWTKqUSVyYGkpBRYLDZ4+ugQE9OFSxonko5i9LAR6BfTg0+q1S+B6NV0Enfa4bCasXzJd0hKSMA/PvwQ7TtEI/nQQfz7s89Qz8+XgYEAoYKFupdxD7NeeQmTZs5kgxxGQjVe4hQlWBAZINgVKqScOoOdCbvQPCIUYRGh3HLIoJo3NfAJsKzCgl9Pn0VJWREa+xvRo0dflJVYcS1pP14ZPRL9m4WCNQhMP7vYX+HCtav48aefMHnaVNTz98e//v0ZX26DwEAYjEa2TT996jSeGjQELzz3PHYnJuDE4RS8+9qbqOfrx/Vfrp3yxxM1UhKZWcnFT6vGyQeFWBWfAFU9D0R1bM/0tYN8TUhfwtUvDQemnTl7Affu58DD0wvdO3WBt8ETKQePoH3bKMyePhlOiwAI8mmVaWkJHNsrTThy8DAaBTZEo5DGPOZPnDjGaxuJrzUqFawWKzKzstGtR0+UVlSi78CBMHh5MR1L44K9IKRoXRE+Jh8KSB8kSgE3M+7g21VLENwkCB3aR0GvolKiGyHwBkGBoXv3H4XNUgFvDx16dukCfz9/pOyKx8R27TCya2eR5iiV9pwaHS6k32bh9muz5nPE+WeLvkRmzn125aQTvdqlxNXLl9G7Zy9MemYSrl67ik8XLsTHfxMAgXxR3LoON0AQbqXUxSBKDNtRZKlC/yH9oNbR2ie4Szb1Uahgs1KM8WWkp2dBo3WhY4f2CA8Lw9FDR+DvWw+TnyaDJS8+OfP3MhNIBw+xJ5DGrLykDC+99BJiY0dh3FNjJeW/aB+leUeuvOSBQ0F6rL/QafHO+++iadNmvB/QvJTXk7qWYWrbTM/JwYqNG1kP0LtzFCgNnsy6RDqp2LKtdid+O3sB6ekZ8NIb0aF9NCLDWmDnpvXoERKCl0fGwYfapdmwSgAEq1qBErsVi5d+h5OnT+Pv77yLIP8AJOzZC7vVBp1Oyy36IndE6I+o/BnRIgw9uvVg1o26R0R3iFgvWCfloowHBdKUaqw7mIQ7xbmY6mYQeEQ/tI49ZgOS/lqw0NXlF+5akRZxkS9Li9PDAOFpLjEknD2BrXUzCNUA4TnWIIRCZRNUCKFx1rfJKkwSunCgC7VDqaAi2kK0k7qJZS5JyhcqUaJCTCbaBmlQy+FMrD6n0wrZcfJkpI2J+rzp74VQh9dOBhzVak7uEScBj8MJDb0fibykf5eX6xqVc3H7JLMW+X1EfzKBCMGC0GmB62K8UdcksmpuAA89IBYwScwEq3vFmVsIechqWYHsSrJaXoLQJuSDQABBK1pneNmRvTqlBcctVKwNEEiDYCeAcOw6jh88idfmzkNki3C2kxWioGqAYDZX4eCBZKQcOszRz3x/7A5kpd9DVsY9dOneDXqjHja7Xaj6JaBA92HwkOEYPmIEbE6HAF5yW2c1KBVjgYAZlVDUamxLSMTu5AMwengwe0SLBOez840WGwN3dBAFSoyCwgVvLyN8nC54V1RgwZC+6BhCAMEm0j/pWSiV2JEYj3Xrf8DSJUtRWFaMJcuWIqxZczRuGsrCIRKdnTt+Cq/NfxFto9vzCSQvJwcf/fVtGB4BCNKZTzCtKDR6If5uOhYlHkClEjBqRClJXLUYcwwYiA63iVMQ3WtaABoG1EPF/WyMGT4CfbvHQMsmQkKMJSqd4HtATmx3b17HPz/8CBmpqRg6dCh69OqFkvJSpBw/hqnTpsHT6Ck2cr4uJ15/7Q089exETH7hBWYQWGcgbdo8hOXuCnp/qfxEPRuJh1Ow6+ABdnujtFKiN7nMxfVbNRyUZ0IbocPGhmS28nJ4e3qjnqcP7Om3OeK2T2gw9FKuN0XSEjt07vIV/LT1Fzw34zn41ffHPz/9FPUC/NGsRXNe9CpNJsTv3YtB3Xpg9vMvPAIQKGqXuTRmQkQ5hFvGlIBJo0VKxgOsTjyITJMJGoOHSI8lUZmwCpLoUQVsJCJUa3jcEVHcwNsXZfn56BwVhRemTmIbX7mnQD5psu2vw44712+gKDefgS1tFXaXE8UlhTiQfAD1ff3QvXtXWCxW7NmzF+07dECnrt2gNXogsl076CjrQzKLEtdDD0OYMFUXGJWccHkjPRXfrlmOMocFRr0nFGy6L62F3FJAY1CFKgcJ2BTQ0Ny1WxEaFITye/cwg6zQO3eAkQAS2aPT9qA14HzGLXzy8Sd4ZdY8Bgj//nIhzFYr2rRuDb2WchNcOHH0KNq2bo3pU6bhynURcvZJLYAggruopi4YBBkgUInBjoU/7cTdomLelB1s7y/HbldrscQBmMyl1HDZLfD39YalrBwtQpti6sSn4UclBvpMzD6oRCeImjIMLDwmTaWV2LZtO1q3aoUunTqzMJRE0wQO6BRut9nw4EEu9u/fjzupd9Gzfz9079ULRqOR5yCVPDk4qVYBo3o9tiiUuJGdjRWbt6C4pAJaKpfy+ioOYWLuEDuqFuJOJ5gxo3ES2igIRWk3MaBZc7w6chS8qBOKDOcYIAAWlQLX0lPxxl//ys69fXr0QuvwCFw8f5E3flo9ioqLmQGJCGsBb09P3jfpGY0aNgJ+3t4swOdVXWJWxUpBJQYCCCqsPZCE28W5mE4AIaShmAFcuqx1/ngEIfAeyqfjGihBmg2y3kFm77gjR6N9iEGQAMJvx7F1w3pMorCm2iWGugECI0Bu2VIyg+Bw0oYijFf41K3R80mT0CktKGVmEwrLy1BQVAwzsQW89xAVqeA6uQwGGAlKR3rx4WWKttoPgBdDCVnyw5U2YVZGk0COW5EczEYEBzZESEAgdO5+0JoVKnHT3Df5EbZGUKVyEpbca1tL4PEk0CarS3nxFlS9+J8QAZEtLbc5rl2CEAkgeHjQEkeGJSQCES1n7vvBa5BgPlhUxydIinsm1oUAwg0GCK/OnYeWLcIktF4NEGQkxIwGbch2B7QqFaoqK7F08VLuQ37rrbdw8/YNtG3XjiOGiR8Ti4cWdvEbwRa5OMleKAmkUzKvj26AoIJNqcG2fQewM/kAfAL92XVT2LnK4SgCatFEo8WZrkXhsKG4MAfaiko012kwb2BPxIQ1g4rjjwkgkDGUAtsSE7B+43qsWr4CBWUl+PLrr3iRb9CoIWsOKsrLkH/vPt59/S20iY7C0qXLkJuVjY/++hYM7J9QE33XUPHChUKDFxLuZmBR0kHYPTzh5e3FehcxDoSwkst1dL1EURIAVQLFRUXsUulhN2Hs8GEY2LsPt5IKgCBkUHxyhQvmsjKsXLoEVy9ehMNqRe+evfEgP5fveW5BPt54800OreEed6VgvZ6ZMBHDxz+FycwgiOt5MkAgIaES8QcOYe/xk4DRCL2ec+L4JEFLkorS+CQRrULjhE6rgb2sAqUFhVBaLQi0VeCVuGHoFRwID/5a0pYQQFDh/NWr+HnrL5g6dRp393zyz09QbjKx9TKxbqSboHTQccNG1AII77z6Bm++clgTpd4JdQyBP3JSBExaHVLu52NZfBLyoYDWyxsqHTF4VB95FIiTYE1NAXIlxbAUF0NltaBnpw6YPXUKnBbSINSeBzJIe5CZxQChuLAIqRnpuHjlEuue+vQR9PDxY0cRHd0B4eGRXILw8vGD2uCB4KZNoTUY3SU4IT2Wpa5yUVAaV0o1rqem4T9rVsOu00Ln5QulikqV0vojnRoF26BhH36ty46KwnxYKyvgY63CzE7tMbp7VxjJU6ImQLh3Cx9//E+8MXc+A+HPv/4Kt+/eQWhoCLQqDZw2G+6l3cPAAf3x7MRn2JZ54ddf/ymA8O+f9+BGYQm8qazCxXQh8hQyYAFuaM2i+aDV6lBVnI+K/Dyo7A5Et2qFaQwQPKFilwo7lC4Nt4gqVQ7YuYXdBb1Sx2p/arUFlc+UCliJ+XERoKVDXnU7Ox38CKywmyqXZ5wsnhbX8WiJgf6eavk3MrPw3aYtqHIp4OXlBweLIgAV23NQOU4cLImlJIpf57SjvKCAjeW0FcUY0TISr48YBW8SNtotkmeHAhU2G75ZuQy5BYVcXu/VPQalRcUYP24csrOyER4WjtTUNOzcuQfPTJgAh92GsBbNGTQJRxM6XJA2RmQNiWOIaNekwmaqQoW1Bx8CCJJgWD6s/n6hofZYE0cEoUH4XwEIvNlxq5WSFz3GlZKTFy3QJDaiP1scZtxKv4MzZ8+wq6LNIb7vz7+k450YBbUSBeX3otqO2gl2KKQbS/gqPKQpYvsPRjD1pdbxQ+u8FKmMIAZ/9a3n0oiU4Ce/1eMejHxCpm8XZWsJpcphzrRAa4D7FSVugDCK4p6NpF4m8EV0lPCMd2ulhdVXNUDgtjk115ndAOHASbw6TwIIUnmmFp0uDSzerFi4BBxNOYKVy1bguenTONuCOkTeePN1hEVEwM6tOXZcvHwNwaHNOBCGOhxkbQIjWZlGrwEQ6DRkV2rwy75D2HHgIOqHNITOaBDtewrqOpHvPFF7woOAFP8kgCoryoU1NxdNVUrM7N0JvSPDYOCFgMCJhvMFtu3fi42bN2HZ4u9QUFyI1evWInbkxX46BgAAIABJREFUSLRp3x52JznhFWLdstV4+qmx6NS1C1YsX4HsrEx89PZbMDykQZBhojiXVgOExcmHYPP0gVe9+lIKKBnSCPU8P3cWXAnmg4AR1UrLC/OhrihA3OCBGD5gkFCjS0pinvj0jXYbzpw4ju9Xr0Ts8OE4ejiFRXIhoaE4nHIYXy1aBG8fH2g0FOksPHBJrJh1LxNzX3+Zuxh+j0EQgk5qQlYi/uAR7Dr+KxQeXvCr5yv89hmkqoV4WNIIQU332AG1xY7KwiKYi/IRaC3H3KH90b9pELzUQlBlJwtnlZIBApUYZsx4Hr7evvh28bcYNGQIWrdry8+XtEZffPElWjdtgfmzZ2P3/gT8evgI/vrq6/D39ZWiz4Uehq6XW5CZQXChUqtBSm4JliYkoVirhc7PDyqdB5fU2Pv/EXqVuhKccJgqUPogG66qcnSLjsLsyVOhklrgak5/Ohlmpt7F6mXLcfv6TXgaPWD09GAfhMGDByGqfTsW+JE17unTZ5Cbm4/CokJYnS40C4/EgldeQRBtmLRZEfSnhZ0ZPmEGxW5+0hpE/gnX7qZjydrvoaCfUz8QCgMFyol1U5RcpQh3yYxL43SgqqQIZQW58DGbMKlVCzzTvze8WT8iGARo9TiXcRsfffxPvPbCXER37oDPF32Fps2bc0s2+R+QcGjrL1s5PXPa5Ck4f+kSvli0SAII4TwW+RTNZSeR/ieLFE06I1Kr7Pj3L3txvbgc/s0j4CS/EWKi+Xgg2GFpKojDAs2OqkqUP8iBo6ICHVq1xLSJE1HP01MIAvn7VHCQcRPR+yoHMjPSkX03Q7Sss2Othg9mZ8+exbGUo1LmCbWWi06FqOhozH3pJfgF+EtAQ4ACAQGrS8Y1nzfFV9/MzMbSTZthVqrhQ+nCatEFpnaKzViUGeT9yQmtwwJnVRVKcnOgLMzD0IgWeG3kcHg7bVDT+iyJdY/9dgY/796FQUOHYdv27Xj5Ly+xSdvVy1eQnJyMefPm40FOIXbtjEfcqKewaeMm9IzphPFPxUJPpVanBWqq9XKipsxOi26M3wcIbm7sD22p8rr7vwwQJLKcJ4Xs1CRQJJ/e2U1LiQpzJS5cPofz50/Cz6BH54jW7M5HLUMsKpRouUcjO+XP+pDA7ndugeyIblKrUArgyMnfUJZbionDRyGyUSPRwvjQS85GeOQfpCxvHvTVtmGSBqH6jeTTfV2X5n4YEvXLywEzCaI2SWmO91mD8B1CZKtlg4aZGNGPXF3PFDNAnFFkfy5qoVLSVFVQ3DNpEIRI8dW589E6IoLhDbvcySUGCWPR36slZfPVK1ewbMlSNAoKwl9e+guHM3359Zd488030Ipc/Fi3YMNfXnkN7aI7sNMZsyqSWFF0kFTfD3enHberqfDLvmRsTzoIz4D6UFOyH1nUulvBRAsO+9pzBroCKocd5aX50FaYEGbQY3bfbujSPAR6arlkzwfKGFBj+/54bNi8AUv/s5iFrF999RVfBwU3EXipqKxERUk53n7tde4yWLFqFTKzMvHxm2/CSKegWhoE8SehMgYKqM0xLRPfJh2C1eAFvdFTtBrS5apUvKFSiYHbPeGCXqth9qKyrAKWyjIY7OWYEDsKA3v3Zp8JHiPSe3PJyeFA+t1bKM7LhY+HB1YuX4k5s+cgKioKe/bs4TZhKjkQSGDmQqWE2VSFFUuX4ekZ0zD5hZmw2EX9UGbP5EWaZia3U0pOcKRB2H/kKHYeOcolH7IK51MHLUxSq6B8tia2T6NRQW11oKKgCKgyIcheiXnD+2NQixDonbT4ihZH1iBcv84MwrSpU+Hn64dPPvknSitKWbBIyZMWq5XzWZ4ePQ6zps9A/P4EHDt8EO+89ioCfXy5YZGeu4oN0SSanTQIKqBMqcCx/DIsTTiABwoXNMSmUECVXZjt1HzR9atdatZWVBQXwGkph8JuRkzHaMyaPBUK6rd/6EUAAVYLDh84yCyUf/36iGrbjgOzKLGVauGUBbBj+zY0b94ChUXFuHr9GgqKSrDg5VfQndghg17kbPC9lACCu69BAARu91UocTMtE0vWrINFrYbOy4d1NDK9LXZYsVlxsYWpdUpeLIbLVIV6Ngue6xSJMd07w0j0tlKsIRQ5fTbjDj7++BO8PUswCIsW/weXr19Fo5AQAXftTtzPzMTwocOYQbhw+RK++OYrfPTOu2gbHs7lFxEWJbZYcQXCqdSkNyDVbMfn2+JxLb8Mev9Aqb1UUttLJUiRYSI2VyoxWMpK4Cgvg8JchU6tW2Py+PGoTwBBtnKWshIIarssViTv3YuUxCSkp6dy+bJxcDBahIehQ6dOOHv2HJqENmGhOK07lDRLXiEf/utf8AsI4LKZgCoEWkRbaV1rslkJ3MzKxKpNW1BiMsPLrx6UdFCh+851b8miWSqXk65Bp3TAUlEOS0kpDBUlGNKqORaMHAQvKs1K+QVUKbqVnoHc0mLoPY1YtnwFuwR7GIz49ptvEB4ehkmTpuPS+ZvYtjUeLzw/D9ev3EJS0na8/OJMtIlsASWnmtJ/AiCwBbm7RKhAqlL9GAZBXsakCfHwxKhjU/q/BhCYMOeVRaZ2WKLK6mYznXw1Gly4eB4njx1EcAMfxPbvh+imLeBBGerUPic5IPLc4P+r4yzO+86fEGKwI5QKJo0GBU5gzbYduH3tDsYNi2X/hrrJpydyAI8CCv7ymgCBfl+7/CF/U02AwJu+9A9scELbv0aJ+xWlzCAENyUnxT7wZIAg2sLqBAiSMQZvDvx+JLDRPgQQ5qFNREue6sLeVnylFHDGqmZzVRULFX/+6WcOMZo/fz5PxMtXLmLhZ5/jjTff4L58tVrDwqB5L7+MvgMHYc7cuVy+YSaFKD6JVXF/ZulDcgeEUoWtCYnYmZwMg48HlGqFsKPmCFb5bihhsbtgZRtoJyPzBv714Gl1wqu8HLP790SH0CBoucYvPOKJ5tyemMA96su+/Q/MVSZs3baN697U7kanOmri8/XyRo9u3Rk0rFq7BlnUxfDWWzC6Ha3cFyvuDyNIFwOEpLR7+DbxEExKJTRqkXTIJytJLCpxkTBXWfmkRjoXD70e9X28UZhzD+NGjUTvrt2FYRN3Vkg1ajJt4g3cAYNaiSsXLmDld8swb84ctGnTju2/jx07hrfffotDxKjPn+YZhZ5NnTwZw8aOxuQXiEGQkgNlYk3W5ypqAwSKpko8koK9Rw7DRvdXSwBHMFqijilKVXanAlUWC3RaLdPzJCrzNnjAmnYLr44ejn5NAqEm5M8gjVgEFS5cvYqftm5lgBAU2BBbNm+ByVLFroNWPuXSZqdGp+iOHMlOXQ4njhySAIKPUG+TWkIsAKLsRnollQIVKjVO5ZdhRUIiss0mqMhSlwSq7vsvRhwdKs1m6oYQQUeeRh0CfL2Qfz8Lndq3x6zJU0guXysihYGdk4yqFFxW++KzzxA3KhadOnREVZUJH374D0yeMhmFBfmI37OHzdnIFv7K9WvY9ONPeP/Dj2D09RPgm53cZIBAN7QakNcCCOkZWLJmDaro5+p17PJJbZ5uoEp5Ci5S0ZOFLwnznPDQKtHQtz7MmdmY2rEVRnSMgicBcu7EIjJFg/MMEP6J12fOQccunbFhy2ZmzwIaBPLcpVtLv0ZFtUWLFuEi7+OrL/DJe+8zQCChspzE+DBAqDQYcJe6GLbuwe3CYmhJmCklP3IpUTLzIWFphcnCYEmr03LqZ2N/fxTn5SEsNBSTJ0yAv4enO+uBnjG96LlraVqbzTAXF+HTzz5FWGQExk0YD+o+yyvIxwcf/IPLnuS4SyXjDes34PKVy3j7b+9B4+HJbBZ1XNAz1bDD7WMAggK4mZ2JtZs2oayyEjqDjsWS4kggwBx9fpud2k1pPJHTpxMahQvNAwORd/MmBkSQUdIAeDkcUNO8ZFEt6QTIHlyB22npWEyeJrNmMftB5al33vsbQoPDcOrERdZYLJg7DwH1AvHVwoVo3CgAUyaNg7cnpVKypZZbg0D7qjANUyJVqcS6g8m1NQhSWb36nFODYa8DGDyyJ/1vlBimj5vAXQwqG206QkBHxiRCbCYDBNHeVlJZiaR9e2AqysPk2KHo1ioCemoVqwMI1IUNqj/jH/vg4uvFScSk1iLPpcDq3Xtx/UYqxg6PQ6tGISJz/r95ubFEDYDAa9uj7yvEJtJVcYytZJ1Pg4pQr8IBu0aDbAkgEINAAMHDKAk7SfXKC0jNl/xz5GonvakKLu5i0NZiENgHoQ6AQLW87KwsNvAggNCpY0deHJuEhvLkv5eehn988AGLfwIaBDCSpTaftOwsvPXe++javRsvBMwcsImPLJSpwSJIMk4CCNTFEH8oGTG9OyG4cQDX6vklbQ4KhQ530+7j7LkrcNgr0Dw0CD2690Tm5Zsw3U3D7AG90S64ITRUo2OAIPwVtu3fhx+3bMHyRd/Cy8ODGQMPo5HFSmyBq9Zw3Di54ZHIdfmKFfDx9sKHb74JrVyPrqY7xNjhaxNGSUmpGViWeAhBLULQITpSMtBycZ1UnNpVIC+g/fsOocpkQX1/H8R07cr1xeNHjyNu2Aj07txN1E9pdrgBAgkxqWrg4pLKzStXsGrpUsyeORtRUdHsEbJixSpERIRz2im1UDJEdjqRciQF0+bNxuRZjwIEeQgSuHyYQTh25jfsSdyDFpFNENmqGYtFZUU/tRK7nGo8yC3FsV9Po6SsDGGN/dGtWw8UF5lwZX88XhszAn1DAqHhhCzxeWjhOnf5Kn7Zvg3PTZ2K5k2bcYmFxg25DBL3RUCSRJdl5ZU8ThIS9iIvJxt/e+01NKDNRiRuCUW8JOElDEJ0MIkUzxdXYjV1Mfh4oGO3TtBSYFtN5ocOIyYnTp48j/T796E3aNG3V0/o1XocSj6AqDat8MIkCSDUoA/5+ZHttgK4n5WFLz77HP379mNxXEVFOb78ciGenz4DRcWF2LVjO9566698gj1/8SJ2x+/DX99/n9scLWQYR9a+DB4lwaGsG+IVUTCFzCBkpOG71SvQuEljxHTuCIOWTq6i/i66r9QwmRXYsTsJlZXlCAjwRL/enaBTGPHr3iSMiQzDyE7R8JXyK7j2Tm2OmWn45JN/4ZWZs9CxSxcONjLo9OwJolapue23tLICeYX57AVAmpBftmzBFx//E61btBAlBlmQLZUvOV+SjZIIIFjx+bY9KLRVYujIQdDrdEJrIRkw0QHFanPicMoZ3ElNh5ePAZ3aRiGyRRgOHDgMf18/TJ44Ef4E8BhgOxgE0ouNzOykt3Dh4qmT+PTTf+JvH7yPdu2jWPt08cplfPLxP7lLIywsnOcdBWdR58rrb73FAImE3rRJ0wh6EkCwKBRIe5CDzVt/ouo3evXowswf4znuaGPIgqoqB86cvoi7d9Nh9DGgW+doNA0MxK6NP6NXkxAsGD4AXlSGo0OuVEKycMy5CrfT0tgoadqUKbh69TJ384RHhsPp0CHl8BmcO5eCN15/EaHBoTh55AIunr2MZ56JQ2BgPSiYRSC+SRpIUsmNAH6qSgCEOyU1RIr/rwGEL9ZtwaTRY9CuSXMorCQ0cUKhJmGHHJsrBDpye1t6bg52b/sFwV4GvDN7OnwoQp562f+bDfp3vpfpORIqqfTIdQCr9ybg6s0MPDU8Dq2D6mYQ/vz1CKT5x17SyZ3ZA0mpzTUuEm46YdOqkVNRim9Xf8cMQmycDBAIwbJzxCM/RvxkGSCQol4CCGSURF0MB07htXkvok1kJBvy0P9kBoFOsxR7fPjQYRw8cACjY+PQrWtXqFUqSVRm4dLDyRMncObMKT6J80upQPvOXdCtRy+odRSQVc0giBLGQzCGN3+RJMhGSSlJmPDsYLQkoySnlVscOe8KKmhUPrhw4TYS9qUgKMgHfXp3Q6PAUPy6LwXF1+5gzsB+boAgWBUynlFid3IyEhIS8O9/fMzeGAL926DXafn6TFYbPv/yS5w+c5ovzsfbGzOnP4ehfYW7Ye0Sg3imYpFwIY8Awt10rElMRvsebTFsZHfYLGIhlcsQTocKpkpg+fK13JLbb2AM2rSOxtnfLuFw8nGMGkJtjjGSUYpwpOSgLurUoB9DTILCiVvXr2H96tV4bupzXNJJSkpis6/oDh3Yn0PkIzi5XSopMQmTZ8+QRIrCxZLXEwmLiq4Tzq5zlxjIpOfslavYvmsTevbugC7d27JKnn4+gTwSQaoUOqSmkQ/CVhg9DIgb2hchTSNx+PB5XEzYi1fihmNA84ZQO8hpT7iz2VRKXLpxE3v37cPYp55CePMW3A1DdWRuVSb9kdWK3fF78P2GTcw6aPVqTHnmaUyIjYWOGERpEeQOEN76ydOeTmNKVGl1uFhahdUJe+Dd2AcjRw+GwaBmUbT8IkGzqcKFX36JR3bBA/Tt3wfRUe1x63oWdmzdjTatW+GFKVPgcnv2S9hU6jknP4icrPtY/M038PTwZNtbAoAXLpzHzJkz+CS+cf0P6NW7N1Prufl5KK0w4eXX3kBAo0YMVgU8FsJq1ovwjiPGF9sbE4hmgHAbS9csRXRUKzw1chCMJJZSUMum6CRxuTSoqFTiq0XroNPbMXBADDp2aIub1+8h6addGB0WgVGdOsKbu0GlTiC1Ftez7+GbxUvw/LOTEN2pI1+/ihKISbxMTIlOi71J+7FkxVKYHXZmC4cOGIQZzzwLP4OBOyJE5DTNAKGDkJNSK3UGpFlsWLhtLypQijlzn4W3l4cEEETXhVKtg8XixPYdyfjt7DkMHBqDXjF9UFluxfpNW1Hfpx4mTyCAICyaOcNGWj51KjWUVgdK8/Lw+Ycf4tKVixg+aiRnwPQdMABFJcVYvXoNXnrpZQQFBcFkMuHTTz9FRERLTH1uBvReXnAS0OKy5ZMBglUBZObn4cdftsDbS4vJE0fBqNOKcCph5cnP0WZRYMf2eKSmpqNf326I7twFOQ8KsHHp9+geHIIXhwwQcc/s1iucP6nk5lSpcOn6DdbkvPD8DDRq3IjbfL/55luc++0alPBAv4Et8fzMcTzWnBXegM0A6mRWqXhVkw6EUnKZrMmBCmlqJdb+/wIgxI1Bu6YCIHCjHnkKMO0nFiTC93wCUKtwMzMDe3dtQ0SDenhv1nQY7RbBOjyO0f9jO+4Tv4pbphROWJQEEBRYvXc/Lt3OwOjhcWjTMKjuEsNDosPfv4zfAwiSYEZatd0mR0ozXAqztDHqYYceVq0SDypK8R8GCHoGCEbKKJec59xlHOmiaqS0So1GUoeFQmYQBEB4de4CdvIi/lW8h+T35gRTm2aTCRazhU9FdMKmBZ0UyERFOuzkESE6TMjClQRD1GJKCXY26YRBBjhKNS0O1MJXB0CQGARaGNlq+ch+TJw8AJHhBBDMXGrgpgAXieSMuHY1DWlp2ejcNQr+/j6wW1T4NeEESq6nYdaAAYgOaQgtWV8zaldyN0WZ1YyikhIEN6SobjOfmMhIi8wuysoquF2pwmxCZVUVL94GrQ7BDRsy/UntVo8CBLlNVgIId9KwJjEJbbuFY3hcV24FlLYX8YtTjfJyO5KTD6F129YIi2jKyW+Xz9/CgX3HEDdkJPp2Jx8EkQUh2z/Ts2UGgWhRhwPFeQ+QcvgIA7XQ0Ka4eesmbt26xSIzo8GDNQgWu4Ud1zZs2IAWUa3RsXs3ptb/KEA4RwBh53r06B2Frt3aQKehE7ToqaEShkplQGpaLi5eu4E27dqgeaMGUKp9cODgOZzfKxiE3iH+0Ls0XLOloU36kjKLBaUV5YK5IabD7gA5cBJzUFRayuODEjfz8gt4AaY1OLhhAAwqFXTE8khKbfE8aIGksUr2skrOYrhAAGHfLng38sCopyiLQQU1nRMl1zdisMrLbPj1xG/w9fdFm7atoVZpcf1aLnZsTXADBLITpvEs1xnE/HLwM7BZrCjOL0SAf30Om6LT+4MHOQgIbMAta7kPchAZ0ZJjzqkEk19cjHoBDUUHCLXWSTp+br12gxda5IXklTQzDBDu3cKyNd8hul0YxowaBKOW/p02Z3lYaUDOyDt3H0Hb1s3RipgetRI3bmYhkayWwyIR26kTvAiSsJ+RqPuXOm0cWhbg5QsXWQ/bHayx0ap1bLVsoY4HtQp5RQXMIFBtvZG/P3w0Omi5HV3cd0GqCaqdSwcKclIkDYIVX+6IR6WrCPPmPQMvL0pPFMcdaip1UHnKrsDhI7/yqb9rj/Yw6r2Rc78EW37Zg/pktcwAgVouCSAQCyg+M1sumcyI37oNi7/4HMEhwYho1RJXrl3FrDlzOPZ54cKF0LGNtvDFoQAtutZ27Tty2dMvqIGUbvpkgEDwPosAwtbN8PZSY+rTI+GpI5MwB2thRHlRAVOlDSd/Pc2OptHt28BF2QSZeVi/7Ad0DwrFgsED4a10sn8EJyAoqDeDljIVSitNyC/M5/lAJoB0cMjKzEJBQRm8PX3QMFgJ8gYkXYjKWh9KhxePSbm8UA0u+VTGLCUzCGol1h0io6Q8TJ8ktTn+v8QgJJ28iIXEILgBAm30YtGjwU8UGRk7kKUqPXyrWoUb9zOxd+cviGzgh/dmToPRYWEl9v/eSxA+9JxtSgNyHUqsik/EhdvpGD0iFm0CG9YJEGoLJEVFqvbrYQ2EMHR59FX7FCrJ3qT+bkJPhXCijDsCnC4/QO0PmwbIoR7+tcsQ3ESDUXF9YPCkXmTZRfFJaErUqPjMq9DBbtXi9HESKZ7CK3P+gtYRkZTvLMyWZLAiOZlplaKLoKiwED/+uAUtW7bkDYroYQoT4fTA9Azs2buH/75Dx46cT2+TLKbJwlpOlOOafB2iMforYpeIQTiQkoiJk/shMqIRXE4z12zJC4Huowo6lJWaeEJ4+xj41tqsGpxMOIXS65mYPaAf2jcOgtZOVsu0sAstNNF6Cq2GTxmko2gfFYUePXrAZDbjhx9+QLPQpujUrRvSs+4hJCQUAb5+0FFPNX0+FoBKXgyypoSoXn6sCuTpiEFIxerERET1iMCQER14IxU1WqI+JItruwIFxQUICAyAw6mAzaHB5Yt3cDjhV4weMhL9ugurZc6M53hdIe4irwcGO3YrHDYr5y+UlpZizNixLJKjLyMq1lJlwfZtO2Dw9MCokaMY3Dl0avFefJIXOIcFiXKrM4E7iUGgeqxTqca5q1ewfecG9OrbHp06R0DHnWrSPXApGWxU2Vww2+2ie4KNTHxx+PAF/LZzL14bOwp9QwOgcSihcFALmJIZBAtb8iq5pTQhPgENAxuiV+9eMNtsWLfhe2j1eoyfOBGpt1PRMCAADRs24JourFaQSp8Fp1xiYGNu0QEgZTFQm+P50koGCD6NPTBydD9mEJQgdxtxL/m06wRMlVXQG3S8IFMd/+rlfGzbuh9t27TGTGpzJAaBW6pFVxKdsmXFOENsCmJSqlBZUYGffvqRfUBiR8dxiuvGDesxbdo0BAeH8rygTZk6TGkuUPmHSGHqnhDaMqm7RSq30lhlvxOFCjczbmLZ2sXo1D4MY0cPhUYSpjHbwEl61ImkQklZFXw8DNDRhugCbty+j/0/7cH48EiM6tgJnpJ4mZkLKiFoqIzgYpOxw8dSYCqvwOihI5mVoBya2+mpGD9xAoMImnchIcHQ0l0kdoHYBpq/EoMgt3PLLIJJZ8CdKgu+2pmACgII859hjxLh7UL3n7qZhKFPSXk5tHotA0RqRb2fU4ItP8ejvk8gA4T6HnrudmP3SWms0p5RmluAbZs2IWH7NowcNQKTp07FF19+gd59+7AvCBkWcagT31PRwUUancvXbuKt999HvYYEEESZm5wJ6csEUyfmsrwO0ztk5xFA2AhvbwIII+BJng0uOz9DGSCQH5vJVAGjwQCtWguLS4l7OYVYt+QHxDQOxYsDBsCb3tZmhkpNnQzSPqhUw2Jz4sqNq0g5tg9xscPQtGlz3LlzH9u27sRTo0fC6KngzInwJmHQqfyhdBqggCjZUEeHVO+QxPtimNugqgEQcjFt0lNoTj4IcmnXvfbWMER5wiZb20lRuq0SC8b3TfJB2OB2UvwdHwSL0+lKOnkBC9f9jGdHP4WopmFQUXANTXC4OLudUD/1jRKW4rAVtRLXc+5h9/af0DLAF+/OngG9zUyiXfdzE7aP/9NwQWgjHEoD8lwarIxPwsU7tzF6xCi0CiANwuNeMjAQGfO1Xry5kpCHhpioFZJeVrykRdr9DTK7YIdCSYwJnR5UsKmonccJs7UKly5fgQMatG4XDbVRh7zSEixbuxxBoSrEju4DvYdYxB41ZHoYtsgAgVAsAQQNTh+/jmMHTuKVOS+zUQcBBIrdEQBBADk6OYpGMRcsVVXYu2cXDh1IxtAhgxE7aiTUGj1KKkxYQq5l+XmYO38eR/lSPz1nrbsnXvX1yC6PNa+QaphUUNqzbz8OHiWA0AuREUEAMQjUny1tbrTA0Jty/zMvOmrYbTqc2HcKhVfSMbt/L3QOoTRHm7B3JeDBITVUB1cgfv9+JO/bjzkvzEa7du1QVF6Kr75ZhCZNmiA2Lo4Xk6x7WRg0YAAimzWHB7PAkrGWe06J3/ByolCi0ODJAGHlgURE92iJEcO7wMJWyyJCkcatyOOQvNtYeKmC3aXHhfN3cCjhFOIGCwaBldWsQZCGvtQKKhzlnOxFcea30/j+h+8RHhmG52c+D28vLwaS8bv2YOfW7Zj+/EzE9O4DJQVoqWhMCUJe8lQRIJGvXZJc8RFTBDwR/UmWyFt3bUCPHu0QE9OGSwwEEGgGCy92OsUIIyhRdqDv9UPK4as4uzMBfxk1Av2aNYZOSl5kKpb61JUukAb+wrnzWLtqFaZOnoaevXqiymrFN98ths1px8xZs3Dt6nVcPH8eMV26oFNUO+iVCq7/M+CSQBOfSvmaqTSlgllrwLmyKqxK2AXvEA/EjR4AvYF8J4R5MLMANCdJaMZQALnjAAAgAElEQVTiEdFlAqUBly7lYfvW/WjXui2enzJZBBLVlhZLYU3imdO4clhtOHTkCFatWY0pU6Zg8JChKCkpxr///W8Wu859cT68GviK/BMq6/HdEgp4hbIaXIp+QfppgranQCOyjr6VfgvL1yxGx+hwjB89BDoVAVWy3xWAU/jHiBZatjLmxVGLq9eysP/HPRgbEYmRHaPhQwJFfnLk9QLYNWo4NWpkZWXhq6+/Yi1F7JDh3AmxY/cuHD15Au++9x4y0u/h+K8nEd6iBXrHdIOBkmjVamjY4IgOLbTR0bomHTooi0GrR2qVGZ/t3guTswzzucQgzJfYNllJTrd0+hZ+BPQcqNvHpdAj+0EZtmzZi/p+QZg04Rn4egoGgd6fnrF4Hk44zGaYiovx+d//jlYtI9kg7PPPP0ebNm0Z2JsqKnkuCL2biy39MzKzcOz0b/jb3/8On3r1RIlBVAjEXGCtg5uaEbhcoURWTi5+3LERPl4qTKcSg16E8okuBnn1ksYkPz1qM9QhPasQ3y9Zg+7BwVjQvw/87Z5QOcrgVN2CTVUIh9oKpcqIMpMeK9f9gHLbRcye2x4N6jfF5XPAoq8T8MKsEQht1A779/wGD20whg4ahIB69aAiwyaXnrvRoCSvFyNcTj2gKgcUVmbq7qqU+P7wAdwuEQCBsxgeYhDEGv8n6XmygZbWX2HbT7SOBhmF5di4aQe81H6YN+Fp+NXzQ8K5E9i6noySRtQ2SrI6ySjpAhau/RnPPjUG7RkgWEXql8sJK6txRQCHivtpFXBoVLh2Px17tv+MSAIIc2ZAZ7VAyacwMVPdvtB/oDXjsft6zX/gt+btA3aFAQXQYnlCMi7cuYWnYuMQEdDkd5QDZGIjtxA+/MY1BYPUjiTrLupgE3iy09dbGUywo6BKnLToZLU/KRm379xC+47R6Ni5AyqtNqz8fiXTT7FP9WZ/cBkcSEq+Oq9bnH9FhrwbIJy4hpRkanN8laNE+WioIMevaoCgolXUbsf9jAx2FiwvK0bSvnh29oqLHcVq9us3b2FfYhIGDBrIymiKGw5uHoGAoFCpBl89+cSEfPQJ0SJgdZF1bKIEEHogMiIQCic5p1EvtRQKI7lDigWRNihyhdThWMJpFF5O4y6GLqGh0JASXQIIdpVQulO08KcLv0BU6zZs5Us0sMlqxqdffM7lk7mz5/Bp99jRoygrLsGgvv3Q2NeP3dFoPvAiJ+kC3C0eUKPA4IHk1FSsOJCEDj1aYdTwruxO5x67tIEyOyMcPcXhRgu7U49z5+/WAAg9mUZlKp82kRqdJHSaKi0sROqNGxwEdfbsb7h2/SrGjB2NgIAAThfd+P169qUYHjsaSo0W3v7+CG/VWqTYCX9i95og5rcUKS2NGPb0UwLnr1zCtl0bENOjHXrGtIOeAALsbH8uPr7wQmARqHSidMIPx47cZICwYMQI9GseAp2TzjOihZkAgk2tQEF5KadR2i02vPXGm6jnVw9FZWVY8/1a5Obn46VXX+aUzt9OnUbqzRsY0rcvmlKwlsx/yQBBYrdEW6AKVVo9zpeZsWrfbgYIsaMHwEAAgRY1AjO0/tAck5IVhCCXav5GXLqSh+2/JKJdq7aYyQChOqxJHqmc5igFlTltdlw4fx7LV63i6PmxY8czk0MahyuXL+Prr75C7359MWx8LLy8fQX1y4F1amG9LT9YqbQmT1jRKUJt3yRgu4PlqxejY4cwjIsbDL1aAAQW+1EfvhSUJD4PsSk0sPS4djWTAcKYyJYYQQCBJiq7/ylhoxROshW3WbB+00ZcOn8B773zNzRpHMxC4r37EvDL9u34bOFn8Pb0YrOeU7+eRLfOnRDRtBk8qe2YvFCkjjJxDSIFlE75VTo97pqq8NkeGSBMho8XeXMIgAAyOXK7WtKjEJoMiqnOflCOzZvjUb9eEJ6d8Cz8PCnvRgBzYTRMTI6Nza2IUfrwzbfQrGkTjB8/AYsWLULzZs2QeS+LBdUMxqQo8uDGwdB7GJGRW4CP/vVveHh7irRK1s/KjIFwquX5yWOafqoS2Q8eMEDw9VJhWi2AUDOjoMaa4KJDjg5pmflYt3QFujeuj/kDOyPQDmicubCrL8OKcjg5cygA5y+WY/man/D0DA1696NaghG3rzbAws9P4uln26J7pxEozjHiUOJdhDVviu5dOsKo10EJAwePQVnF3+N0GQBlBd9fsnImkeL3Rw7gVkkepjKDECjchGssu8Jn588x9KxWkhhIzkuib1dpcK+oAhs37YKXyhdzJ0yEb30R1kQAYfIoclIcUx3W9DBAIAZBLTMIfwogmDmkwo3TJLroD23+T/oiXiflc61QmNupxODSYPm+ZJy8dg1dusUgxK+B8Et/wotFRnVtx4JdlpgEPqpJf/G4coP0Q5hiJFW2g+uyVEu+dPkyh1vp9Vq0i2rDEbO79u5GUKgCo+J6wuhFtJccAfMERMjXQKoPWjB0cFg1OHXiKlJIgzDnNQYI5ErIAIHq3TwYyBTEBUeVGfE7diDl4EF26CPLWzoTUWBKVvZ9NAxqDJ1eD41Bx33/dBUTpr+ATj16i0hY+eNJv9ZVmPlfBQhKoMRiwvIf1mFnwj68vGA+WoZFoKS0FMXlpdjy80+8gfTv1x8ahRLZGfdgKq9E85AQjBk+HEENGoi9npgL9y4rGaQoVCgweCL5biqWHUxExx6tEDu8G7t/ypQXCcsEQBAtZw8DhINuBkECCNzFUhsgEMC+deUK1q9Zi/LiYhaUyi1yN29eR33/+pyMqtZquF2UIpDD27TBnPkL2E9CFkvKY59OSDIM5Noo0bksFAXOX72E7bs2MoPQM6YtAwRybpOdMGl1FZnyUk4KMwi+tQBCX/aiIKqeGBxixRSohAM74/dg8+bNGPvUWHTo2AmmShMoVTX5wAHk5uaiD4Xp6PXIuX8f5QWFCPLzw+ihQ9E2IlwigEXZhRcqYhCkDdWsM+BcqRmr9u+Gd6gHYuMGwGggpTPN4v8BgMBMmpNDuE4dP4GNGzZwfsG8efPg50uRwsI2nuLnyaxn/eaNaBndBqPHTkBwcAiFhUq989Km5NYc1ZgdzPQoYFOocSe9GiCMjRsEg4oArwQ6HwIILIblu6PHdWYQdmNMJLU5VgMEiuKgcWHWKHHo5K/4bOHn6BjdAc9Pm47ykhJUmqpw5PhRxCfux/Tp02E0GFGQl4+C/Hx4aHQYOXQIOrZpw94jnNlCmz5tdJIynyyvZYDw+Z49qGQGgQBCNYMApYhulxCStPnTmicYhM1b4plBeBxAIL0TWZE7zSb84+23cPf2bU40JQ3OvPnz0a9ff9go84AFrSJjh248pWsWmS1496NP2ItCLokQGJZLEcJlViBose2ocD9XMAgEEKaMH8nJlC5mEGoDBNFIIMKTrFAj9d59rF36LbqFGPHikJYIRA50inTYFRmwOcjTpxEeZBvxyafJKK604JU3GkOpLYDJ5EDaXQ/8vLUIHTpq0bxZY1jKvJGfaYTDokCn9lEYMqgvPI31WCisUNN6TQdEDS9OPBdkBuGPAITq+Lw/sK1Krrg89+gDi9Ao0m4JgLCbAcKcCRPh94cBwugxaN88DGoSKVLYjNPJJQY3g0BCI5pUGhWu5ggGoaW/L95jBqGKyxLyMYz7aZ9YY3jyZi7fgZqmGOzSxQprA/KgxdL9B7Hn1BmojR7QOklcJeyO63qJGNK6AUL1dzz6vTJZ9vB7iiqd8CqgTZadBxUO2GhAUqqly8VGHAH+AcjJvY/QFjqMjIuB0ZvazsTPkSuadT9t0eIoVNRa2KmLgRiEA6fw8pzX0LJZGDRc07HDSXUyCSCw0a7FBqfVwoJEEmvRsyQYcCA5GZs3/YL3P/gIIaEhvIFQfY9OI2pPL7goYKaushBvLrVf/5sAweSwYndyIpatXY2yKjP+Mmcu7ty8hfMXLsDisCG/pAg+vr7o1aMnDEo1J8mFBDbkiOH2bVrBh9M9ZV+I6lKBaNUlBsGIpNQ0rDiYhI4xLRE7onsNgMDLkWRkJYLKBK0sMwh3cDDhtFRieDxAoJ59ssG1VZrYOIkOhg6nDRUVZZgzezbnGwweNkyUEzh/QgGlTg+t0VPoPyQNhXv8s1GNEH4JoMuyP/7+c1cvYueezYiJaSsAArU5UiAY+20IirsaIMjty744nlLNIBBA0BFAoE+vUsGscOHY2TNYvGIZA4GpU6YiJycHJ0+e4vcqLi6GXq9DTPcYDjoj/5OQhkHw1ekQFRmBkKCGfI2iSCMAAh0gaGukE7dFZ8D5MgszCF5NJIBgFICcSwz/JYNAtXdzRTn27NiF3Tt2YPCgwZg0eRK8KFRIshLn66NgJLsDl65cwaKli3m8xcaNweChw2D08pKfgruVRK7Ou9cnKrURQMi4gxWrlzCDMCZ2EAxqKpmJyG08AhBIZSMYhMcBBKLQySXzt1s3sGj5Uly4dAmD+vdHy/AIJO7bx3X7sopylJaXoV///mxtTULXpiEh8DUYOYAoODCQtWPEZvFSLAeRSc6mVTpqc6wCAwRXeTVA4IAtGoSCRas2bxMndweVGHKqAcKkic/Cz8MgtFX83KhUJEobvII57Pj722+yYLR7t25I2L8PkyZNwqDBg5k5sFqt2LxxE86eOcN0AOmjJs6YidHjJ7AQlo3W6DbSXOQSoCibyeOKyh608ebk5tUACCPgYaDN+FGA4GYVXQ6YXRakZd/F2uWfoFsosGBIczRQ3ocRWbC7ymCzeSIv3w/fr8zErngHGjfRYtw4LZIOVSI33wWrGSgsAiLaAG2jxPLZJKgxjOrGaN64DcJbRMKgCoIaAaLMSv+xnbzsg6DCHaUCP6QcrINBqKYQxSyqPiz/PkKQAIJU2hPAhACCzCD8SYDwBZUYxoxF26bNobKIRDEqMRBAoAdCw5ntN4l6lADC3u0/oxUBhNkzoLOZhKJIhghPBAiPOck/tA097JjFwisCCGoDcqDGkn0HsfvMWejrB8BD58F5Eay6f8hsxQ1aOOKmNjAR1I24+Q8zEDWYxVrPgx+U7A0BQKfWCeEZO5aReprc4xxwlhfDajKzNXCzMB2Gx8XA4CVU4gwQWH32uEctOhjEuVTnBghHWKRIAKEFNEw51QYIsNlhrahACYmWOGxLmLLQ78nYY9vPu/Hmm39DI7KR5esVoT42lQae9eox9cpiFungIJjt/7sAISsvB9+tW4Og0GAcPJzCLn2doqN5IaF89uQjh3Dq/FnMmzUHIYFB8FBrYFBqud7P7qqSsZUwjpInmVBYk+kLlxjupmL5gSR07NkKcXUABIpvpXci4yfBKFFWhR5nWYPwKECgMk/NEoPdYkFRXh634NECyZkNdhtKy4rx1ptvYuLTE9F3QH8OD1Jp9WxARv4AHt5+nNcgYqclc40aGgTmAST/WzY0UhCDQABhCwOEHjFtagAEmi9isLLKn+rDtCHyguuDEym33CUGGSAQOUwMQpGpAst/WMv3Oys7C927dsOwocNQVWUWNrnnzrHL4oIXX0TrpuEwKjVQKciciKqttI04a0SG1wAItPEpBUAgBmHlfgEQ4iQGQRj1/PcAgU7N+fez8eOmzbCZzdBpyLyIFuhqwyyeg5IYjJiEZhERuHf/Ae7n5nPUcMPGwVLcs+hf56kq21ZL8EecAtW4ey9VAIToMIyJGwi9iso1UmcMAQReD8UiTZsWlVGgMOA6lxhqMAjcwUBhaS6Umyz4YfsvrGPKLypk/4OX5i/gdValUiMzOwtfL1qEcePGYlC/AdBABaNax0miBJAYTLpr15JXh+TgR2OAyjx3qsz4fK8MECYJBsENENxpLG7mlZ+spEHYRAyCbxBqAgQB7ARA4PWHXCGtVUhJSkSDgAZo27YtTpw4wQcUYnSoBdtiseD48RNcBiKhbnBICLr3HQgv33ruMDnZjZUJVSnvRa7T0/pF9zaHRIo7NjGDMHnscHiy3kty9K2xtwitBO0TVpid5Ui7fwlrV32MrqFVWDC0MQJRDKOzjFt5rRYNzpyyY/cOF/zqB+D8lQL87e2mCAiyw0qR0LZIfLbwDAIb2zD7pZbQ6IugUWoAawCU9gCoUR9qexNonM2gUvhDqTCwFoTuEev5lE8CCDVNuWS+5Ams88NbibRusybLzSBokFFUgU2bdsJL5Yc5lKNRzwf7zv6Kret/kEoMYx8tMXyx7mdMGUtGSU2gsoocd+5bZmGLkOsQQOA0NtIg5KRj7zYBEN5nBsEk1dal7fh3GYS6NkaGue5/qAsgcI+22oAHSi0W7z+IXafPwNiwETy8fUVgDkdD13EM5s1ChMbUfHEdkbUVNHNJUCIp2Sm1za1ZeLgaRJNAqnOTytkujGlYPKMSFTglyWVLC1FaUMwAoXmEHsNGdoWHjwjEES/Z36vueyHCi+h6/xxA+O3Er9j+4xaYKiqkbHcnA76srEzk3HuAyMjWLP5hx0eaLJQASLnuM1/gjgZKWpMRwuNYoJoMwoGjiXh6MmkQGkoaBMonENoF2apZ5AEQ8hcahOMJp1FwOQ1z+vdEZ7cGQdBuJZXluJWZDoOXJz779DNMe2YS+vXpy0/PrnDi2G+nsez7NXh++nPo3TUGOgegdiqg5dsqd4hUMwi8uEs92kTbFjJAEAxChx4tETcyRmIQ5OdAYOIxAOHcHRzadxqx1MXQTTAIBA5YgyCb6biAB9nZWPnddyjKeQAFx26LHARK27x06TyCGjVCo8aNoVCJxYKEmUqDHv0GDsbw2FFQGpgclgCk7LPBO5SkpSFwQKdMFy5cuYid8VvQPaYNesS0hU5F10KGNTVEigSNZddHrud749ejt2toEIKhcwgNAvlXlNnMuJ2ZAYdKwYZV7Vq1wcRx45k9oEPCzbS7+GLR1xg8eDCeHRIHHe+FkrcHxb6LeFXxdw+XGJTkhqrDOWIQ9u+GZyiJFAfCaBTX+D9SYqCN325jcydKMT2UlAyLuQonT55gWjumRw/oNGrYCXSaLThy5Ajmv/Qqho4YidIqM4w+PlBymyPvdHUABLFQPxYgKG1QKcTplTQIQqFPNC+NA5sUK27A9WvZEkAQGgRv9kAgt0UVbA7gRkYaNJ4e2LBpI3ucvPv2O/AkK3uXE4XFJfjok4/RomkzvDh3PrSkmaC2VtYQOLhMRo+A0hS5diRoBMngiTQI1MXwMECQVPcs/BPrgMwgCKhdN0DwJR8EiUEgsbO4bXY+oLAXg93CpmLFJSXw9PCAXq9H7v0HSDlyGH379UODBg2Y/eUQTK7/0GcUDpa8E0ksghsgyN4UBAF+FyDUEJuzPo4LQ3DZS2B25iM15yLWrf4GXZtY8eIwDRrYVTA4SMNjh9WqQs4DJaosPki954UfNqXjg796oUWYGg4S9TrbYfvPV3HhXAkWvFMfDZoUi9Zzmxoumx6wN4bK1hIae2uonS2hQgMGhqRZo3n0JIAg9gephd1dUPkzAEEy7WdKUioxsEhRAghqKjEQQJA1CAQQYusWKRJAmDbuaUQEB3OYCwMESXFM0Floi+m0qmTx0rUHGdUAYfZz0FqpH53EN/LmJ7oY6qpfy8swY3IBy2Xeodavcv1V/noagEQP2VQ65Cq1WLL/IOLPnYXCywcGvZfU5iSrjB/ddGVq9uF/EeIPGoE6qWdYTAy+qjqeh9SAxcOMM/w4HpjO404KQeDeeB0pf0uKYCoth8PlQHhrDwwe3pkZBFEDk9F93aw+Lyx/CiBI1LPdgfLCIuRkZ8FmsYiIZQAlBQVYs2IVMjPvo1efPtwBQCYrsgugU6tHcItwyROdTpzVoKiuIUl3jAjpPYmJOJiSiPGTY9AyPIiFWUTLy8JGGeRVJ1RSucSAk/EnUXQ5FXP690bHJnIXg1SXo/q6Romc/Dy8+94HmDFlKvr17M30JWk97hfm4+OvvkCH9u3x/KSp0NKC5HDyAkSnJxkCcruWZB0rzGdIya1Cgc6I5LR0rDiUjOjukYgd2RUWG5nayJ+ZVN9iDJAIUvAQosRw9vxtHNp3RvggEECQfOcfBghkD51x9y6cpioWaelUKtgsZmzfsQ2HDx9C8xYt8Myzk9CgUTCDbgII5Nbm5++PoODG7N4nHPjEaJW5OR43kkZG4o9Yg0AAgToYenSnLga6dGk88jgS45SeKavQuW5LAEGUGF4cMRx9QsmLgjwcBGNCkczkmJpfWoQli5dwdO3T4yYwBcwttBYTvln2HSoqKrDwnQ+hoxZJFkBK3hxUmZQ9BKQSg1uDQABBq8dvpVVYSSLFJp4YFTcAXkYxN5jt4HY5OcaZGtxobFALog5XrxVi+1YhUpwxdRKcVvMj6ww/e0lsR6dpEutVVZbjH39/n7MAqHvHYDAyq5OT8wAffPAhRo+biEHDR/C9Z3McaRALFk08CLd0TPqz0FSocefe3RolhoHQKa1QUasj245Tb6oIMeNDBAEEOt0pDLhx7T72/bgTYyJbY2SHKI4aFqwmbSBKbimvcNjwr4WfMQj+26uvw0trYO1Jld2KFStX4fqNG/jo7/9AQL0ALuNQeZMFzGyZLs4Y/J/8BykKvMpgZIDw2d49MLnKsWDeZHhLIkX+ePQsxYd3H2rYOEgWKf5IDEJDPDvhGfhQUJvkvcGpiXzLKFxPuGGQgVpmRgZ+/vEnxMbGolVES5w7ew7v/PVt/GfxEkS2jORmDy4RE8PkFNmQNNbYzZW7O+S6odBc/SEGgdNnqfBKY4vuqxVQmKBQ5kCjOAibowRp90qwbtkeLjG8OEyBek41t+mSyNdqo+4lCrDzR3JKAb7fWID331EirIXMTAbhyjkHli3Jw+Q5KnTpQ8yARZDYLDvygNIeDLU9Ehp7R6hc4VAiEC6lVoRBKZW4rVBg/dFD1SWG4ECRYinb6As6RjAndZ0lH/N3/AhloTYhdkmkmFFUic3EIDwMEDb8gMkjnwQQxk9EZONQbnOUTXyoz1pkfUioVCXUzdcf3KsGCLOeg8ZCve7iQ4hRKa66jrO8++OI+qj8VY/RJNQKCqKBRgp3NfKVWixPPIz406dhU2ugIYPd/099ldIt5zAVEo/IjldPehL08Gi1oFWQWAuqBYsBRemI1K9N7W86uw2BAQ1wPycLLVoZMHB4Fxg9pQhf0fb7hFZQARCEF4KO0xzPnLiGx5cYpAXZqaDQPmmhp1XWwdGkP27chEsXLmJUbBznAQweMhi9B/TjOivDI40WZie5vkktZjVaF8Rvaw9NqqFZlErsTUxigDBuUnduc1TxqaHuNE7BIBBA8MDp+BMovXwXs/r1Q4emhLKtrJymn0KqZEr8yysqwgf/+BCTnn4GA3r3YRET2yyrFFj34xZcvXYNr/3lJYSEhHCvfEZGGpoFNoS30SjtqlReqU7b5FYvhQp5OgMOpGVg5eFktO8egdiR1OYoLaY8YKm8JgACAyVeJXW8OVGJ4eD+M6xBIB8E7mJg0V91yBBDCgazTu7qV9gdsFRWcrfF2jWr0W9AX9y9exf1/AMxY/YcePj6QKXXocphFcmOTEW7e7r4prBrH2+4vIryzKJ9h5JVucQgAYSeBBB4LSQNAn0m+nrBnInarZA1253eOHmMAEI8/jJ8GHqHNGBjHXIioBIGdTGQD35hWTH+s+Q7tG7VChPHjIeCeu9oWBk12JW0H5s2b8IHb7yD6Ii2oLJKdmY6PL2MLMKkEprU1CtAsSRStJHGQWfEb8WVWJG4B16hXoiN6wcvI7FrnN4gfgaJ5HjYyfkSSlgdGly/UVwDIDwLh6VKOhxUz9lqczcXb1xULL598xo+/vBDPDdjBqdSEntDT/b27dtY9O0SjJ04Gd169eKYdn7kkpKcS0fy45CKVhLKZ8DwqAbhdwACaT2URMPXAAgt22BUdDt42W1iPtIBQ+GCWalApcuJLxd/Q2YWePfl1+Cp1oG+ip4PdSR99sVCTJo6Ff379ud5n5N5jw8oQYGBPBeF3bMsNRTKJ9p0q/SeuGMhgLAbVSjHgrlT4OWllXwQZAZBgCIZrIrodj3u55ZjEwEEn4YcEuVr0LtLzGyURL4FdLC0E7QGzKZyfPXlF7h2+QozUeSOeufWbTYHe/6FmWjavBnPbdJz0bXVD2mGphGRbPDGcc+sn5CuiUvCvw8QSKTIH9ZpkALk6IBbBqcyD0r1NegVG+FyViEj1Yh1iy+gW4gCLw5XwpvaUKkZDApY7Wr2tVGqfZF4JAfrN5czQAgPE+shzcrK0jD856s0eDdU4tnpJAA3o6yiAFVVdgTUV0CrUUHlDIba1g0aRxSUrjBAUZ/F55R5ckuhwIYaAEFuc+RyjXTI4adQ00nvDwCFWgCB1xTyg9Ago7hSlBjU1MVQg0H4UwBBQTQ6PRACCAKNU1QvLc428kGoARA+mPUctGYBEOTXH9msa/fX1y4viJtfkw0Q3BN9aCp75Cu0WLonCadu3kJ0dEc08vJ7Ihh54v3kZy13LEjI8AntmeIr6HqFXwItHg4VUGE248qNa8jOuQ+1Ro12bVqieYsw7NyzDcHN1Bg8vCv0XqLbgN+hzp9RzabIDIILOjjs2j8EENQOinmmBmoH1/YuXjiP3Xt2IzMrC3PnzkWvmF7YvXs3tm3dhqjoKAwcMgTNw1pA4+EFmxQF+/C9EjiuWi9Beya3dzJASGajpPGTurFR0p8HCH3RPrQxNGRwRAmKwn+OXeGyiUH44AM8N3kKBvTuy0ZcXD1UALfTUrF4+XI0jQjDpClTWFm/aOGXmPvsZPTs0lXcX+5ikGqWxO+wv7wK+RJAWHUoGe26hyN2VFdYJYAgBlENgOBeWh8FCH0lgMCKZPlZSmUG7qQnkWJFJYrycnHo4CGkpBxB7z698cwzE3A/KxvLV6xin/uJUyahZbu20HjoRYsjlwIk3Ydo8n4IIPDU51MkefGTD8KuhM3oFtMaNQGCzIzJPgiieMY7NewObwGTDlMAACAASURBVJw6RhqExwMEp1aNgpIiLP5uCSIiIjFu7DiRzEjPQKtCek42vvz2G3jpPbBg7ny+5yuXLkHHtm0xfsQoVrCLlxg79Hxp3NiUKlbQny2pqgUQPD3EWuM2xPkvAAK3NDPzCdjNVUi7dQNrVi5nq+lXXn0Vnl7evCGRdfT5c+ew5cdf8Pzsv6B1dHuuPXPYq1wy+rMAYdRAaJVEqdMpXoiNZQZBBNmJEoNS6YHrV7PdDMIoYhAeAggU2W2CA19/txiOiiq8/dKr8NLoOBURGjVMdhuWrFyBjNwcvDBrNgLq18fiL79kweiMKVPgQR0xfBIVhk1yuzEdZqr0HrhjtlYDhHkEEKi0JY+5GsY29BRZZyVKDDm5FbUAgo8EEGhsyACB9jOdSwlLeRn2bt+GlcuXo76fH3RqKuUCFWXlSEtPQ0RkJAweRqmM4IJap0efEaMQN34iNOQD8d8ABEoodXpLolfyNsiCU5UKpeoijK5DbAyWlmrA999dQvdgYMFwJccG0D2jSCKrTcdsG1ReOHS0COs3leDvbyvRIszF+h9eya1NcGBfKTb9WIxxE4PRs3cPHEk5jFOn8zBrvgIhzcjNVAGFpSXUzg5QO9tC4WwDBer9OYDwJywDWL4kjWHuLnwYIGzeCU+Vr+SDIJUYfg8gTB03ARGNiA4RvulCGKJm+pbr6i47u7zZNBJA2P4z2tTzxQdUYpABwiOGDtX01KMbz8OEiZscFhuvTFVJpQpe4LmtUIVChR4r4w/g8t00jBoxChENG9UZFFXrZ/4f8t4DvKoq7R5f59x+U0kIhISaBEhoUkJXRIr0jhQBxQqMBXTsY5lxHB3HXhEVUJQqSk+j9x46oSWhBUiBEFJuv/f3vO/e5+YmBBVn5vm+7//P86CUlHvP2Wfv9a53vWvVRGf4GQwNYwd+hagqb3rd/BeVfS0eM1QVlDocyNiwDjkXzqNFq1Zo3a4NTwjM/v4bxDRUcO9gTaQoAIJWhdQMXgghEy9IR43xZoDQOJ69/snKRiRJUrWrYzr7Uu4F7Nm+gxPHKhwVSGzZAvf06YWmzZvBoBjZae74sWNISUnFmdOn0aBhQ7Tv0hWt23dAdHS06JNWYRDEn7W7xQcEmxkJgEBWy/cRQGge+4cAQpsGMTDSyKZ0X+Q4cUriu1qE1954Aw/ePxE977yLswC4ICA3Ro8Xm3Zsw7zFi9A0sRlsFTYU5F3CX599Ds0aNRKvlStAEhoKgyD+q2oAoQ0BhEGd4XQRtSvBBOXYsyDWW7XF4CMfhDNYLxmEuzt3hU4aQDFA0IQXFEddUoIdmzfj0N79KLxyBRERtTBo+FC0btOGXdwoojjvYh42bN6MfQcPwGfUo0WbVujQuRMSmjVnLwk+0OXES+CYo3adWA/EAOEwVqQuRJeuLUSLgUo3ZkvEdAsfztzbp+oxACBsPYX9K3+FQTAobKn82eefo03LVhg2ZBiM5Ivi8cLp9cDp8+DYmVP45MuZqFuvHo8PHti1C089+ij6dO0mwBlTwxIg8GimWDcEEEik6GcQhkkG4TYBwuRJkkGoxh6qdCa6vDh98gS2bdmIndu2IL5JIzz00GR2FP3hx/lsk+ukFsOly2jfoRMemfIkwqKiuDongEqAxl953w6DQABBkQBBYxpli4FV/pJB0OmCWIOQtki0GKoDBKHoUFHhdeODr76Ar8KOl2c8hyCjEQ67EzqjAQ7Fh+y8C/hiNoFNN5o0bIjMXbtx/6hRGDFoMIzEGhGY4JwTUXaxmyW8sFOLwe5gkWKFEsAg1AAQNLJX0yD8HoCgUOpqWQUyVq/BL0sXYfjQoejbuw+sJjIOUrBv71787W9/wz/ffRdJLVsKDYIMklKsIRzWRGJM2ntYtMsMAgEdqcmRZkK30iAwg+BV4XUH07uFV7kCn+EIYDgCRTkCiycbcIfjXI4F82YeRuf6YAYhmKyWiUXz+uB0kZtmOLcEduwuxffzbuC1FxXExQtjJ1HW1sHVojAsXZKPHdvL0PqOcGTnXEf9Rl48/oQR4ZFO6IlsdkZA8cVBh9bQufpA9TVkY7RTatUWw60YBDEm/RsfzDwKfRydSQTSbgkQ9OGYNloYJaXt346ffwsgTBw5mgGCgQCCKgQjDA0IIEhfbx8xCEYdMwgpGkCQLYbK+OLKqkEjtmp6W4FVqfj3wENajElWZSLEwiD/6muKCXNSNuLo6VwMHTgY8XVjfsMFgXnfmkUFYuX5jYn8VQ9vpjcHKomenGzNcb+QboaKCrsN+w4fgGIyonnrVtBbzCguI3ONmajXUEW/QQQQhOjz3wUIzRvHsVqcfRDkgmBTW7sTh/fuQ8aaVCQ0TUDb5HaIbdSQzUdUok69leYZ14qKkJOdzaNrNreHx4qaNIkTfodk+0t9TFpuVNkHgAZ6WIlqdOo0gJCG0fd3QeIfBAitY6M57pkpaOnlTsd10Y0SfPLpZxhBoVPJHTnQiMySSIdAKm+X14u9hzKxbsMGHo3q36cPxg0eCouBWkXUhhd2KtzykJMq1QHCHV2aYrAECNoSJHHWrQACtRjWZ+zFsD6D0KNTF75ODM/YBpLFKHyoF165jJ8WLoJZ1SO5XTs0S2qO4KgIgUC8PtAWSV/icDqYDdm6eyfyCvPRvcdd6Ni5C3R6mkenloDIL2CTGmZEhFqLQRqxOPDiwNFDWJlKGoSqAIFDajSAIEWKfB8pTMwbit2/ARCIJSipKMP8+fMR3ygOfXv15paK8CsTBQS1Gw9kZeHnlStwJe8iOt9xBx4cOw6RliChSaKo5AAGwc0mTCqLFA+UOfB1+mqENApoMdwuQJg4Hm5HhZ+CpueK1iv16xWPj11Ed+7YjuQObZHcsR1qR0aIKPQDh1BYVMTrmkYfW7Rqg6johqwFIepeq77+kwCBwT6t8UCA8CsMgtAi6GDzefD1gh+gujx4dNKDsOgN3Iej6++g20Gi8TMUiJaOMydOoHF0DKY+9DBiyQ+EclX8yn+BgGkPpefLbpEixdQ1sPkBghApCowgBXJSVC1KGsEgXMovw8KAFkNNDAKtFeeNcmxam8G+HP379+MWCBuYATiwPxMvvPgCA9AWrVpyHgwnL+p0cCpGERRI694boG2TuRIsHpUTKNSSJABcfYpBAASyICFzolL41FzAuAUw7oaiHoPJ6YHPGYNzZ6340c8g6BDEmgkVTgIIbjM7R/oMXuzLLMeyX5x4cirQoIGUD/ro+afsnWBcv5yE9etysXl7LlxuBZMmm9GtuxEG0w3oKbDJTZ8bBSARBsd46HxJAiDoFPywZSNOlQijpFsBBB5Z/9UPbbUKgCA8RZTfAAjjJEDYJqcYfkWDQFMMzWJiKwECozkCCJSvTluNYBDc1QDCG4+SSLGCxXj+XrV2BvIb0qjGqu+u+pRC9fcuwEElSJCedXDBgGLFhNkpG3Ds1FkMGTgE8cQg/Ba60qr2Gj+vskvnP7wFZq3hs0UfV7QKhB0rrUSX14FSexl0VhNgEv2l4opyzJzzBeo1UNFvcDeYKYtB+77VXrC/aGfGRGMQaIM1weMyYu9OoUGY/vgzaN5EMAj04GmHH4/A0UPmcnN7gbLbbbZyBgYmi5WfysKrxRwzHBoUBFtZOVfIlADnpMPIYOTeKNm4Bt4+3tS06lhWhWy1rNOxBmHdpnTWICQl/jEGoVVMXXqHvM6YISAhLNl80ybmcCLIbAElwxGAINdHtuulqkJuNnabncEMVYZWvfDD4O9EAEGO6HLVwUBBh0KzBetyz4FaDIEMgnavyX/9ZoBggNtnYQ3C7wEIpP2wl5cj2EATKG4Gj8aIUK76bKVl8JRWICI4lAODKHDHEh4KO+k3jHroDCaeJPh1gCDc5RggHDmElWk0xZCE7p3FFAOLjIUdHhMbQqQo+rYaQNi19RQyNQahfh3uFVfRIOjpIPFy/gWNn1mMNAKnwOfyQOUiglxEqZJSORwMDidCTAaYaQ3R9ScCjEBpDQCh3GDEwTKnHyAMlhoE0m5QUiF9SVUNAn0X3U0ahMkTx8NlL68ECHJyRudRYKHD1VYBp8MGi9VIjr2s6PeR0FIeKoJZIqGKHk4PieO8gFHPrR7tIOOd4Q8xCDJplbRK7MgoAILH42DmiVoMgSLFmhgEn07PvjMFFaUwKDqEmi38fNNzSwe9nTQ5Rmr++uByuuGusMOkALUsQVDc1EXniAY5NitaowQ4abyWAQIxCClrYFM1BqEqQPC3U+U26J9iKCgTRknh0Wy1fKsWg0oTcU4nLp7NwYa1a+GisV/uE/pQkH+FwX3ffvciIqq2zHDxcsrpPYOHIaZxYz74iXXhKRC5b4r9TrSc6Uzg6XpFxZWiamOOVsHAeT1GeH3X4VGzAFMKfOatUHSFMNlU+JxxOJ8bhB+/OoQu9RU8ca8OVnck4LHADRuzSR4SnAaVwe2MgL3cDIv1ChSFbLQpXyOIhekexQlvRVu4bKQlOgmdqQihIV6YdKSfoL3KB72HnjALvL7G0LsehlG5Ax7VyABhHmsQCjFpwrD/CkDgyZJADYLWYhg9no2S0vcLgHB/9SkGu8xi+OC7pZg0cgya1qN+sAj4EHSPYBDEwyLGudwmHY7lX0DKsiVoGRGG1x+eBDNNMfiPPiFrYYcsWoweH8rLyzk50GKx/OYxzscyHwAaOJBsAlXKVDkqBlxTjJidugHHTp/FkAFDkVAvttJNt8ZjXVL6v4nAtE+oCRgE/psm3ZGtBmEVB69OHGwuGWp1zU4A4UvUa6TDvQO6wBxMT2uFUAgzHUTCLEopFJWoRk0IcCR2Ja+X2gIWBghklPTUlGc5d4DV2SyV9X8V2yyTKI4SHD1uN7774TtERkZiQP8B3FdbuJDCaqzo07sP9u7dw2K5Lp27oEWbNtCZCWlXwiOuXLmIEPS5ELiJKoQOaRrRWZORjvVb0jB6fBeOe6bXw8p+vwJcvCdRkVEVbIbLZcXu1O24fjQbU+66C23ImpeqBGIqFIVDgq6Wl6PcRe0TAivk4+CFyWDE3n37cO1GiRiHIlElCet8QOPYhujcrh1CDJQgKUWS1LvUNhZpsEJXrMBsxfpzFzBr03q06ZKAIYOTmZ4VDIIwleGJB7kGxT+QWMmKA5k5WJ+xB4P7DsSdyZ15jpvfIQvyJIvAKIdGoHwwehWs27QBuzL34YFHH0Z03brYvGEjtq3biMcffgiX8/KwfusmJLVpgy533oXg8DA+cElMxCwBX0fR7BQHvba4BUAQLYZDWJFGGoQkoUHgrCOhQNcCvxg8igFyQQD4SINwGpkrUvD0gP7oGSMAAl9tnmJQcN1egaLSUhFi5PYwSKBn+ML5Czh9PAuqjH0mXQGxNSFWC/p06YbIkGCQbpzdJSWDwIBTM0qiKQadAZmldnyzdg1CGodiyLDeCKYpBr5nYpJCZDHwTRH5EQQQvEacyLqO5T9noFVSS0yeOA4uu02+N0Hi8JPj8cBZWo7d27ch//IlISn3ebin7aaJFVXPo6Z0qF69VsRGlx5qp+oNaN+5E+KTEv0eElWITQ06y0OKngPaI7PPncG3cz5Hu7YJGDakNww8xSAdAvnaiykGajkSg0AAQVGtyOIphtUY1TwRg9q2QbDbwaFQbHWhV3HDbsfVijLYVB8narrLHTBS4XGtGIePHmHGQzHoOALd7XYjIigYvbvfidrBoezFQj4P8jgVImC6tiRA9RGDYBYahJQU2JUyPEEahGCS1QqmVdr4i1sgn2dWoikWXCooxaLFKYgIi8a4UTTFYBYtGQbi4iinVibJQGmq4sTRQ1i+9Bee5GEWAQoK8wuwa/dudOraBbXrRAlLZZp8MJswdOx4FikGfgROxAlyX+4tRCGoOlwuKsBPlMUQrOL+UQMQbBXZND4P3aOTcOt2w2vaCK/hBFTVAYNdAIQL54Kx4KuDrEGY1kcPo4f2ZAtclBvjNfOau2Yrg9ceArMaApP1BkJDaiHvUgWyT19DSVkZymx2uGzh8Hn00BvLkNzVhoQED4wuquCFyJM8IRRY4PPVgc7XAXqlGzy+DjitN2De1k04daMQk8YPFVbLFIwomdvKLJJKBrxK/e2/SNoYP88pMXUqfFMkwvUbJVVg/kIhUpxGACGCAMJ2LP2RAAJZLQf4INgoi2H3QXww9yc8MHwstxho3IkrLq42FDYfEuNiQoDiNgFHCy+yk2LL8FC8NnkcgiisiSsUuc/KTZYehILCq1iweBG6d+uG5OSODBzEQJtUx9Z0aPNi0wKfxOVg6svrZfrpmmLA7LQNOHr6HIYOHIqm9RpUIn4tUUzssAFw4dcO/d+FW6ouWKbuxKQAiY54Wlrk6HAVXK73ochWii/mfonYxgb0I4AQRFigEKB4aArtkL98PqKyAhaA9HPgsShCnt4gv0jxqakz0KxJvNgAWOwoHhXBIJAHvcKGNQcOHcTb776DBx94EP369oW73I65c+fwe5j4wAMos9uQlp6GK4UFnL8eHhkl09gEfcZ9b0GW+NkZcQUJPJIwU4/Va1OxaVsqRo/pimZNY2DgYBtRAYr/SFaJGRf6fmY43VbsSNuOkqPZmNatG9rVbwDVJbMYdCqKbRVYsjoFGVu2wOZ2sfkRvcc2rVsjrFYtFJEJFKfheVlkdu5MLhrXrouXnngada1W6MkDgDzopVGI0ISKPiZZ3hRYgrDhfB5mbt6Ill3iMHRIB7hk4A8fR7JqEeI+bUHTjQ3GocyzWJe+GwP7DkS35E7QU3nm7+7KXjvdC6a5fSgrKsY7n7yP0DqRmPrY4xxLvT5jLVLXpODlF59HdFQktu/ejRUpqRg/8UEk3dFGCINpJC5gGoQPdwJElc2pSoBADEIGAYREBghGctYkQyTWR2hhTQIsCS0JpW2GYdf20ziwPAUzBvTHPfWi+FCnJ5IyD4i6XrluLRYuX8bz+PQvBr0OdevWQadOnZCTm8srgUVvBmE1fO1qET79xztoFBEJPSnSqTCXCYtM/XtEu4QO1AqdEXtLyjB7fSpC4sIxZGhfBFlF+h4p+P37CP+G6UsGCG6PASeybmDlz+vQMikJD9w/Fh4XjZVpRkQiP4Oq5/Lia1i3ZjUu5OSwFsFuK4fdYUedOnURH98MTeIScKP0BoqKCqBSTLrTjaMnT+Hu3n0w8eGHGZxymiE/54F0n2CoxHsR7bZzDBA+Q9u28RgypA8MOrc4EGQaqhhrJJaCxRFiWkgx4eTxK0hfnIoRic0xsE0rBFMyJT1txN6owPaDmZi7eBGKSkr4MhDDUzs8Ej179cSpM2d4DdA1JuB29WoR8vMu4rXnn0dC/YbQe9ycRyE+KJuR3ouY0CBmyGGy4ozDhX+mpsKOcjw5bSKCg8lNVXt//iNYms/RDkz5MxZcJgZhyWrUCq2LsSNpisEixkqlVkBgCql6IGbZ7YSZ0imJ2aS2nNuDzP378eILL+LjTz9By1Ytue1Ba4lAr5sAsl7P5mg0yeC3QdecNgWEEU8DMY8qMQiF+GkZAQQF94/qxwCBJlh0Xi88ho1w6FPhNmTCq5byoWlwmeF11ceFcyFY9PUBdI0BHu9DzA49O4DbGwSPMxrnLyr44vtsFOYCTaL0GDXuHpy/cB39+z+ApT8tw+UrOdDry5i1czpU7N5RhElTgJHDjTBWqIAziFkx1VTIuQyKNwyKvhQ+b2/48BTO6K34fttmARDGDUZ8gyhhpc5FmTZhWum7S2tKsOkiV0P7ECON4qxkXx+2o5DGaizKoefVhPPXaIphJUIM4Zg6igBCLaRnBgKEgCwGDSCwUdIQMkpq+IcBgog1DQAIBCx0Oly8chkvvfwXjL5vFAYOGCgYPbYA1RzeAs5dzf0uQCQnxrNktjnNpsKEQkWPOWkbcOzMBQYIzepR9SoOIT6zmU6myvP2D/7f+xWaz4NmZkGLmCtb2R8u1wMFthuY+f0XiG1sEgCBaC/FLgJZ+ASgCpQQK20YlWBGhNYIRF0dIDw5ZQaaxcVD9RJCrzy8xYy8F7QWbEXF+OjD93kjmDFjBkKDgkGhNXNnz2Y6buIDk0DRrTaXE6VlpQiJiITObBGRz5yeJjeTAIDAeIsffBqhozE4PdYEAITmzWK5ahJUttyWpNkKdz75/RKDEMQA4foxAghd0Ta2AXRuMqYiV1oVdvhw8VoxCq7fwHfffc++/hTEZA2ywu514fv5P2LIgEFomZjIrZTFPy+F6vTgodFjEWo2QHfbAKE9e/b7HzQGCGL7+TWA0FUCBDmh7e/d0vchzY7JpyB1+QqsTk/F409MQ1zjxrwxblq/EempqXjm2elo0qQRyt1uFJeWIiiExh0trOKmSk3YpAQY3QY8EwzTeKP34eCRg1iZvgidu/0BgLAiBdP79UPPmLoi3EiEqsOpU3C55Dryrl3FilUpKL5ajMcefADBQcEMvtLS0tCubTt06NAeXr2KHxcvxJ49u/Duq68hNiQUOhe1gkQfVNgJSQaBnxEVNgII18swZ2MaA4RBQ/ogJIgMtqhnXrl+5NMkpjUpRCkAINDo5YMTxsJNYU0eGuEStvDEFBCTZqH2hs0GR3kZVq9YzpMuBGKSWrTAgEFDERQUIkGYFwajASVlFfh27vcwBgVj4kMPyXRTEdZ0+wDBxbHfwtZXjqeqxIDQnqQBBDMDhIzFazAiMRED2rRGiB8gqNw+uu6w4+LVa9iwfSuPKT/0wGTUrRUBi9WKpb/8gujYGAwcMIBBFU0sLft5KaZPm4b6URTfTdoxrW9N/ghyGobHY71w0BSDw4V3U9NgU8oYIBCDIEbcxesWtaj2Pv4gQCBY7hbBVcQuUvQ27UUH9u3HSy++xFMyCc2asjBZc0x0yckPOcvmfzbZolhjmDSAQM8qA4SCmwACFVH0y23YBLsuBR59Jny6CgFmSIDobIC8C2FY/PUBdI4FHutFkee0qZK7qRmKEoQKt4rswnJcPNEAJRcaorTYhhWr16NTx7YYMrg9Nu6ch8lTEhBZKwpFV1S8+eoGDL0PGDxAgaGMZjwJPFk5v0EHKxRvKBTDDXi83QH1CeQYIvDd1u04faMIE8cNYoDAYlYtZ4J1I5U2AL8bIMgvoXNWnIUKi58vEEBYuEr4IIwUDEJG5k4snU8MwqCqYU0aQKA0xwmDRqJloyZ/HCAEcHGMQWVUaLnbiW9nz8GBAwfQrXs31K0bzT00Ud9U9T8w6PVomZjEanpRzYnqhRkEzhXwwqmaUAgBEI5nE0AYFgAQBCvBxJpfWf7b6oTfCwoCP68SIGgYne6BoOYIKNh0CvI1gBBnRH8CCGaSFoqSXFPWa99TVIwC0VBo0q0BwnQ0i0tgdFwZ4Or/LvA4HNiwbDU++fgjPDXjaVRUVODwoUPwOT3IyT7DF5UmF1Si46nfShWbwYgho0ahfadOcBMVzOxRJYMg/AAEPU0AgZ4hBxSkbcjA5u1pGDWmK7cYmFaVM8oCyXKArmxTEIA0w80Mwg6UHMvG1K4CIFDFyf1CnVC521UVmcezMGfOXDwzdSraJLXgfv3pi+fwwccf489PPsW+9NS6mjV3NurVqo37h45AkEG9bYBAD7kGEITsReVqVwBZeV35hKrKIHTt2InNmfgQ4xaK30aHHe3OnjqND9/+JxITm6Ndh/bIyEhnKv7yhTxOsaP4Z3OwGXozGd+ogN6Idp06YeCgoTCYLPJaByBAYhCkH4IfIFCLgQBCxiJ06SZaDLfFIFCLoX9/9IyOYlMbOghZgKpX4TYYcPriBXz97VzOMuh3Vw9mqM5fuMDCxV69eqFz586w+9z4es63nDPx1IMPIdJohpknoMQvdq6j78vCRhH3bNMZsPd6eQBA6I2QICNraphS9U/VCpgkRmtvBggPTBAMAj1wPB5KIkcaKZPV896tW5GxZg2yT1Oqpp01CeHh4WgS3wx97+2Pe3r1go4pKqDC6cKnM7+CKSgYkx56WE4QBUYFVz5jzIjQvWDmUMW581UZBL3qZI2Qhvm5bULuiPR8k5kXaxLIB+EyMhanMEAY2Lo1gikVl64RKfp1KjxGA66U3MBHX3wOSjp8ZPJkFr4WFRbhk88+RXLnjuzpYDQasGXzVmzasA7PzXga4SYLe3CwkFke9Xoa+ePuDbUYPLCbiUFw4730NFQgACDw9Is2uSSeeWFPzDNB8CpWXC4svyWDoM070Rx/eXkFTh4/hrLiq2xKRSZyVPFTmyH71Gn8MO8HPPLoI6jfsIE/tZHNp3Q6xMU3Q2z9WG6Xah4eBC5FLL1mfk1OjaSHUXHlaiGWLp+P0GAFE0YKBoHGrg1eN9z6zbDr0uAOAAg0m+52Nkbe+VAs+SaTAcKjPRUo5BKmhPI6ZQ2ITsUN1YcjOxsisf6fsHj+CuzdtwXd72yJ/v3vQNGNDWjbqQxhIbWQe6oCL0w/iel/BnreCehLAZ9dB9VDAKEUqo8AAjEIJXD72sFnfAi5amN8t3UvTt0owqT/IEAgDVIVBkECBGIQFi5chWBdmJ9ByNi/E0sX/ID7B1Pccw0MAgGE+weNQKtGcX6AwGOFrCLV2gG3aDE8OA4hbrusE2T/Sbpq0eFDdHt+YQE2btyEXTt34tq1a/w9aZFUn9ygEbBJkybhzu53BlR0cg+mvioHSJlR4FMxN30DjudcxNCBw//3AQQANmYQSvElMQgSIFjMZFgtPBcEUS/bClJlr9FyvwUQmjJA8HDee6DrIYn1DmdmYtb7H+Pk8Sy8+fbfWYNALmZuuxOpKSkwWyy4VlzM44EdOibzK6AHssUdbVG/UWPxoGp0JDM3soKSAMFLSYE+BU5FQdr6DGzekY5R93VGUiK1eUSUreidi1aVlodA7I4GEHam7WANAgGEdsQgEECg708CRZ2CApsdH8+ciQtXLmHc8BGIDAlFXFwcss5m45cVy/H041NRp3YUSsvK8M7776Fn564Y0bsfrKqXqfLbaTEQRS5fDgAAIABJREFUQHD6GQTRIhH6md8JEPxZHpV2y4WXLmPWZ19g+8ZNGDv6PvTrdy+OHDnCAIEyMc5l5zI4s3vseOCRh+EiAZHRhPpNmqBZYgsYDBbx7AVSctxi0ChEaZTkrQQIXf9NgEBULK9LGmXWqyjzerFoxQpkrNuAcfeNQVRwCJo0aMhBTUuXLsWoUaPRunUrFFeU4YtZMxEVFYlJQ4cj0mQWgI8lLAIcEtCiw/t2AYI/Eo2cMCVAOJl1Ayt+XsfmTVUAAinsaTSV2j6k3vd6sPTHH3Bw714YSPFvt7H9eEy9GNgcLrRqfQcbhp2/eIG1AXa3G+nrN6JRfAIeCGAQbm5MClqN2wt0iPgBwqf+FkMlQBAccVWAIBgERTHjBDEIiyRAaNMKQS5yP9VseBV4jEakbFiPWXPnYujQoUhq2gwxdeuxvuibb7/BwCFDcEfbO7jFsGTJEmQdO4LXXnoRIQYj9KRFqgYQGNQQ80QiRbMZ2U4CCOl+gBBMDIJsdYp21O0BBFHQSfLf60V+fgGWLlqI3FNZQmPEugQ5SUVurDY7TGaTnE4ixpkYJgoENGL46PvQpUsXoSOiIobWDwEMlfRaNwOEyxIgUIthArUYLJRu64LB44ZHTwxCBrcYfKQB4261CrerCS5dCMXib/ajcwzwSA+VU651+hBuZdMEg0sxIre4BB+/XYJxg2egx9398dHnf8H7nz+LTRnpOH0iFf0HxSDIasaRzLN47+8X8dIrBrRt5YXR4YFi434sdDrShBBAqAVFXwyX2gxe8yjk+triuy1HcZIAwthBSCAGgazhb2IQtJaN9u4FI6RxyNVbDAwQmMATmRRsHqYSg1DhBwhTRo1DRESEYBB+DSBQi+H+QaPQsmHjSoDAA3RCRcqBTdoIGmkQCi6Cwppa1ArF6w+OQ3A1gEAbtCAURJ+ExxNdTq74bty4IZC+4AiqFu8KEFkrAqEhoX6Ki6smNmsi4xGyWhYAYXbaepzIycPQQf8zAEF79UK3J45BP4NAAEGnoNBehi++/xwx8UZuMQQxQNAmfjUeXpCQt8MgNI2LZ+TMwrKAPlTZjRtYumgRzp46g3379+KVv7yC3r17s9D0ekEhnnvuea76jp/IQu97+6LfIGr5CKtfMsljqZ6mp5AMgh8gSNFcJUBQkbo+DVt2ZPgBArE87Pnv31pkj0Jr/3jNcLus2JW+Q2gQJIPAAEEyCBVeD9bt3oUPPv8CZqsFYaHB0Cs6PPrYoyi3V+Cbb75FowYNYTIaYXc4cOzoUdSvE41777obo+/ti3Cr5b8KENaSBuHeqhoElhKyqFHoXnZs3YZ1KWmwl5QiMbEZHp8yBcSOeVxufP3VLM5qsLvsuFpchM++mgnFZIGT1PUG6lMTMBfMjt/ut5oGgYWiZJTk9eKQZBD+bYBAlRi9fL0ODp2CzBNZeP+LL5BfWISY6BjYrl/H/ePGIzYmFp9++iliYmLYMbHMYcOxE1kIDQ1G9zZtMab/AKa4JZQR42hSVUUaEDpUSaS4t6QGBkFW19rcfSBAIO2C1mKoESCwGQz1wanL4GJq+ad5P6Ds+nUWrlqNRuSdP4+IWuEoK7cjKjqaBbtLfvqJA7JIH0BthkHDh2PM/ffDYNRq8KoQgY8/CRCowiTG5ey5M5hNGoR2cRgyuA+LFAWDEAgQ6BmjypzsyKlKFQBh7SJqMSRhYJvWCJIMArVm3aqCUxcv4qOvZuLA8WNo0jgO5TfKMGzIELRr1xZffjUTqtGAsPAwPvDOnDkNp60CPTp3xv3DR6ABOSnKhF2u/VmsJ2h80WKwINvlxnsZ6bD5hEgxOES2GDRh8h8ACGJqRYyb0kFXVloCt9sh1gGxbAR0SUMnx3ZpjROLQ2OOIhtGB4/eAHNQMGc2sKUys0qsshOW1TUBhGuFWLpMMggSIBgYILjgYQYhgxkE6Cg3SAAEl6sJLlOL4Zt96BQNPNJThd4NGIy14PCEwumsBxgaIaRBEgb0fguhVuCFF/6KnftSMP35wXj5xb+itMiDj9/7J86cPIrZXy3A6cMOJCYB94004s4ONFVGAmwZ5OgxQ/HUgmIohlsXD7dlMM56u+D7LSf8ACG+QW1RLMmCTBtN1RQhmiaMobcfIAhjsEANws0AgS6fiVsMCxeuZgZhyshxqBVZCxmZu/DzbwGECYNHoUWDxty7IltHGvWihzIQILjowTApOFpwAWuWLUXLWqF49cGxCCGhkH8QRajAxQGqQEeiNSmuYspRHqYss2AhlRculwc3blxHQX4hu21FR9URwEHuLGwYQwwCCVgo7tmnY4CQlZOHYYOG8/QF68nZQU3Y3/63WwwasgkECOLnitEvOwOEUgYI9RIMPMVgNRvg9dG1qnQpE1oEUa7ekkHwWLFv5wlsXrcbT0x5mlsMFMAkNAiVIMvtdKDoyhUUFxTh9ddfw5MznsK99/aF4vLg3MnT+Mtrr+HBhx/iHvKdPe/G4GHD+CFm2o4AAR1iBAT52lcVKTJNzAuXGATAqeqQti4NmwkgjO6EpKSGDOIIIHAEK4/ZSaWxBAgqtRicFuymFgMzCEKkSBoEVu7qVFy6dhUfzPoam3buxFNPP4WOnTth4YL56NGjB6IiIrFz+w4OVxL+AOJAPnX8BEKMRrz6xBOoEx7OCmqutuXniAkMAeIKzMHYcDEPX0mR4s0MgqCqBYMgT7aAFsPaDCFS1DQIWsUkNDBC1Flacp1zOFYs+gnmIDPbyVI4UOn1Erz37rtoltAUOWdzcSH/Cj758kveuMn6l02i+LqTSFGzRpb3WIYe8bMkzaRoo6cWw6r0RbgdgMBWyzuESFG0GGpDzwCBGAQdStxOzPrxB6zISMOQocMxdtQYzPn2WyQ0boL27dth2/YdcNjtPMVBewLFnF/MOw9nYTH+8tTTiI+NDRCqSs05icUoc0LVCw1CSaAGoTeCg4xQbgEQhOmTXgCEE7dgEAIBgtsF1e3C8sWLcfzwYQbTY0ePRvapk1iyZBFKyyowfsIkpvLpPvz5+edZ1Hk46wRrJNomJ7OmQdid3wwQhL22InIbJIMwe84XaNcuHkMG9xJTDGy4I82W+GAT0eqsQSCWQzHj5DHSIKRgRPNEBgjBLodox0BM8yxcsRzzlv7EviovvfgKFi1chBBrEHre3QOZBw8gv6jAv+/S97xakI/jhw7g5adnoFOr1syiiO9Gkx0EzsSEBLcYTBbkEEBYm8EMAgMEOcXA+5gUeN9Oi8EvbucS3Qc9jXPqVTg8dvjIV8WncFuOPBJoe7CXVyA1NRUtW7Xi/e9G2Q00iouDJTwCio5nYTg8jt4bAwWOLhesjSZS1FoMxCD8tOxHhIeogkGwKtB7XGzCdhNAYNGsrhIgfL0PneoRg6DA6PLBoouFraIJPKF3YPHqo+jX/xHMm/s1hgzpjbjE9oDpMoIjC5G2ajMKz5nQtc14LFk0G53aNcLZI9uxfesZjBwehhHDaTymTEZuk2CQRIrhUAxX4dI1gdc8ELne7pi39ZQECAMRV18wCH5FGuvatD1e/s4vXhTFJe8QGkDgiR+5//oDB4XGiwACZTEsXiQAwuMjxiI8ohbWHtyFn+f/iAm3bDF8RxoEwSAQNUUAgQ95XVWAYPc44bHqkVVwEanLf0YLmmJ4cCysTuJRauj1s5OT8IGnw4U2NIPJyFah5GJGVDcpog8fOoyTJ7M47evxByejR/fu/skJRot0wTiRTwAE1iBkbMTxMxcwbNAwNI0WRkmCxpbGOH6vgqokxX/tTxLasUqc+7ikQSjhFkPdeAPuHUgAgRLSSVoWaGPqb3T7nfOqthgM8Dmt2L/rDLZt2Is/PTYNTeMTBAOjBXr43xQhdC/yz+TgqelP4+nnn0WfXvfAV27HvJlfY9u+vXjm5Rcwd+5c3EWhTcOH82JalZKKxnEJiG/ajOeRRV65oK9EFRTAklBPj0KzCCBsyGAGYSQBhMQGvPlpBxi56InDUyx1jgzymuGym7EnYyeuHzqNqd26oUPDRpx4yABBVVHqciLz1Gl8/s23GDpsKDp17Ywf5/+Aju2S0bJpU5IXM1NDhym1Qwx6A89YX8jOwStTpyHcbOa1K0b7xE8WwEb0xK9agrEp7xJmbd6Ell2p4tNaDJXr1w/UJEBgUOsNwaHMc1i3dhcGVAEIYjxSDTjA2VDI5cKXH38Ci9WMqVMeh9vjwrEjh/Hphx/hiWnTkLZ+E05fzGOffb3BiLwLF5F/rYhNeww60WIQI2qVTjeSwRWVPjEIIAbhEFZXAQjExohgqltNMbh8Idi58xQOLkvB9P790TumDhSH2MDp0KtQgCPnc7FsbRpq16qNMUNH4ps5c1C/Xgx6drtTKM59PhaceWjW26THoUMHsW/dRrz0pydQL7yWVGEHCG95CkqMx1boTNhfWpVBoCkGEhhqYU1a75zHq5l3I8LcBGoxLJdTDJOqaBAqGQSaW6Q2xy8LF2Dvju3olNwRd3XvyumN+fmXsXb9JjSQ7bSz58/hhZdfhsFMs+9AucPJvyeAQJbXfsWtv5svig9RjSs85XHuQja+nzcTbdslYOiQXqAWgxhzlOpxHl3ViT1VgiBFMeFEVj7WLkrB8GbN0a9VC4RRAiMbGVHGA3A2Px8/rV7FoPnll/+CJTSmDJVTNIWQTRNkk2RCxZX8PHw780u8MO1PaNs8iUEStf3EEaLnXj3tPAwQLFbkON3419oM2Agg/EkTKcqYZymwvD2AQHHhcmqImALy0KHXqKvM6WE2Whr4FFy5gmeeno7Jkx9Eu+QO2L1vD4/3db77HtaCiGEocQ2pzSCi5wksiGeDnw9e6youFebjp+U/IiLMgIkj+yGIAILXxZk4vwkQvtmHzvWAh+5UEGTzwWRvDINxOD5O3YO3vt+FacOeREytCPYa0UXdwL8+fRYvvjoYIUorbF53GRfOAXPnzsTYQUl455XJ+NcrbyApyYKBw8kh9oYwK6K74LFCQZBsMTSBzzoIOZ5u+HHb6QCAUFswsAFRRTe3ufzzAFLHVwkQRJEqhaYsjxIm65zJohpwvrgCixatRoguDI+OEE6K6/5bAIHGHF99YCyCXOSDULMYUPHRoSiuD/X5rl67iqPHj2L/vv3IzSHXKTePTzVvnoikxObcZ6sVHMw0nIuicsneVQr4/ncDBHkcSuGSQwMI875EVBOFAUKQ1chK7crbGwhXKq11bwYIFmTuysbW3wIIRNf5fLiYnYNnn30GTz87HT3u6o5De/bhy/c/Rv/Bg9CzTx/866MPcFfPu7mH6XA78fTTM9C6TTtMmTqNN/HKPMvbAwjkM8/3igkIWX1LSpbAmx8gpO9CyeHTmNKtK9o3aMhjjmzvTfbBOhUlLg9efP11DpRK7tIJCxYsQEyduji0NxMum00EOsHDQIVEgPYKGwweH9546ikEkQukppuRDIJ0LL5NgCCpTR4lJVooBAcPnMW6tdUZBAEQ/CJFmQHgc7jw1SefwmQ0MEAoKbmO9//1L1gtZjz37LP49LMvcTLnLD766gsWYqWtScWeA/sx5amnEVZbJrrJ5SHCcoQGQVDcIouBKtJDRwVA6NYtCV06J7FIkc2ifhUghGLX9pM4sCKVpxh614tipz4CCKwmN5pQrvgwb+UyuBxujBk+Gp9/+TnCQkJw4fw5XL1eLAS1RJ3qVdSqHYGY2HqwFVzFjIcfQZ3QUDm1onGH4o0wQKApBn3NAIEEsJoQ059ZIgECj9hJgEAtBhpzDAQIwm9eal48pM/xYfniBVg47weEB4fwCB69ZjpoSkpLMWzUSJTb7bh05TJelADh4pUrWL9pCzp26YLGTeJ53LQmgKCJFGsCCEP8AEFYHItMEAEQqMVALBup+RWYcOpEIdYuTsHQpk3Rv2ULhErXQJom8pKIOCQI3y1ahH1HjuDVV1/D4vmL4KiogMNmx8nTp4RmRGZH0JRPy5aJLFR87y9voCW1IR3kqyASThWfnhkEOv7dECJFbjGsXSs1CBMQHGJmMMZj6HK8uWaAQGOOa+SY41iEW6yikCDgLhkXAswU1kT3IfvUCezcsUMc6cRQSzBNY48/L/0ZyR07IqF5UzjcLpSU3kBwZDju7N0bMY3i+bqRqFNYgohZf9ZIyZ+nMQi3AxBoPN3tDmAQAgBCsM0Ho6M2dKa78dNpN555Jw1vPPQZWifUQsPGdmTl78Urf/0Mve9pgeee+jNOnSjGmZPFeOfNtzBtUk90bhaE9WnpaNPGggFDqJ1SzkwSt5E9FIZl4TFHt9ocHvNQ5PqSMX+7YBAmjh2IuNjIAOWIqLurc1hyh5XlQwCDoHG2DBBE3LtgmAWjQwzC+WsVWLw4ECCEY93B3f8FBmHZz9xieO2BsbDWABA0HwWn28thQcdPnsCp06dw+NhRBAUFISY6Gq1atEJCQjyioqIQQuNRqgKjoorIUjlLy4uDf/+/n0HQ/AM4q0DnQz6JFOfNRO0mPvSVAIGnMardctlP+RUG4fcBBB4l8vlwLjcH0598AjOefQb168di3pw5MELF8y+8yIfKW++8jVZ3tMHgIUN4g3zr7X+i34BBGD9hAnsFMH36BxgE6q/6jwSyTdWIMumDoJAGgRgEAgiSQWhbP5ZFity3JICgV3G1vAKvvPkm6jaoj8bxccjMzES/3n3QqF4s3DaHUHkLq3UYTWZ8P3sOalmD8LfpM1iXQVWIn0GQVL1Q6P9+BsFvlKSNuRFAyDyLjHW7MYg0CB00H4RKgMCdGWloRLbXsz/7Aka9HmPuu4+T63bv2onnn3sOHZKT8e4/30VW1km8+e47DEAW/PgjylxOTJ0xHcaQcCkU1VaGNiXhv6JiVptbDIewJn0xunVvgS6dEgVAoI2YkznpspJITuiIuPCn6pSslnecwiECCP374Z66UdzmYQaBDhGdDqXw4seUVZwY2L5NO2zasB5dOySjQ9s2bCylGoUEjp9UVcHBwwdRmHsWTz/8KCKCg0Swk2a05W8xEoNAY44m7C+7mUGgtqZ/ckREKsrtjaplKjRMOH60BCuXr0erpBZVRIq0ARNTxF9PAj2fB8sXL8SpY8dwz113+90WKxx2bNm2FY3j4mBz2nE5Px8vv/oq9CYTTmbn4qtvZ7NPSMtWd8hR5BqaDEzjCpFYdQaBAIJOR34GROtqB63waWAHUAmCFJhx5kSBHyD0a5mEMPagIeBHUww6wGrGohXLkbZhE7cKqb3WtEkc7r7rbrbpFqZl0pxIr+LM6ZNYsmAhPvzrm0hs2Ag6EmvSz+OzW8ZYcyAahTVRi8GD99YJgEBxz5UahFsDBA9NMRSUVgEIYRYrM2i0+DmsibN7JEDweJG2XIQ1tW7TmrU4zCFQm9Iu7kXDRo2Q0LyZYM3ouTYCg0aORLNW7ViUqIkU6d+ZQZBAmRkEmjgiBqEon1sMxCBUihTdlS0GNZ1FioquXIBVtxEuV8MqGoSH71IRZPPC6guGzRGNwjrJWLm9HPc2fhrLfnwPkfWKcclRju2Zl/DG3/6K40e2olePe2A11cYvC7/Fg6P74MCG5fhl1W4MHW7AnV0BA2jEU57RXvKIsUDR2eBR2sBrHItcpQXm7xAixd8HELTJFLFHay1mAajF7quxCOLvhNMvP6w6Ey5c/S8DBK9Fj6zCi0iVAIEYhJsBggIPoWFVRXFpGb76+musXrMa7Tsmo0v3bujYsSMaxdTncUfqMVH6ISNCecAJRbVcaJpm4X85QBC0I2u2RZa76kWBrQxf/EAAwcsAwcp9VjqCa/r4zzAI9GCez87GjOlPYeLECTiWdRTXrl7Fn6ZOY/qaEPo3s77G8YOHEBVRG+WlpfAYDJg6YwaatWjB1Tm9/v80QKAnnwCCpxpAuCM2BjppC0sHvsegZ4Dw0utvcKVaKyoKpaWlmPb4FHRtlyxyAOBD1plTKCopZtHrsp9+Rt8ed2PyaEocJIFUQItBuhD+EYCg6T8DGYS16/YwQKj0QRAPpTbzzhawhNadbnzz6efsQhhVOworV63Co489gp733AOdwYDlP/+MBT/MR1T9eqxCL756DUNGjcCAESPhUg0SpEnlsmz1aPod+olaL/nQ0cNYkyEAQueOzRkgMMtbA0AQrRMVLm8Idm09iaOr0rnF0KNOJIxs4sPOOyJQSadiXupKLEtZw0rnKznn8OjoMRg3aCj3hB3wIif/Es6dF1MAa9JT0ax+fUyZ9AAsRj0oWZTyEPyblr/FoHKL4UBZBb7bmIaguHAMGNQTISEmeIli97tBiY2NZzn4ECR9jBHHjhRj1fKNaN2ipR8gkFseV9PE3jDb42Y3xRVLFmLNsuWIrRstWhc0zeB0ouBqEfrc2xdBwcFISU/DkBHDERwahuOnTuPg0WPccoiOqc+COC1FVntiA0WKPJJXrcVQFSDQaLYw3+LpGK6chdsoRYhnnyjEusWpGNo0AQQQQpn5IlsUciwkNb8OP61cidk//IiEhAScP3cOg/r2w8QJE4TQUQdcunIF5y6cZ0+TXTt2oqToKpsl1Q0L5+eKgIoGEHiKRGoQKixW5EqAUO4rxZN/EiJFMV0l1zDrIaqOOVYCBDJKisbYkWPx6wDBg1VLFyIjPR1/f/PvCAkN45FXYoZp73/4kYfRp9+9eGzKFBYhX7x0CYawMIRGUiUtJkAEIyn8WYTfjjbhUznmqAGEyDCD3yhJ7/XA6HbDYyCRYgpchkyoKgEEBW63CR5nfVy+SCLF/ehYF3joLiDEDrbpvlHhQ0lwLDxqIuJ8ffDU2DcQHmVCoVobF11epO1bhw0ZC7AxbSUeGD8K9mvZyNq/H1dys3EqrwRjxqlITlRgUmkNyDFxn4HXsKqzw+vrDp/6CHL1sZi/ax9O3ij8gwCh8izhFrs2pspj/qIoENMMNQCE4WMQHlkL6/+TDEIVgCA1CBayWg5Q09MNcFH/S69nP/30tWuxcfMmrvxIFNG6dWskJjRD/dhYhIaG+Y1ImCJ0u7kK9AOE/yMMQnWA4JIA4TM/QOgsAYLYwG/++A8BBPhQePkyvp01C506JaO4pBjNWySieVIiK7NpM7+SdwknjmWxYYnX7UaThKaIT2zBQkWi7em+sSHJb2gQ0tdLDcJ9nZCY2IAV2uK4FFVlQL0rvB5rAAitY6KF7kWmuVHlZPN4MYc2xabNOI1yy5atSL6jLZpSiiUUlNkqsPiXpcg6c5I3mbiGTTBy8GA0rFub64tKDYL2CgTWvl0G4fcABO0ArGwxiE2L8ktSf1nOr89sMrNl8T339mExIl0bW1kZjh86jAtF+ewWFxEWjuatWyK4VgRIfspjjprRjqz+6Wdp4NKjUzi4ihiElLVL0D0AIDBY4SS8qgyCBhDc3hDs3HICx1ZnYHq//ugRFcnTSyzwpdaeIrwo1u7chlKnDckdO2HrunUsBu7RIZl3nHKfG6nbNmHHlh3wenyoE1MXA3v1QutmTdkGnFTzlHsgXrCowoVFtwAImWUVmLspDcFNKgGCx+eSumSt8hEiO6HYJoBgwNHDxVi9YhNat2xZ6aRI5Id03KCiA24XfC4nVi1ZjBNHj6Bbp878Mmi6itqWezP3IzEpCXf37IkfFszHxcuXoTMaoRpNuLNnL9zVsyfMbKQkNAg3U7yaz4NgEM5fyMZ330sNwtBe0KlO8qRkTQUr2BmcEDVOmix6T8QoEEAowrolKRiW0BT9WiYiTP4b76VUNBn0WLd1Cw4fy8Lo++7D9m3bEWQwsa6I1gwpM3bv3YM1qSms67IaTBg2cAhat2lFK4hBnwYQCKDT+6Hj3+XzwGaxIMftwfvr1iEQIFCmDvEjnAT4HwAIRq8Hy+Z/j69nzUSHDskwUly124OY2PqY9MAD+MfbbyMuIQHTnnoSR44dxaxvv8GICZPQukMHMT0nC0QWJ9YAEKhgYA1CUT6WBjII7IPg4Wwhr3EzbLoUwSCQk6KPHIINcDsb4PKFcCz6er+YYpAAIcgAGEMV5DnJObI+wi5HYtWSfAx98D1ccljx5qefYN6KBTBZdFi7ZBFWLPwOOt8JOMrKQanlrTv60O9eC0J1bk5uFR72BM6EqRNp/ODpA69vGnINEZi/axdOlhZigmwxCMZcrjqW1WntWv/uKvRFVSTq2u4gheEMEISi+b8CENyE5nWGKlMM1CPyWnU4rjEIBBAkg8C+CUJVwsyBy+GE3mjkipQOpbLyMuRduYwDhw9h9+69KCzI54jY7t26I7ljMurVq4eQ4GCovLlWMghstcnv1ctjMJpI8buMjTgaKFLU+i0acGKRUM21eo3n87/5lwwQmN4R5ikunY8ZhM9/nIXIJi70GdgZQVYT+6P/FoNA71kzB/F6SKRoCRAp/qmKSDEw9IpH7ehieTxw2Gje1wu70w5riJUPKJvDyUJQaulQEiF50RsNFCdNZQ75iJvgINth1n1UFSlqDyqlq7lIcKqqCAQIzZMacNa9fylLgFAJEog7vJlBEACBZFnStU1vhIsUzk4iQslGVge73c5hQTSqxhsCyNjGgXKnnalji8EIK42leYnaFetNyx/Q5igEXPGhyBqMDXmX8PXmTWjRlVTngT4IWsErxow0Bz22j/YECQ0CMwiD0DW5o7RaDugIagc6bcy0jt1e9p+gcUzVaoHBTJujC4WFBQgLC+VxXnIi5MPT5eGJADaD8VaawfBakUglMBKeWixEWdOYY0qGAAidOlKLQYAtAiLc5uONXopM+bAjdi8UO7dk4fiqDMzo1x93RkXCJBX3TJvzLxV2Eo+qKoxmCp1ywkybm1vkPJAVcDlVpy5y0hVBU8EmI4zcYhHObZrxl4YauWdP7ITehMzScszdlA5LXC0MHNQToSG0Vzj9wlJmnIQMz58r4fGZqgIEKVJkWQ/7b4jDmJz7CKTkZZ+BUVWQQCmlXjFeSNck99x5/txGjRvD5rCL8UPSDsmxRZ/XQ60JAAAgAElEQVTOwFU8mRvxjlbNxZL/ThqiaQBBEymyBkEhwyMSVgv1OGkQ+KrwuLgQg5IPQvbJQqxfXAkQwsmimrMyiEUgsTNg95AoWOF1zk+k2wuTNA8i3wAKAiMBLB3rFOhk1VvgNQjtEGWc0OrigSKvHHNkDYIXxCDwFMP69ajwlbJIkRkEnl4TjqzimZciY67ahVHSJWm1HBFaF2NGjUO4mTQIwveE3iN9EJNHIkWTx41vPv4AW7Zsxrhx42C1BuPgwYM4kJmJjz//HL8sX4ayChvGT5qI73+Yh+KSEsx45RUYgkIEa8BrmDwS5J5U3UnxlgBBWJ4bqIA37IFdvxZuwz4ougJyYIDXaYTH1YiNkhZ/LRiER+8CQh0ABUEqFqCY7pc+BHU8IbiW3xt5nsF49h9vo9huw/bde2A2hsDn9mFXynKsXDYVkye1RpDBBpcrC6FB5bCQ7sUpU15ZWCxsnFVfNODuA49vDHKNYZi/eydOlRViwpiBaBIbKUc75fku4bXYiwKgqnQYDpxiE2j8PwgQHF6vL33XQbz3PfkgjETLhk2EyQkfxgQQyN2sMs/d6XWBGYSiPKTQmGNYCF6dNAZB9gqB8+Xr19TWjHI4LM0oNiZK6HO7UF5ehpxzZ3Hw0EFkZ+fg4sULqF07CvHxcRjarz8a1qsn/MrJUInCtKUGgRaLy2BCkc+AuembcSTnHI85Nqsby9bN2s9jSkr6pd/Oue+niW/ni/yfS94PjL1FsIzBhyvlpfhy/ixENHahz6AusFqNoldXkyw14GeKHAopxPGaGCDs25GF7Zv24cnHpyO+SRPZiZOjfnR9iCKW3TnSIVCoy5pVq3Hs+FHcP348omOisWfvbnw580u89PIriItvykrt8nIbyu0uhEXWFop/6Xcg3G2Eex+blQhYy9U5VyEKkL4+HVt3ZmDk2C5o1iyW73B1gCDeLNHXBPTM8GothsOn8Xi3bmhTLxoGCtCRW5GwqyYnSdGn1ACVuLtavS4fhcC/EEeJ6Mtq5qSB61F+7ZWgYGy4dAnfbN7MAGHgkA6VRkmyWagdrOLho/9Sa8iKQxTWtG6vAAikQZDsFgvF+L5S5UW2tqSidMKs1yH3xGl8881sDBk/Fh3atUVh3kV8+M9/oEfvPhg6dhy7ONKYbzkJyiwWqGS1LAIA5ASDuO7+JcOsgKjM6f9Hjh1BagZZLbdEx46JMLBinGhskVdBmyuPE/P3pEOU4qxDsWtzFo6vTMeTvfuiR91Idt4TDIJYRUJPI55fUZsQTS5ei1bHcOa8JhiTfxsobpODkxxYo/ORQFGIUO0GA6c5zt6YDmN8BAYO6oGwECpGnEKZLg8B6S7CLQYPjxyaceRwMdas3ORvMbDVMrkEcoAn2SYb4XU4uHp0lpZi28aNsJeVIijIAofTjopyG+66+26UlpVjx44dDJaJMSuzOdg5r8+ggbCEhMElDx6u3uSGFgjQGCBwABX5IJzG9/O+QvsOTTF0yD0MEBS2t5W9fGbjxHSQwixbZYthA7UYEhLQr0UiwjmeudK1lDQ5DFwYNHq5NUGHLrex5HS08AnQNg/SfYhWJ69cea/o9wQ52d2S6HWfDxXMIBBA2IAypQxTp96P0BCrFCl6GGAJZlqM74oWDvk+WJCXX4ZFS9YgKiIG940YgzBKmeSpN/nE0OcTQKYdwVaBt156kYXE7733L5hMZqSkpmLZiuV4/733sGnzJmzesoWdRc9fvIiJkyejcfMk2NgYiVgSWUFLcQqHvmlaHzbg8vDPJSfFZb/MZw3CuJG9YbWINaf3mOBT8+DWH4TbtAEuw1F4dflQnAZ4HQ1x8awwSupUB3jsLgW1HD5YmKonYEIPg46efpSS82HtofguNQ8Ll9Nr3gGzKUS0912l2LX+HWRlzkWbliZER5phQhmsxlL43NTSEMDcS0mx3nAYXBMATwd4dXWQawzF/D07cbKsgBmExjGRwmU3cLFxjVCtrPSLF8U+qT2l/0MAQSwSmnf2WPQ4USgAQovwELw2aQysjgrZX6t8mZogivqVTKrzQhc0Lz9cnFjl4f7y+XPnceLESZw9m4sBvfog+Y42N18Q/oYCIBT6DPgufTMOM0AYhmZ160PH6YiCxhHLWQu6uI3TPiCY6Da+SqI2ARBoI/BAB4cECF/M/woRjd3oO6gLLBYDPzTVldHVf1bNAOEYtm/aD8piiG98M0Bge2DZCye6+Ma1Yvz9rbcQH9eYqbzQ0BDs3LYNH3zwHv7xzj/Zsa+ktAyLf/oZxeUVmPjQowgODYWL5pXZvUy0PFhxLY2y2MDDK5TKGkDYdguAwOeRBCyCAqKHzQqv04y9UqT4eLeuDBCIQSDraG1tsLCGph6YERGiu9/6EDBEcxerug61R4v+f9kahHWX8jB721a06BKPAUMqGYTKhoT0ZeFdmI5AYicsOHwgG+vXVgMIdE0010C6XqSjIQ942lrdTvw0bz727s3E06++goYxMbiUk41/vPEK+vTrj7GTHmJwsHXnTmzfsw9DxoxGg7g4dqrkNRywKWhVLO/5AYDh6NHDSFm7GF26tURyxyQY9ATSCCAIZ8FbAoQtWchakY4nevVBj+jaMGlrX9P8aAeQ/8KLceXf+8HXRAbLkGCRNmtiJoh5shsFQPh2YwYMCREYOLAHwkP0AiDwSJvwM9HAZRWAcES0GNq0aFk5xcBBYMSMUG+b2B43zIqCS2dz8flHH6HPPfewwt9WYcNnn36K+ydMRPH1EqxatRLP/fnPPGZ6/NQZrElPx7Mvv4RadaJZw8H7lSxy+H7IrBjt4CQWogpAaC8AglEhASGBYiH8FIl84qAnPxfxITQIG5akYmh8AvonEUBwyfFlWbfzyLFc/VL8Kkbm5L//3ttBoFXuvbRLEMYggJCtAQS1HFOmjEdYaJCIOmfdggb2AwECaSOsuJQvphjqRMRi9IgxCGeAINwz6SWx5kGODhVduoR/vPoK2rdthyeffJJTJxctWsTJrH//+1vIyTmD117/C4KDgzDlT9PQpl17nMw9D5/RhEYJTcWovZxG0p5qqYdk0EMtEfqc/KsFNwEEKhp1FIinFsOjOw23cSOchiPw6s5DpbRYZ33k5QRjATkp1gUev0tBpMMHs0u4N9K15vBynwq7EoVStRkqQgbjbx+txMzvVsFsCpbFHrFCF7Fr9WysXzELYydEISToLCwEb8goSbOpJwGwOwYG92NQvK3Z4j7HGCwBQj7uHzsQTQgg/FqIkASrlaecBhCqVUsc3ylbDBqiry5SJA1CRATW05jjghp8EDQGgZ0UB49Ei1syCJUAgRgEDSAkVQMI2kOkbSKEmnSEzitIoyBMOoQFqyxoGJVShaNyf7Cs9AZCTRYecxQbZMBZypudD26j+f8WQPiRAIJLAATKpf+9AEGrqf0Mwm8ABO5ziQrW4vRgzYqVWLFmFaY/Mx0tWrbgDWL75k34+MOP8Pa77yIqOgY/L1+BDVu2ov+wEeg1YCA7yzFwY/c7ARD8DALdM3ZHE1kNZFmevi4d1QGC/95rAEHzauCURwu8Lgv2ptGY4xn4AYKL5rXFvLPQ1YgNVbRMbg8gBJRTYg0FsAj0COVZrVh/6RJmb9uCFl0SBEBwiPHMwHQv6a3EFQQxCD6PFUcOVgMImmukrOb59dKm4nUztX0q6xi+/OQz9O7VF/eOGgG9qiA/NxdvvfEK+t07ACPvG48dO3fjqzlz0LxtW4x/8EHUqluHWyyVH1Uf/FsBhM7dWiA5OQlGA12v3wAIZJS0tSpAMEuTJ6lr0vRN/v8LBuH3nkjClp3N0OgXO+epgkFQFdiNRgkQ0mFIiMSggcQg6OGTAIH1KxIg0BFNDI2fQZAAgTUI1GIgNT8XB2KKgQSqzKCpQMGF8+xFMeDevuiYnAyn3Yk33/wbxo4di6vXrmFtRgZef/11GI0mHD6ahSUrluOJZ55BZL0YKAYD+yIEAgQmqPwdYeGtUQkQZqF9+6YYNvgeGFVKtxXGbtprI/aG2kfsCMuLzShbDKkYFpeAfknNUctDI5Ci8mdASAZB2kSR5kIYAA44EOv3fGijt3LvpZZFhcXMAOH9DRtQplb82wCBEkQFIBSvnw5WYhW2b96Mrz79CE8/+SQXg1fy87Fn9x4kJbXA448/jm3btmDmV18iNiYazzz3HKJj6+Pt9z5A0h1t0XfgYKhGsjyuZEr5Dsi1SmuLAY1ORf7VQixnBkGPsSP7IMgikn5otBpKGTy6XLgNu+HUn4JXPQfVexk+ZxQu5oRiAWkQ6gJTeyiI0gAC7z8UPkcbn9BkOZW6yC7viH/NPoJZS/bxvaXzLf/8eXz81mvQe8qwc2M6ho71YPz9BDQA1UmsDrGC1L4xw+ulePuxUJXm8OpvBgiNacyRwdktbq7MJ9BE5KKY0thVDVSLSQYxHi2/D31OIEBQw/DI8LHspEgixV9qclL8dwFCy/AQvDpxDCzEIFSv8uRIVVlFBVLS0nH6TLbYNOTGwVQw9Yq5t+aDgzZpnxcjBw9Bx7ZtuRIgtClmYEUfiiluk+X/GECYyQxCZYuhkiq/1bNdZSMmisxFLYabAYKY/BDfhZTwbtpg3B5cOHwcLzz7DFp1SsYzz/8Z4WGh3BPfvXkLPvnoQzz7wgvYf+gwtuzchfsnT0b3Xn3gIcW2nsxcqBKQQQRy9p5bDJrVMtOqwqgoECA0bU4tBoptlq0R2uRZlS30JLRlUB76rQCCsIXVDEIozVKmg/oT6X59J9SAZ03PVSBIuBxEDMJlzN26BS26JqD/kA689vgx8oeD0OuQVTxvFCb4vFYcPpiDDcwgDBQthgCAwHPGzB5QtK4XttIb+PzjD3Hs0FH85bXXEXdHawZvl8/m4p03XsHdd96NmHqNMG/JYrTp3BnDx41DeO3aHA4jrG20D+2hF3+uBAiikaYxCLcGCDQ6WJn7yUbf3hDs3nqiCoNwE0CQkxI1QZXfcyZxMSB1KMwgkLWtSgyCAlsVBiGSGQQCCKQhEYMWIu1VYxBqAghtWrbEJBn3zAI8Ns8hUEvCQLIh93E75/MPPoDVYES96GguQqj//fDDD6Pk+nV8P/c7xDVpAmtQMKAzoJD63y+9iKjY+rAzo0XVq9a6qmQQtPcvoJiCXGox/CAAwvBB98CkEEAgd1D6RcBKCgQZIAiTNJ9iRM6JInCLIS4e/RKbCwYhACCwg6DWeZZsHq0zKSnwF1xV9gvN9KPaTSImUDb7GPiQSPGMSwCEcgIIU8cjVDIINAgpUgMlOe5vMdyaQagJIBQVFmLWF5+DGgWPPfYoex7k5OagYf1G6NO7Nw4fOYwTx4+hVasWyDyQydbqcU2bY8OWbZj4yKPo0LmLyLtgFrPyeRAAQZQR3DIjk6iiQqxYPh8RoXqMG9kHVqtoi6o0VsgA4TLcykm41Dx4CCComfC5g3DhTCjmkw9CNDD1TqAuaRCIQdAE2rx56ElUAacSjovObvjHrOP4eO42fDfrKzRt2gwN42Pw0XuPoGf3UMTVv46w0HzUjXRDb/PAZ6O2UDh87rrwemmCIwYGtSd0+oZsKZ1jCMaCvbtwokwwCAQQiBUR+1FNIEG7LwzF5BijWCSa5wH7TUiAIFoyAiyoZLWsjTlWAQi78MuCH28Oa/pPAQRqMdChUf2DXla5zYadu/fg4qXLPOfOvR22/NfxuMv1kuu4lHcJh48cgtPhwKsvvIj+vXrzw0wf/38ECLw2tN4uDQW7g34TINDX6L0+lOYX4NtPPkfa2nR0798Hz77wHIKDLDD4VOzfuBl/e/11NG7aFKrJhJHjx6NDt27QmYPgJBETI3Lq/YnFSQCEbVHlQqU/E3vArpi3AgjC/VhUmxIgCAEiHVJmdoXcx0ZJGoNQF3oyxOLPlZWTtFQVlEKlYPXXDiZue2rPTOAnSnStPWrUYlh/+RLmbt3KAKEfAQS7k5813kI1Cs8vcBUAAR6LAAjr9t0MEGTVRLQqVa+kP1i2eBHmzZ2DELMFf3vnHcS3bcMszoXTp/CP11+Bz+GBTmdBt7690P++0TCFhckWnGzJVQMImgBYig+E6YwPOHbsCLcY/ABBz/FbbHMrWgw3AwSaYtAAwpOyxeAHCPLnMuAK2J/kZfk92IA/h+8FTxaSSE4ABAIHBBJuAgikQQgmgECOmjUDBC9vdJYaNQgKaRCotUc5FtzeESDNfuMGcrKyEFunLiIjavG6PXz4EA4dPMSsAbUpCgrysT/zIPr2GwCYDIiNj0dQZCSLNMmCXGNCeH3wFlepKRczAqgCEEYEAAQ6vLhFJQGCaDFoLqpGnmLYQEZJcXF+gMCGgfKQ5/l/7cJTGh8dlBIgcKEVUCD6j09No1LtTvG4oJ9BAGxWmcXAAKGcNQghoUEC1ID8EzRg//taDAwQpMEST0BAQUlxMfbu3oX4hMZomhDPez6FaXlcHuzfuw8nTmShe/euaFC/PovWaRR+d+YBdOjcFcPuG4Pg8AgWRPPl+BWAQECUNAjLly9ARKiKcSP6IihIiDpVnxFQ7PAo1+BBHty4Co96HooxHR63Dhezw7Dg6708xTD1LhXRDi+sVPULFFdZOFCImS4EV5zt8PKnO9Fz9AC4yu3ISDmCDz/9BXv3LEfm7g9x3zAnTHofaDmH0c8nqtUVBZ+zKbzuaAYIRmNrGIx14NTpkWskgLBTAoRBaBwbITIpAj6qChS19adtdpUPqSbK571BthhUHzFXxCyrUCms6aqNjZLIapkYhAhiEA78DwEErSdMhi5keMFjTkRhe1zIu5DH6Y579+6F2+VGo0aN0LFjMtq3bo3aoWFCQcvhK5yywAv3//MMQkBvWVPdK14TA4S9AQwCeeLzYRawGdAy0VU48PPs77Fvz26Ya4VAVysE0194FiaDAccyD2H1/AXYuWUb+g8ditETJ6J+QjzT2W4ftX90HDNN41J8MGjXX1qjagwCAwRpFl0jgyABAtPELNISzA9JlhgguKzYn77bDxBaR9dhkSJtSMKlVegVVG5JSIDwO6hUraqqSa0gaE/xxBGDQABhTgBAsNuEBz45rGniP/HZ4pRjBsFjwZFqAIH6/MIQTCim6Rf5XBw/dAizPvsE9erURt7FPPz5xZcQ36Y18i6cx/KFC5G6fCmaNW2OByY/hju6d4XDoINDE6OxIJQbUVU+/Ep6+T5+DSDQBs8CSmbeKGGTYR5/P7p3BBB2bT2BEyvSUR0giCPQP0L9uwFB9U/kNaQBBDrcSKTIAEGtBhAqRYoUssSiO2IVA1oM9F7FwKOFpxjWrNiEVrLF4JUiRY+XRte83MahteR12nHg/3H3HuBRXlf6+DvzTVfvQiAQIIooBowQ4IIxNjbVGGwDAbe4l2Rje1M2m2w2u8nGv3W8TjZxHNvruMQ2xcZUFzoIMM2A6Ug0ISQhgWjqo6n/55x778w3oxlpho13vf/Jw4ODRjPfd797z33ve97znh07cPFcrRDbwo+W1mYcO3YUNTV1SExIRHZWJgp69sTp0xXIyeuB9Jwc2DPSMermm2FJTOLvDAAEnQZB7h0MSug0LkSKOgZBphhYbCYBQlCkKKoYYCCAUM8AYTozCP2ZQRCUttBbKQZB+U0J2l5MAKnJ1u+cgUfAR7CwhUAmdKJDKK33oAZBMAgteFIBBGYQrxEgBFIMJIoUlRQ8/yjHJK9UbGui/TeBCnK4JNCkKl5YLGqywJyQyB08Az1vAwBNlO7y+DBIFg6sDBCWLUBGssYMggAIBG7oYEJ1Gy3wGa7A629mBsFvW8Js6dnTCVj4xm7WIDx1s4EZBHu7WH3CP4KEoqLTpMdoR72rED/6wwGMvtuIG4oHYMdGDV7nZMy8Zwre/ctTuGtaFTJTXayrsnsAk8cGf3s+fG1F8LoK4Pd2g8XeHWZrCvezqbAm4UMGCHWYN4cAQgZbYQcAn7SMF/9fp68LRIhwgCDk3gog8Fhz2SoBBGIQ2rD4o0+RYEjGozPnBgDCslgZBI1sbw30kYQkRZkJveiBe6hhks2Eo9SLQXZz5BRDW3MwZynrqhg1S4KZFhGVEtVfvoQTp06idEsp6s/VIT01DUMHD8Gw665jn/fEhAQRxnRljmoceGpTDtNkwQW/CW+vLsWxs9Ss6X9fpCioRMrbE3QmSswEp+ZDbWsjXvuAqhg8XObIVQwRl3TkUioR0W3w0qa64xi+LN2L7z3xnKhiYKtb1etAbGVaqxN7N22GxWTGV1/vxaXWRkyaPg1f7d6N8sNHkWg04eSJk/jpv/0aA4YP40BhAlnAUsChHLE0e5LNUYSSXimigxsHC51AKYbV2Lp9DWbeNwaF/cmMRpQXqtM8CQ8F+UD/IjQIxCDsW7uLnRQfGT0KQ7KzYKVTnwQIYoeW36pPPV7DVqU2Ov2vUhVDZwBB1QsIdbgwZSHXOwUQNq3bgyl3TMOYUSXC8IZTC9LpkPPEXpw5dRKVp07A73JjxbKlePDhh1BRdRY7tm9DRnIiDu3dg1lz5+Gehx7h5kgwUSMiwGOSQjZ5gAitrgsgAxkmIjAII4tgprouclJggCBEilymyWI5ESyoWdOOrWUoX7EG3ycGISdTVjEERyp87CKV+nX2SJS9uujgR8GW7KE1uE0GNGsaDjS78PbWDSxSnDzlZiQ6aOaIwBgcd7GmBECgg4INR8gHYeVmDBk0GA/NnwNqUEbZKQJVotufYHDcrS04c+wYd3O8VH8RlZUVqDh9mgP9lKnT4XF7sXb1aqSlpaJPYV9k5+bBTuZCjgT0Js8QR4LYnEIqOZSjpSwXJUbNYETV2VN49/03MHxEX9w1+RbYTbTRe4QaPQQg0KapNAhWnJYAYVpBb0wc0A/pxPZIoyheAdx6XW4LrAfSRJUCU8iSUo4GnkMOG5KRlMp3YjKabTauYnh50yY0g6oY5iMp2cHN2ERthli7wedO8yk0xZCR2g33zrgX6QmJfBjgUnf5HRyPOBB4UH+uEu3tTp63XJ7v9yM9NR32BAdqa2rg85AGSMQeOrB069kb1sRkuIjBpDJsqppyC48V4SlBHhtU1SGEsMR4CgZhITKSjZgz83Yk8HxiqyWxtXJ5KbUEoF37AnzWVXB6L6Gq0o0Fb27FmEwjnrqxGzI8V2H2tIqkKAFb2ctAsUkuJONsfRNS8yhyGnGxeRhe/6AJv/79n/D+m/+EIYVfYVChA5rfCaufukNmwdBeAKNrKPzufMCfCYPFwaXkbqMJpwMAgVIMU1HQI50PaVElCGoMdVUMvGYCKQZZD6ZSDHqAYAhaLSdSioF6MWSkM4OwPHaA4OY6WPbGlwCBH3YAIJhx9MJZfLF0Cbd7JoBgczaHoFe31wurhXy9qdObF8dOnMSOXbtw9Hg5O5kVDSrCmBHF6JPfi9WrNrMVfuraRQ/DKPUGHaKPkPG6TFZc8GkMEMqqzn2LAIJ4qFy7azTBadQDBC9un1JyTQDB77NzB8R9u8rx5eav8OyTz6Owd4EolyQgpTspWLxeaO0uGN1u/PHVV3GlpQlFQ4eg9lwN7phwO67U1uFPr72Gn7/0Igr6kbUp1YwDa9esR8/efVAwoB+8Jmm1LEvpBFEXnK+q/I2YBAUQ7r5vNAr7SYAgRVWiPIqCmjzxSIAAVwK+lr0YHhlVjCE5WSAzFaLmA9UKsiJF38o6FnwQyAro3hzOKBCDsLGuFm+zBqEfpxgEg6BuUlKrnCbpCBA2r9uLyXdMZYDApZgUuAXFFbDW9XmcXKu+Y8sWvPfuu5hx1zQcKTuKwUX9UdSvEP/x4v/DuDvvxN0PPMAVC6QROFF+EuebGjBoxHBYLHYZ1IKgQN2S+CpZ5iZTDJ9RFcPYIhQXDwoABAYvvEkEAYIoc6RunCkBgMBVDNmZ4BRDWNpTP3ZxAwQ1ngRQCCD4jPCaiKY1olkzYn+LC+9u3QBTYQYmTbkJSXby/pBFbfwwNME+0QSn5nF+CRCkSDEAENoJINDcoTp52a3C7UJdVSXee+MNHNyzh/0m8vJyUdCrF0rGlGDI0GFwuTz4et9eHDhwABVnzqDibBVaXW4MGz0aj3/ve0jJzISPOjrqaHzBRAmKVzg00B8jqqpPsQZh2PC+mDZpHBxmKlcUGgQWKcoqBt7U5emQKmMUgzCtFwGEQqTTp0lQLoCSTPvxQYGq+QQrxM81ABCiIATZETCweTDQEZ9HFRotNitOkVHSxk2yzJEAgj1YxSChiciqiGZrPuqrY0iQPgifgQDCPXfdg4zEJNE0STZEU+uQiANn41X8/qXfIMFhw8ABAzl1vGfPXgwZPAQjR47Eq3/8A4qLRyItNYWdUUu/3IHHnn4Ww0ePAVkI0EZK1Sl60zBWH5AYVe5SikFYsXwh0pIMzCAkOrjIUgr16J20PqmMlh5HM3zmPWjzXkR1dR0WvrUEo7M1PDW2N1K99dDcjQIkkXaGw4IAhDwWgQOPEMZeNRRi69FUVJzJxbN//zCeue9u/PpfesFqboZVS4YV3aG194LRPQDwdAOQCj95n9BeZtRw2pKEBXt3oaxFMAi9whiEjnFPn2JgyCTeogMIrByRAEHAJMkgGCyovCxTDEbZrIkAwv6dWP5hjBoEzR07QOB2z/fPhrWtOQRt0sMk1z6i/JqcrVi6fAWWLF/OiPGuWXdjzNixyEvLgtVogtft5q5wquaebVUjlnmIReEyWVAvGYT/3wAEZgQjkeOUgo8dIAjVrhem1na8+sc/osHZiieeehIpyUmwmS34qnQzXvvTq/jHX/8rCouKeEE7m9vwg2dfQHHJDZj/9OPwmKheXdb1C4I9ZI6qkyUxnQQQtm1fg7tnj0bfwhwGA6I+WwpjGNOpCS0YBAII+2WZ4yMlxRhMDAL7xSu+iSa7oMSlNDIWbKDWSAjy5mvVoxuZYtgUAhCKGSCIgCzl0ZLlVQCBStLgteHQ/jOICBACqRHpQAcvLCYNm8YfkTEAACAASURBVDdu5B4LLzz/HHK75yHRYUFt1Vm8+Mt/wYQ7JmLW/fOFKY7XgEUfLMShUyfx5HPPITUrtwNAUAGSGWi5kSsNQjSAoIS9BFqVDwL5m/gkQChbsZbLHG8hBkEBnaijHWSrYnkgvLHShKTmPAQQ6IChGeHRNDSbiEFoxzvbCCCkC4DgII9MWaorAQI3O5J0KW1OzCAcvoxPlxODMIQZBHe7U4olhLkUU/QUUwwGnD56GK/94Q/Iy8nF0MGD+Jj15bZtmDtvPi5duoIVK1Zg/Pjx3Fm2/OQpnDx7Ft//4Y9QOKgILm4bL/L2+lNxR4CgSYDwOq4bIQGCycNVDHT9RIfzPJKMKhslMdCw4nT5BWxcvBrTehXgdmIQuPpECAV41QWEhZJSV94ougcQrbKEKo70K1dZjfMIG41osdpw0uPBf2zeHAIQhAZB9JEQXgCK1r42gNDWcAX/8atf4vY7bsedE++A1+vBW//1Fs+Hm8fdgtdffx0vvPAc+vTpjcqaavzriy9i/ncfxdCRo7jltWBwDKx9UqdkruxggCCQEwOEixewfMVCpCcJDUIipxgkVU/sEkcTp/ybtpsWuHyNqK49hgXvvYzROS48dVN3pLoa4G+jZmQi+vCsCjt5BGKKwYhWcyJOX0zBjnUFKMgdibfeegV/emMYUlJbYfJ3h9GTBc2dDYO7F+Ajrxnq5iiYQkq3nbYmY+HenTgWAhA6012JqMZCcr7GjgBBiRS5Ao21OwIgGAwWnL3chkXUrEkHEDbu34VlVMUwdQq+e99MqazxwxBJpBgrQFi9dAm4myMBBGezULzK8hyROxOqYppuja2tOFl5BgcOH8bRY0fR0NiE4YOH4JabbkLfgj6wmswMEkS9qMhbqVdwkosA1W4mBsHERkl6gEBojyaB3gehw5Goq8h2jT4IIsVwjQxCJ+CAgWEYQHjmCWIQeonTeZhimfPgtGTanHjtT39Cq8uJZ77/PSQ4HIzwy/buw0v//iK+9/wPMHJUMVc9lB09hhdf/B1m3TcP0+fOhkcTbYTJ7yDS2UQETFECSUZJVObIAKEvAQRJSyr6SwIEvg+mR/UA4TgeHTUKg3NEiiEEIDDboKBJYJvv9OmpIB7+pgDsktdUm+jAprrzeIfLHPvjzunFXB/PlVTiiCg35yCDAClSPHSgIiJAECdKVWZKIjMPbFYLSjduxPvvvYcXXngBRUMG8YZRdaYC//bzn+P64pF48NHvckqqvaUdL/76RVgz0vDkc8/DnpoudTfBXLICCOL+hF5CDxBGjynCKPJBMIsEEKvWZWmw3ihJAYSdW6iKYS2evY0YhAzYQrxZIoFV/XPoeqEEDIb4WCmEigQOCCS0mMzY3+KMCBD4rMZljjQHJNUqDcj8frsACKRBKBqCB+fPhcclAAJVC7CBDulBvD5YDUZcrjuHV3/3Cu6dOQslxcVobmnCP/zkJ7jvvtm4ePkySktL8Zvf/IbNe/YfPYK3/vo+/u7vf4isHnlwk6ZB6mnEoSW0ikHMNyEoFQzC64JBmDwONplioBy7TP6JzZ5q68mAjkkRclK8gI2LVmN6QQFu798PaapPg2QpRO8NWQckU160MQaDo17dHzrzmWXS56hkmblI/QgGQQGEFgNpEOYjOUkwCCAmh4GCPKzxBilSDMQg1Na3YNHiz5CRlotZd93bKYPQdvUKfvOzn8CsaRg8ZDDHjX1796KkpAQ33TQOv/zFLzBi5AhkZmbgcmMDNmzdghf+4WcYMXYsnFwxFWQ+1PJk4MZuqWJOEkA4rwMIs2dORFICJQCk5wQDBNI1CYDAZYueBM71V9eWYeF7v8Lo3HY8dVMekr0V8LbUcKtvoYsS7Ik+FtJVkWbLoHnhMgOtJgcunstCdUUTbBYvhg0cBasxB0akw+hLgtGbAPhSAV8Ca08MJrMsm9RQYfsGAIJMy/1NAcJ3lA8CMwhiYvDwyMkanmIggDAkNQk/u38OpxgYIHCdvKihJ+xPTn2koKQBoVKUdq8bzS0tOFpWhtJNpThxrAx5ud0wdnQJikdcj4z0DNit0r0xZEHKoG3wo51SDH4BEI5VncPd02agMDsPGnfKIvW0oOA4jGodux50WsvdddyLuEkJtbIECOQZrmlwGv06DYJMMSSYOFCGTDbB4UU/tzFAcGDfrjJ2Unzm8R+gb0GBmLhh18v2qORR0N6OV1/7E1raWvH9536AxMREbpxz5VwtfvfSSzhVcQomM+lLyJK5Bd169ccPfvhT5Pftw3a/wuQmCqOhAwhrGSCsCzAITOnpT1yyblwA8MgAgVIMBBD0JZHEICh4IsYqwrXoqFj1DqFdinLdsmxPiRTf375dphhGoa21NQaAYMOhA5EZBAUQRJtctvSDWTNix5fb8Nf33sPzLzyPwgED4CfbXJcTi979K9atWcM6H3IZpZ3NZrbhngcfwPjJk+GhAKLmhfI7CdyXAMLk1Ef3qqoYSsYGfRBCAQLR1rLMkWrxKcXgS8bureU4KhkEclK0sY+GEsiJ6Rh6cNKlgJjPjD5nxblOaB54PFi8aYDXRABBQws5KUYACNIhRbQK56AuzXo4HlEsIoAgjJKGFJFREjlROsFNaujcw+UzlDsGu1leqKnCf/72ZQwtKkK/wkKuklq8eDEeefRR1F+sxyefLMX9DzwAo0nDqcpKfHXgAJ7/8U+Qm98D7SQKoUoQ3qCCAEG15lMHINJphQCESeNgM7tEioEBAnPaFIwYWBNA4BhADAJrEL4AaRAYIFCqjSeT2PhUo6LIUD2G046qypEloKKZnAAqLVaRYnildDOaWaQoAAIfdvQAQTfv/OykSAChGYsXf46M1FzMIg1CpBQDeS/4gfbGBqxY8Ff0LuiFPr37wON2Y/++/fyMc3O7seWy2WJGc3Mjhg4fjmOnT2HC5Kno1X8AnMwgEB1PfUeUx4LQSymAoHrgnL9Yj5XLFyI1ScOcWXqAQPNaMAhGSL8TnxnwphHPh5pzZ7Dw7VekSDEfSdiC9pZDDDiVWRQxCMr/Qq0LL4E9E1mO055EjysJRqTA7EuB0TkKmmcAt3Y2+s1SKEmNvzQYjGYuqaWEutug4Yw9CQv37vrbMggSICiDO4rlBJfiZhBcZLW8Yz9efu8jzJ0+E4PyC7jkTAAE2YRK0l00cVmkaCUNQhWCAGEu7G0tkkEQJ09+sQ0tYTgfLjU2od3r4QdNxTD0d2ubCzXV1Th8kGphj7LSfkBhP0yfNAk9e3QXQSWQ+5anF4MBLs2C8xBWywQQZkybgX7ZeTAqgKBrp8xqaFb96EF3lJyd3GU6+WnUFSncxzgkMp1I7Z5JpFjX2oQ/ffA6MgoIIIyGnQGCKhvqaoHLIC0ZhL07y7G9dC+efvTv0FdqEGQ7JTncQcEcAYQ169eBPCimTJ8Kh93OAMGqmVBdeZbHnSpJCNT44EF+7/7IyM1nQEUSJXo+ohdBR9NHcXISFSbrNqyWAGEM+hTmcA6ZgaISKklw2SlAyM6Cjfp+qHwzP4doUs6QJylir+6BBdwGO2xu4vcoQNZxmWMt3tuxDYPGEoMQHSAEqxjIKMmOw5RiWN9Rg0CXwI1YaG6T06TLhQSbDceOHEFp6WZMmjwZPQsE60NAqPXyVZypOIPG5iaxCXuBvNzuSMvPgyU5iQ2F9M6JoaAnCBDoGR09egifr10MBRCIQSA/CpGvlk6KEiDI81YAIBxRTopktUzrXK1duYT/ewBBxAAGfrTXEtVJVTIa0bJm7GvtmGKgk5l6qGLTD4oUKcQBdhw91IhPV27C4KIi3E8Awe1k+pRjDaUziEEg8a3fj8ZLF/H5ypXITE5DVmYm7+1Ub0+dHK80NmDz5lKMHTsGBpMJtRcvoPZCPYt6c7rlwe2hHhCClQjOZ8UwqZy0ON1WVZ3WaRBulgBBqPTDAQKZaImIZMXpYwQQVguA0K8Q6XQqZp2C0BZxJRfPhY5RSfxT10CNv0qKfoWng+j02Wq1ci+Gl7eUSoAwD0mJjgBAENxvMMXAmXgGCA4GCB8t/hzpqd0YIKQlKQ2CTA7LPJjR48P5yjO4WHVaAHB5yY0NjdizZw8aG5pwy7hx8Hjc2LZtK3oU9MKgESNgT89Az8J+sCSJhlkkpqZIFYlBCACE+gtYtWIRA4TZs+5AUgJ1wFAMghhxLkrlFA4FKNLIOVBTcwkL33wfYzIz8NQNA5Fg+RDOtg3SOYCAnCy399HniYXBXTEJIJhpPiTBhzQYkAWDLwtGbyaM7kIYvd1ggFlWmyl6jt2KQL9IwMdFAMGWhIX7KMVwHt9hDQKVOXYGvsNTDHJuqF5EgfkqesnweZlXhwAIVZRiWCRTDGSUlJmOqCkGAghrd+zDb//6IebOmIiigmyYPS2cg6KTPy8M3qgN0Ax+LlGE1YJjdfX4fMkqDEnJxs/mPQR7a3ugbj8QzKhu1OtDo7MVH69Yjt37vxYBg0CCh1CqJr0QPGhsaMDF8+fh93rxjz/8ESbdOoE9tgMd8ngnELtBOwMEE95eW4qys7UMEIhBMBJK5Io6ovuDDEI4YxCy1ILKNLGOO9mzO39kIhCLDYsQugFOEzEITaKKoZePRYoJJJyRm2bIV3UyIXx+O9wuB/buLMPO0q/x9KPfZ6tlOmOH6wMCMYOavLhdcLlcsDrsYuhY5KTxxkGlYNxvQ6mHjWY4uTWvLJGRym1xmAm9c1HWJ2jP9QwQKMVwA2sQYNA1axKRKdipk7s5OgBXIosUGw+W49HikSxStHOr4WBaKTaAoPaS4FMTz12xTeG8gzgDnCeR4vk6vL19K4rG9MMkAghtreKEoCKQPEgHKiqolpqdFM9gy8avMWniFIwuHsXNf2hcFUAQhiSC+hdjTgZg7XxC4nkohZhksMRGYVJpTq1v6ZTS7vMIcNApQFCAV6Tijh4jgPARxowdjJHFRdAo/00AQQJjYUbGRWeB6gevNwm7t5XjyPI1eGbCbSxStOoEr2oe6felULvrztM+/FO5Xrn1NW3csg26RzOhmQBCGwGE9bAUZuJO1iCIOclPT5Z6KkZBeKeQYNSOY4eb8OmKTRg8aCDunz9PpBjkBsgAQa5jhpjUvdHVDovZzM3J6Bm0tLRwvwYWvvl8sNnp1OyHy+Phfhj0/xnkC7wtGvEp3YdatOoAJZdGVfVp/PWDNzF8eD9MnXwTbCaKh8GYILQEovkTAwR2DCUG4QI2LSIGoQ9u69efqxi4qFuCZcEgRAAHgeARI+UpHyTn8iVAaCMGgQBC6SY0a8IoiQCCOuyItSublsnoyGkcgwN19S34aPFnSE/phpkz7kVqUmLA/TEwVgYDTB4f6irP4NzpcjQ3NeHChQvcsvrUyVPIzspBZkYG9u3bh+uGDUWvnj1ZUW9LSoIxMRn9hl7HpY7EdhB7QG6JweUpwK9a4XSgpRQDAYSURCPm3HMnkuy0JRJjQL+ljlKySobvh5qZ2VFd3YCFbyzAmMwcPD32eiQayECpQt6x7EETjCpy5EWPEoJQtOkaDIkwIJHTwUZ/AuBNgQEOORNlqodN2ISOjhrj0Ux1G0w4bU9kgFDWfAFz505Br7wMBkPRXzK+Ba5QvlOuAbWRCSGzmDtsF6ADCPTsWINw91ykZZIPwi4sW6jXIEgtEAOEnXvx2/c+wNyZ41BUkAazt5HrYL1EkUmqiQIbbS5k0QmLHcfOXcbnSz7DkORu+Pm8x2FrkRuDDHi81RAQ8PvhpJa0ZcdQfaFODA5dLN+j2OLEDXgYiNg0E0YNG4bcDNG2N3xp0K9xisFgwl/WbkZ5VR3umnIX+kqAIMyFgoMrats7GetOIUFwAxJBq5NHJp0eCc1ylZJmQJumAMKbSC/wYeLk0aKUqwMYUF0wI38+2XO6qYqBAcJ+PPXI99Gvd2/RI0E/KUSWVAbYoOqXH3UAlPA0EdcgFe40aalUi9T0EvgH7pVZJN31igZSqgUPsH4jpRjWYObsG9G3Xy4pRAI3IT5LlgryQ6bvdcDnThIA4UAZHh01EtdlZ8NGplh6cxDJIARZ7OjwjOlo+ZKNgSMOpMjlGnEhIRGb6uvwX1+WYmBJIabeNQatxIBJF0UWnPPzDCJzssWFx4EjB6tQun4f7pw4GSXUzbEDQBBfzSCKSzyFIxu3zfX54HK7YKY2vvDDRW1gjUYwOFDHK91mpECGYP3V/QeDHY+u342jZQfxxRoCCENxPQMECorkyCfey3bZYSyaj4yStpRxs6anx9/GIkWLdIKMNstDWQyloou+JpSXBjUXYpDATC8xCCa0mK3Y42xjDYKtTxbunHojAwRRWi20H0FhmFBkC7DmQNnhJqxasQmDigbigfnfYbaG9TISVNF/CxdOVn+KzT1wfBW6gQ4vLhfWd+IIggL+mAi3qdJZ9LNqCRCGjeiHaZNvhNWoejEEf5NbRxvNMDFbRqdQOyqO1WETpxgUQJCt4EmnEADXUQBCp3Et7IIljqBTK+sqiEGwWXHa5cF/lG5Ci9aCJ56ah8REuwRpwruEh1wfrwggGG04f74FH3/0BVKTczFzxn1ISUmQMUWWHfqpW7WGK3X1WLdyJU4c/hrtzjZeC1abjUtUbxk3HolJidi5aye+2r2LgZtGTq5+ICEnD3fOuBu9+/eXBZd++KgRlM5SOHAIlOZ7tfW1WLlsMVKSBEBIZKtlEovq14wQvYqhE74a1VVXsfCNDzEmIxdPjy1BotcNk5fGXzEe4t0+qq6TvAL/NvUWofdxMzsqsQ19IBGfGlcH0nwS6SZKMZx0JGLBvp043lTPDELP7umiilAdciMIU6OvusBVB2O+8rOhOzJYUHPZiY8WCYDw+KzvIC09Dev2b8eyBR/qnBTlYVcwCAfw23cXY86MaRiUn88pBh4Kowt+rZn6L/KgarDC7bUClhQcrT2HL5Z+xBqEn98/H7a2VuntEVwQCr3Q6YU2IMrVEH1NXQa5Jppa4spuePr9l/I+VNmgyn3CF2e7SaQY3l5PDEIdpk+Zjr7ZopujaKsaNH3WbXm6jSue4nqpXOtiMbKwkvOfAqv6Nb8ECOSDQADBLwECUzIdeftOMIwACA7s21keBAgFvZkF0LmliI1JDqQABeJfJG6VOxdVB6kFogtegfeLRaF+Ei78o2dK9tfEg1Kg3bBJAIR75tyMvv1y4PWTCEi8rgUgiGtWg035Wl6anVM7urELnikiDKj0wr9IPgh15/Dml5sxcHR/TJs+Bi4X1UfTiVIYt9CfgBaMgYICCNUoXb+3S4AQGGzduIoHJCOc3HSEIFf3HGR7Zrk8O9wEK5Z582O7Pfj9LgkQPu4AEAS4Cp+46t6Ssav0KI6tXIcnbxmP8bnZ3KxJaXciTUf9ia2T6Rr4ERkMEXjTJEDgHxg1do9rtgQBgr1PFiZNuRGJxCBwaaAUh/LuJLUWEvwaDQ6UH2nGiqXrUUQphnnz4PN4xJyU7B0BMVF9IucOpTa4IkGmxpjJkU9IYcAIDJ5YPtErN0SgF6lYBgjvv4lh1yuA4FQF/8GhYtbIxOW8whbaioqyc9i06HNMLyjEbf37I020teOGTmIjU4eA4McIwBPLEwh9jyiOECkT8qMQZY4e/H5TGECgAwDPrQinWHLlgwW1dU1YumQdUlNyMevu2dzkiSs2SFQohbF07WTqubu0FH986d9YpDh2zFhk55CY2ci9GHr07I61a9eKFugX6lF+vBzHy4/j7gcfwT0PPAgriaupmy8xH2FhW52QKYXs8Xlw4eJ5rFq+GMnEINyrBwiR05V0APX6baiqbsCiNz7EWAYIo2HzO6H5XAxGyAehwyGVA5sAHTzXWGsnzStieCwC6grNjNuo4WiSAx/u3YmTDfWYP5cAQgYDYjGPVVffzhgF/ZfGDhASjcl48t75SE1Lxdp927B84QLMmzZVVjHoAMKaHQfx23eXYO70GShiDYL4od9ISk2i70hwQ7djgpv61FsTcLTuLNYsW4zBqTb8bP53YHe2BLUHaoOQ+Q+ufzaK7n/cC5tobhYuCXMhFcfkGUEMn445029SNGCUYqiDCe9s2MIMwrTJ09E7uxs0P8kwKDAEN5Ro64jjgX4nVNcsoowMNjLA6k6o0Z5/KEAgVa0fTg0413IVf17wX0gvgAQIFHNifdgyiBFAaLdj745y7NpyAE8+9D0U9esnc2Ohk18FD3FaFlFQ0djq2iOK+JjV7HhdkQACTVzRQIbKHD/Djl0bMGvOTejTN4fBpOpoKa9edrITY0lVDD53svBBOFCGR0pGYlhWNuzUQVJaOKtNLciO6K+rc0aoQz8Q3QOjExwtyPpEavdcgze3bUTR6P6YOnU0M1ger5t1GbTWqQGLn3vmysJucvb3UIqhkjUIk26fyqp4sjOmdAHNGKFBUHcdrOgREUbMqZA9WzYWEvuQYpGk9ifKDsCOiAGA4OXuh8fKDuCzLz7GDTcNC2EQ+Fu5L4a4JnEZAiD4yShp8xGUrVqPJ8bdglu75QQAQnS/gzjnLccqslgWPD1dBgmViUFotNiwTzIIjt4CICQl0JyleUC/JkRlutGUDIIVZYcb2ChpUNEgzJs7Fz6PSBWIcVRrRijP+Vv1rEygM4hkCALVNqFgWT0TvoJoolcFLuDD2apT+ODDtzD8+v6YfMdY2E1k3R0US6uAQmJRPkj4TbzRni2rxqaFn2Jq7/6YOGAAUiVAIDMl4QIYOYJdC0gQYY02eOFm2eiw4rTXiz+u34RWrRlPPPUdJCaRBoGjWZQ4RaywAAjLl25EgiMDc2aTdiGB9RYcQ+SJldqYU2l1y+VL+I9f/gKjRo7EzeNuhtPpxKJFi5GRkYHx42/B7373CubPvx99+/bFuXPn8Mabb+LBZ5/HkFElcLFhkAB3AdtvdaKWjpv0nVSNcPFyPVYuW4SMVAvunTURCdTEkRmEyACBxtfrt3KKYRGlGNJz8fQNY5DocULzyt4sapsIYkoJVQV4VSxhgD1gVB5+pO24a5CRHgF90iCUOWxYvHsHKhov4t45pFXK5qmvWDHF2sbyubqVHjiLqCnMYMNoRs2ldixe9BkSDEl4+r77OwcIoszxIF5+52PMnn63FCmKPB5FSi8RUl7V0U8YVnqtGgOEtcsXY3CKHT+bTyJF0e5Z/1ICCdq2uebT4OUH7vf6YTOZuCSOBlg/2TmmMBUtF4Z8MCI1IT6dfBDqDGa8s5EAwnlMnTwNvbMUQKDfDRLNTKeHrTFeoNFeTBgogCDR2H8DIFQ3X8EbC98KAIQER/wAgcQ0HrcdR/edxbaNe3H35NkouX4Eix01Tea29aFUnpTEMlfld9FvWUVW0S469BUJIKhg53S7sfKzT1BWvhczZ9+E7vmplADiyS0WJRed6QACPVs7fK4U7GOjpDI8MmokhmeRBkHYaIs5FIi80geh82sX38XLQLRJjfJ4KZfpNGmoT0rG+qpKvPtlKZc5TrxjJM9FAgj0x2j0wUSnFq6kULuLFZo/ASePX8AXK7ejpHgs7rxtIuf5WR0sew8E47loi81OenItiSsMggS2oSW7WdW5T/cM6cQb6RUKEOgJu7B9xyZs/XINJt5xIwYP6Q2D0UUG8HJI1AKS+UgJEEA+CJuO4NiqjgxCNICgbKi7mEmBH4vNVegw6DMpwHupkslsRrPdga+amvHelvVIKczGHZNuhM1GlrxKV0NAn2hbxQnR35QuseJsRRs+X1WKnOw8PDD/fpjIwl2e5JSwVrBkUlImWQARZ4hN0KUPdAyCYtw6LoLIBJYSCdKGeujIPqz6bAluuGE4JowfAYuhVRw0wtJz3DiH2FPqFEGn16NnULpoFab2HYiJAwZ+owCBySc6rMmOmlcSHCh3ufD6+o1wWdrw2JNzOcUQmLNR8uA+gxWXr7ixZPFatLcZcP/8h5CZRSI9PxtWcbttEhV6hA6m+fJlvPTLX2DihAm4edw4rhhauHAh7DYbxt8yDn/84x/w7DPPoqCgAFXVVXjlld9j7hPPYPDIkmBPGFnKqJ6NelZ0cifjJVr3FWdO4dOVH2FIUQGmTCIdCG3y0QECxSePz4qamqtY9PpCjMnohmfGliCFPDRIUC+JAv3f+rkRAh4Dy7VrgMDaBaruM1Klm4aTJgs+2bkD1S2XMev+acjLz+CvEXNZzyB0DTz016d8HHgZqt44RjPOXXJi8aLP4SCAMPsBpKalYO2erVixaGFHBkEAhAP47TsfYw4BhJ4FMLlULbsQUdFIUQikfdJDkMFqxNG6KqxbvhiDUmz4x3kdGQR1Y2IzIQaB8i0+7D1wAKWbSzHzrrvQu6BnYNcXwED84VSBXpwbht4oxVBnMOGdjdtwvKoOUydNRUFWN2EEQaUpge6B4rqjsQhRInDgwCeAAvOkKhkVNTZGYxCqmi7jzUV/6QAQop/SInyF3wqvJwHnz7Zg/afb0CO7D+6eNg3pKSkwGmX+Wre5BKjUgB4ksu1UyDdJBiF4Bg7+NOT8LsETzYvjp05h9dpVMFmcuGvWDUhMofFSAEH9fgwAITsLdo8eIARvRmTwY3spyjcS/uNYrZnQajLijMWGTw4exLaz5bhh4igMGd6TWQOv3y0BK7ngkW+5WTII9P3UptuBSxfasfKTL2HRHJgxfTr7+IsSKCmM1gUK2qSYbuU10JFB4AMmCwM7alAin9XpM0TjH+5eCA9qa8/i088/gdN1BdOmT0D3/DTxDLoCCEjlFAOJFJ8OiBRVo6xogUi/KLsOVryWpdMkNwCjwGgyskCxzqBhTWUl1h39GoPHDEHJDUOhmVwwmZXsVgEEAXEV2PT7LWhuNGPNZ1+itqYBM6bfxdUMFKaYGZFjyacuhRUjAIQQsKYYHJkyCAWYIv5FKo1W8p+WlmZ89vkyVJ4t52dQNKAbLMa2DpOWk3LkBUF2xQwQrKgmgLBwBaYVDsLtA4s6phg6ySXEk2bgtUHMmE80T3dbTThv9BNt7AAAIABJREFUcWB77QUs2LEVvQblYdqMW2CzW2TKK/pGRwDB7bZi7eqd+GrnIUyaPB1jx46CifQDbmpAJuyLeNoDaLx0CX946d9hs1rRt08fuF0uHDp4CCNHjMCYMSX4w+9+j6FDhyDR4UBrayt27NyJh5/7MQaPLIaH+sL4hDLFYAp+rl6TQ0vralMDtm3fggNf78S0SbegpHgATJwaJ4BArFukKEIAwSwZhIUYm9ENT48ZjWRvO2sQ9PegO58Gn6v+H0M+vvO1QbPZbTKhzaSh0WzCoWYXPtq2FUg14YGH70FColmeIkRPkmCaq+s1FxdAQCKenvMgA4Q1BBAWL8T8qWEphnaf17+GNQhLGCCoFAPfu2xzSgGQN22qYqCTltWIY+fPYh2lGFJs+KkCCEr4xmUpfjS1t8Hlpbp4iVrhRVVNDV555RWMGjUK9826h9XF1N2L64J9PiRYbUgwWfh0LPLPImjxgpe0NjEItQwQtuJ41XlMuXMq+uRQFQPZbwqZnnp2MQMEKWYMIFO1LQVAgsg3RnqJaxPVHkKDEEwxhAKEEiTYhYgnnpffZ0a70wzNm4idm/fjxJFqlIwsxk033oi09KwAOhQlbVKQxV8grjicIY18H7qce9jFBU9WQuVPTmiV1ZXYsm0LKmvKmNoeUdwbMFJ6QZ5cAwSQYHDEo6SThRUGZhB24+qB43h49EgMI3qbqinCTtIqxRArQKBRpWZAkUZXuZY1acDuC3VYvm8PPGl2TLz7ViSnSdqdPN1V7wI6yXJpoHoR42WBz23Bzi0n8PWeI+jXdwBuHX87cnNywI1wgkbRgs2QAE340wfvQs0inqMR0jo8VBGnGtcSidOZz4MrV+rx5Y5NOHToK4woLsTN40fCTLGFngFbFgs2TiWs1SXQejQiFTu3HMOBVWvwxISJuDmHSk1pA+lYgisuRQkFdVtrFw9GcAGiyoO7Q5C1rNmASwYjDly8jC8O7EOdpxF3zLoVffr1hNfXJnQ1cmuhkjrRf0UPEKjjowNHD1dj7Rc7kJGSiWlTp6NHfr6sTBCd/7g8UFr/qpUQ3PKkV72ODNaXlHagoDo8C0YM/NtXGxuwi0R2e0tR2L8b7px0MxJtftjYrErdSfBveh5eKhXkP2ZUltVg46KVmDJgIG4rGoQ0v587snKJIbmSRlrAASYq1pUhRsBnElS7h93/NJxodGLt4SM4UFeDKffehv6D8qDRewKTL3K888IEn9GBipPnseyT1bDbUnHrrRMwYEARLBZS9MsSXXm49LpcqDh+Annd85CaksIAoa6ujgW+qanJqKo8i94FBbDZrGhtbUFFxRmkdc9HUga5DkrjPLkfBRh8qeWhtdXubMfevV9h965tyMy04e4ZtyM3O4nc4kQvBpWWCw+6tN5hRVX1FSx8fQFGZXfHYzfdiCQPAQSRYggcXMNjYjwBPOy9xOC0WSxoMJtQ7XZh46Ey7Ks8iZIJxbh13Chocu2yYkbueTruMeZv7opBoGZNT947D6kZaVi3bxtWkAaha4DQSzAIjDhFJSxNao3+GPzssOexhQGE78yBrb2FL5xoalLI1jc34d0lH6Hs9CnO0dKCovQEBcqTp09xiVFhrz4wG5WDInVfc+OeadNx2403gcpLyXeByiFpcOh0QGiKrqxdM+McaRAYINRh2qSpKOzWAwafiSlbYdEiTm1CqBUMyYElJd7QscJBKZaj5B07zDEmGGTJmgz2BKRIg9BuMkAPEG6fNAoOCRACqvVYHrfPBHgtMBkcuFzXhq++PIq66jr06dMPAwYNQ1ZWNmwOhwyISt4WWpSmvkZfBqj/anJIi0ykKj0IbRA+NFBr7nNVOHhkP+ob6lA0uAfG3jQEFjLyZ7QuzKLE98jGOSrgk3LXa4XmTcLeL/bi0v6TuHv4QBTlZHLns44vAUxjfVFtcjv5OHRICRlARWdXnG2ouHIeO48fRrPViKHjxmDAsD4wGElgq6o6gt8WrIAR18A8gd+MtkYLdn55AOVlZ5Cbk4+hQ4YhJycHDmo0FnZSEZuSCjWhdyKmZscgHP2cYIDfY0BraxPqzlehrOwgzp0/g8LC7hg7rggpaRb+Ar1GX323qCYRgVsI35K5iuGrNRtxb8lYFGdlI8EPWHmty2gc2OGEFE/kgCVc6MIkiWMBjHDRY6WhJeBm1nCVLI2vXMH206fR4GnCkNFFGHbDYJjtGvweqrwQ18cwnwGCZBBkhYmYXBY4W43Ys+sEvtpxEOlp2dxboVfvPrAnJnE6k+GaNNYJmedhtxYMD/K+IjwPvRmZSqOSKPL8hTocOnIIp0+dQH6vZIybMBw98tOhcamiDiCoOSEZTn5Cfg0etxEVJy9izdIvMK53Psb0KUQKGTy53VxRQ5oWrv6IsADE1ca+Nji1YjDCafCh1QBUXm3EvpMnUXX1KgYWj8CNt42ELSmonOdPjzIRaX0RSHC1ayg7dhZbNu+Gz2PBoMHXoW/fQiSnJDObwBQ5N1ei0m4ZIzml5uMulayxJlM9eTAQPjKi1TcJEiN5AdDB0U+d5aQo/EL9BZw4fgInjx9DTnoSxk+4HoX98wCDi87pcvWRF0HHseJZZrShuuYyFvx5AfqnZ2P6qJFIcLtgVyXruu0j9tHuPGJRGfMVkwmnm1pwoK4OJ2uq0aeoD269YywyU23QAnO9w8yNNRTy+6IBhJpLTvawoGZNj6lmTVTF8OGHmB8uUuzIIMQOENZTiiHJip/OmwN7e6tYyl4fvJqGysuX8It//Vf0KSzEiBEj+GFTrNeoHpxNeAATmUW4qKmTBVcvXcLC997DzKnT8PDceWxyQsGCTqv0uWy9KpXzcQGEcL5Z776n0xuEbpZRj3AdHhDdk+rZLrQN4pRNAMHVCUCIY23D4KMadiuMfhNMfhsarriwf89RHC+vQKvTjeTUVB5DwbSIdIjKy0fafiKte0GTByk83d4gL1U072pousp15Y5EM4aM6IfBQ/vC7qBcsUu2dBUnV35mIaMlqh78XjOM3iTs3LgPR3ceQo5NQzJduzSU0SvvxTUFcHzUxaG+h+cfe+fLf5HggksKNT8aPa1o87Yiq3smriu5Dvl98mEgmbXBxYCVg6IEjuK/RXmi+oE4NNKJ2IKWJh/Kjp7Bgf3laLjShMTEJJjNlg7lhGIslIdzYFS7KL0V22ukyeb1+NDe3oq29mYkp1gxeHB/jLh+COwJbhhUWkH3izLkBv5FKaO9nkTs++o0tq/eikyTDZlUY05lZJqsHIkwScRhNsa6exo/NqMR48frxGJCQ3sbmjxOJOek4LpRQ1A4uA80B73Py6Jlk1qTnEKheS/P/QEtgrBUplSDqw0oP1KFA/vKcL7+Iqx2B2wOAghy1kTwG+HbUtOD50t0OKY2Sb3zKYshaX17fbh69SocdjMGFPXCiOKByM1LJoUUB3gCJ4GnrQcIDM6Egt3nM6H8aA0+W7YOVq8bmVY7zGyi5mVRt9fo45RAZKGi3tev632DbpnmjoudaIFGTxvsyXYMLx7GPSoSky3QdKyHuvdIn8zXxoNogddlRsXpc9i962tUVFRzO2G73QazxSYOdexCKZwPQyOCHjqrsZIgTcaPgChRdxEauVBKrRSxfXRgMZvMGNCvN24YMxzde2Rxio20OcIumr41EkDwkwsCYLDiXG0jFrzzMVouX0VmogkOgw1mgzlwrAzHyyrAKdAh5lTs8IHiUZO7GfWtLTCnpKF4RDHGlIxERoYDBjMdwQnchL/kOuj6UQfeEQkgUBNBEikSQAjtxSDLHK+VQSBMTgOqZxBCAIKzlRcbC7MMRpxraMC7776HwYOHcrOmijMVIgfJNC6VA5OjoJHRYILdjrmzZ+PtN97E9YMHY8akKTBRiQmlNCgHRVsLBS+mW4wgDUJtrAxClIR0kEmI8GBjZA8CgY/RufAHUNuZz+hDu9mA6qYrAQ2CnkGIDyBQkCCKm+hlEs9RgysTLpy/ggsXLqKhoRFOZzsvSMr/MWDhoBz57BFJ/yD0G5HeT5ukMCWhnu60ztPT05DXPRPpmUlyU5L93jnYKlFZ+EyWFDyBHb8dNWcu4syJSmgEDHSphVCAoE7tuusKlDpFWZAq+HN+X+T26STjNflhSbIiOycdud0ykJzq4Bw+28YETjAC1uhFqiEAQUUGyqd7ycvdissXW3HuXB0aG5vgandHtHnm1EOI8DU4NpEFs9Hd8Wh8qCsedd3L7ZaFtPQkWK1kwOMM+DjoRz4aQIA/AVev+HH80HG0XG6E5nPDS/hQAoSIo9v5XtohdNGcIu8Ukaqk+eiDyWpBRnYq8nvmIjmNWt5Sflk0NaIZYuJUnzhhCy4hHCCIr2HGi/z0XVY0XGlDTW0tLl66iua2dl6LzDpGZWdCK6f48xjEdYy+nCTRWaOrtUMCu5SkZH4G3bqlwmIj1bkTBo2a4oSOuj7/LShy0ReA/m64SrbDx9DQeJX7qnBq1eCDTyNvEuq1QiAp+Ao9Cce+KfFIUnd4kxEmm5nNcfJ75SE11QGbSfT7E0Ro8DOjYScfV7fRAqN8lglej4bmpjacO3cRNTUX4aTumrLNO6WYKIITIxDpxZEq5DQRBAmRKAyKF9SMjl6Umk5JTUVetzzkdctEYgLFRtlHgh0ThQglGkDQeN5Z4HSasH9/GerO18HlaYbJb4JmsIrLDZw1QhOzwcOLmDuRY23ke6aYY9RccCQnoXtBbxTk9kCilVIzHkCjsdUZxgW3ex0T3hlKkIuUy2hl/JTnXd4/vxGAIBcJLVlKE6gUgx4g2JytXGqiFAAutxdNTW0waBq+3LMLVedqWCRDTmcUhMhituzIMVRWnMGI4SPwzz//J3hb25BotSLF7gD3FJAAgdIcAiDQ6dDIddS1BktsKYbOKhbkBIhdBhcB1zEikGU4yiuclpvRC5fFGBUgxMGcsxZDdOLiCC5JV3ni92mCtQmcgBVE4RAZEYlGwj/iO4K/q35RsDesquANiKhDoUEiqlDZS5OYRn9AiA4SWJ1PwZ/EUlzkQEFQfrec26EBMfiPusN91BXCIrUIP+UaajM5d9IMFZuRosv5pBvhpVIMofODfs8Jn5dqF+zQDMJ1j5gurzey4VUgxcCPQ7cRdbrhRv4hPX2Ncm/cNZOeCeWqxbOJdBfh/xrUydhAngJutxcej0sUxTK9Hy0hImJlDAU9gZGkkzI3M1IAweeFzWIhKwSOBSKtQ3PII+6HDwXBMs7IAEGNi6yZpg2UUnDcEhhoZ0W7eGKRAYJIlalPCR3l0BEU802l2HS0A3nwaRobAdEhhpu0GSXYDJxadRttYNOVtox8dWIQjAYzs4DkPCNAjQ9mwcZLDUKoikpdkx7N8N3GghUo9SJz2ibZo4bdaql3BTeACH1FBQg85+h6hViW/Gw0oxlGow0utzAEE0yq8AYQ7HHHAmTxjUGnws62PfUz0ehK8BcUl6ghmiBuvdz7QqxpGX8YJ4o42THGE5CjwwE5GorrdhJINrqgQYOFxN/yS5V4Pvz6gqAgTuRM/IvRA81CttUGmD0EjCl9LvbPyILKMOZOtfoOu6jQw19Q4q2qGL4xgMA6BNqwucxRaBCiAQTBwdFGQh2rDHBSmoBQqmZEm6sdNbXnsGLlSlSeOYWSklG45eZx6EY5UIsNfpcbBrdo40klMtRtkIM7UaBSMNhmMuO8wYx3ZRVDpxqErgBCACXqFnQsM1W+R+yp8QEEYlFiWtC6CSrkcsLCmYIrLzrOF4vJL7Z2MpmQwjRubBPpRkKNeYILLzJM4rXHu6oUigUEY6JkSgQn+buBQBgZIHB/Dz4cc/gWnuTcsVG4NqiXCkziiUihVjRHzAioIRL4CgoI5SbIgyODXCcAITA9AldHv0ObgTjBUpGjUNOKMrxIDjaBFENYc6lOp1mk6MxjJ2n3wHMQHu/R9ocOAIEtV+ndVI9PmXIxDgT6hMJHeMUFnoUOZKqNKGZALSl+MkhTU5FYbJbgKadD4esXSHhroKocVaURiUEIAjt+NgycxTwk7RP3YyARJt9n5MAdkw9JGPvWYXwZUMtHzyFAnlhlaa9eCRIM+AIQKZMdBRIC48FBn56BAHzi/vSzRK506c6pf0pdMtyBSoxgh0/xyVKHFekDuB604xhyukjGveA8of8i4SWlG+XJVa7NoNA09N0R45PqGxAlk8UHlojIhX7CfR9V1BQxNipAkBGBN2bBVqmicG40H0hPSkwfYSrFc8gLXesU06gfkaguI1Eqt0JnAK4MvsKig7znEIYnQuxTfiDi0QrXXI6i8vlTD47qSy58HHuKQTRreklWMQzKj6BBkAtR9WLwSpFiACCQSJFSDHoGweNFS1s7L38PoVPpdkUpgwWLFnHK4a7p0zBo8GBYTRb4XC7YTWY4TGYk2RwweIVfOfulU6BRAIEAh8mEOqMV727civKqC5gyaSr65/bg4EkeC4HNhmF4tCAh/j0yWtNP8E7DuFxjUkrF1KIIn5RicJmNqGEfhL8go5cft08ZBbtdeEnEU+ZIgY7xLIEDmdblPU0qzlXA1qcI+N+iANtIZ2wBADtuM0zXcjCQgVnlgrmyRXYIVOAkBCB0HDfVIZTZSekkJgCCUqrL4dRdt/6KOj6rjicnMf4d70Odi4XNtR6QUG195O01GpKnAKWc0AInFj45itxy+Cvw3WosY5lSkR6eDHZi0auqguCGGf7NSq7aMfcrG7jwXiU+x0wnZVUerKskEPcUGthDOeFopyfhR8InSIFeeQpR6pDd/AIVIrpnz9UHOiOowPeqlIsCnsHvZI6Cx1VtreIuRP1EcK8IGfIIh4Zo61GBJf5G/cYkOxXSaTN8bUj+IjhqegaBx0StTTFfxObEyD7kBKxnudRmHgDjPBfkHUY5TXaYZgqDhwNVKSLv+P7Ihwn1PkppihebXQTSJvrPUXsY0edi1godT3BORll7OvCl/zydrCXsckNjSHDe0ihFYhDkJfDhTs4nv48FuqwRkc6bYpOIYcHG8xZ1OJEskSYxo9DOyMUS8nkqZkXZr/QVUiFVUcRQSbMwcY6F32BGTX07lny0GuSk+OjMOcjITMP6/TuE1XJHDYLwQXjp3U8wZ9pdKOrRM6SKgWOn8kEgMpA0BHYNx85XYv2yj1CUbMVPvzMbCW1tlITjOU502ZqdW7Fy9RdodbuEO79cxKT+PXnyJOx2B/K69xJlUH4/SBJCHuWjRozA7LvuQnZqGrMJgXJHho5CVOSyWFGr2fD2pu0oryaAMA39c/MZHAjkJ1dCXB7W8Tzh0PdG2kho3NxmDeear+KNBW8ho4cbd9xVAhO1BVe18TF+Jc9PVVmlxjJK7IvxIzu8jendOFeCOESI1cNTu5NjDE/xoGYt+P3yuQb+ocN+EylNEvkuFY5hFN7lS84R2ca1y7fr3tCBhOchkIFfjaHYUXRPKci0hPZF6Bh9xH3EF5U6bibiqyUMjvC8vQEKPhCWpBMkbegMgdiwTARzCUlEMOUGPuq3BNgKtHoIpKnkz8MAuvgcyR5Fm29RuO2AXkNvZiZP3OJedWOmS5cpTxZ16hWUtNquogEcOX4haTe1CCWFHjJpQ4GaKYLgN+R2w75W0NWdX0tY1Ilz56LPD5btivUaz6zv+N7w9a6a0AVmvT7+ShAjgJh+E4y0IXZ2XRHEuxGDR/Dm2LK/i9ikPuJahySGop7/1mAzhIzzgbFIMVC+r6wCzKitd+OTxWuQqCXjsZn3IS0rDeu/3ollCz/Ed/4WAMFrM+DY+SqsX/6RqGKYex8SqBGHNCYhcc2Zc9WoqquFCz60k1hMRhCqWV21aiUSEhIx7pbb4LA7RMsmyiH5fMjLzkLfnj1hJbGdFO2oDZKDAKlwLVbUaTb8JQQg9CS6QQbWbxNAaMSfP3wD2T29mDhtFMyJVActGsjE+tJvM7ztxDlRYvmeawUIcUUZupGwpkFdXlvICTa430YcA5m+iAUeBL+XJm0cYYEjQYxBLfC5oe/nFuS6Gw86QYp//NsCBPlNYbco2iqLEmbxfcGeA3xKk0wMAQRSW4gyhOApWu8bQNNRprQ7bFrKKVXMW/FkxGhISCMBhB5oRsQNyvRL5y4nPit0wwjcpkpjhYyzAUZNY61CzK/whcrgJAgGxKau58NlWXicYDvm6wm8McY5qP9gFkeqNRRzoij6pYXFIdXGPvAsleYm5BrUDAhcSJxAJ57IKb6jK4DQ4QZjZWT0vxhLKjv+h6x72tcCEMSaC5Q387qmtuYeBghJGjEI1wgQ6Mr4xCdpJBLJEXlHDAIDhLqzWL/iYwxKsuAfZguAwOa6kj2j91FawO33w0OtZjVhW9vW2oZXX32VDTMefvBh9urmE4jMGVKgIqEOpQb4sBKyIEQQc5ktqDXZ8famL1FeXS8ZhP89gCCCX2gEphjktmiobWnC6wveZIAwYcpIWJIM8JLddByT5dsKEPS3EAtoCdmHA8yDZJeijUckgNDJ2AnSNj6IEMejiO+t0QCCXimuxkH/bwHhVqzAJYQID7lGYZzV8bIVE6BM0Jj94ybvkgGWAUAwfDSiJCwlktALExvuKFpW2cGKShemnWWzHvEdilYWz5nnScDISFLYuhNeROzL4ECI30SWJtgch8/dsvSSYBfZ7lIlj8i5Cm1CsCsepWWpPj/WcY32uPUaIt3YKyzGTePif8V3VdcAEMJYja7PGZFZhqhW3D5x350ChIhgIb47j3dkFYMUz+/Fe1oXSslv7nVtDIJ4FizuZ2AtAMK5ejeWfkQMAvkgCICw7uudWB4Pg6AHCCqfTZs4UfweC4RIkQBCohk/mX0fEtudfApRAIHFT0YBEJzwc53y5SuX0dLcgvfefRdjRo/GQ3PmwkqtbjmOUGZSgQJp1KQEFvJv0VzDB6fJjFrNivdKd+J4zcVvBUAIBwkKIJxva8S7Sz+APa0Rt06+HvZUEvLIBiQxllP+XwAIfP+drQ+pZA9/C09gTlCH/SQAIOILtTSX/i8BBHHX4uZVwI6mo+hieEN8HGn5sUUtm9Lokkcqjkn/DkojUN7V51EMgk96A4gTPqnT3e0+mE1WHD9+Eg1Xr2LE8Otgs1th1sjXQvSTOHniBK5cuoyR149AQoKdm165DR74zUY2O+PyZ5+PnfZIV8Q21iIhLTd8uZHrLCPo/Rp1f3SRfbc4/ZqpiZby+5BjR/+ffP+5f4Zsq00ghk76bNymy8uKzI9Mm8S5L+k3xnChnHh2wU0izo+WMTAe2v+bBwgR16UCZBEmI1UDfWsBQpx7dywHHv1HfjtTDCK2cMfkgO7BjMraNiz7eC3SbVkMEFLTU/D5ni1Y9fFHsWsQhAhKKNh5olApGguO/HBb/Cg7fxYbCCAkWPCTOfcigQGCGDL6ixYloTDyTWjxA2s3bMC6dWu5tI1OIQ8+8ADrDSh0iaUvtKSsIKVPkLmq0ByqDiAYrXhvy7cfINS7mvHJ2mVocp/GhMnFSMmxCatluRvEKlbsGA5CN5U453+Ht/PG2vWRIuT34l0UPJ8iBZYOoildzjAuBkGc5uIFCH8DsrXz4Q8vH9WzJyFRJnglkaWWUb6GAXZwc6HN2EhI3QOYrAKQUkdVEtQJy3Qj3GQla6JOi0aYDBqo8x6DNVlCyb1FWPhHxlAa2hqceO3Pr6OgdwFm3DUVDQ2X4Wxt5U6KNA82rl+PfXv24tFHHkZ+jzxe4y6TH8nZqUhMSkLD1VaUH6tAvwE9kZyazKWuV2ovoL2ljfERWyNzOAuKbWidWJITkZaTDSrL87S2o+5MFYMGBSipGiKNmn3ZbGi4eBmu1jZmEYyaF0azHwarGSmZGTBbhZFYcA6GPfUYKkyCzeiCaoeQjUSPc2ME/+qJqrSLQopdA4xrmbURjNCC+LRjTIgE3DsBCDS4XNmhxItdjWlAp9P13f534ht/epyx7ZuOhfHez7UyCOEAgUSKh05cwKqlG1DUvQgPTrsbtkQb1n29HSsWL4pdg8AAge6CGmTwji8WLzsEEkCorcTGlUsYIPz4vllIJJSvUgJ8ehE9GNw+P9xWM7bu2I7DR45gwoQJyEhLQ3JKKg4eOYyqqrOYcMt4JNttAiCQF7mQLgb4gwBPSeyFYhD+LwAEs4bLnhas2bEWFTV7cOvUEmTnJ8PjD9oKxwIQwhmESJMrEuKNBwUzixPHIlIHpniWtphGOsin+z79guTrUD+LokGIOAaMM+Oj+jq7fsFuxMdgRFz4gUAYJSx0CKRxcgjy2akxJC2QGWaUHziB46fLMbLkeqRYk7Bh1Vq0N1G/DAPMDgt69StA+eGj8LZ74HW7YSG3H7IzN5J7qR+axYLrx96Awb0HYc/W3fh87Rp87/vPIj09FW++8Tp2b9/Oc4Y27LbWFrQ0NiE1NYmd9Lj5lVXDQ997HDfePBanys/hzdfeR7e8JMx7YC67Ib7zn6+h7MARXusmi5mBC534KVVB/3N7PSi+bRwe+t6TnIo8c6QML//8V9IuWogdDXYbHnjsUYy4/nq89YdXcXD3Pmnj64JP86D7wD549PtPI6t7buDwEi3DwJt0l2K20Pl1Ldt0xLmr+1gx/4PQocMlyTgbz9oTn9b5b/Bc170l0sbaabySepbAPBQf0OleGGzpHu+W+c2+P16AEKoq+ttf27UABBUKlShapBst+HLvSaxeUYpbR9yM2XdMhsFixKaDu7E0vhRDOEAQ9D85fLlMPmYQBEAw48f33oOk9jYua6JSDfKabvN60eJyESeIVp8XH69Yjh27d+FX//TPSE9Mgau9He8vXozDR47iH3/8Y6QnJMBqABxmM6xGIyzMXITqEOiKqETQSU6KRgve27LrW5FiiFjFQFW5moZ2zYPNX21E6Z7VGDe5GH2HdofPQLyKHN8YThqxAITQKRlOVXZNXcYLEKJu0J2sDZZzhavadafp0NOY4kyCASYa5ak/hcUgRYSyAAAgAElEQVQLEDpbyhFzlzpXvZjDQFcAIcIHxRb8hRV0AMhwBCB7Xg0JBgc+W/A5Vq5dhUe/9ygK8nvik3c+wlcbtsNt8mPkuNEYNHwI9u/eA09bO/ztfhw7cBgWmxl9hg2AwWyE0axhwqSp6JnaAwvfeB9DRgzBDTfdgPqLF/HF6tXIzc3B+PG3oN3tgsViYuMgIYjysQHTH//yR9w+/Q7ccPMN8Dl9OLL3GN5+/W2MKL4ecx6ajdaGJix+fyFqKmvw+MOPIjc7B263G5pZw669X2HZZ8sxdeZ03DF9ErxuD44eOopPFn6MJx59HIkJyWwdvGTJUhQNGoSS0aPw5p/fQK/8fEyYcCsMHi8OHtqPDTu34sGnHka3gjz4DdIBMEKvDv0jEFPy2rd+oZiI7QkG5m4Yrg2CAsUUys+jv64ZIMQ8Y2N8Y1hc4ZJlNR8lJOni0BEvCxmzQDjGO4j2tlgOS/on/D8DEGK/KS6dlXpqAsTUHcRA9tE+K0o3H8Su0j2YdftU3DxqNLwmYOu+XVi2eCHmTJ2E7943M1DybFDtnsPLHEMZBPoGIWLyaUC7yYfyurPYuEoAhB/dMwvJLidXIniNRnbC3rH3ayxZtRLtPh+cPi/O1Nag/vJljBg0GAkmK6cajp+pxNWGBgweMADJVivMPi9GDbsOd0+egtSkJGHcols4tPAoxUFGSbVGK/76LQcIZNzi0Tw4eOoQVm1egt5Du2PUuCHwm11Bh5XOKDs5H/4nAELgeBXjHAwPf7EsKPro0Dxu6KeIjS4kVIedQIJBMnoAvgYGoZNfCWEzZPlhfKE/xgHVv02mDLr6TeY3yO+exHhUty1bR5v8GhL8Cfjsw8+xbPVyPPbc4yguHgn/FRf+819ehtNmwGPPPYWUzBTuf2CmxkHNLvz7L3+NjJxMPPzckzCYxU5E3iIbl23A11v2YP5D87Bh00bYbHZcvnKVn+XQ64bC7aU+HHQt8sRIHQu9PqwpXYPZD89B8Y2j4fN6eNM+sPsIu6mOGD0CDrMVddXn8dGHi5FkS8TkO+7kRj9f7/8aW3Zsw6Dhg3D75ImsdyCdxLEjx/Dq71/FbeNvR3JiCgOEr3bvxm233Y6SkhK8/PLL3JNk0OBBMHj9OFtZifLqU/j+j/8O2fnZAphTKWcIKaQ24PDRDp1hwcoTPbslJo4e8yonz3hPoJ2pliMBFsI43/g87GICdljzsnIk6BOiQIKSm4gdS3/d4hgQ4838D6Ukulp3PMvDYtXf4oDV6WElrFdsV9cozNnIedgPL1URGqgHkh2NDW6sXLoRjbWNeGLu/ejeLY91QgIgLIgdICjJEvfgZggSChDK6iqxaeUnKCKAcO8spBBA8Hm5k57bYMDpmnM4ebYS7SRc1IxYv3ULjh0vx2P3P4hEqwM+jxerN2/B6YoKPDR/HtIcDpg8buSlp6Nf796wW8ycbgiJmyQ6MgBtmhApfpsBAl25l8fCi7rG81ix4RO0GK7izpm3wpZMqZpgQ46u0gz/YwChq1kX9vP40X8QIHSmLA4GHsUixH5hAdFjzL/Ssb1x6K+GOc1JT5CYP/5a3hgXQBBlTAQQWOVPKboIAOH60cXQGr145Z/+Ha124MkfPgN7qoNBv5lQv9OL3/z8X5CRk4WHf/g02btx1bzrcite/+3rqD1Zi4I++ThbVY2HH/ouduzYiZMnT6F7Hp3MRSMv6Z7AluDt7S5UnKvE4z94AiNuKkGLqxlmkx8GtwarxcGjotGJ0wucq6zF4g8W4PLFy1z23NjShCkzpmLE6OuRkOKAz+eBBUZmOF568bfo2aMACTYHXO0eXKy/iIkTJ6KwsBBLlizB+QsXkJOdzZ4sjU2NcJn9eO6nzyMrP4utbP1G+hN5a1UbcaRHRjSthBLKRjCADDgYK/2VLBeNzYsjnskhvl25Q4qVEY5su2YK4/Na6HzLinwokKWsAY0VQygJ9GV6MVCdJkts4xkG7hD7N0j7xfWdnb+ZnkWoIXYMHx5HOlfA7qAXbAyfHmgQRyPuYYBghVFz4OTxGnz6yToMyO+POVNmwGG3w3dNAIEFPX4YzNR/XQAEbmpjEgyCAAhLUJRgkQxCG5cnksmK22hAK6mbLWZmEOhosWrtauzdvx9//8z3kJaQwsrkpV98gVMVFXjmiceRbLXBYTTAYTSyHwI8wnlLLWWmp7nlrB9OAggm27caINBDpL7fXoMXrXBh01ebsPvwDowaPxyF1+UCZmfgOXOyobNTrHxn7CeG+FMMsUy6iO+J48AeD+sQCMZxn5OEaje+V1c3ocZTeQbESyDHdzWCQo7haes2Jcof06mV7jwSQBgxuhjGBjd+/4vfotXhxxN//yzsqTbecIhBQJsPv/nZvyAjNxMPPf8k9X3mdutwGVBzvA7nT5/HhnVf4LohQzBt6nQsXLAIeXl56Nu7D9yUSuT0hrxuvwEejw+V56sxpOQ6NLU14vNPV6G9tQ39BgzGnVMmo6WtEZcuXOS25ZUnzqDpcgMS7Q60tLTicsNl9B88kDUSqVmpyMnLQV52DhouX8WJ8tMY2G8gLBp1EvTiQt15HNi/H1Vnz+KW8eNhMVtw7lwNbFYr8nv1xCVnI3r0y4cj3QFu+qER3RrdCCEaSOBUDpdwinAdsj3rRKiCQaCa9XjnYAxzRFf2TQ2dOs6QrgBCV/M8hmvQvaUjQBCdNnmEok1f5bvB7+pgORbDBaieNDG89X/oLQogxPt1sbKu1wYQhOcMCZa9ND+NCfD5LNi4bjv2bNmP+6bOxNjhI0Uxgd2CL7/ejaWLPsCcaVNiSzEIxa+fuy6SFS2VMnEZowlCg1BXiY0rlmBwIgGEmUhyOWHweXlTJIDQ5HJjy66d2HPgAIxGE9zy9G/xkXJauIpS21FC8ya/D1YYMO32iSjq0xs2Uil7vQE3uaDyWACENs2C8+ZvP0Cg6/bQHxNQVn0CqzasgN/uxm0zrkdSJnnOi1X0fxogxLEqwhmHrhfINTAIsqwnjsuK/a2yBl/f3S/2X47jnXEABF6n3POA9AjUPKgTgHDVjd//sx4gWIMAodWHF//pX5lBeOD5xwGLH0aucjAj0Z+MXet3YlvpBjz+2COwW2145933eIPa+9Ve+J1eXL1yFVarDWbNxKXMqanpaPW3456H5mL42GE4tGc/Th89hcY2Jx5+/LvYuGUdKk6cQq/uvTB0wBAMLOyPs6cr4fG40b1XPvYfOYjjFcdRUXUaJWNLMGZUCbZt2oaWpha42z3cSlozmGAxati3Zx+aWpox7qaboJlMqDhzBvv370dxSTFy+vSA09COGXNmICsnEz6DRwcQIjvsdZyXwutBT+qTS53YCGXTqP+OaiEGLCgDhU64HexWycAlwiv0PsQR65t90XVQpUQnQCUSQIiHigw0rYt10L7ZO1Zw8Vo0CF3Hv+C1x88g6AGCEQZjEurrW/DxwlVI9jkwb9Zs5HfvAY/bDa/ZiO1/C4DAW5kWBAibCCAwgyAAgt/nYVqdRIrNbg92fb0PZadOQtOsuHDlEnbt3YPr+hehb35PnuhtJtIq+9HccBXrP/sCv/jRj3HbDTewX7sACKptscKaoisYAYS6CABBgBgKlf/7Torq0XLKxehHg6cNG3ZsxN6juzBsXD6uG1UAjdI38tVZmuGaUgz6dRGt0dE3v3ZCvqEDQOgy9xgalPWlfJ1d+jdJQYrTwrWEgzgG+1oAApWYGam9MgFuDQlIwGcfBDUIxCAYrrrxnx0AggAUaPPixZ//Chk52Xjg+ccAK/knGGD0mnDl5CUsfWsJBl/XHyOLh6O1tRWfrlrJ1QrVZ2vx2MOPYcXyVejTuxBZmdnY/uWXmDlrBtZvK4UjMxnTHpoGq9GK3et3YWNpKR576jHYk624Uk9liS7YjVZ4291YsWwFnG1tmD1vDjSrCU5fO9p9LvTslQ9fcxv2796H5oYWtFxtQlNDM+pqz+NMxRkkp6Sge/fuOHH8OFJTU1FUVARHggNmmxUemwGGBA033X4zUtOT4YFH9J/gnggivEcK1MF/k7Q4t3URvV1UkWOQ5RH9GKQLQAjzGctTj1nDGmAQxGbP1sY622n1XZE3nmsACFHKFKPHKrE6mHCPh0G4JoAQy8gGRiSeN8tZEd+vXEtEiBcgxAvwyKLA56XknxkejxXr1u/A4X3HMW3MBNw0agwsVitDxk4BgtPn9a/ZeRC/fXcJZk8N9mKg4QlnEDoDCIkuJ5c20heKhhpkKSyc2XwmM07VVOHP//UGZtwxGTePHguLZkIbtdc0GXCmphr//I8/wz//6CcYOXAwN2qirZPoEbEARAMWA6UeDEArOSma7Xh3226U19RjKvViyO7BLIcsxhSLlHOz8T3omBdrYGePLhaiAMIsApV8acCZ+hos+mIpTInNGH9nMdKyrfAZ3Sya8rHQTLA0kV8xkc7BX43SDS3aaNC3GoN+uTEOWnQUH/vVhn6G/v8J4Y8M4jFeUcS3dVGPHe9ZRACVOCjkCBt+hyAb4bGLQ2snV6dPMUhthKaZuGFgkjEJa977AsvWr8BjLzyJwcOHwH+lHa/96vdodQBPvvAsHGmkBXDDRAxhmxf/72e/RnpOFua/8BBMNhM7Epo8Zix9eyk2LN2AgQP7cl6/X7/+aGq6ivwePXDk8DE8+cjjWLF8BfoNHIjcrByUbtqMe+feh8/Wf4H0/EzcPmsibLBg76Y9WL+1FA8+8V2k56Rh+/qNWPLBAnZCMXlNuFR3ES6/C9l5uSyGpj+Zudl44skncLWmHkf3HYLP6UVbcytamlvh9vrRf+gAXDdyODKyslB++AgO7NmLxqZmpCamIDkxER6jD74kE8ZMHofM3Az2itT4xK0f8E7GWL8B86+ofHq0zUd+ls5WOtozDKwR3dd3pUfib2XGKPKGH24rHHpnnQXDCKf+TmJI9E+KzcEjeF3xsYSi3K/L6kldGKC0h2A1rh0uyN9WFVcRbj6kD0gXsYphlOx0GthG9HNA/98BGCt0DtH2htB/F34fdPz2cHdNO44fq8aqZWvQK6s35k+ejtzUDK44JMbfb7Fgy96dWP7xh5gzfRK+e+89wSqGIED4GLOnzpDNmkRfatYgSJEiOabpAQJVMZAGgRiEH866GwQQvN5gfb+6YNIkeM0WnKg5iz+/+QbumjgJt954M/xkiWoxow1eHDxZjv98+f9j7z3AtarOfPHf10+Dw4FD59ARFBQJqAhYUEGlakSNmmQ0xUyKJTH3Ps/kZp7n/9zcJE7uZNJnJmXS7IpKsRcsdJAiRbr0zoHD6eer/+d911p7r72/tb+99wFzMzPZeQxwzt6rr/f9vf1f8I+P/E+MGTRMAASaoGSW5KnNalQCDABakuU4kizHH5avxs5DJxggjOjZH6qYC2klRH005QQTnAV4JfPx2nM+qx63RfA22gSxWa3IYvW2zXh/zZsYcmEvjLtyOFJdCEBkkCffC8p6Z0k2eo+hboSgIZ1QJ0bJtBP0CSrlBm1PuwjWRe5E8iY3XPPzBVJAMsww3fHift8KrZbrDAYAriXJuVWotMDnnqsXFiKIx1IUmIBkJo4nfvxnbPh4E77+3YdQN3ggcCaNf/3+z9BWXmCAUNmtnAOHGSC0ZvHod3+AHr164O5vfo7zJMSjccRyMWxauRX1++vRs6Y7etf2xtmGJry15FVcOnYsnn3mea6+euLkCaS6VnE11ob6M+hV1w+nGk5h1u0zMfOOWUjk49j43nq8uWwp7vval1DTsxrZhkacOX6CwVa0PYqXFryE9kI7br39VvZ9ylH18mQCvXr3xqGd+/Dik/Ox5v2VqOtfh8GDh6FHr16o7NkFl17xKdQNGoSt6zdi+6Yt7KhYf+QkThw5hrPtjZgyZxpuvmcuavv2RD6fLnJ+Lt4/jZkEJx2Ki8j7Z7LFu9s17bBKDe1zQOSv3T4TKoeCky6Jl5k+etUZcMxT+dr4REqEWRszcpdVXf1ukP17Ub0z+PtiBk6A4EUagzbrpvfMGf0IjQ5ZGMxrztHKv0XBVjkQHQLaJdNMc1cjl9ou1qGTOZ54eArHTzTi1cXv4MzRJtw241ZMGjUG8RxlWSV/wRgKqRTe+2AVFs5/HHfOvhH3zZvnDRBG9a9DIqMkcQIIlKaRRFwbIGRkHgRlYiCAUNnRhnyOgIXz4YRuiQR2HyENwm8x54bpuHryFDQ3NSFDSY+Qw5JVy/Huy2/gf//Pf8CQ3v0o7ysvoMixrvK3E0CgXOwRtJAjUqoSf1i+xgEQKMmK0iAwb+ajUbqSl3u85x0gcOlngfdJi9CYbcdL772OrQc+xMXjB+Liy4YjWk7x2VRdT9SkMBOsoMdXyUZ28Z1g10mtU8B++JCbCIifo1Sw0ahLrKduDfhlqIRPfE7CaAPkwQq4SmLIHB/eyccjq4+VR4qTjori2YVMAS1nWlEWr8Txfcfw+5/8BsMvG4nbvjAPFRVVaDvchP/48a/Rksjiyw/fjx59axjdUjZFtOTww3/8IWp79cDnHv4sAwRKgERauXRTFi2nmpFryuLowWPYvm0HTtUfw/Tp0zF//ouYNXMG3lm6FP2GDERtVTU2rFmLa2++Ees2fIC6wf1w07wZbEbYvPxDvPbuu/j8l+7lTIc7N29Guq2NfZQKrcDqZSuRi2Qw+dqrEE3GOQsrJWrrUVuLS0aOwc7NH+HH3/8Rhg0ZhlSqgjWU2/fswOxPz8XsuXPwyx//BAd27kHvPn3Y1NjQcAYdqQge+O43UTOwFyKUXZH8tbT6DcE1XSH2T8sY6uQbxafAl6944gRbaHCrqoVfhLqbREflMSyVc8WKNLTHSFkRPWVWbeCdPdtCjNPCRv2WWI4nRk7IgVXDIsIn6BhNzZoSVelDJXCgaxB8S33IUtamMQmwYeYAMSOdokVRZdDpQyEW5/LkVFuOhoZWvPvOCmz7cCcmX3Y1pl9zA7pHk4hS6vPOAoR4hjxkadJUwJ0AAovzvMiksSCAsOP4QdYgUB6Eb986F1Xt7Rzr7H5IhZGOx7Dn6CH8229/g9nTbsSYiy/GU/Ofw659H4PKP2fa2nHl2PG4+9bbUFNeBdKRch51pUFQaVi5oAxpEFI4kqzEH1eswY6DJ3Dz9JkY2bs/Z3sUCyztc2q5fG+hPerzDRB4PFGB6Egtko0W8HH9Yby+9A0cP30Yl1x+AS64ZABSXTIC95H4V/QE1yDYqFM4mQZ/gl8i5pHctLh85/KUssN1JnuY11hKxVqTc1+oJ+SU3QRKaKr9G+F8/1o2R3f+fzVmBgj5CPItWbz67OvYtmUna7Wru1dg7t23sNMfSQ9P/eYxbP1gMzIALplyKe764jz06FmLaA7Itubwo//vUf735x74HMoqylgj0dbYgYXPLcSxA0fQJdUVDacbsO2j7fj0vNm44orL8fifn8bDDz+EJ555CkMvGoWBPfvg7dfewD1fvBdLlryNeCqKG26ZhlQuhg/eWoNXXn0Nl04cj2TXFLZv34rWlmYRvNdcwMGPDyCda8Xg4UMRLUtwmvdCPIrhF1yA2TfehD0f7cCrC17G177yNfTo0ROt7Wn87o//gX4D+mH2nDn4069/i2F1g3D9tBuQy+Swbfs2vPT+G7j187ej/8iByBUynEhKmPHE+vvvQqiTIfAgNyrMo+KRfbmkdP5NCNrkRReYLmtisbrJ7rlZ5bJNU5Iv8x9yTJyuW3u8xiq+6cQ6qTiGoN9KM5oqwhW0xyDNK1JZ6t1Se+UwMfh1qLQ/HhPwEhFjJjpFIcZ8rgn2UjIk8Wc+n0BLWwErl63FByvWYvTwMZh902z06laLRCbLAT3ETTulQXADBDb9S/TmBghsYrhlDldzpNBE90NOeu2JGD4+LADCjOun4copk7Fj3x6cbmxELJtH/+oeGNivPyqTKVCUAyfkjYgiK+xHwGFrBZmLgQBCGY6mFEA4jpumzWCAoNLiqssi8FTI0+tRL8Cb8ZQ2MShEyCgzCnTkMshXRLHnyEG8sWQJ6puP4KJxgzB+ylBEE1nkCnZ+BLvPzgKEoFdIvBfCqq6BA7/bUHoMiiAVtyLI3rm1rpvwvVsKHZIWshxsEJxmsj3bOR2EeGeEcNQ4V0CNIplN4NTeUzh1soHzB3Qf2IV9CeLRJNAa5zTEZXTH4lWIlBcweMwAXiAq50zHbv/ufYgnk+g7rA87MOU68kgihd3bdqFrRRW6VHbF8qUrseSdJfjq338ByVQS//G7P+Khhx/GoldextALhqO2aw2WvrkEV0yZhHfefRtDRw7D9DnT2QlywR+ex+KFi9F7cD/c8cV7cPnEy9CR6RDRF21RPPv406hvPIF7v/wFlFVVIkeAWrBcVMbi2LXlI3zvH7+HXj16IpEoQzqXx9FjxzDvjnmYc8st+Ok//V/s3PoRutfWMhBoamxEWY9KPPi/voU+w/ohk8+wFtLe73M9XV5nW8B0naF4/d3IqxWzLgEeRBSFGr93mLRzhiU8B5R0qr0SzJsgHI1xvx1GhFFUStRaCb53QZJKBbmjYfosvSpmuiZlLuOnJGSQya/oIT6ZI8ivMiWSzjyBpuYOvPPeeny0cSuG9x+EW2+eg57devDKlUfiyGfJWTcaDiDcPnMulIlBaRAKMRFLqez5VIshmyhg54lDeEcWa3rkljmoamtFxGBioIiGdFkSB44ewYIFC3DV5CkYO2aMABzkcU3TyUeRzWf5Z3HSAhAqkgCBGReVb+UkMEKzEQYgBM7S1clzzte0hA8C/UoBccoCSSabNBXBiUexa+9OvL/yXRxrOIwLLxmEkeP6oaKHyS9NXYbiS6F3zdn05DzC2MTEJ2FtezKGOfg9DbDCUt2oQsh4bc+hA4ca1NSOtNmF7ELZeUtNSD8TRT4IBqdJs9QgQJJ4vAfJQJrLMkc4zDBPVfXo3mXaueQ6fRotkFSR48yL0UhcgMGCqLnArfO3SWTzeY5CYhm7AA4jJO0hM9VsBKuWr2GnwsmTL8PRI0ewaNEruOtz96C8spw1folCBDs2bsaCJ55BJhbBrZ+9ExeNHcmpnJe9sRxN7W24bMpE9OjbA/GEBP6kAm7MY/7Tz6Ex3YjP3vs5JCvKkOF6U4LZpvIFHNi5G88/+RyGDx2BslQF0tkstu/ajcsnTcSVU6bg+SeeQntTC/oOIG0ihV6ewtlMM+649zOo7t2NC1QxmAoJhQMcXCHDOzZRcXknsAuiMSiZhVGaD4xnQtJUDTY40jz69S0AaRA2GE6UCCAiBFtieQ/C1kcJAhAkCTTestBZMX1nIwGk9p4AB04qoKdG4qqrHppOKmpGnDQaIf+jGI4fq8fy5R9g89Z9GDP8QsyeOg39uvfgCCfqIiYzrhaoSJufD0KbimL403O4Y4YTIHC9AHYQFIecjkUuWkAmkcfuE4fxLiVKqkjg23PnoKKthRMccb0GtrtHOQcAVVsjSYBKvLY0N6OishKVFZUcf0l3PxEj+UUGJuayiKdpWTIoFHIyFElqEGgQeQIOBBBSrEH404q12HHoREkNgu9ehXjBGA5VAiCophUy5D8pDFSaarL5DI6cPIZla5dj+4Gd6Du8K0aPH4zefWuQLIuxSlRlqRMlbp2YXpkT3CxEEIiQXI+NlsG/EYTELwthiMVVrzoKJIleOjcfOwKi9CgE+A3zUNy5H7HV21PmGObJJidUB8rzBjJWm8y9JXiga8Fng5KKUHZV+ruokUoll1mSZa8uyYylFz75ugh/F3eaW3YDEwlUyHFWdspJmCgBEpkfI1EkSLrPZtHc0oouXbsiFo8K73pSXWayaD51GoVYDFW1NYjGyQE3wj4SZHKMxmPsc8O8jtaDfDTSBezYtgMZZHDRmNEMqsl3h5x76QQksxS+CXS0tnOaZY7WAHC2uZHvVLIshdbGZtaQlJWXcV2ItrZWNLU1o6K6klNHc9lnXjbbuB5egvU/KQwIvezePneMd9/jHb4NVu4UlwaBD5czBbAALO4Zep91BRAcZ1f7h9tk4r8SxW8U5WYILQAI8BvmYbW76Ru5NH6tef5e+94rqsRrnOp86LujzNtqSRxkgSMfnMCMzdaFGKKRckSiKbS25bDn48NYs3wtTh06hcsuHodrr5yCXt1qkCLBIZdjQVs4egq/CQsgrF2FBeSkOMflpNhKAGH1JvzzH5/D7TPm4kLppCiyCSiAIGJ8qWGyoZMGgQDCewsJIMTxyC1zUdHaLJAJOUgggvZCHiebm9BGfgkaEGhpb8eK1StxpuEsl3AlIkTggRyirpk4CZcMGYFEJMuOiqqOO3nXEyEhJkk9tKTKcTRVgT+v/OAvCxAMl7eUBsF9OMhUQhtUiNr54AuxCI6dqceyDWvx0b4PEe+Sw+DhfTHiwsGorilHgahiJIMcwQompk7e7zATak5F4lAHJ3+l1FvGQ05x9xr7DnNhfd/ViQaFf4Zl4CEJSGiAIOIPfadhYR7tzeKkWG7J09msIqhOb3XpwKsTb5YglMZBjU9BSHpRERepMWDyIHIB6ARXFcx2gBE+99L9l4CFVEerjIF0N0XooP3Qvzg5u4MCyt8zMDDrTIwOWiQ95aJIsIq1wBpNcRXJbEdCg2T6+gA4L0TxHum2eq7LEGAXw4BBai7GAKHUCdH3qXgAdiJQ7zNmOfi5PhfZNNXt100P/nMtcnYM6KTov4QlHJeD6fbtLkKGb1uibQmaUOomC8BW7DOkiy5OU6h+57xXhjR6bB2UnfNXWqLOonPJddjE3aN94hBF+iafQj5Tjvr6Zqxbvwm7dx5CPBPFlLETcNWlY9GtqoodjSmEnbXwdD4oCycXVZNRDEkRxUAA4Y6wAIEcnDlbMoUiyWJJmWQBe0iDsHA+LiKAIDUIBBDo4FJY344DB/BPP/85TrU0oSPdgfKyctR0q8aVV0zE/sOHcKa5EV0SZYjFomhob8OWzZvwwH334847qWcAACAASURBVNPXTkeKvKY0gEDggdQonQEIQQiAm7D5HXiHPTGABkG1R2CIQA+ZGoTnqZAWSA3cns1g477NWLF5FY6dPIGaXlUYPXYY6gb1RlmXGBAjvUNerAPLVfRI71VTrRNNSvKbD/2e07/QJQrK97j2e1jWLafs24kGb0qO5zxETJhCEH0WzK3J8Vtf5xTkiWRzkAR8pRqwPnZrLQRSVDsQI0mCQYAA6ZKqyZYVqlSMif5N0rQCCE7JpMBhYcEfnoc6zw4mzRTM2JBZoCNJj0CAC2yQ6dEj5JW1la7GBGin1TDZqu3oHuHEG5RCBDtrYkdKa9bUcD2PtvyF1+0So6ZCPMVLy6fAw+2+ZDI2w4YI857bnGBeL1PbYhx+BMXv9+45hvVL8k/nXJrEeJldxNpYijxrrgHOk4w64uPHINVJ79wtqH0mX518jk5XDIjG0ZYroOFMB3btOIbNG7eipaEFFw8eicnjLscFAwYhGckjzkBACBRcT4S7IhH+PAEEYvYijEo0no/k0ZEoYO/JI3h3AdViiOOROXNYg0Apk8kEQFUUTra1Ys/Rw1i5cT1WLl+Bebfcin69+6D/wAFYs3492jMdmHH19SivKMfB+hP4h3/4Bzzwhftx/acmIpbrQCSfkVeXGBdFUohlI9TUmizH0bJgGoSwknEQQCtQpdhUQYyCEVOB2kRFSkVQLaYcIWdO4FDDCWzfuQNbtm9CQ9MJ9OrbDf0G9kHP/rXo3qMrkuUJRBOUU56iPMgMQxknAw6gxDCFz1Pwy8rXJjSaNw1A69OFT1jGLTG3sJKdV+8EdMI84qKF+cZF1Hi7wu2ZjPjVhqktFtkVjYzBa1b2eJihhZyLGwMwkzZ0xSYMD4DAWggTI2OQ6lpbDgsTgLSobyKwhgtIVSijkYRxASh8z3qCXN7A+ThCAOwwB87wrtIDuX/F1T09mLJpm/V3BV3Tl8bE4EvXjdHHE+RchWX3IrYu3N0JAlO8tkMthwuyygqU9k/DjchpnlXH2tGHNBcJUwBhkThyuSiy2Qja2tI4fvw09u09hN07D6D5TAf61vbGhIsvxWWjL0bXVCVipNVjMkPaPaGlt7eXzHvnDSCQSo8i9EhxVWAfBKqQtldqEKia4yNzZqOipZkHRaFJ5OTUHouiMZLH7x77M4iffeGuz6JrRQUa0h3411//G2q7dcc9t9yGZFkZthzcg5/887/gO998BGMHjwCorgOFbhgemmZrquL/KUBQw7KcekKeDocGwW6MM05molGkc+0429qIfQc+xs5dO3Hg6EEu+lTeJYnqnl1Q278banvXoKIqiWQ8hvLyFBKJBGt5iKHaPDUMEwsRj6ztSxBs4lSPe1NG92iF2i3MHEpTXRPhFNJeuA0M6/hqSZRKMtTn5JPlUcxIrYFznMrGLFSHQssnqjJoNnaJkItCJAtRrqbIWgjHGquYamVWsPsmQlYcakmqThkK7Vp+DlOVhKloZwz7yoSf4q+KMtEQ7YkX2WDZ3ECaCyOTV0V95K6rtSd/B9IahThWgsEE+UBKgm5Oey5goERmVWOzTrwta2iJc8P5AwyPzQSdACcIdio1NZNPg/v98Pc73F113p/wG2E0P8qIIseJCLlYYhYazJNXVhc4Ka9PW0sL2jvSaGvL4fDhehw7fgpHj5xE/ckzqIhVYPigYfjUhWMwbEAdarp0tdJvJ+OUUVX6HJA5QpoXRJ8UyXM+AUKuwD4CAiDkkU6AAQIlSrqoIoFvzZmFytYWCyBQsaa2eBSb9u/Fv/zrL3HlhMsx7sIx6JoqR68B/fCzn/8cwwcNxm2z5iCSTGDl1o144rHH8Z0Hv4UL+wxEknQQheKQSVrSvyqAIIl3WJ9eI0Dgtqhmd4x9FMiIkMlnuQjN8TOnsO/wAew/fACNbY1oy3egEMsjlooikYwjnogjHqcwl4iVTVLxCCGsBrxUoQWgIERTZ3DhL6hA10H78QEIprak82v4kYX4Qpp7LHdLzTYuZhZkfkJucjueqWgjVQaYE5VYiVNk28zZdXW6ZGTKSOGkdAHHY8+/uOyw+J0Yb8Czp8il4TLZa1T8S/aTMixfqXUNHfoccKupT9/ZEjJxnYciphnkzjJD8aY8umyrtkBfJgEKXavkWkc2ZAY5mh7rE0SDEJKvynPlu8qOEZneDt5v8SoLoOxemOBjEoKPyNfDmFhqoVmzRZtFNYXoZ3kg3ZHmDMXZ9hyy7QVUlleipms3DBs0FEMHD0HfHrXoVlbGCcBkxLME/QSETWM6J4AwBxf2H4hEWkgkwr4nNAjCOYLU4wIgfKz5IHxz1iw2MSS4mFMM6WgUh86cwb8/+RinVh04oA759jR61dTgG1/7Gn71i19widi6uoHIx6I4fPok9u7ZjcnjxuMzN87C6GFDKdWDtck0JV2GakmV4YhlYjiFm2+YgZG9BggGyQtPiyUTOwW83Oq18PfBLFsI+5L5frFzlIdalEMVSfsaJdQnCtMSoMgij45sBvVnz+D46VM423QWzW3NaO1oRVt7G9IZivyQB4JVu+HuNkES7yOufiMkL6HE5FyXoZlJyO2wQkTDfldyP7XLzUSdM3CGeHgNwsDC4MSjiFnIPRVAz/Vb7XwJLYUi+m4woFiXvY/ibEp/BTdAcHlLW716id0cRWGYY3BttN1FyGga8j/g3XNdXJ04Ft/pYPqAECdCvGpACN6aCg/iYG20FyUSiype86ZWDjAg2yx1Ck0Mj+iUva6lnWlNa+UFEJxjM8+hJB02cnxvcMZGCe0bR/8+m1x0Uvhj997ZjQc1f3DBMNm3CDlWnkMCIFCUTmV5BbpUVaKsrAxViXL0rqlFr569UNO1GhVl5YjHYoixlk4EAmgtsJmOTHyiD5t7smOximIoUBRDFHlOtbxaRDG4Uy3rUQzzbiaAIFItkwqClY1salZ2LaFByCaAPZQHYcF8jK5I4Bs334jKthbEaRyxOLKRGN5dvQa//OMfUd69Bl/40hdxYO9erFm+HN/8+jfw4bq1OH26HtloDO1kk4/mkelow4aVq/DA5+7FtZdfgbjMG67GQDscownn82iuqMChVBkeW/UBdhw8jRnXz8aFvesYcolCUWJRSnsSm09GZ0i5FxplZGhSpVKehxDUh8k92RZleB05KnIhrEIOmVwOmWwWWZmBUfQnY03D9MEhqeYPlIlAmIeJNQonNn8nr/BwyzEC6f8SZq3cMwgkxYQeZrgP+O0QknSIbbNeLZUW19Q9ve8LcVzJmYRjnIndmt1XBFwJsXvs6xTifS3HSMk1c9Bz+odSHPuugKFZkSFR+YTwthbxehGSfS6Pn8OwETCW6DDciZUNkXDYqQ/F9yb1vCBPNttlGm06UyWPQfGgLP4YdtFDClJeXMMW+MwaLfd3OqRw4nOKMgAoco8c+KlgGv2XjFD6ozBgStwlFe0i+qNzmeN8CMzfC0Ca0hCUl2H5urV44bnH8JlZJcIcgwKEdFz4IHAthooEHrhJAIQEM/soMpEYjjc3YunGjdi4fTvu/vxnsWfXbryx+CV8+8EHUZGMI5GIo43DIXOIJKJoqD+FP/37r3HnTTMwZdx4ARC00A86SGTPJCmZAMLhVBn+TADhUGmAEPa8dOZ947Yp1ZGXrTUEITS1r6QmcpijE1V8n8LdbAYhJT9x/pKJf+fcFkIucScIrQKIAif6PkFAhN5IWF5/TsmeDKNnbYFrXuHYqtCwBYknt2UPOh+i6I1pSY1Enmyd/jDEMcPQ81CRPL67bL+gq9dDfGa9qgCCpTEwAYSwh0QfiFGFLV7QV7/UfQ0jHNlmIH1ngzG6Tq1f0Y6bQaepbSWkhO03ABmw9zfsIZRf2iAlSAP6zXLOhmm6YujWr8I6Z7oAAgMzAVypEKLyV1MAYdm6tXjxkwIIDxJAaG1BSgKEbDyOjkQc2w4fwuPPP4977vs89u3eg0Xzn8fQfn2xddMmHmgbpWFGHvFkHFdMGI/6w0dwz6w5uHz0xVxtytZgC495KmZEknOrBhC2kwbhBm8NQtiD1Jn3vQCCkKBMTzGBL9UvtUEeIA4mJTkEh7AY/XpDliQOYj8tutgizW+YJywzjjpczr17CuoIWdyCMyVumLmEeZfC7s75iZiZuiUdaB34rjNfKf+9s06dlJQ9tLvmSIiQIaQiM0M41BklASPAPFz8N/hWuLQoQT5kuS1cyUG7WQlu6QfuM+2iAG6K4Bgav+u/vSWnQw7nQQC2VyO+/iesPQg/SAa2QTm+bD7o67zunVg7P41PkHNT6h2hRbbXygKKnhMrBRCUBqEgNAhl5Vi6bg0WEEA4HyYGS4PAJoY4Hrz5JnQhgJAjDUIEmUQM7QQQDh7AT377a4wcfSHO1Nfj5KHD+Pu/uw+RTIYJSitlWExQjD/Q3tyMt196BX932224eMhwJKg4lGZXYWZboPrWBbQxQChnE8P2Q6dx838DgOC+7HZsrNhsPkDyhBmvXIB7GOYSBWEuJUFPIDdyqSALpNnwkEJ8CVA4sCbmFNaGHWZlS4EgkuBNGyl236sX0885U6FljjP36ZZC7Zp1TkgqeJqpF5GVMegjtFh2L1aLGtN0t0V21nCrW3qtPFYi6BT4PS4WFwuXS6KoAw+1u5irnoRXcTOdeYQarieQoGy48Ih8CNmD/Tqr9OVY1d/DbWD4rgPSvqJhBPhO7Lc0kwSdR6fMGvSRGJAb/JuFARNAIJuc0iCIEPJ0JMYA4b21q7Do+cfPA0CI5OwoBh0gtLRwvnQCCLl4FK2xKHYcPoAf/PQnqO5Rg/ZmYYL43ne+i541NZz28VDDGWzZvRPt6Xbs/3gPju3bh6/93X0Y2qc/4jk9wYWqGljgErBtZRU4kizDE2vWYduhM7h52myM7F2HiMEHwUKEAY9VwDPhaO2T1iCYhq7GaVY1C91F0PNK7bNXhCnZTYl1Y0c9Qyf+/fq/oboNhCNcY7RbV5JGZ3a19IEJPgO5RGE+MHTNO1piMXxxUFGbnQFGmh+eaz7msYlzGObRAYWfFkS17K9BUG+KEE7rff5x58+Gl/KMtslWE4eZvfldHmFRllTp+u5xVsL06rkM7JgeHOAZ6ZRhkdRu2Jqvzu9BsHn6n0HTG0HvVNgcMgpUBBu7fMsdhaRrttTfXZMgjbsC3NZa6yaGfAHpKAGEMry7ZiUWv/BE5wGCYDiUBVALcySAUB7HA6xBaEYZ5WGPAjmKZIhHsff4EY5imHr9dTi8fz92bN6CO265FdUVlWw53Lr3Yzz/0iKcOXMa3bpW4tpJk3DluPHoEk8hZmkQBIsXhYiEN39bqpwBwpNrN2Db4TO4qQRACLrJ1maFrOboCUBKpSk12JBDHRbNN8PrO6/8X17vUzw55fEP/kQQ8fJgKiHxBW8/OG8pQtQhmVKoMXXiZSET+xMpv6YVPihqiX6gS2buhgxqcs5R4Fst09lTUd17bU5mHwQ7S5zf3Pj3lsZQvK0iZry/lZoMX2CrMsjZ2gNrZqEJhP9MOIKqM8jWo2m3ql61fe4nStJWj6vGsUrnCBCsiAsPIMaREucA0oKsQRgtlr4FQclhWJOS0JT5nyP9DeP7bpCgnznp8Cv6Uq6/LidFCqOkKIayFN5Zs+pcAYJwciCAkElSmOMhzqQ4ujyBByiKobUFZTQa8oYH5XiOcDW3XEzEQlPVxlQshkg2J4pGkIqTkjnE48hkO/iQxAnd5OlP6USlmRgU/WATQzLFAOGpDzZi++EG3DhtFkb2GSg1CORcIyVo9lsIJsNYx1RuXBhWGW6rybs33JE1HQ59fDzbcxwwFYUKR9MISZ2bdGFct0CSqetLSjYUbvB2AwHPR9g91t8XQaEhKULQDi3pgTOzW1/5rwftd4A4d+3wkR+FDTz950OFmcIlwpFmRdm0wJml+qH5Ei3xO/wuTYbjQvl9G3QjtPfCuVF0ogOhpvd1Mg14tr1WmGPXOutLoS+H5x7awdUW05Q+VUXmLdUGv6idczU+j7mKdv3PapBNKHXMzsc6lR6DK1RTkxZ0fwQriZsFEFidZVMGqUEgEEv+PhTmmE0l8e7qlVj84pPnokFwAYTjIsxxDEUxSICQ1JAoCZc50iZQqAxXeRNhilxMRErpVOlRSCXKPUlUmGOmzlEM6mKLDab3MvkC2hIpHGWAsAHbj57FjdNmY4Q0MbBMocrVcgUse9nNUo59ePTCGUEOTGffEZc7+NcKvHhf5GKA0BkhPqg60ez1HHw+pd50MAXpSCccgEIsWCDiZKttO9dy8PlS+58AlLIGIHC0M3TWd04BJTfHnbFC0opbN/WXp9zxxiTMpdbOlij9QU7wPXCICR7pnzVKUdSwffyCZGH0yAsReLjSNOaDXXyvhAfTdO+Vlz/RuQIE3zOoQ1q3YCDJv2J+uhZFVES1HRXpnHgJSecVIJTUdASZrfMAlPzCQMB1ulvSD0EmTRKcVVQQVp465McnUjALcSITiyGXTOIdMjG86GNiuH3GHIzqZ86DIDi00CBkkxHsOX6wCCBQ5nOlthQbI+NoCSDwf5LOS+coVnJqWd6ED7MkEFb2E7vgCpsY8gW0EkBIlOGptRuw83gjphFA6FPHVaqE0lEkTOK1cVwy9ykMfGPP24syH55IjSulSpVwyHxxxU/zNJESF94dSkfeweGOLPkT+DtW8VjVmnYGhfisZNEaeFRqNTdjYFw+ixAmHKyzh8A+151twf+7TilqfQ+ImxmaC3qJLCnFjXEOlVACupNVOY+XebBhTTfi/LoGJTMbKhBR1JPrnBf/3j0Kr/TP/vvIWM+X84f1MHJBH/f0BXE3gKLzYGLgCVn/5+pDFBHS19M6AbJyLaWH5lo89L88pQ52rY9cK8UC3TshwLPvQffZmNLFt8Jney3dnn0G7HE777cHSGWgpL6RKeQZOdmFvSKy3DO9x+WeY1HkkmRiUABhOu6bN48KvvOaRJzlnoMAhAKySTgAwoNSg0CZFAU7F4dNz3AmMhvKn0sNgtNOLhyIVPIdvsO88lpFNgIo+QLak2U4lizHk2vWY7sCCH0pk6KYlEKN1pEPQaR4PYPd45BvFRCNxZDJZFDfeIa/7dmtBlQCOpfNslOTbu8TAFpcl2ykgPZogVNuOuyRVKQnRkVpnIWTrEtnnRX/BaCdi5QECOZMaud890KuoicwUKkrDS+U2k+rTkKYcQQ4JAKYip4/MYBQYlsFTfZmnyqKwf+w66snoYBrQbkYvEyopi+jKPyu1XbwJ8OcOSHow9sQMopBZxgWfXIAXkFA2Jhi0SmPEUlTpvO3qjH/O+c9T3uB1T4WvxuMSllHtTPDOVcBwCMc0SJLrCV21DLUgIooKETZAuk/i8blcojI1P82zrMd2t3gygwQ/Bl00DP4Sb3nztURCCC4BsPZRC2AQH8RoEElSaPzTxqEfIo0CKux+EWKYigBEObNmI0LWYMgTAEqiyHJ9bypshKh0CAcEBqEygQ4D0JLM5IsFdsn0aaRcnpyvBxeZRkQbMQjzAOCxQtGKAGCpfsnc0Ue7clynEhW4gkGCGdxw7RZGNZ7ABWatspnKjODnzMIb4RLMheE5/xuPanFeE6RKNbv+gg79+zElZ+agLq+fdmcIlJZywyFXISmwMCgoakRx+pP4XTzWbS0tLL/hoMIW2PXkbi8MNYk/CfDxLKk3UOYitQT1gnStJr+0l+45CCe7ZUgdAxa/ZcnNH22yLd0HvT3tA9x3qwhew/cWwoVjM/KUBqiW9vkZ1gOE1JkVXC4RFdOQug/OMEAg2+guBl29I0pTbOiB9Ye6vZv/yEJGhR8SKbFlMDS3JmGPX1Ho0hAaTghmIf7EQ6EnX9MpgtJ3m1cqnXBe8n+RGI0VP8nlUqhumtX9OnRE72690B1ogyRTA7xWBz5vFhnpS1V3+sj/m8PEJiuxyy+agIIOfJBCAQQbp6NUZRqOS2rPRFIUF79khFxXQAHQIjjgRuno6q1BUmZoZ+Pm/rOYOtkImDZSezttImDdrSs/PL0Xh75fB7tiQoclwDhoxNnMfWGGRjepz9LK+K8CRODIIKKfBj08/Jw6vdAVzkHw+jBLhABBNYW5HJYvu1DLFuzEr2ru+Gay6/E0LqBKIsnUCgIn4xsPoPjZ+uxaftW7D9yEE3NTYjF4+hS1QXxmC1hFY2V+lDrzcRZrag/2SXTEdX5sYUpBdDE/JhVuwACldQNom8R9NWwmr4ESPUZlFAVJ1Dx20NmGD75ZA2kM9imW2/JpF8Bv/KerTfjMTGNUnOX+rqAIyoiuY7vWK9gBAjhTAwCzFNoVrD9VkKLb0IebbRugKB6Mtrhi4YRLPtHsNGLW1Xq8dLOidvsD54VM/bfZNNJEalgg+6FsQ+P6TlAgpZ22V4RAeLy2Tza2zuQTWdRmSjHBXVDMHbYSFw4dARSiTIuTCdAgTAbmQACt1lEf/5zaxDEdMy320mjFYNTKdJtDYJqg6IYcmUpvEdRDKxBKJFq+TYCCP3qkCSAEBXgQOTnF7IZqSbo35lEFLuP78O7C0mDEMcD06ehqrUZ8UiUnQwtlmyFDAbwlvY8xRbSYOJBJoa2ZAUOx8vxx7XrsPbYCQwYPgo9K7qhvbWVrw2p6/lQqPXxvyHWG8Evd4hGWfnCiljEkwnsO3kU+w8fQjSbQ/8e3XH1ZVfgkmEjWLvQns9j24GdWLFqGVpbz2L4wL647NKxqOvfn5G0bmMiSYUIs/BmFiMXB4QuTJ61LbY2xq6sZyLmrB3QNA7u88etq+IfqoAQh556PFK97afBofFyiWqDpCnaJmnP1YtGVARjtH8vyl1LqVUui36VjOORn4vs3hJkyp9ZSVBYajfPVhE877lqYwp4bFT99oCvG8OmSjFOmomuEQrST0lJ3UCvqH29D5H1U2FFeV4dzFucsdCP9omdWdQJaO02bYctm3nI3zImthvzBR5WFtPiyWutOKZk3c+S3NvLf8imo254EMRvQV5hy0NNCFHezJLvZmDtjKQ757J5PEBZgpxrFuVZY1p/rAEHdx3G8Y/rEc/FMO6ScZhy2STUduuOWE46fOfJJGHy31AOn504V6Hn8kl+UFrUUfvvPLN8oJlHUPoB1oxZkX3C8buDIg3LUnh/7Sq89MITuNPbxDAf826ehZH9BiCZJiarAQRJaGMMEESmxN3H91oA4cHp01DZ2sxRCsKmJHWgjpwC57JBYnGoXSLiralK7Iun8Ls1H2D54SPIlVUhgbgHIDc7UHltpaX5CLzX4eZFM8lI561kNIJYNovqeAJXjv0URlwwFNt2bcPqdSvRs7Yrrp10GS4ZORzdq6uQ5LSnAinbzFpoRXTCrX7HV18jtuFG6f223qZg7GZ7jEKoNkMwLyipCdm1VBJb51tOYm79TiqDnG2LMRMoEsBIZwni735rwKnK5bcC0AniIsKkfL4Wd7HoUWzQl9m4GGXeo9y5Rwca47XfYObsMWyuJheaGYdjAnQ6KDW6Wn37b06w5RhiwNA8NUv39Cymps6T6wVxv0sRWwdrLwlYeDWoH1dzepdC82Y4F0WRFPKlIo2r7hSsj03Nw/kzSRx8qJcYkz5um244L46amuVLrp9TqQW2f+R3w5zDMvUp1ooM1aR1K3BVQ2RjyLUBp482Y9Paj3D84ElcOOQi3Dh1OvrU1CKSziDGwtJ/ZYAQhCFZu+Wkf5EoAwQ6q9ECVXmUYqYGEJZ+IPIg3DnL0wchKECIchKkPSdIg/AcxlTE8dCNNzBAiHBFQXFIzEMNMknvd9hprxBBc6oKe5Mp/Hb9eqw+ehzlvfshHq8wfCjSwXyyjy55B+yJNqgAJMj8ke5Ay+l6TlPdr18PnDpxEH1qqjBv1o24YHB/xAmVgS6K8DtldqqkWZbQgjuBBRyd83C5WKMDIHDFTSVXO4mD8N+S0KUEPSY1IYXCCendTWAiyOeN/vHGqXDUjPL1CDRZZ3+8rhpAUGo8Jo7+EMGLd9uE2AiCzAO1tCAl56GYj7mwjp8GwU+74+iaz5zzrPnhC1sN7tS9iBNt/7/YebHCYaJKuAVNfaykc2bavJcmhiUdoUsLZDx1S9r3QFlWP649YmlNPtyGCSA4fqhDJzcTFZFZ7ke55XnvsT8AFD5fwfwl1FmxFCya8OdtEfIClEwc5F2jSDZtdtpy2ZpRchlNIhZJoe1UBmuXbsS+7Udw5bhJuGHyVHRNJhAj7/z/9gDBTCwoCuT8AYS+/ZHMUG4FLw2CCyBUxvHQ9OtR1dKMSEE40IkDQ//nzyAC0XH5EsVwktmjKdkFe5Nl+Pe1a7H25ClU9h2IslSlMdo8uIpMdBLOpUp8E7ZELftIU14IsqHlMmiqr0e6sQnxQjv61VbiMzOnY/wlF6BQaGf1EEuz4k652TVfMjORCEABfRZfaQFsYukkuiT9ewMEKX3bB8LYmzAxeAMEDoPVpUoPamTBlBBM2E25BcEXRM1Kw6F5s5dSIojTrjEG+Q/dVmzRQT/OyhMufRKLGKBBihXdmKU6m7kGu4FiXYRUpx6+WyWFRhcwYA2Y+MQRAulYuGDjcbyl1lqp/CU4MN4LeYeCyLr8vUe+CLW2JtbudmmxQ/dK7YZprxT1MgAEyzdLZ/AKdsm2fPbG9kNRjNx5iHTaooCY8oz31sKEte/bZ0LxDCv6x7rr5BxF5erKEM3FcOZEM1a8uwmNx1ox76bbMH7ECMRyORHvVmSb/69iYujEvVB80xcgJGFrEDx9EEiDMAMX9K1DkqIYiLmTfUIxJgqpYxODAAi7T+zDe1KD8MD069GltYkzIWokUg2v8zMr+pLyMBTQnKzE3kQFfrliBdYcO4FodXdUJAggFD+WGjzEKEJJVt402LtH9huIIkFmg3QHOpqbUJlKIdt8BlMnjsPdc6ehshzI5Nv4YohHcUkn3C6WNMXvmbGeh0cBFNWUtwbB2ZllE/NxOKPxExn0socXijQI3gxPeI8HLc5FZgAAIABJREFUk4gsZ05t2MIrWq6ftd6a46MHwRV8WO2P0HgoU5VQQesWY3/JjodUCiB4SceuLS/lYxAKIFj+Fzmn2UqZmDzOmYg8FQBPN93xeskkWMVYKQjrNnfIDM+tBTK8ymw0wPXIS4HH1JsbfFiBVhKSBb9+Zilb3GvnWvC4HT8Sqgq3KdFtYnOPX51X+wyIMbhpic5s1Z4xxvNJRx9UCyTm4+QZYmzSYG5NVgAEFCjTDglLKezcehLvvbIKlwy6GJ+fNRuV8ThipJn9G0AoOq7+GoQklq5bhcXPk4mhkwBBOTdkI1Fk4hENICRgA4TOX+7iS2i6wXlkI3m0JCuxP1GB36xcjXXHT6G8Wy1ShDA9ug8Xqx+MeFgM01KPBuPGNMTmTAZnmxoZIFTFYxg+eDAy+SxOHzyAz82bi8vHDQPQCkSz8lLQWqiL5AQIQlnr/pkAFL6CarAhO95yECPJIEzL7jAxlOiHjSZKg1A0YEtt4tpbg0SlJMOgkzYcL4qQsQGC7ltRWgopklRVdU0FNihCRNoo3Gp676UpdZdMIMPNTEprw5glBF0rZRJw2c2Fucub0wrvH2FPtiRteRntfwuu7gBmnSQjSiK22hJ2K+f5Ze6lM2XvzswAofheuW35ZqOA106bAIK603JsJiBmaRBc87PdbEscLV3TIF4T59JbaxUc8JQmKo7Vlg7tjnOokIgclUBE5F9GACGOXDSDXCGCpoYUlixahWRLEl+5bR76k8Pi3wCCcfGdAIGCDWSKPssHoRMAgeWgWMzBeogUZCNAB0cxfIyli+bjkrIEvjHtelS1k5NiOqClVkt+ZITn5kNGklg2CjQkynE4WYk/r1qHPaebMeWq6zGgprfZ1idt4cF5oRnRl/o+aCgQbVS6kMOWvbuwbOUKlEfjuOzisRg9ejRefu9NtJ+txze++FkMH9gdEXSA6iMQmraySxoQkEnSCD7X8G8KCd2OjhBSSDGRFZUeiRAVeTK5AIdyLBRkqoigW/n/S+emoLUKug9eR86em4w6sZCl4O66FOUAiBqDsxwb7S8EhHOsUSc5oNWpW+NSfGbpJ6XMa+EBghTPtT3i9SpxhGx4J80K8l1d2lZOt2JtFUALvj5FcNlXgxB8L3T/npL+HFYouM14wzFU5/7Zfdl3TV9mgevMDrwO/uqxN2YKZ/+0WDsiVzmA1qUknTQANqny0T6jToTWVCW+U+AASCAXaUeukEM+XY0lC9fi1O4mfPnOOzCqbiASeZGxx6lF+JuJQQcIRIZi5wcgRFGgHM6uu5qNAdlkFLuO78Wyhc/hklQCX59+A6o6mhHJtQcACOqUhXcezEciSMdiOFNegX2I4/H3V6E5HcOM6XPRr7pHkdbQtpOFONkeNkdv/B/w8pDgEo8ywFm6cS02fLgR40ePxfgxY5FFAf/x4lPIZ5rwwJfuxoi6WkSR0/LYqxTUDjIhMLZvXvkQIICmYi2VmUgrG73wHRDvmAGCclKUDXr5Dvj5IGgGXaGy9gASksGYf2teAzVVNVM9RJItBuoFJfUqM4KmZFKMVhFVBRCoRxGdoaSzMBXcAjBIR9il2VG0pImBI2kC9KOYuknj4AsQtJBnrR1hXhCPrrFhkCd9QIKeWp0hKuddbsPPSTFABwwQGBt6mIUs3wcLPgr/CmliCtCFvrrW6w6AoPl9FEdEOGmo7rBZklHre+HjdWXd7RAk1NG3KzS6aFzuM8iTEPMSZkB6hPZAaBA6kM9nke/ogncWrsOxnc340p23Y/SQIUhQEjny1CfTrWhB+HCJwxB8O/6LvRkIIFhRDAFNDKwaJIBAdll5nWmxySehkIxhx4m9WLroOYxJxfH1G29gDUK0kAmwtDpZlkUZAnxFr2RjCbTFy3AwHsWqQ4fxxqZtGDZ0DK6dOBUpPkTFDQkFQpjTbcbXAYfo+RqPIxZlDcyug/uQyWYxtG4QysvK0NDejN8veA7RfAsevP8eDOpTLQGCxboM2eLEOMMQeb85WEzOkwk7CW8QgMBMQKEOowakhJMi2SKL9rT0/ggiGZQYON9zAgQbIQgiY25X8DN5RxjA2HnSSWByeh8EHFuAOZA5RJ+naVX8pF6/86D/XjAnpwra7+zptmhrpSU4KF4XsTaiuFPQ/XO+qRioDWKL11sHFOK3thjh7tUCKx6Or5Yt3gJKogVjdsZAi63OkXbatBwhTvAk9DNhK67wnKX/hz0kD2HAM/OHxX9Lz8oADrgnqzsFIPX+bZ5gkW1pXiBTgwAIeRTSXbBkgQ0QxgwdigSloqestBIgqHTFfwMIdhSDSYOQTSWwbN1qGeYYAiCQxC48WSUeU0WWEjF8dPJjvPPSixhVUYav3DwN5R0tMue8301wAQTr9dJMPBqNoS0L1KfzWHP8EJZt24lIZXdcN+UGDOhZBzgcJOV4RTKwcE9IDYKDAfr0xAALBXRkM4gn4khE4yyhNKbb8fuFzyCbPotvfPlujBjYA4lYBFkqjS1lEorgKHasOh8Awb6cToBQPBk34VWhiSbyIiowijZKkXvWRHg5KRqxQDFJdCq6VQWLAEzGBVi8nBSl+4B5HlLiVV7tHIwqw60E4LDVDUKyDDCuALE0boAgFC3OO1RKu6Qz7CAXROy9O8zRx8RAqkyXrt3pzOf2nqF/0w3p3BPESdHZtsnx1+7bcvaztDVFXzukU1vZZReLM9yikpPTTYaCmUqwwA6T2l3VatS4QY/dgZmmqvdtgGcGZX4mpFJmFC/w6Pw5l+srphAkGOggmRENOSjGkYukheZSAwhf/MztuGToUMSzfwMIpsPl1iBwHgT6LyoSJZ0DQCC+azMhjkuNFlBIRLH55H689cbLqGprx+WD+yOZTfvhTT/2KQkci2GudwuIxxNIZ/I42dSCHQ2nUda9FhPGTcQlQ0cjQbYpD7ISdUla/qTHyJU8PyN2RUAqiFe03ogV3R+JoCnbgd8veAbt7afxwN9/DhcM7I4kRZDkCsgSYdCyU9p4ShGOcOM1T8SbJBujGJRzomViMB5LS0VvESTTaxQZQyDU4FQpaIRzbCYPacF4JRiRBWB8wwTlWBwOZnoUA4eWKvOI04bOrFj9jtUE9h4InwtpXhEu9UIqtsCS2wbusSg+bFIABI2ZGXiBn4TvzVi8wKGzDogfA4kUoqD/ubexKKJBy4ogAELnIAIb4rRMmn7zt2dp+5c41lTTmOhqf8d36g4QfLL2wEuy93KANt9lW2NANNi19m6A4E/YLB8afXVFH862AzQl9tRtStHuqlmj7+hZ6hZ1+qVoP+VGkOfbOqRkYkgiH+kQ8NkBEOZh7LDhiGUIIFAWYGWiUFqWv5kYKPqP9po82s4zQHBqEGLxCHLxAva0nsV7K5fj5KGDiLd3IBEBskzPxaZ07pEexo42xM+I2JSlYqioSKH30MG4aMRoDOzaGxX5JE86zaWei3AFp4cON5pwmRAEsQvXgxolX4doBE0ZARDS6dN48Ot/h8H9uiFWyCEaiQmAYJXBLp7gefVBCLBpls1YSsfuGArVhF6NzE/S4CgGAxhgRuwaUzCA4DURkV9AnRP3uNicZklsAiC4PdSt+UVFsiv6xpLy1ICt4j5idZj9yIkEysvha2IosJpVf0ws1S/MMdBYrE4MJga27XofGq4aZ5lnxHsKVBStvdSuhDUxOBm6NOk4tDoBDrU0NQheZJ843RnXPVFmax4+GD6lPcwDsjJbaloCZV5w+JvIz9XSe4QcmsCRlyhBtn6i27bNX+0VrUUJeujShilzm2mCnnSqSGMr1NROswCZGuOsQciTBsEAEC4dPgLRdOZvAMG0+DLVMptfNIBAmaU41XIqwXkQXnrxyeIwx7Z8rvD66k340Z+ex53TZuCCfnVgqVsDXVyPW9rhYvEoVxpsjUdwurERHe1tiGSJmdHPBbNUDDOQ6d/BAdQRViDDIuXMKhKxKMoSUSQrKlAWTaKCdAd5EbJBjn7OTDXsooJoyDIQgpi7ka5YdRUD7CTMMldEEDrE1S7t6le8VjHgbLYVf3r+GWSzZ/HNb3yBAQIlUCJiJUIAKc+4mRJ7A4RiLYzfEGmPS/lr6MyT2nImSnK2fr4AgthFWwtpqgfg0FD4OM4pgudYTbm2CiCIU2ivBQM5mR67CCBILYE1RE3Vb7sO2kTWAlQ8AJkAy7AxugTmlKhlEJ31gthnNR9910V9DSdr09fSqFjWG5CNCmKt9yIZiJ+krxi16ygK5mqlw7EAlFgbDw0Cp4d1OeWx1C6Ai3UG5FCpSwZvXo+budl81/qC7xbzSCfIUwvOP9XX1y9vlKccIcZp9vEQZ0fXIDhlbmejzpz88lvD3PxogYPGqb23ltNZt0W9azgivt0UCRi8cS7vGgIMDGDiKEQozJHyx3TBO4s24OjOJnzpjttwKWkQOsgka2M824fBs7aR7/j+q7yQ54CDTgCE9nyu8BoBhMdewGem3szVHNnyLZO50X7FKNxRqoJpwSjLIt8cS20qVar8IxmUZ/1aZ/JyuTVVXJgNYFZB2Qe1e68InmpSJ5QswYTWaOgqYPsqihk7M0MKfB1hx8MSpMiaIhdWolYswhtBLlnAmXQzHn/uKeRzLfjm1+/DsLruQLYD2VyO6wBwPLbMNe5YL5NkYfdmYjthlrv4Xc0Zi86DVbfA0KojyUoJBQv7IKiiMMZFFB9be84oTetQP4MlCxB57ZBN7ARAEDkLhO+AGriQrnSmTZofGopbSpdpkhyOak7nMslcJfM0g2hxmdVj11Sgn9nGNIFFJECQQ9U1LCoe371cai3ZNGY6JYpIa9oU+7UgJ128LXxLZA4Iz47szWVjTISSMRW/TBpEk0cRV5c1RPIIumAaq4EeKXW53q0V5WFn17T2wzU8y7zFYNE9do0ylbgHtsOxPT4xfEGDjADBTq+q0Rh1vlwOnG5ApExxASiC7Xuk7oA3sA3QnOMVPWeEAnnuNoTZSAB2AQgJIFTjbQkQvnL7LRg79ALEOgri91LzqJKhMc0NJK2GHf1/nvcdAIGTz5G0GkCD0J7PF15b/SEDhLum3oyRCiBI8SIejYm0y3kqvJJHjCo22seR/2apC5mLum+BScevELO6AMEWmh0rZGeeh0lrypKWSl5MZ9+UStT5un3j6W+sAXAk1zsfAKEJjz/3tBMg5NJcGpoiSfJU48KQWS+4jTXY+pre4oulSeVOu6gM4zOtrwSL+vkwshatmmPewxZhsWl1801MzZKibZOY87VSqlJJhklbI1X3DqaqhznKRj0BgkyNbQrlU+OxNDGlImx0gMA1TiTh11S+4roJ0KrU2vwzOXgLIGj7Q78j4Fzq/vA2aGGC1ngtJqOAs+jI63rRiueC4gkJsrPCUOnaYXXvi3vi9D5mg7dHhI/ZIU+FpFoBN9JB22bc9pCcuf/sBSi6j8XTKHERbSBiAwN6vYQGIeLtgi0prOc+286PJUCUdQ6kRlmLmgrLcE3vEyt3r6XJ/8QBEKJ5FPKxEgBBOAIzUGZhQgALI4n6bwQaLIAg6wAxF3cBhMUvPFlc7tkPICRiMaHqzlOpZZKXJZOUlEHEfSvxRcnZ6tIYwIKAFBa5C8O6BPGzpXj9aLsJnvpdyRK1hs4FDSy+NEwShY+m8EHjP4WNmipcBqGD4qAKyVPcPaVBsAHCIw98EYP7VaOQ6eCEIFTNjA58Lu8KIfVVpYdZWe93zamWpWVdU+EW8XbtUqq1M/aiAAJrEYof/QSVCgBQ/Zuy3zmqXXpwMx4jAwQlsXnkQbAAAnnoC+2H3qTjTMpfuBmHAyBQeK7OwBVj0qTinAYQ3MPXAQIDWA2PcxSFlKg4skL+zgYI3ufcGyCobySjlUzEvXNC9U4Jb8wLrtZZ/47Pucge4WxOK+9d1I9HvgOZystwoooBgl2V1Hn3vcx33IJhWp0D7JoAYtVVkexdOb/yGutmKmXKFdMrSonMtEUBCzM9s7ZFW2rn+G0a7fY7CgIOgrwj4I+9256gVdcgnEeAoB+OoOM9P1T1L9+KJ0CIArkyVYshJEAgv4JYNMrggJE6AQS+GOJ26H8XU44GUOUo6UN8T/4NwR/h4WA6SG5Spy5wVC+tFqgjs9MCz5+JLJXMFHUpyL+BTABZNrkEf7jkJoOKYoDw8Nfvw9D+3VDIdrANNRKnbJbkh0CSlf10jhgFH6PxTXf0AhEtKY26CWZYHwQvhy8j8rcAVjGhpnXSx+J2aiwFVrycFOmbYh8EwXC5XpXmn1J8DkvkD6BzQGlk5ZNOdyCbzaKiopxV7erhuG/JNIUd3l6VeFwA+HQ2y3/Sb0nrR0+6o4PPj1VyWQcI1L7B49O+nVoSI0tCd/yWv1eMmNdIDVgCZnKypUvDwJgVURJNSPCoO1oScCZzBJkLTLCFNXssqOQsL3VlBiLBxf3QXTU7YToBiHXuDH5H7jvmkHbPG0DQGL+VkEmCVL5cbFV3CC3itzbsLQII7lLeBlOkKmFeCnQXlZf30NS4116Nx810bWBs77Cavb0PxZTnk9IgeFNDnb+dI838K/m8GCAIwb49FkG+MwCBqCy7BREDJGAQjSBDEhYhDqUwoMlrzkZyWX2WxD4cAmuUYq5u8aTA4yk6kB498ps+or1xDLons+qO1jNKISIEDAqI5QRIoOYzAX0Q1DA9AUK2GQ9+9V6MGNQDUQ5vJJssrX+mOMzJ97KGAy2lN02XaDTGoaRtg0QVHiAIx0C/vVUETZ2MIm94B4MRGi/34wUSQgEEzeygAAIzJA1A8/GTTnT2GJSNlBxoo4gXEoL8F4AtW7bg3XffxXXTr8OIi4bZejZV1pvVpjGObqH1zeWyWLVqNTPWiRMnIhaNIZfOYP26dchkMpg48QpEZLp04Wgo7jNrXqM55AjhutmPdE6mNuPxONKZDAsJfE/zBTQ3N6MsVcZmx5gEJ8qPhNqmEDP6NzHteCGKTGs7zp49i+bGZpw5cxodHWns278PEy6fgOrqrkin00glUiL5TTQCytSKWASVFZVIppLs/CyWOodsRoDkZJJi4oXGh2N8tE1mJkT9s2bPdKptgCC0RsoHReyLAjpiT5zn0WJmHlerc6DdDRBsDYfYs2LwY8E0D+FK/L60BkEABEEgS2rmlBYjQFI2NX8TQNC1ZrbzrrepS9+5vzxACJtc768EBZQYxrkDhD8/j7uum4GR/Qcix9dOhpsQcYoCx88cx75jB9GRyyEnxSYLw0oq7WXr6fzy2YdYuhMLZz3J+PV7ajrkIurAn1E6LVTs0iKJknTGoUsajaC6WzUG9huIruVdEU3nkWDv2gIDBE9DrGHyOkDIJgpoyCgTQzMe+uq9GDagBmBQQKoKUeyG0ouqx2mj9Fpd/3kH3xddDWqDBeeld7Ym/KfsMXjhNHX52R5pu7Yr2iX2wkEt5Oarn+nMQRJ1bbSGDJTS38CAHnks0myipFOrc3cUg/I1EJyqePLSyVFmeBCaL+X0l8ujoaEBbWfbkIwkhakqV8Dp+nrMn/8CqrtXY/ZtMzmZFkvNhTyisRhqe/bCmfoGtLW2IpFIIJfNYv5zz4GSiM2ZOxepVBLZ9jReffVVtLW14pZbbkUylWKNSpfqrjzO1mZKaCaAS0e+nds5cuQItm/fLhh7Ls9MmRh8v/79MPGKiSirKOcxnjh+Ek8//TTGjfsUhg8fjm7duvE377zzDpoaGxlAEKMnLUgimcDkiZNQUVaGJ/78GI4dOYazDWfRo7YWQ4YPxaiLRuKVV17G/n37UNu9l9CWxaJoLQitxwMPPYiLLrwQhw4exAdr1qK8PMnrkc1kGKBcculY7Nu7F3v270eXGso8CrQ0NaFnr54Yd/llyLHyQt8X5ThkGx9sRiqQvg5Q3aKJ+q2uQzHdH+so+F4/NTbn3XImSuocQKBxCbOJt9+NW8tmngtNQgGNYtOMbn7UwZGlOeD7bztumopXlwqBtumd5qT4CZkY/Gjhf3YTxDkDhEf/NB/3XD8To+oGgWyenACIVehAS74VKzauwNqtq5GIJxBjtahynCPKKdWefClIRe8jtsvdEAV9gpgYxG1TRYsE79FvYHFcuBDmIsi7VLKlD4LMMMWq3zwoe2GMaw4JgFCIRjF06EW4bOwV6FVVy8UWWc3M8w02Z+rfBghAJpZDQ6YFTzz/DDspkolhSL9qRElVzjZk8nNwA4Tgffkd/LC/d9sjrUssNkh77JTDXhI781aZe8BEzgQP1yFC6XXWFLMBpkVvOwmo7YMg1dPyjKmj5ohi0Hdc8wfRIa1yVFShXKx9AnCm/jR++++/xs5tO9GlvAuH71EBlUI2j5bGVrR3tKNbbRfEk3FkpO8P3ci777oLB/cfwJrVa1DI5RCPRHBg335m6D0H9EU8mQRyeRw9epQl8wH9+zPApI2ZfvON6FHTA889+yzaWlp4IKmyJAYPGYIhQ4ZgzapVSMSTrDWg9xubGxGNx/Dww99E37790NLWildffR27d+1Crz59sGvXLky99lp8atw4PP3k0/hg9Wp24B08cCDyuQLWb1iPz3/5Plw37QaseH85etX2xKIFi3D5xCsw/vIJaG5rwtFjR/DiCy9i6jXXY+SIUWhvb8X7K5bi0LHD+OqDD6BXz15Yu3IVXlqwEHNvmYOKynLs3bcPH239CHfceQdee+011Dc2YsbMGYgWClizfBna2ltx70Nf5WRuOWmmITOmXcSHYytUbIAVWugv/Us44cn4Rd0aW7r3O4LFZ1llx7R0GXzNw2sQBGYVN8qTUjgOqnmsuiDiXB87ikGnBxZmdwllUqSw10br7m8Awe+cnJ/fn3eAkC9ERfhZIc9x+kvXvonmhm24Y8716NWtUhjglaZBMmE+UMwsld2siGvYs2WvqQhiDq5iun26eC4ulQ4Q1AWgCIvih9SipI4MAkLU1yKciv0DqCICF1SMoq0tjQ/Wb8HKD7aiX79hmDJxKvpU14owypDJmIIAhATlBiGbLKledYAQyjnRvZ7nCCzcPggBTQySzxtPulBPC1+GYnLmVM0UOZC6tAB88nxNL/ownOtBoWTKFiryYdjr5/ZBEK2I3wsiKdqyQmFVdkDN/EQmKfri+JEj+Om//ASjho3E+IsvRSadRzIaRyFbACmKSJIuxLN8bOlUd+SyWLBwAS6fOBETJkzA2TMN7AtTyObw8uKXkMtkMOv2TzMY6Ghvx5K3lrD/wdxb5vKoyD+hrq6OQfWxI0cw/9nn0LNXLSZPnoSa7t1RU1ODx/78Z0ydeh0uuugiBh+bNm3C0qVL8aUv3Y/yinKsXrUGH374IebMnovde/bgjTffxGfuvBOjRo1CW1sbfvazn2P48GGYNXMWaxMe/eEP8ek752HcuLFY8PxC9K7tjQ3rPsSIkcNx4vRJjBo9ClddPRlvv7UEmzZswuSJk3HixAnsO7wX1067DsNGXcCake2bt+Kt117HF7/4RVRWVuDjvXvx9ltvYcbMmXjzzTcRT6Vw5513MIh/45WXceDIftz91S8hVpFEhh17aQWEb5QQKjSAYNVYcJdwNt0TkfOg1KNqb7AoE1iDoFokIUfQTnEGdbZqIm1iXl6nWQEEdUw7dfM1rYpDQ6DMUvL+mRxOxT1wOiBabXgIEl5r6zAxcEGv8xPFEI712gJPuO/+Ot4uBRAoUZKoxVDCSbFYgyCYJB30M5lWvLNsMeItm/HN+2/FsP5VnNAkQiIRU0g7RplDS1wHQLyjFkr90u9P7X0tl4Fw7ZNOT/IV1bQVj2ztSQSRfNJH/+9kQgIcUC1FSvyUQBZRZEj9iSTONmXwwuvL8eqS5airG4VJl12Ffj16I042mBA3MAhAiEvbNTmY6QDBX9LR19mpZQk1SMO5dksLQh0v5R0XQdR9ECwSaCCaOkAoSpristsYFVPyh2r5bYAQYkPUOVIAoSgPQrGTogUQXIBNKlWFtGSBAzEWdmyVGoQX5j+P8RePw+Z1H+LtN99GIpZAJB9BIRtBLBFDOtrBDnuXjhuHO+/+DN5bthR9+vbFtddey6p8svfn0xm8/NLLoEij6XNmsr9Ke2srlr7/Pq/cTTfdzKaJNIXLsq25gLMNDfjVL36FmbNm4IqJl7M5oL6+Hj/+8T/jrrvuxtiLL0FHWxvefvttfLxnL+6//340nm3Es88+h5UrVuKC4Rdg/4GDKCsvR0VlBW6YNg0fffQRWlpaMOWaq/HE40/gTMMZVFVV4bvf/Q769+2Dndt24fjhY3j3naUMEGp7dcflk65AeVU5my1eWfQKXln8CirLK/H5+z+HT028HKnKciSTSXy0aTP+/Re/wohhI5BKpXD69GnOy3Lffffi9dffwPIVy9Gnbx9UVlXgxIkjGDRsML7w0NeAJN1bKj9PTymAIIhT8b2y1doW+fIFCOoEBwEINjBQf+NwZplynFuSQIF8n4I8Nh0UfhjWfeXP/doovi8KLPP8NeAtUtNRkwLSu7N6Fs1M3icndve/n0pLzDSCizBFkGcTQxyRjFcehOIwR9PsO2sy6Ox3Qfbvk3iH1o7NlCpRkhXmaDspdg4gkOq/EOXcB2fz7ViydBFiLVvw7a/MxvAB5cjnqWgGmRmIXZMeQKJZDquSm+/Wt+oGXSsSwp0AxcWwHcCCxiSTDWmhhTpad7zOFFqoTEs/ep8EQeRcNG95FFLIowKHG/N4ZekHeHvZRsQTVbj6imswvM9gEX4pbcXWtHkwxRchCECIKB8EcvrSNAj/vQCCvWt+O+gECDLLV8gbZ5k7AgME4X9gljc1gCBRg9IgsK2e0sJmC9i6aQtOHjmJGDGxfASxSAInTh3H2yvfwanT9ZgxayZuue3TqKiqZIm6rbkZ859+FocPHODUGJl0GpF8Adl4FIUYfR9FnjObku9CgZnnnXffxbZ/GuszTz6FdWs/YJNDt9ruGDp0KE6frse//uuv8NWvfh3Dhg5FtiONxx77MzsdlNtaAAAgAElEQVQK3nnHnYhH49i2bRteXLAQt916G954401MnjwZ7y9diuqabmhr78CnJoxH33798Nbbb7EG5KqrrkJd/z7Ys2snFs5fhKaGJmzfuhM9+/RAn769MHLMKBw9eQwd7R1ssqxKVbJZpKmjGUjG0KNPL/ah6GhuwdEDhzBi8HCeP2lItu3YgSOHDmHg4EEoK0ti3YfrUVnTFUNHDEEhXsCosWOQj5GCXUWC2ACBqRMtnJUqXGUwNDNIqa4MdJKE3Z/aCQsQRN8qWkX44tgMPgxTEsBUah+kw6Zg5kr36pyKdXoNtEqYTJzgSdxD5c8hBQSOslHuBvY6FjkQG1ax1L02AwTyE1IAYT1nUnQmSgoGECTCEbPxIy6ucYfZj0AH5xN8yQ0QRB4UwUNVFMP5AwitEiD0TyFXSKNQyEoXMnKmonA8PuYGfqxEKV1rIAYoXNAUQ9b+XrRoQndQkImalOuaOo7GPeacCYkAwr1rXFZYkX3YIwWaXwrN2Qo05yrx3prtePWNpUh3FHDdpBswZOAgJswk3TDckE5sJobeaYAQyrxw/k9dKQ0C0wdtEzqrQfAbtZd7i50HQRAt8QRz0lJ9FqValoSQSb7LSdEapzt7niuiRWkS6H0rhwZJQ2zBiCIeSyIeIb+eKDLtGez4aAcWLV6IpnQTrr1uKsaOuxQVXarY1EQSVHtrG9auWoMz9fV8zo4eOozXX34VMz89F92614hMnXRP8nkcPHgQO3fvwne++130698fmzZ9iP/76I/YybF//75obDyLe+75LHr06IEf/ehR1A0YyFoB+nbnrl0MEK6acjXmzbsdJ0+cxG9++zsMHTwUW7d8xOaEvXv34u6770G36mosWrwIY8eOxYYNGzBw4ECMHj0aZdUUrpnBji27cGjfQby6+FUMHzkCF48bg4suuRDtmQ707dsXvbr3xhN/eBzDhg7DuCs+hUPHjyBdyKNfv/7YunEjGk81ABkgmUiitaUFH3/8MftZkBNlr961ONvaiPrGMxgyYjC6dq/G8ItHYcCgOpY2xRMEIBSfPNaQKdkhABNRGS/Zb8jvIFtClP0mAwRV3Evp5mgIATUIkkfbR5P/pptPbDOJnqXRa6gCXzj1eiLvjaWrED3IVNS6xkFv09akFbMGtx7ZMRb5S6cG4XwCBNFbZxh+Z77xPRKfwAsOgMB5jESxpsAAoU1lUvzTc7j7+lkYNWAQaw2IItIBIRU3aRDeXroIcQYIMzF8QBny+Q6OzReag4TIk63cUNxU3AElVRy3xKIWfJO1pB1aBrVi4l1ROVF8z3dGU1Q4fN210Mt8CIAgvRvswC9tHpzBsRBFFpVIoxpn28qw4M3lePaFV3HtldfjqomTWfKikDCS4mh4VgIW18bbRWwiSMdyOJsVToqFbAse+tq9GNK/G8jEQCFOWelsRNqaT7wwE/flbWtTtnZFXPjfGiV0EAIDLPdKLiMIa7GBQV5fJ80wKKf4RxoxsT3Jiz2vLTBgIPhhwhytk8mSqDZEr+I5cogUxdfc1IQTR48jGo2zCYAUcdl0nvVwzz39HI4dP4a7Pnsnanv1FA6wUTJ5FVBWVo4etT2QSlCBMiAeiWLL5s149Ac/xPd+8H0MHDyQiTWFO9Kg1qxZg+dffAEPf+tbzPifefIZLH1vKa6bei2mXnM1nn/2WYwYMQJXXnklli9fjva2NgGpOFQxjz179qC1pQ3feuTbaG1uxRNPPoUbrrseS997HxPGj8fatR9weCVJ8wsXLURZsgzHjx1D165dUF1TgzETRuOOz96BimQXrF6xFr/6+S9R06M7xn7qEkyfOQ0rV63A8WPHOdxz9fLV6N2rDwYNH4RYKsnOjEOHDMXBvfvQerYJzQ0tOLj/IA4dPoiuXbpiylVTsGvnTmzeuglDRgzFwKGDUNG1EomKJHrW9UWPvrWWkyJ7hsgS3JaEXaRBMAAECchFRI4/9VYCu34PvL9yHmQ+/aRZUpVN1cXyqY9izFwrIlodIMUC99JhKkgklAUQdB8bXkgdhJcCCLr50V5Am7nKEEtjpkP7Xqm1IaAkwoadGoT7b78Fl1qplt0aBMU5SuyfR6bFkjvemW/8j9B5f8MGCGKfWN+vHL8jEXRQaHEZ+SCswuIXnirOpNiazxdeX/0h/vmPz+IzN8zGyP5DhKqLU/uKTTqdb8OSZYuRaP0QjxBA6J9EodAh88KT2j/Fkrp4tLTAiiPoaYI57lup/YnsKTWgYkxSi2CIblAaBKkvk/1JwMB+ENpjcQ2h3Sj5MJ+zM0KqDIkq1JO0B8ITkeKrKfd7OdqyXfHKB7vxb79/HpPHTcENk69Bri3N4MACCK7IfsVH5Ii5z3Q8h7OZFjxJACHTzABhUP9qJGQ4p6pToCfLEUdev6RmeSUsylVExB0hokiNW4PgdgjUlItSC+mkqio5i74XPD8OlzGr6oscTA0OoTrwcI6JRmTQIngxcY9qjr4aBPexU/zEBWbotXg0gjdffx1/+N3vpZYJyGcLSEQTyKZzOHHsOBKJOHr274kM1+IQcf7036iLLsJDDz+Emi7VTKMJIGzdsoUdAr/3w/+Nfv378n1NJMqRSKTw6quv4bU3X8V3/vF/cYTC4QNHsW71RnTpksJ111yNp598ClWVVZg69RoOa6QcBrF4gtvIZLMcLbB02VI8+OBDONt4Fn/8wx8x9uKLsWHtOowYPhy79uzBFVdeiTNnz2D4kCHo17s3niXQMXIkJl49GZVdUkglEtiz8zDWrFqHbdt2sAmjpaMZY8aOxqlTJ7F/7z4kY3GsXrmaNRmDLhiCeCKByydMQEdLK55+/EmO+ujZuzdrSC67bAIuvfQS1oCcbWrEug/WY+269Thy+DAOHj2EaCqBuXfdjtnzZiEXzWpJXqWQYdVKUzZ+vUiS8x6psFvbwdGHjGjZQAM5yypQy3SWkqFJlb3yH5BCUKBAL9fQnCzcgsUOR2A/cyW3IbM7CkYj2tET5AkhQQEbG0gJx0WTVtG9hgGQl/YJuY6T2biQrcYSqsWwowlfvsOuxSBMKaJvpx7Hvx91zy17SeksUralRaqZnNqV887rhYjsEshUEi31c/b9FwxCcgkhxOVjKkJPxhcQHY3FBEBIxbFs/Wq89OJTxdUcW/OFwmurN+LHf3wWd14/G6MGDOFYaFEURjg4nMq14Z0Vi5Fo2YhHvjIDw/ungEK7iLMlTUNeAQQaHcXrqygGtSmKSNPuCYBA/xWQcQAEUqFa0pis6e3k+Zp/gH5oCjEIJu46BLxI9HNThkf9Xed3pBURTIfGq9qmFc2yVJItpJAu1GDhmj34xW/n45oJ12DaJAIIZE+NMqFVHve6illdGK7Hzcc3agQIA/tXI6kBBNoHyj3hYMDFPsLnfCIFwbBzQIgG9V5F3Cvvu8wB4cZkwvtf7kRRuJOunpStK4DgcoSSpEjuqf/l5pE6IiEkOAj2qZjpOQIElyLBEd0iLq0gpg0Np3H86DGRBKhAfgNx7ptMDM889QyqunbBzFtmcmgtpdsuxEQF1WRZOQbW1SEZj/P5SkRi2EoahB8+iv/zw++hd5/eaG5q4bK4uVwBv/nNb5FDBt/8H99EWTKFRLQSL85fhLJUBFdPnoQnn3gKmXQGTc1NOHToEDss0s4RZO/StStrFw4fOoRvPfIIjh8/jhdeeB5Tr74W7y95B+PGjsUH69dhxEWjcLL+JMoTSWTa2rBu/Xr06tcHIy8ezWf8wlGj8OHGLRgxfBTeeP0tTLlqIiZcPh47tu/E3o/3CrMcgDdfex19+/fFmEsvRjYnch1cNWky1qxajQWLFmLipCvRo2dPNDc3obm5BXPnzsXq1auwfccONneQI+X6DzcgUVmOr337YVTVVAAJcqRWukU/gFAMskWhKZFcKsijGC4DupDRNEpzII6JtPszQCiEMjHYUMD2RbDHToxc+5cx8ktvQWpBHVE6TqO9Gqs1X5dDokNrqACGZN/OOx5khel0ZpnWF7LdRLGmHVTNUWoQ0hKUSJpF7uYCKAXbP+cIVAIt/3GJE2armZxAyv/7MG+Qo7G1Q4pHcfCgAmQCVQr+oyq/EkCQxkeK2OeChxGqwsgAIZeKY2lQgDBywGCWaNhJhgFCAfUMEF5CvGWDAAgDUkCeAIJwUiyQBoGdAYVnqw0QlFRv2wIJIERBJgqqEEkxXYqtU8IBwZCEzU3lU5ALwj4A9B+1qTZPqZDJrmIGCFz5S9qZnJKxGpv78LCVRjr6kHaEAIKC8nkBEJBCLtIdL67ag5/++jlMvcwFEErUIaCm/ACC0iBYxOIvDhA85A+FStVhdBFB/SsRzeLSIBguqpCcmDsbMik6L57EHkX3SW0PEysLPnv7Hyj65GYJXgDBSTJd3WsqYLcNVg3FXgVpSsnlOEERWw8iMc4kmMvkkOnI4Kc//RlLynd99g7OQ0AhitFEjEMYY4kEOjo6rIJplAfho81bWYPw6KOPMmj7xS9/iQN7DyISS6CiohJf/Mq9GDv+YsTIRygTw+IFr2Lzpg8wdPBgbN28DePHj8ekSZO4XZYSKRsjnd9oFMuXL8Phw4fx4EMP4cONG/Hhpo343N33YPGChZhy5ZV4c8kSVNfWYMf27chm0ihkMti2fTu69eiOumFD+L6Ovmg0EskIJl4xGT/+51/h8okXYebMmVixfA3eW/IunwjK/vjh+g3o1bsn6gb35z2kJEy3z5vHwOX1N17HV7/2dXTtWo1du3bjrTeXYPbsuXjr7beRSERwxx23MRNf9PJL2HVoH77y4NeRi+XYT8rN2x0OzVbYrp3WWt9dUcuC9sibwThOmWrP5Zps/toF9+keSHZ2vgCCoKbORyTNF48yGZoZlPhShSDb4omm6ZVmQScwF70q0sCtuDR2bnEskP1GDvIvBRCEz5E57b6ZANmzcvAZrsLrSvYWBhG43v0rAwhUeyEiAcJixFs34JH7b7YBAiciIYBAjoC22UAABCG5i82Xh5JsR0iikOuKVxavwMGDezFz1o0oLy9HIl6OZctWorWlCZOvmoREWRRlZQVUdaGIiQgaG9LIZglEULt0lXLIFzIs1VdUJNClqszgbBJBU2Mazc1n0btPD3YgFDdDbSb96c6RQBeAsKc62VZQD/ebi+SRRRK5SA8sXL0XP/31fFw74WqhQWjvsJIgqR7CahAoUdLgATUo5NMi1QSnknUif3HtdZu9maGHPYdODULx1/9PfRB8ck0US2ylIxlMhMsEEHQwYdIQCPnEJg6ORL6skHGSQxk8zJU6yVeAwOLBAwdxaP8hNDQ04uWXX8HkKZNxx923CfMCZzKNIJvLciIkZuIsMZCJgQDCFnz/+9/HPz36KHr37o3du/egpbkdiWQKPWt7oXuvakSTZMbIIx6pwPynX8CrryxAl6pKnK5vxF13341bb72VtQdk6jl04CCOHDzC0RGU6+DCCy/EtJtvxMLFi9GtezXmzJmDjevWcybIFStX4Jrrr8UVEycim06jubEBTzz2OEaNHo3JU6/mVMzpTAe5NCARq8QPfvBTXHHFGNx403RksjkeU57SJ+fy+NlPf4qx4y/F1JunsgaBxIjyeBKbNmzA8/NfwOxZc9ClazU+3rMPH320HXfeeTfeeP0NnDx1BDNm3MiOlctWr0R7IYf7H/w60sggEjMkGdK2QwE6k28P658kg/ADCOosicgIeTtVki3Pc6skPjtSwL5fsn6H9IwNayq0AIDBlKbfYTFubz8dBTCKgIRE5DrEcQACLfJBz55onkc46f4vBRAkzBFmCr8hamH4OtV0z9d2t3PSjDB0uvMAQTrPn18NggIILZYG4VtfuRkjSINQaJXmAQIISQkQ6MCJWF6SvAVIkNI3w0hSjVbi1LEMfvTor9Ha2oxhwwehR201qipqsH7DFnS0t2Lg4L7oVluBQUNqMWH8FTh54ixefP51VFRUo6y8UpgxuJ8sGpsa0bdvLWbNupbNFkcOH0Nra7t0Oyfiexwff7wLEy4by0CEHjIB1HSvQu/evThznFMQ5qILNkAg8wSfEYGhiVkTQMgUqrFozQH84ncv4urxUzBt0rUotJFfhqh22XmA8AUMrqtBIdfxVwoQimsxmAjSeYti0LiyDuv0S2WV6nXftBLET6kdBZGUxNpgYvAitsXaAQnmDHoQRWgF5FRgWeYyyObwzpJ38cZrb3LIX13dIHx63i0YNLROucCw/4EONBVAIF8XsuE/+/TT+LsvfB49e9Zy9tP/v70vAdqzqtJ8vuVfkpAQgUA2AsKfsAoBElYTGjXsIEgQHGscHHXa0a4py5FZqmacpWaq7Gqnamq6bccexemeBhuxISxig7KJkEA2IGwCEhJCQMhO/j//9n3f1Dnnnru87323f4nY3R9FAt/3vnc599xznnu2q3VJCOi26c4FjHIp5wZ6sPrxp9HpDGLx4tPx8KOPYdbhR+Dc886VuIMRqqtwH1Y/vppdHpSNcM2117BF4+n169C3sI+/o6qLd915J46cfSSuv/EGHL1gPrsKKAXz4UcexvwFC3Dy6aeyFYLui2jQPS6jwN/esQqLFi3E4iWnM9DmfUX9Dg3hnrtW4biFx+P0sxdLujC5XjrAq79+Bb944EEs7DsJvb1T8d6776K/fwCXXHIJ1q9fj61bt+DEE09gU/zmN9/E1A/NwGXXXg2C8VQNNfnRFEA95Uoan/+U4QU19VsLQvIsruvtyrlr0K4FDGbhM/WL9ZfLGBiQeH5/TZ0p6eGIzDVtQfDjiBxA8Dk0rq4E+BjaFLhPXHC2Bh/7sQhF2jZfXZID7OC4GOzONxbrnHFlAISUOLK+BwcQqq5tNYBgDpF0yODsOqoLpC4GUs9jcDEsmncsCxPZSAIQdrX34+En70Vz/0Z8/cuXY+G8LqBzQOIU2BSjAIF2vAKEpqlBYAL8SGW2u7FrRwd33P5TOh/g8MNm4fU3XsWVV30ML734G+x/f4hPQU+vewzX3XAZZs+ZgUNnzMbzz23BbX99Fy6/4mrMmz8XtRr1O8L3E2x69iVse2sLvvillei0u7DpuV9jx47d7FslVf3O23vw+uZfY8mS000ZWaDZXUffwjk4+eRFfJ2ynj6FdcmC0DDRsqTqibBO0JCwHul0Yag9A/c+vQ3f+cEqXLh0GS4mC8LAMAOJVHFg/9RS4GL42lf/oQEEE5wVzWKQuhcBKreRJirITUHZuPx2+DSxW12UtysNnmlBMEanWBdsf/J+ELN00rViOrdVRlXmSIDmyNAoBgYOcDtTeqegZ0o3RxLpGO1YPdSpIIFO+nSB0vRDe8W4xvSiLAax3lGqH4FacpPV2l0YGqDAvRH0Tu3GwOABTp1sNiXAmPY6ZTIc6B/i/yZA3dPTyzQcGR1hCxzFTVCVxoH+/eid2oue3l7eK1zZsdXBwOAAGl1NNHu7IHV/agwQSC709+9HszGVAwlbzRGeL42S7pSg9E1KY2z2kiwRglK2D929MDw0gunTZqJRb7J1ob//ffT0dIFuv2w0ejBt6iFyz8TwEAZaI6hP6UG93UJ3RJGJXEuAABOA5z/O1hs+6CQURYIZ5VZFszBqPih9eZs2LjEHBh4kYhBKVqOP6C8BlR5zmlotkgngM66r3xBT33LEUytmrKiUkZuGstpa0jLjg1w73Kx9m6GPBSBQkGJxDIINUrRpKEkwmA9Gwl/F3ZCkj5CRd2NhY35wpz5cNV6hGkBwAbhhDII5E1Hl1SoxCJTFsHDuMXyBmPhfaPo17K0dwIO/vAuN/Rtw87+8Agvnk0AhgDBqrh2lyGdjvucgRfqQkCKQoBkEVDe2By9sehOPPbIGn/70P8HQgTZWr16DE07sw513/gQrr78Wxx3Xh589cC9OPvV4nHTK8Qwqnt34G/yPP/ke5s49GlOm9LJPkwROqz2Mt7e/h9mzZ+Hr3/hDTJ0yDW9sfhPPPvMiX1ZD4mfrlh3YuvV1nLnkNEyd0ssBdtNnTMW5552G2bOPsAVJaMP4wSa8idh6QADBFVyhanUMEDozcM9Tb+K7t9yLP1i6HB87+3zURqRUr19MMrkpimIQ/n4BBDVhCkfEgoXCGITYHgszUMLAYpEuatZPRmUnszGolLL/CRWA+0VUiPgO/U9MlrFoMM+p75ihtR9MJNrXiM8wtkZ4xSsWxjrJZBGp5UDkb/gxAl6yYel5A8wTAVMmF8k4giW+Rlx+Xk68VsS0YSNG4KmP2fYvFJBobQmg0wufdXASpNqRzIuWRE7LS3LgIJnQpsJfJrNJL7HS0rxBZKcz7jghrL5hq7kFCKnalwgoAURqBwzX0AWf+ad2XR3mU/qBy1w7gJCVY2N5Qi/v0nW3YM63e8UD30J+MdkVJtW8apBikkfD/9cL0VTJmyA+G4TomCzmVhGXTBwg2D2g9KN10kwG36ubZOPcQMm0PMgFCEPiDrBZDOZmV85iC/ZyOUtIZMPJPnIJb8HhoFJcqmncyhhDeqF7NmqqDhCMjKQsBmtBGA9AmHOMCbY2W64G7KkN4cHH/hbN/vUMEPrmk+JXCwI9R6hfYgNU+FAktVQx1CJI9P9daI9OQ6fVi9d/sx0/f/AhXHrppZg9ezZefvkFnHHGYvT3D+OJJx/DWWefhiNmHYq3tr2LN15/Fy89vw0LF56EQ6ZTRTkqKDLK9zy9/fZv8d57b+Gc807FrCOPxL69+7F1C0Vkj3Ce+fZt+/DKqy/hnHPP4NvuOp0R9EzpwnHHz8GcuUeg0ZAKiFK0SYSNxCAYgMAOA0qtoXlSNHkdI5TFgOm4Z802/Pkt9+Gipctw0dLzURul50Rw/oN0MXiCwDF+aOaVdFK3AfjkxHbxsJyr0SquqqVuKFVQvI00FZfVeaCU0/5OUVD2zJasX2AgjNGA5hrgolOB/E6ncB4/57GbDakC3kbgZAAEflE1sMbDmGp/Zs6x+hGGYOLNYyEbFypUGqUwnS0j6NQpfQUoMfWTWF8C1gyuCSDQqqRTjHlvGYAQjs2uTlozKC2EUezvkvosSIp7dRrbDDoJ8jyLkd4DYkCeM7/T9fZUe0LuCIlxQRL4J4blXgrGk+3PptozuTEIGawYW/Us9SIyjfoJAxWzwE9sEWwAZeJHLgyna2T3gJtvtsorGQio+79DrqmYBWEh6uzhdbFZmsXAh1V7F4duuDL3b2SyoYiJDP9A0X5LtppnWZB+3BtjBwgSSycuhgkBCIaQBBBAFgQHEI6fT3epDtha3BSgSEpVdqcyHwkG34JAFoUuoDUN770zij//s9swd96HcMyx8zmoitKyqITm+3tHcNfdd+Diyy7EmWedzIBh7+5hbHp2K6b0TMMJJy7kGAI+j5IfkxQ8BjHa2oN58+dwOtaBA0NywGk3sH7tK3jr7a24/PI/4NvraHxU4GnO3Bk4a8mpmD6DYhp8SWyEPZ9UBDRQYIx8mnw75Ein2wCE7QIQzv4oLlryjwDBbj1TlEZ2UXGgWBZAkIyVtGTUsFEBCBL97ftI+Y3Y5vVqLdgAtWC36jlUZ+L6TitpKexF3ehpSwGCYEQBnfQRCsQBQigs/Ll6SjALpxiT9mQDhHwxacapcRxs/TAAgSeeHvzBAwjJAGRdDQPiWBaY1Qkqn1I2BxWLolDobNXm00WPBCnDQT7xVPAwuGRAYk7orGT8IMVITr7gyvLqXeMtFCBYPi05R94VynPeO7ZujJm8KsisQnEBSSLyIY9k7NBppwHC6R8mgCC1GqyLyv6XsSD4ha9SfFmQ9VSwjjElL6+Mza3hgw/KCNP2P5AAYVenH794/C40+9exBcEBhFG5jpiCD212AbkdSLSTMiYLgmYOSEGl7VsHsOrOR/CrX27A5z6/EscsWIB1T7+AYz98NA499DDs3jmMv/j+n+Kzn7sGJ51yDAcS7t0zgO9990cYHOjgpBM/wpuX/KG0t+kmvGnTG1hx2WL09nZh565d/N3gAPD0mufw4ouvcKDU+Rcs5YjszZtfw6YXnsU1n1qBvr75aHZRjQSBNsLfChDob/GB18htYny7IUB4G9+55T4sO+tcrDh3OWrDAiQ+GC6GotNvmuN1Y2cFzvgBTsz6xjQdCkohlQtS9JWu2TJeB7ZATLRQEvFWOA961VlnpG0tMKM53pmb1fbhLsKxY/cEi+xrPf3k0dE4pRIWBGuGLQQIPm0Y30fFUJaKYsjBlpDJtSBky0bxwOtHYiV+nwGCnuLJ708hjs4iJJJB5ip/JtcqaakoByws7UyaY2DGV4AQwTn2tJ5bzCe5chJHoPziAEIpFGO2henZ36/+plSe9P7ObX3cAGEfvmAqKWYBhKyDhngLnDTJM+2Xp1DMsmD4phpLCJepy8EcRD6QAGFnaz8eemIVGv1r8W++cgWOm0sWhP0SkMjFjRpeqWUqfkSCgwoiEUhQFwNZEHqw5fU92PrGHrz84macctoCnPaR0/C9/30bDjmkG5/7pzdhYH8T3/wvN+Nr3/gCFp04lzMWhoZG8cZv3sWe3eTW6GazJQVLtTtNvPT8Zmx85in8x//6JRx22OEYHBjBjh37sPqJ5/D4Y2vx1T/6Q456vv/+B7gE7PBwPz6yeCGWLV+CaYcQsNFTBKE0VzNBTgQKECTgkf2nbEHowjAOwT1r3sF3bvkpLjjzHFx83oWoDVHp6Q9KkOIHASDEd4QfxMcuBj6VxO6uT5bfFvQlFgKR1KqM2XZlTJvZFgS9VMaGUTnllpD59gRXIBlYNmoMgpbKVXO3fi/2rkgMggEI/FM2QMgcgo0sV5CQfnIiXAyu1eR6+q4041rwFBYV94pdtf5BsSDwdU6BBSEbIMjq5AEEn0oU1lztRCrgm/o3MTUKUPkuhgiYZ37N2F8ejAne9Ns27pOY/SFTj2VUOxVLhjd/Ww/CnJ4zRVH68FCkiNMWhHEABNOZkxfVx5M53gB8RNavYsACWyqp6OQEHMEAACAASURBVJfvXvMOWn4lRZY2FscZaxkXSpoUF0MNO0f34aEn7/YAAkXw7AfqEvRFVeSp4IsxLBqAQDUPKJhRudsELbanAK0Z+MmP78cxx8/E0qVn4s2tO/Gz++/HdZ/6LEaHevGf/9u/x7/+t1/EwkVzpXQzf8hdUeMqjwcOUAYD1bBv4JePbOTiLF/5Vzei1pqChx5ag+c3vYyuxiHYvHkLvvmfbmYrxhO/WofHH/8VLvjoEiw5+wQcfuQ0zJjRCw5cs+lwEn/gdiSNmb6ja2OlCiQDBHRjuDMN96z5bQQgyF4JcKm/eXKzGPrBdRB+H9McrYnZWGMihZLsaSkhTPJiEGIKxgbJ2RO04bwUQEjUQlABZy6hydrckpmTLvQUe74UQDASVDODXC37PIBQAuDpZTrszogrpIkECBQ34JQHt5zgc6NAzdApBsFaED3iHTyAEANdztpCAIF5jx+TWCRrRUu4GCilNDxhZlt7jKov0nUhRbhSql7WpJUUmRFN4bhyx0/mqLz0XtoDmTE/6TscQoCR7c5IFqCi9yQzo1qMQRHRGKS1m8DoTPyCKim+vM9WUkxaEBygi7sq/b7Sh4qJAwt5dSzKxyt00CAlnwIIhg+NwVOzdIoBAlVSpCwG5FdSlMuansG3f/gT3LDiSiyct4CLuNBHKv7VsbPVzwChvn8tbv7KCvTNpwPfkNGCxMxSO0A+SlhdFM/FwAadJlrDM3D7j/4Ox/XNwLnnL+VMhb17BrFl80689spbeOzJ+3Dzv/sS5h89x6ZaUmcUFb192w48/ssN2Lt7P2q1LhaMZ5z1ESxZchIGB9t49ZXNmD59JkaGuvHN//DfsWz5eRyceMaZi3HE4Udg48b1eG7TczhzySJcctlF6O4iN4grSSmnWwIFYkGQv8l1YAAOKHipC0Poxd1rduBPb/kZlp15vnExkKVBToO++Ait5HoCFvE60uxg7/AB3Hrn3wCj/fjaV6hQ0kwqL8d6hC/riQbwOWEWP0lULzDKPeXoRfndRT7HA8z0MByvHiYCzG1NPjFRPpyJ3g8FRDrNUSwIzs8QyxwITwR+i0Qz+lVOankmRVaFWb4Wr8kyAEGDEP0cfLdXzH/xgAKuKZKVli94RRJKQeVIllqR4D6v7wx6+AcdDSyUt0TRhnwe9iYun/Tx15xpzPj9adJMNBsjPn0/1kRWMCtIkX6NKXEfSIklSU/AemkYv2kClV02iq8wtN10+/pUZmBpxqpyJooBCG5MEmAqbFgEEASW5D3J5Zxz+D7Zg8QbONCXNwKZbyirmBbGElI+UiKf7dU6jaFD8dDd6/Hea/246VPX4rTj+tAY0RHK3+6Q5tapTNEp94w/4yL6l9qunkjJAJiZlgXhgzBr1ZuXMjGdb/WgpAcd4oyUBUFLLXcEIKx/Gvetui19F4Pe5vjtH96BGy6+En1z52O03bJXQtY7BBAG8NCT9xiA8HH0zSfkTSfvckQRSeQEBWUyvP7aTsz4EHDUUR9i0/3+fR2sX/cSdr73PuZ/eCbOOKuPK7GxiNF7Gci0P1THvt2jaI1IaeaeKW0cMqOHaj6Yjwxq53sH8MtH12LB0cdi3vyjcPgRM9DV3cXxCbt37UdXzwg+dNjU1ARsVpbnbpCHxMVA6VNkMRmq9WDVU7vwv77/ABdK+sQ5y2wMghtJ+mZEs4VsIFerUcPu4QHcetcd6Iy8j6//0T/HMfNmotYaYWag0s40ozTSdKlK6XUwG6Ts+pgBuxiEfOZVwWEFQIKKYi3PLi+adDG0LECIbMKkpLX3PEinFiCou4FWSrR2hDldipaadLWN5MNyyi0mYBIg2ECwpH7iOywywwxsSpiMI9si4I/TRZRr3ZJwFnmnE1bv/vy8QjhZu5pP2C5WvXD/i7LU1DPLZAakeeV4WaCZfwsq+1mAqs0pQJCFLFSj7gCToJUZqwIC4iGNQRBQkrTQ5PGGA19pWoY8btdI+whSS3nnmzklykFH1ytfiZHMDp4oqNfA/BW5dMnNSaWZMbDKjrT7UoMseWUzyFW8w0IKUvpsje7zGZ6Bh+9aj/de7cdNKz+FU489Hk22WIUfmz4bI43XearqIe9VBzGKAVrWrsn/vnwmhOwPp0XlgKnTUoMt7Wn9hTNLNKOErQ8CMCSLwQcIXQYg3FoBILAFoc7/OoBAQYqfQN/RdOqjU7VubGHkLJ9YEiBwuiDlSNfbUv6Y7llok/Imhqyj3t1Bo+mEudzNoItFilruSBDzpT8GXYwaV5RrjRC46OYrmOV1eta7HyIWYW9+9+MRpNXqAIErKkZ2AJndVNS2mjXsHR7Ebat+gtbw3gkCCFWYVemnArboumdp2ymnmKA1eytDwQa4XFPNSgl36StmQWDLozmtUIBZumtncWGRqyejGKkUbPDaRaqj6DvJrDWzIdVlwnTSU7qKzgyJqIJYmi4HEGgO9tSbE6wWAwopoW0WxaeNTxqPS8zXxSVo2RZQdxYnlWYu2NXwkpiPSs3bjzkR+hpLZd56BmuckFN6YqtRMjOl3Mq8SORoX6Ijy54gfVnlOvahS6blzQAlCVRUBSWWBde9tlR2PG4MfKjzPkVWDqJFdm/av9TTiIFfO48ccVQVIFA/tU4PMDQDj6xah3df3Y8vXn89Tjr2WDRiAIEvE0wOIIN2EcCQGfBs9U4VWZv9bH4/BiZ2FCAIj/l7sjxAqCUuayILwgQBhEb/Onzjy5egb14D7Q6VMyaGI+p7SCt6cAstCI5MpIz0DgdX/Y3JYS6LEnO/vmE2H1eJM0Ah8PhHOudaDMlc7LS4s9kL3JW6FtTVIN9NhAVBRI0DCKMNYF9rGPf8/GfYt2s7vvqlz6Lv2FmotUe5khxVwmN6+New8RjzLAjye+nNp0rMpDAJIEt/rO8yByBYUcp5x+mNKSdzT3Cyi0Gve45t3NBELXrQtS1+TlEwas5kVB70racaZ4It8v3Z3ykINzENZ2nxo6AFFHFql/eCxjNYjss6tQUAicYZv0DInShNP6av5HTdEOLC0K6DAoOCoKmYAigSjZyEqtkhCuCMWPN1rpiN5eMKPmW0HtzYKbyglhCxiJcJDlR+cMGdXJZaUwyNFcoCBB5XAGvjpiCfSP6C2PIM3qpYhvDbtdc12cn7pnvZ87rDUlyZJliC19rGdWwfLLQghJbLpKvU7nVZBmc98OwedrQZ/JXeXQVcxYfWXgzvn4JH716H998cwhdW3oC++fPQiPTBR1fWF+Xopb2HaYZ2gt7gkvxQtBvK/Z7tAhFeNWH0cpuut34fCIBQH9iAm798OfrmdqPd2QdQ8B6BBF4Ac5qPBUslXAyOVFSlUGMVHPL206dDJeOBCFuESXdiTDBIYGHaFkqL6z/vgljMVTgmo2F8ACGTJQz4oVEQQBist7H62Q3YtHE1rrv641h+3uloQNw8nYZJyTOBRZ5qdbexRfV5GUEZjlAUX7EFwZ4AC9McExTQ4jgBQMgvlBQrtGM3iYbFJiq8OTyZAIKeGyL7RGcUlaahZ154I+CATNG6qSXvO1QCsok9w3yWBSEQbmRBiAMEsdw4mGAFGlvVWBzKCOwwYmDY2N1i8S1eIGfUeFIQne2vOFdTFLXvxuyMNwoJLM/J9fH5QW1Jy5XGDFmaFLpKHD0YXLYp2JJCqOhqbQfE6426FL5Sk7kFMPK+VIiMLyaDohxfcjw+RAzGllOoG84QU/N9kpdDhSfYJL3WAfxIWBCS8inAN5rxkKPX0hYILRltAJi1DGXRI8fqnNEvVbZtYhree7OFR+99Ckc0j8Q/u+Z6HH7IdJaZ0U8UIERnL1+aZeW/EqecuAKP77FykCD7qfBgXB0gyERkLTgGgcntLAidRgPD9Q5a3V14fMPTuO+uW3HDVZfg8ytX2ntMapkxCJ6LYVe7Hw+v+SkO7HwG/+LGC3DuKYeh3nwfqA9KAJ89pRvFmzR3ZgKENHHE19fkWxvjZheatAIFLVGbc1Y21z2ne/IiW5mGcrHURAKETCFhCiVQtxSDMNJdw6tvbcWD99+J009agM+svALTp/UcdIAgUjwSN+FbGIz1gMW+DxC8LAbZZNlBfsmI57wshhRA4CBFMrVJnTS2xRiNKKf35EkhHfrH21lPmnLESLGHkcsBSteH/D5IYJj6m1K2KXGCtbUB/D5ihq6IhSgmOmyMQ2LM0o9EvRuVbF+P6SpRxmEPRVaVmFUjTTnXpqyzFBzK+vi/8VqWAAh+W7yWRg5mub2yRbBwkOgEqsRp7gVhF4OppmpT9hJm9LyJ+ydojS4PUVswJA+ymO/1G4EMyqJqTdBfgyGUcNGJW1i4w/5pAt98cODzea5DQ+VC7Hye5M8AOrvps8TNEd/JtaMiSbXRaXhh7XasfeQZLF/8UVx70ZXoZjqPxKsblgIIdtbBvsg60SfLuJd3QWVzY94vRCO9xMxauzMtCM4BYWMQKEWS/jEAgeV8nS5rAkZ6mniCAMKq23BjWYDApyO+Ua2OgdoIXtr8HNat/SkO7d6Dz1y1FGcvmYNpUwZR4zsZ9GpnAxASM80MUEltMmVccQvEF0dz4xUcyPbWTR4KPXrWf84fmHcCsKcBuYyX+7YNKffS1bwEXGoYrTUwhB6sWr0Lf3bLg1h+1jIOUqwPU5EoczqjkqCZRn4zzxoFIVLWTh0Do8N47MlfYPMbL+LyFctx4QXnolmvoU73YlFZaZOOJYxiVIDxWca7KZBgMW40m9q/4NoKYO5ST6fqV05aKbw+yfeXdVr2JAIXSpLqLREREmvAnPhMGwoKGDZ4/uSAd+ywNFJcz9l5iss7ICasCNyPraOUyFjxzMBqAgysCknzq3ecLLdihnciAthTzYXyKjSZx0WTP252jHFKsDsNSrxCtnSXkZra9QkmFRY2a25N8O6OhuSIsmjj82cxwFG16GiowdYclKilsjnnvM4WBb6ESvd0BUWmPOLAZz6viYKWvsTsTgCOrEKyx3iLeHFeUZBQoHvaLb+gVujqi70aAO6Cio0KMMrxsM+pGW8YGcdSmtwKlDLfqaM20oN33tiDpx97Hl0jvbju0muwaE4fGm0CGgYgVB1ElG5hjE1MF4mFwQMWY9P9Fd7qsE62Pf4uAQLNnIw5zbaknQ60D2DTq+vw7PpH0GzvxMrLF2HF8oWYPnXYyQg6NXr3ENjtGDsVsLnDV0U+01BNBQIJ3scuety0R5Uc+ZcAjvpxCoH4NMGKCoG1Tf07nV5X71Cth27QZU2tWhOD6MHdq3fiOz94AMuWLMeKc5ahMdISIUNK35guYzNU4RgW2Qbe2L0Nf/f4g+iMDuLySz6OsxafgilT6WrtITTJ5Gxu5VNTdl4FPZXNFbjPKBW+oirKhNa1oDER0fsMzKupOAD5PgAcNpZBrAApAW9CCcIThlE7jJRcURluN1CacXBhoQGNnfk1ba43uitYHl8AkuXEcmGNqOUkksREeHM1QkQEuiobT4LlmKJja6dvBnNlWRZKxeJTmRmNMzok9lvaVSEnfKPY+UZAVVNZXObFXGdkTPANmoYzlEZRZUUhhBHBb+MPtI1C5RCmOVpXIwezeQWnTCVFPzOiKKgvEFeGR7L4KybaHHcotCJie/eHePEbjvKFExbKBPEZDvTkBSr5t5sqeMnrTfeI9Fc8LifSk6YsO2Bx43Wa6KpNQXu4iXde341nnnweA7sHcfGyFTj7tKXoQQ9qbbo+PZ4iqweqMimOUaWTGF4q44F/L55vJVmc8TDFpeknOwYhZkEwhZImzoJQR4P+oVQ7MoM3Otjb6sdv392C9WsfwsiuF3HZhYtw5YpTMPNQSheUK5iNPPSmF5ZjDTdGXNl3Ol1pgGBfjAl+mrwEO6bdElnHWLV6JFdCnw/f4zvIeVx1tGoNDKIb9z25E9/94QNYvvQ8fPzsC9AcMYVOCgGCOTIl/LkH6qN4ZfvrWL1hDVrtEZxy4iKcs/g0zD1qJnqniEho1qmuONDimASNdo9KzpBlC/i3RbWvWGGKyTzGhIF/lDYkCcGsdtnQE6d93MUQr1nuSja7Tegjd42UZmOxGUvRmVZaCv29RcI/EH6mo1Q/ijf9Ox8UIPjBlIUn0fwgRWqSrS7exy/vLaf2dCd+YhSDWK+8tNSHUMDkM4Cq7zBQz4NEJeQePe2BzkB5pBkoOXJ6Qk6zJqLBe4UAu99CGcXkD1gj+8liQKDeBqA26P8lBsFgoqi7KWvyFNBbuMwBmSUjhXpkx0KiDLAFhspjSXtbjotB9RfvlcSGLVJrwcVOhfc+yOD8PSlTTAbUGrnP9WLcP3YhTewKtVPrtKkkDPr3DmLLa2/hjee3ojnSjTNOPQPLlp6PQ3tnoD7aMDd3TjRAMDKnYCGTsQJ0d0JWfEqJzZL7yPgAArkYKM3RuJLLuBgGuVDSs/iTH96BT5s6CFQoiXxwlOJIy0fKY7RRwxDp1K4Wdu/ajqce/Sl2vLURF56/EGcvWcwVCTt19XElYEDCqqCinjZ37MNXR/PdDgrM3HPxgympNM2GSLSYtbicJpn5Y2RYklpJt1byjY7owrqX9+G++9dg+ZLz8LGl56Mx6qLkSYHzNojN0Wxm/old9TIOClgcaQBv7XwHGzdtwNatWzG1u4mFfQuw4JgjMXPmoWg0mqbim5gka8ayIAPWjUcbMlmgJmbCd9MkcNA2wb4+VRiWRMhEjNZo5ztRfKUackTZbRIHkFlonccaPdVmiUH5PlnkOQ8s8BsZzdmljlje2bJgYiQkjqDoLJaVxZBNu7y8FVESxvKh4EBNlN5CpcdVDQqEozM1EPy5ehYb8a+7jJMQ5KRaksp8GmfC/y2m9wB8lGCtsGRy/AUBt94aJSqFpt9KbBJz7XvwXIGiYb7wE3AsZpPDgfzpiUWvcT0lx2bjquoRqcoHLyf5NLafY1xMQMsG7OqaacqkiUvkdVcLsgEK4djpsNfByOAgdry7Ezve2Yl9uwcxe/osLF+yDKcsOhFTu6aCVE6D6tPkHJbGbkHQERWePET6Wp4RgFBsxSvBrIlHygMEEVQK8Np1Y2E3dRBY75QFCD9/ehO+9cMf4/oVl+P4OfN51zEmM26YFkX4klCp1zBab3Pq3Y7fbsOzz6zBO+9uQXfT+Os0JzkhQ2OpR8psmaLbbCZREUJsWoA40TXWoArBi5SP+qA8AcnCTc5h7U4Do606OiN1XLTkQiw+4STUW2TmEvEjJ/ysj7SpwEDVLNF4lE5J9RoOjAxhyzvb8fq2N7B12xaMjg6hq6tLa4+IpOAcc2NJcEZvBxQCAOSLl/S4+GRBRZmSC2Ij0VPbF2RVybSsZaRQFa17cmRym2YJC57pLw3ICs9I0SkUWRSqcJoVMzaLwowpc2h+QZTinqgZsgZUO7IWP676zNI/Dx1FhulOq24vqJc9rSvHJlD5MKET991FObQNL5iSkSTlCu8WO8gESIqazbwF4JcN+EkztP0mrNhnUhxV7plCY6ykPVmiYFYUbEhFWacCFFLMTvYJSjmt2pzLWlFwaDavxpmQgvL0buSaCVkPsmQyDVvoqjcw67AjcdwxJ+DkDy/C3MNmcQp4o13nGDkJWM62po4fIJg5lD1PBsXcjKzXOY8TNVQCCExziTsJAAIpGqJxXUot5wYpkgVBAcJKAgiz57MJokGmbCo2RIidzM/cIv1BxZspjq+F4dYBbH97Kw4MDZrf0xQUP0m8FnaWeVoW221KTiUzu5gurEh/JK49/olLCvHJZe2WKC5mRCtBj3LLILk1DumegvmzjsLUbuMHoxruRQDBWBBkKsH1hPbCITTrbFEYGB3BwIEBHBgcxNDQEIaGh1gpc3VJjroWs5pZ8grbP3x0lC6tatBd6+H3sVODbuBmu5FbG6sI/GUN1gECspCEVoqiPUpMr9cvZ66ulw4W03nBuMvIW33BfzbwucscNMq+2IIANJtiei3zkTXK2wPpVkjQBMPNEGCOH8rEHKR5Ryq7Cci3n5zaU2XmGz4TOMTsT2GAZdC1u8iGxZmOLAQBsRQ+VhOZtQPc/OKWkBgQ8Wki/ds/zYFIAkGdZczG4QYHgvAG2eo0zHnD4J70Xs4G3pkyw8QNMUAzD+leDy0gNbaUNhsNdDdrmDl9Og6dPhPdzR50U6D4iLhhyN0qxfzI8iK3iMZOLAcHIPi7yd9cIsP8j4r9iKT1vorv/ckFCLfiM1ddgptWXu/SHB1AuB3XrbgCfQYgEPGJsHwjm7cpKDKh2WmgVaerniXNbJRcEg2xT6v/yd+SpLyT5k/F2zEy+NG6RoVaK0LWuSfTvJqNQpwyLrWjaKGJMSmf1I2eFqybhbNNkOQhJn3EqS5SQlKixbjles0EQzqBZLOkjUaTKGlTn9tYI1iZUhVBQ7Qq/tgWraUxPyZYPVh/nUe9LRkuRQo7Oe8s4eFJ9rjiUnwaKeCXFOZFalVNuX6f2WDCiW2fp30LtPaXB6aUj8vofOGl8qZgGUuyGFg+UysHW1yQUDjptzVnPVsxpNfa9GJBnstoyNz3ec1nLqxaH4yC8ASy78KQ8UmqV7Cq5oZQdU9RK7SXeAWcRhaQV0pWxKSUf1dN2IivQDSVkcqPUwVYMtVzJVgzFjcccf+mFE/h+MrOwNBKZX8gR+OKWLtmKRYMzVmHFBCY1s0rsfs6aH5UQG2EAT9ZCTg1r022bco4aaHJsk5iplgTZblPjMysHqToEzOncmhq48dprFZw4SJ5xpLJJwyvtSOgbS1Svj51NjG8b2WSpl0bHuIYBLYg0CVgakHowhMbnsJ9q3yAYMZHdRB+vvY5/PEtBBCuMgBB6tnLiccQyfSo5xqhiUO9ef7DPGNmXuWoNK/niP4irVC4cco8kHYuJ7utJEQSL1NKlRgpZMOIoHL2gfgIzUImUWpm9GDGPNVEH/k5xu526GMS6GVoLZsk7xRduOQZ5rzUmhWY/apMkdcsMT1Wk3b/lBTQJQOdXNxDITVKEj2bP8LiYuNrLuvtSkI8JTCTtI3TxP/WCd8wHih3dp4snBwqSMRBPu8bpVl5APnKPdUci6IkXfN4uAx/eyvADJyEq6Fidk/LczRzAgh8/TEDPgmglYu+0h+nwqhCbpnx5bUSJzhl5IWfdJ0RF0AfWYOk9SPZni9EKq45088DDhKkaFwMFPfW3YUnNj6F++76a3zmqkuNBUE64UJJv1gnAOFTBBCOOpq8B8aUlkPM5N4rKM0uj2cIscjXZc2rFWkVfdzvfpLFbNB/0BctoF7DavxDlcaSEJa0Ycbp7poI0o6vDd9fma1RMvsopJ/snPGNMePtoFSrRq74UYx5o7YHsMkZ29gmrEJtrAK2XK9OiKafrwQe1K1RkYR5/cdmEOyxnAvKys2+wlNkWrc36NJ7FRV/bld+W2a9S9GxLG+YxmyAdhXrl4KJ8AQuVue01S0YUSIluQK1jZgI56dYIxYPYtv2xsQWBGuHKksraUmM1qUWIa7jvHTmht5wThaEJEC4+hLcdN2nrcOeAcJD6zfhW7fcjms/fgUWzj6GL73gFKgqaIvmm6oGlxirDxxTZqhyy5X0SZd7q/gpt9jFz473CUV04XKLm0I/ahqtwhKhqdJW8jFNVmPI8c5xot6vF/JgmkLl99GEOsODKQeg017ZO1FUiSnPhJ9/wruq7mIY2xDiwYrZ4CB7h1RV9kXjrQpQitobz+/O1WlaKdwnRb0l60OIQsq4liVsLFiCMnLGAQRyHbhqqVWkXTgEcRvG3XK+C3Ii19CPB1C3lRuVziW89TjMdEiuiT//xFwYIGTF2RWtratLwdlnBjyzi8EHCKv+n8QgXHdDDCD8GNd84gosmrOA79VmDFllvfiFMszhkbC8JHeKc5JR+rj3WfFa2VoNjlmE0LGYgSyGTpPOvzeCAJ5aEKii4USeLkpMcAIfKctRCrqqdk3v2evEq76c8zyPxx6+/FogGWsxhr3gdz/W+Zef8kGyIJQfkFwpXpVuxrSatBzFYhXKDKVy/2UaLfNMlsW2iswO+vGrLMoPPLdC+la/T0G7Fbc0AYSxKz6nGMpJislYr3z3eqwiY5E8jv9ebexqaRG9bN0shQDhYtx03Y0JgLDheXzrB7cnAELOwkeYJp9IMY53mQll9oNlqjFvgHK9HBSAUGooZqIZ8419rQzEzGAWRGIYisuqlhrSwX6oouwJiyqVH2yhDCzflJNX3jveVjXfxoSZ51QbC4+PRVlWmhebCCu9MdaH06exmCeopBMyQku5rTRboWjehZM5Y1mQsc6+5HsFLt2SrbjHUocItv+XAGAlFLMvVEU42X7ZgjAZGzCTAG43jj0eId14OQ4xNOXXPbpFlU6ErpXpJHzun9vzLQh/ZSwIAUBodR7e8AK+9f3b8ckVV2DR7AVojpr8+ixtGQMILmaxFG+OlSkqGilKjcV/KC3MKzdR6oVchlJfVTmuM/35DxvpYb8qsYlLjfrgPsSn+4qni7Hy1aTOjGr7W6FYdi0qLb7Jlq34TpVJc9OTDxAy1X7O1HKhQuI9dzlQ2XUIFZqnUXMC3soo1irEt1AlCkDH0lL+O2JNkLozuYQv0XUcDFsdyXEBk8i3GSMMp3UQ+jf7x1r6vC4jF8qnRh1GXJQguwfD2DKtQYoc12Uo3qhjmIogdpvLmu6OAITBdqvz6IaX8K2/+Bt88pIrcdyseZjSqXPW1GjmnfSRAZqOy6/12DbRQVjK7PLB5dal8Cla7NLzqHC9bgB0/j4EKWYEmhXTbmxFdwoXblwP+IIyrpxS86pyYghAyLgGmv1yhSp84xtB8Qr7mjL9NLl0cszWXDuk7Id4qaoJnJRr1XeKx5NUauIWqUCroIs8M7f1jRVcOFcFZKXnx3KQ6TTxtHL8kXadFFNaUs0zP3baY6O9TdzITZoNaSsG4Wr9SbyeWBFCjVO3afSjVNaoWcfaZ9bj3lV/iRuvTroYOu3OIxtfxB//4HZc9YnLcdzsLg+0jgAAAtFJREFUo9HTpvLKHYwU3B9uE+41UcVGpZZZAnmmaiDRB/KEWH660SerLXsxJBYryPg27zinNObXk7Rg0RGzWAkUH3M/IZiamHbyJEo4hQyAMGZhr3tpsucx+RYEMYWUnUdepo4ondg+SKmjkt1VFdATwpyZjSSzGKr0Vs5dJDEIeQXoknxc0e/B+mJyAQKv/xiAbZghkkXbkowTeb3mRzhGm08ABC5GVLG/6OMGMtTqGG6PMjho9vZg/TPrcdft/ycNEPo7nc5Dz7yIb//fH2HJR87EvMOP4hr7XEshcaFiLguWSUmLEarinKtsg7E86ypGjuXtyXqn4ol4DGhzskZetV0BN/px9TGjwtlUm6vax+/i+YPC5qUV6++CAuPvsxINPVpYs64BDFJz0uOyknSrcs6dbCgloX1V0gN9+o/tVF24gmNQxHwfQ0n6F/Yf0y9Jb2vZRioxW9lGw+eqTrtdxdJiC1wl+jRXmBP7cw3eRg21riZe+80rePKRe3HDlZ/A56+70e6O2nCr01nz/Mv4n7fezsC9u9GFepsYL+9GuQhB2GKVf2qdTEYY2xKl39IYGp3JB+YcnmDYQv6tijYnioAT2Y7YIDNbLKTBRI5lnG35oKd8Pb5xdvp7+LqWFk4OvbrscBRPWaXGuKmrWBCoAuJkfgRIV4EsZjQ2rqx4fPxE4WN5rooCCvDC1CtYjKpTtHD40SaLLlNLv1QlSJ/Kj4tlNKsgeKR9VdllJ5QjHKkgH2c26D07tRpao8NoDe7GJy/9GFZecbUDCK12q3Og1cGeoWGbh6/ouvzwJ8rYW50BJuONsmswGX1PXJu/T+oze9ZjWYsP4sxDgDBxq/yPLTkKEI2VX/J4QJ6pziVV3qgiO8e2hlXgyth6KIEOxtqwfU+841UoW63LsciP/HtvY8q72pj8p8vOXJ4r+3TeeDLcmwzV2pjS1cCU7m7b0/8HcbBPrb4jOSgAAAAASUVORK5CYII=;" vertex="1" parent="1"><mxGeometry x="-590" y="330" width="866.67" height="360" as="geometry"/></mxCell></root></mxGraphModel>